<svg width="129" height="129" viewBox="0 0 129 129" fill="none" xmlns="http://www.w3.org/2000/svg">
<g clip-path="url(#clip0)">
<path d="M52.9195 17.0107C52.9195 25.0142 46.4307 31.502 38.4283 31.502C30.4248 31.502 23.936 25.0142 23.936 17.0107C23.936 9.00726 30.4248 2.51947 38.4283 2.51947C46.4307 2.51947 52.9195 9.00726 52.9195 17.0107Z" fill="#E5ECEC"/>
<path d="M105.009 17.0107C105.009 25.0142 98.5215 31.502 90.5181 31.502C82.5146 31.502 76.0269 25.0142 76.0269 17.0107C76.0269 9.00726 82.5146 2.51947 90.5181 2.51947C98.5215 2.51947 105.009 9.00726 105.009 17.0107Z" fill="#E5ECEC"/>
<path d="M99.2239 122.552L91.1909 111.801V96.0942H91.189V69.4138C91.189 59.7068 86.0043 51.2113 78.2528 46.5433C80.1592 39.4857 84.3498 34.1828 87.3024 31.1437C83.0212 30.1752 79.4594 27.3103 77.5481 23.4788C73.1842 29.3328 71.5938 37.2348 71.079 43.5504C68.9768 43.0189 66.7762 42.7345 64.5096 42.7345C62.2164 42.7345 59.9902 43.0248 57.8663 43.5681C57.3545 37.2496 55.7641 29.3377 51.3963 23.4788C49.485 27.3093 45.9232 30.1752 41.642 31.1437C44.5995 34.1888 48.799 39.5053 50.7014 46.5816C42.9854 51.2575 37.8292 59.7334 37.8292 69.4138V111.801L29.7953 122.552C28.631 124.11 30.1604 126.243 32.0097 125.64L42.0248 122.375C45.3071 121.305 48.859 121.413 52.0704 122.68L59.0621 125.44C62.5619 126.821 66.4553 126.822 69.9551 125.44L76.9487 122.68C80.1601 121.413 83.7121 121.305 86.9944 122.375L97.0095 125.64C98.8587 126.243 100.389 124.11 99.2239 122.552Z" fill="#82D764"/>
<path d="M99.876 73.8722C97.5887 71.6705 95.2729 70.4019 93.7091 69.7179V69.4138C93.7091 64.2881 92.3607 59.2442 89.8097 54.8281C87.6671 51.1197 84.7195 47.9142 81.2148 45.4646C82.9046 40.4974 85.7578 36.5665 88.2094 33.86C88.9653 33.9633 89.7339 34.0214 90.5183 34.0214C99.8976 34.0214 107.529 26.39 107.529 17.0107C107.529 7.63041 99.8976 0 90.5183 0C81.139 0 73.5076 7.63139 73.5076 17.0107C73.5076 19.1927 73.9249 21.2772 74.6758 23.1953C71.1357 28.5592 69.5492 35.1355 68.8613 40.5387C65.9618 40.1047 62.9797 40.1086 60.0862 40.5495C59.3983 35.1424 57.8118 28.5631 54.2697 23.1953C55.0206 21.2772 55.4389 19.1927 55.4389 17.0107C55.4389 7.63139 47.8075 0 38.4282 0C29.0479 0 21.4175 7.63139 21.4175 17.0107C21.4175 26.39 29.0479 34.0214 38.4282 34.0214C39.2116 34.0214 39.9812 33.9633 40.7361 33.861C43.1956 36.5754 46.0566 40.52 47.7445 45.5059C44.2546 47.9585 41.3207 51.162 39.189 54.8636C36.6517 59.2708 35.3103 64.3019 35.3103 69.4138V69.715C33.7464 70.398 31.4267 71.6676 29.1365 73.8722C25.6141 77.2617 21.4165 83.6265 21.4165 94.7035V110.486C21.4165 111.878 22.5454 113.005 23.936 113.005C25.3277 113.005 26.4555 111.878 26.4555 110.486V94.7035C26.4555 82.9169 31.7475 77.615 35.3103 75.3799V110.963L27.7783 121.044C26.5953 122.627 26.5746 124.769 27.7261 126.375C28.8776 127.981 30.9139 128.648 32.7917 128.036L42.8059 124.77C45.5242 123.885 48.4866 123.975 51.1459 125.024L58.1375 127.784C60.1925 128.595 62.3509 129 64.5092 129C66.6675 129 68.8268 128.595 70.8808 127.784L77.8745 125.024C80.5337 123.974 83.4961 123.885 86.2145 124.77L96.2286 128.036C98.1084 128.649 100.144 127.981 101.295 126.375C102.446 124.769 102.425 122.627 101.242 121.044L93.2091 110.293C92.3765 109.179 90.7978 108.95 89.6827 109.783C88.5677 110.616 88.3403 112.194 89.1729 113.31L96.2118 122.731L87.7764 119.98C83.9459 118.731 79.772 118.858 76.0242 120.338L69.0315 123.097C66.1154 124.248 62.904 124.248 59.9878 123.097L52.9952 120.338C49.2484 118.858 45.0744 118.731 41.244 119.98L32.8075 122.731L39.8474 113.31C40.1732 112.874 40.3483 112.345 40.3483 111.801V69.4138C40.3483 60.8907 44.7073 53.1599 52.007 48.736C52.9656 48.1544 53.4253 47.0097 53.1339 45.9271C51.6065 40.2444 48.7346 35.6355 45.9946 32.2548C48.0329 31.247 49.8428 29.8386 51.324 28.1114C53.9744 33.1967 54.9872 39.2366 55.3552 43.7718C55.4153 44.5119 55.7991 45.188 56.4034 45.6191C57.0077 46.0511 57.7724 46.1929 58.4919 46.0088C62.3774 45.0128 66.5632 45.0059 70.4606 45.9931C71.178 46.1742 71.9418 46.0315 72.5441 45.5994C73.1474 45.1683 73.5302 44.4932 73.5893 43.755C73.9584 39.2248 74.9721 33.1927 77.6186 28.1114C79.1007 29.8386 80.9107 31.246 82.9489 32.2548C80.2158 35.6266 77.3499 40.2218 75.8195 45.8858C75.5262 46.9723 75.9887 48.1209 76.9523 48.7016C84.2884 53.1196 88.669 60.8622 88.669 69.4138V71.3015C88.6612 71.4166 88.6612 71.5318 88.669 71.645V91.4714C88.669 92.8631 89.7969 93.9909 91.1885 93.9909C92.5792 93.9909 93.7081 92.8631 93.7081 91.4714V75.4006C97.261 77.6515 102.555 82.973 102.555 94.7025V110.485C102.555 111.877 103.684 113.004 105.074 113.004C106.466 113.004 107.594 111.877 107.594 110.485V94.7025C107.596 83.6265 103.398 77.2617 99.876 73.8722ZM26.4555 17.0107C26.4555 10.4098 31.8263 5.03904 38.4282 5.03904C45.0291 5.03904 50.3999 10.4098 50.3999 17.0107C50.3999 19.0499 49.8861 20.9701 48.9836 22.6521C48.9679 22.6826 48.9521 22.7131 48.9354 22.7436C47.4689 25.4186 45.0114 27.4756 42.0598 28.4184C40.8867 28.7885 39.6584 28.9824 38.4282 28.9824C31.8263 28.9824 26.4555 23.6126 26.4555 17.0107ZM90.5183 5.03904C97.1193 5.03904 102.49 10.4098 102.49 17.0107C102.49 23.6126 97.1202 28.9824 90.5183 28.9824C89.2871 28.9824 88.0588 28.7895 86.8857 28.4174C83.9361 27.4766 81.4785 25.4206 80.0131 22.7466C79.9944 22.7131 79.9767 22.6786 79.959 22.6452C79.0584 20.9642 78.5467 19.046 78.5467 17.0107C78.5467 10.4098 83.9174 5.03904 90.5183 5.03904Z" fill="#118C06"/>
<path d="M75.5368 68.3588C75.5368 66.9681 74.4089 65.8392 73.0173 65.8392H56.1128C54.7211 65.8392 53.5933 66.9681 53.5933 68.3588C53.5933 69.7504 54.7211 70.8783 56.1128 70.8783H73.0173C74.4089 70.8783 75.5368 69.7504 75.5368 68.3588Z" fill="black"/>
<path d="M59.9346 73.1783C58.5439 73.1783 57.415 74.3062 57.415 75.6978C57.415 77.0895 58.5439 78.2173 59.9346 78.2173H68.3238C69.7155 78.2173 70.8433 77.0895 70.8433 75.6978C70.8433 74.3062 69.7155 73.1783 68.3238 73.1783H59.9346Z" fill="black"/>
<path d="M93.5169 100.675C93.1105 99.6825 92.08 99.0477 91.0112 99.1254C89.965 99.2012 89.0585 99.9384 88.7692 100.946C88.4798 101.955 88.8676 103.073 89.7239 103.684C90.5732 104.29 91.7218 104.303 92.5908 103.73C93.5789 103.078 93.9716 101.765 93.5169 100.675Z" fill="black"/>
<rect x="30.4863" y="14.6133" width="15.873" height="4.03125" fill="black"/>
<rect x="82.3887" y="14.6133" width="15.873" height="4.03125" fill="black"/>
</g>
<defs>
<clipPath id="clip0">
<rect width="129" height="129" fill="white"/>
</clipPath>
</defs>
</svg>
