<svg width="87" height="129" viewBox="0 0 87 129" fill="none" xmlns="http://www.w3.org/2000/svg">
<path d="M31.9195 17.0107C31.9195 25.0142 25.4307 31.502 17.4283 31.502C9.42481 31.502 2.93604 25.0142 2.93604 17.0107C2.93604 9.00726 9.42481 2.51947 17.4283 2.51947C25.4307 2.51947 31.9195 9.00726 31.9195 17.0107Z" fill="#E5ECEC"/>
<path d="M84.0093 17.0107C84.0093 25.0142 77.5215 31.502 69.5181 31.502C61.5146 31.502 55.0269 25.0142 55.0269 17.0107C55.0269 9.00726 61.5146 2.51947 69.5181 2.51947C77.5215 2.51947 84.0093 9.00726 84.0093 17.0107Z" fill="#E5ECEC"/>
<path d="M78.2239 122.552L70.1909 111.801V96.0942H70.189V69.4138C70.189 59.7068 65.0043 51.2113 57.2528 46.5433C59.1592 39.4857 63.3498 34.1828 66.3024 31.1437C62.0212 30.1752 58.4594 27.3103 56.5481 23.4788C52.1842 29.3328 50.5938 37.2348 50.079 43.5504C47.9768 43.0189 45.7762 42.7345 43.5096 42.7345C41.2164 42.7345 38.9902 43.0248 36.8663 43.5681C36.3545 37.2496 34.7641 29.3377 30.3963 23.4788C28.485 27.3093 24.9232 30.1752 20.642 31.1437C23.5995 34.1888 27.799 39.5053 29.7014 46.5816C21.9854 51.2575 16.8292 59.7334 16.8292 69.4138V111.801L8.7953 122.552C7.63101 124.11 9.16044 126.243 11.0097 125.64L21.0248 122.375C24.3071 121.305 27.859 121.413 31.0704 122.68L38.0621 125.44C41.5619 126.821 45.4553 126.822 48.9551 125.44L55.9487 122.68C59.1601 121.413 62.7121 121.305 65.9944 122.375L76.0095 125.64C77.8587 126.243 79.3892 124.11 78.2239 122.552Z" fill="#82D764"/>
<path d="M78.876 73.8722C76.5887 71.6705 74.2729 70.4019 72.7091 69.7179V69.4138C72.7091 64.2881 71.3607 59.2442 68.8097 54.8281C66.6671 51.1197 63.7195 47.9142 60.2148 45.4646C61.9046 40.4974 64.7578 36.5665 67.2094 33.86C67.9653 33.9633 68.7339 34.0214 69.5183 34.0214C78.8976 34.0214 86.529 26.39 86.529 17.0107C86.529 7.63041 78.8976 0 69.5183 0C60.139 0 52.5076 7.63139 52.5076 17.0107C52.5076 19.1927 52.9249 21.2772 53.6758 23.1953C50.1357 28.5592 48.5492 35.1355 47.8613 40.5387C44.9618 40.1047 41.9797 40.1086 39.0862 40.5495C38.3983 35.1424 36.8118 28.5631 33.2697 23.1953C34.0206 21.2772 34.4389 19.1927 34.4389 17.0107C34.4389 7.63139 26.8075 0 17.4282 0C8.0479 0 0.417488 7.63139 0.417488 17.0107C0.417488 26.39 8.0479 34.0214 17.4282 34.0214C18.2116 34.0214 18.9812 33.9633 19.7361 33.861C22.1956 36.5754 25.0566 40.52 26.7445 45.5059C23.2546 47.9585 20.3207 51.162 18.189 54.8636C15.6517 59.2708 14.3103 64.3019 14.3103 69.4138V69.715C12.7464 70.398 10.4267 71.6676 8.13648 73.8722C4.61407 77.2617 0.416504 83.6265 0.416504 94.7035V110.486C0.416504 111.878 1.54537 113.005 2.93603 113.005C4.32767 113.005 5.45555 111.878 5.45555 110.486V94.7035C5.45555 82.9169 10.7475 77.615 14.3103 75.3799V110.963L6.7783 121.044C5.5953 122.627 5.57463 124.769 6.72613 126.375C7.87763 127.981 9.91392 128.648 11.7917 128.036L21.8059 124.77C24.5242 123.885 27.4866 123.975 30.1459 125.024L37.1375 127.784C39.1925 128.595 41.3509 129 43.5092 129C45.6675 129 47.8268 128.595 49.8808 127.784L56.8745 125.024C59.5337 123.974 62.4961 123.885 65.2145 124.77L75.2286 128.036C77.1084 128.649 79.1437 127.981 80.2952 126.375C81.4457 124.769 81.425 122.627 80.242 121.044L72.2091 110.293C71.3765 109.179 69.7978 108.95 68.6827 109.783C67.5677 110.616 67.3403 112.194 68.1729 113.31L75.2118 122.731L66.7764 119.98C62.9459 118.731 58.772 118.858 55.0242 120.338L48.0315 123.097C45.1154 124.248 41.904 124.248 38.9878 123.097L31.9952 120.338C28.2484 118.858 24.0744 118.731 20.244 119.98L11.8075 122.731L18.8474 113.31C19.1732 112.874 19.3483 112.345 19.3483 111.801V69.4138C19.3483 60.8907 23.7073 53.1599 31.007 48.736C31.9656 48.1544 32.4253 47.0097 32.1339 45.9271C30.6065 40.2444 27.7346 35.6355 24.9946 32.2548C27.0329 31.247 28.8428 29.8386 30.324 28.1114C32.9744 33.1967 33.9872 39.2366 34.3552 43.7718C34.4153 44.5119 34.7991 45.188 35.4034 45.6191C36.0077 46.0511 36.7724 46.1929 37.4919 46.0088C41.3774 45.0128 45.5632 45.0059 49.4606 45.9931C50.178 46.1742 50.9418 46.0315 51.5441 45.5994C52.1474 45.1683 52.5302 44.4932 52.5893 43.755C52.9584 39.2248 53.9721 33.1927 56.6186 28.1114C58.1007 29.8386 59.9107 31.246 61.9489 32.2548C59.2158 35.6266 56.3499 40.2218 54.8195 45.8858C54.5262 46.9723 54.9887 48.1209 55.9523 48.7016C63.2884 53.1196 67.669 60.8622 67.669 69.4138V71.3015C67.6612 71.4166 67.6612 71.5318 67.669 71.645V91.4714C67.669 92.8631 68.7969 93.9909 70.1885 93.9909C71.5792 93.9909 72.7081 92.8631 72.7081 91.4714V75.4006C76.261 77.6515 81.5549 82.973 81.5549 94.7025V110.485C81.5549 111.877 82.6838 113.004 84.0745 113.004C85.4661 113.004 86.594 111.877 86.594 110.485V94.7025C86.5959 83.6265 82.3984 77.2617 78.876 73.8722ZM5.45555 17.0107C5.45555 10.4098 10.8263 5.03904 17.4282 5.03904C24.0291 5.03904 29.3999 10.4098 29.3999 17.0107C29.3999 19.0499 28.8861 20.9701 27.9836 22.6521C27.9679 22.6826 27.9521 22.7131 27.9354 22.7436C26.4689 25.4186 24.0114 27.4756 21.0598 28.4184C19.8867 28.7885 18.6584 28.9824 17.4282 28.9824C10.8263 28.9824 5.45555 23.6126 5.45555 17.0107ZM69.5183 5.03904C76.1193 5.03904 81.49 10.4098 81.49 17.0107C81.49 23.6126 76.1202 28.9824 69.5183 28.9824C68.2871 28.9824 67.0588 28.7895 65.8857 28.4174C62.9361 27.4766 60.4785 25.4206 59.0131 22.7466C58.9944 22.7131 58.9767 22.6786 58.959 22.6452C58.0584 20.9642 57.5467 19.046 57.5467 17.0107C57.5467 10.4098 62.9174 5.03904 69.5183 5.03904Z" fill="#118C06"/>
<path d="M72.5169 100.675C72.1105 99.6825 71.08 99.0477 70.0112 99.1254C68.965 99.2012 68.0585 99.9384 67.7692 100.946C67.4798 101.955 67.8676 103.073 68.7239 103.684C69.5732 104.29 70.7218 104.303 71.5908 103.73C72.5789 103.078 72.9716 101.765 72.5169 100.675Z" fill="black"/>
<circle cx="17" cy="17" r="8" fill="black"/>
<circle cx="70" cy="17" r="8" fill="black"/>
<circle cx="44" cy="73" r="8" fill="black"/>
</svg>
