<svg width="1366" height="750" viewBox="0 0 1366 750" fill="none" xmlns="http://www.w3.org/2000/svg">
<rect width="1366" height="750" fill="#225584"/>
<path d="M954.227 414.305H1166.73V331.322H1001.33C991.957 331.322 982.804 334.181 975.094 339.518L938.728 364.694C931.383 369.779 927 378.144 927 387.079C927 402.116 939.189 414.305 954.227 414.305V414.305Z" fill="#E0E0DE"/>
<path d="M1166.73 386.644L1194.39 395.864V349.763L1166.73 358.983V386.644Z" fill="#FFB531"/>
<path d="M1102.19 331.322H1166.73L1185.17 276H1152.9L1102.19 331.322Z" fill="#D6D6D4"/>
<path d="M1083.75 474.237H1120.63L1092.97 414.305H1019.2L1083.75 474.237Z" fill="#3D4D63"/>
<path d="M938.728 364.694L954.938 353.475L996.153 391.254H1102.19L1134.46 358.983H1166.73V414.305H954.227C942.321 414.303 931.795 406.564 928.243 395.196C924.693 383.83 928.94 371.476 938.728 364.694Z" fill="#4C5D72"/>
<path d="M954.661 372.814H945.441V382.034H954.661V372.814Z" fill="#2A3845"/>
<path d="M973.101 386.644H963.881V395.864H973.101V386.644Z" fill="#2A3845"/>
<path d="M954.661 391.254H945.441V400.475H954.661V391.254Z" fill="#2A3845"/>
<path d="M1097.58 358.983H1060.7V368.203H1097.58V358.983Z" fill="#3D4D63"/>
<path d="M1051.47 358.983H1014.59V368.203H1051.47V358.983Z" fill="#3D4D63"/>
<path d="M1005.37 358.983H996.152V368.203H1005.37V358.983Z" fill="#3D4D63"/>
<path d="M1199 432.746H1120.63V441.966H1199V432.746Z" fill="#4DB7E5"/>
<path d="M1134.46 451.186H1088.36V460.407H1134.46V451.186Z" fill="#4DB7E5"/>
<path d="M1162.12 451.186H1143.68V460.407H1162.12V451.186Z" fill="#4DB7E5"/>
<path d="M1139.07 308.271H1074.53V317.492H1139.07V308.271Z" fill="#4DB7E5"/>
<path d="M1019.2 428.136H968.492V437.356H1019.2V428.136Z" fill="#4DB7E5"/>
<path d="M1194.39 372.814V395.864L1166.73 386.644V372.814H1194.39Z" fill="#FFA912"/>
<path d="M399.618 350.015C399.618 435.968 329.938 505.648 243.985 505.648C158.032 505.648 88.3521 435.968 88.3521 350.015C88.3521 264.062 158.032 194.382 243.985 194.382C329.938 194.382 399.618 264.062 399.618 350.015Z" fill="#A8A8A8"/>
<path d="M263.608 195.627C204.949 188.18 147.137 214.618 114.4 263.858C81.6656 313.099 79.6583 376.636 109.227 427.842C158.926 493.091 250.736 508.565 319.079 463.215C387.423 417.866 408.842 327.262 368.037 256.109C342.821 222.678 305.157 200.863 263.608 195.627V195.627Z" fill="#B9B9B9"/>
<path d="M142.034 446.599C139.272 446.583 136.974 444.474 136.722 441.725C136.468 438.976 138.341 436.484 141.051 435.963L162.599 431.922C164.52 431.477 166.529 432.119 167.834 433.599C169.139 435.077 169.53 437.153 168.849 439.003C168.167 440.853 166.527 442.181 164.575 442.462L143.027 446.502C142.699 446.565 142.366 446.599 142.034 446.599Z" fill="#A8A8A8"/>
<path d="M179.599 435.866C177.288 435.866 175.239 434.388 174.508 432.197C173.777 430.004 174.531 427.593 176.379 426.207L197.845 410.107C200.217 408.328 203.582 408.807 205.358 411.179C207.138 413.55 206.658 416.915 204.287 418.692L182.82 434.792C181.89 435.489 180.76 435.866 179.599 435.866V435.866Z" fill="#A8A8A8"/>
<path d="M219.849 293.649C219.849 309.951 206.634 323.166 190.332 323.166C174.031 323.166 160.816 309.951 160.816 293.649C160.816 277.348 174.031 264.133 190.332 264.133C206.634 264.133 219.849 277.348 219.849 293.649Z" fill="#CDCDCD"/>
<path d="M160.816 293.65C160.821 294.779 160.889 295.908 161.026 297.03C170.611 303.222 182.911 303.316 192.589 297.271C202.269 291.226 207.58 280.131 206.223 268.803C197.146 262.977 185.61 262.574 176.145 267.752C166.683 272.93 160.803 282.864 160.816 293.65Z" fill="#A8A8A8"/>
<path d="M286.932 387.566C286.697 387.566 286.458 387.55 286.225 387.519L205.725 376.785C202.843 376.335 200.846 373.664 201.231 370.774C201.616 367.881 204.242 365.827 207.14 366.146L286.309 376.704L327.982 361.071C330.759 360.033 333.851 361.443 334.889 364.22C335.927 366.998 334.517 370.09 331.739 371.128L288.806 387.228C288.206 387.451 287.572 387.566 286.932 387.566Z" fill="#CDCDCD"/>
<path d="M364.75 360.733C364.75 371.107 356.341 379.516 345.966 379.516C335.592 379.516 327.183 371.107 327.183 360.733C327.183 350.358 335.592 341.949 345.966 341.949C356.341 341.949 364.75 350.358 364.75 360.733Z" fill="#CDCDCD"/>
<path d="M324.501 280.233C324.501 289.124 317.292 296.333 308.401 296.333C299.51 296.333 292.301 289.124 292.301 280.233C292.301 271.342 299.51 264.133 308.401 264.133C317.292 264.133 324.501 271.342 324.501 280.233Z" fill="#CDCDCD"/>
<path d="M324.5 430.499C324.5 436.427 319.694 441.232 313.767 441.232C307.839 441.232 303.033 436.427 303.033 430.499C303.033 424.572 307.839 419.766 313.767 419.766C319.694 419.766 324.5 424.572 324.5 430.499Z" fill="#CDCDCD"/>
<path d="M260.1 435.866C260.1 441.793 255.294 446.599 249.367 446.599C243.439 446.599 238.633 441.793 238.633 435.866C238.633 429.938 243.439 425.132 249.367 425.132C255.294 425.132 260.1 429.938 260.1 435.866Z" fill="#939393"/>
<path d="M249.279 505.556C249.285 503.646 248.26 501.882 246.596 500.942L232.912 493.337C217.879 484.952 204.831 473.419 194.664 459.528C192.914 457.133 189.557 456.609 187.162 458.357C184.767 460.107 184.243 463.464 185.991 465.859C197.08 481 211.304 493.57 227.695 502.713L232.165 505.192C237.859 505.63 243.572 505.75 249.279 505.556V505.556Z" fill="#B6B6B6"/>
<path d="M194.671 459.533C192.92 457.138 189.563 456.614 187.168 458.362C184.773 460.113 184.249 463.469 185.997 465.864C191.681 473.624 198.211 480.725 205.461 487.043C208.168 487.528 210.899 487.952 213.658 488.308C217.903 488.846 222.125 489.163 226.328 489.383C214.041 481.448 203.31 471.333 194.671 459.533Z" fill="#CDCDCD"/>
<path d="M302.003 465.864C303.751 463.469 303.227 460.113 300.832 458.362C298.437 456.614 295.08 457.138 293.33 459.533C283.162 473.422 270.118 484.954 255.087 493.342L249.367 496.508V478.799C249.367 475.835 246.964 473.432 244 473.432C241.036 473.432 238.633 475.835 238.633 478.799V505.535C244.348 505.747 250.071 505.645 255.774 505.229L260.299 502.718C276.69 493.576 290.914 481.005 302.003 465.864V465.864Z" fill="#B6B6B6"/>
<path d="M293.33 459.534C285.896 469.68 276.905 478.592 266.69 485.937C275.254 484.05 283.642 481.438 291.763 478.133C295.429 474.26 298.851 470.162 302.009 465.864C303.756 463.469 303.232 460.113 300.837 458.362C298.442 456.614 295.085 457.138 293.335 459.534H293.33Z" fill="#CDCDCD"/>
<path d="M238.633 489.451C242.239 489.333 245.813 489.071 249.367 488.702V478.799C249.367 475.835 246.964 473.432 244 473.432C241.036 473.432 238.633 475.835 238.633 478.799V489.451Z" fill="#CDCDCD"/>
<path d="M319.133 430.499C317.233 430.497 315.478 429.49 314.516 427.853C313.552 426.215 313.528 424.192 314.448 422.53L341.281 374.231C342.177 372.493 343.951 371.38 345.906 371.327C347.861 371.275 349.69 372.289 350.678 373.976C351.668 375.664 351.663 377.755 350.662 379.435L323.829 427.735C322.883 429.441 321.085 430.499 319.133 430.499Z" fill="#CDCDCD"/>
<path d="M335.234 328.533C333.311 328.538 331.531 327.516 330.57 325.849L309.103 288.283C308.097 286.616 308.073 284.533 309.043 282.843C310.01 281.153 311.818 280.12 313.765 280.144C315.712 280.167 317.494 281.247 318.421 282.958L339.888 320.525C341.355 323.098 340.462 326.376 337.891 327.846C337.081 328.305 336.164 328.541 335.234 328.533V328.533Z" fill="#CDCDCD"/>
<path d="M356.7 285.6C356.444 285.6 356.187 285.581 355.933 285.547L318.366 280.181C315.431 279.759 313.395 277.039 313.814 274.104C314.236 271.169 316.956 269.133 319.891 269.552L357.458 274.919C360.246 275.317 362.253 277.804 362.054 280.613C361.855 283.422 359.517 285.6 356.7 285.6Z" fill="#CDCDCD"/>
<path d="M281.567 317.799C279.502 317.799 277.623 316.618 276.727 314.757C275.834 312.897 276.085 310.69 277.377 309.079L298.844 282.245C300.694 279.932 304.074 279.557 306.388 281.41C308.702 283.26 309.076 286.64 307.224 288.954L285.757 315.787C284.74 317.061 283.197 317.799 281.567 317.799Z" fill="#CDCDCD"/>
<path d="M120.568 350H131.301V360.733H120.568V350Z" fill="#CDCDCD"/>
<path d="M142.034 339.266H152.767V349.999H142.034V339.266Z" fill="#CDCDCD"/>
<path d="M125.934 323.166H136.667V333.899H125.934V323.166Z" fill="#A8A8A8"/>
<path d="M109.832 301.7H120.566V312.433H109.832V301.7Z" fill="#CDCDCD"/>
<path d="M131.302 296.333H142.035V307.066H131.302V296.333Z" fill="#A8A8A8"/>
<path d="M120.566 274.866H131.299V285.6H120.566V274.866Z" fill="#A8A8A8"/>
<path d="M362.065 494.899H372.798V505.632H362.065V494.899Z" fill="#FBB540"/>
<path d="M99.0999 500.266H109.833V510.999H99.0999V500.266Z" fill="#FBB540"/>
<path d="M99.0999 468.066H109.833V478.799H99.0999V468.066Z" fill="#FBD699"/>
<path d="M115.198 484.166H125.932V494.899H115.198V484.166Z" fill="#FBB540"/>
<path d="M83 484.166H93.7333V494.899H83V484.166Z" fill="#FBD699"/>
<path d="M388.899 489.532H399.632V500.266H388.899V489.532Z" fill="#FBB540"/>
<path d="M372.801 468.066H383.534V478.799H372.801V468.066Z" fill="#FBD699"/>
<path d="M394.266 189H404.999V199.733H394.266V189Z" fill="#FBD699"/>
<path d="M394.267 215.833H405V226.567H394.267V215.833Z" fill="#FBD699"/>
<path d="M362.065 205.1H372.798V215.833H362.065V205.1Z" fill="#FBB540"/>
<path d="M88.3662 194.367H99.0995V205.1H88.3662V194.367Z" fill="#FBB540"/>
<path d="M120.566 205.1H131.299V215.833H120.566V205.1Z" fill="#C0F5F9"/>
<path d="M104.466 328.533H115.199V339.266H104.466V328.533Z" fill="#CDCDCD"/>
<path d="M115.198 392.933H125.932V403.666H115.198V392.933Z" fill="#A8A8A8"/>
<path d="M131.302 409.033H142.035V419.766H131.302V409.033Z" fill="#939393"/>
<path d="M265.466 269.5H276.199V280.233H265.466V269.5Z" fill="#A8A8A8"/>
<path d="M249.366 248.033H260.099V258.767H249.366V248.033Z" fill="#A8A8A8"/>
<path d="M276.198 248.033H286.931V258.767H276.198V248.033Z" fill="#A8A8A8"/>
<path d="M297.667 237.3H308.4V248.033H297.667V237.3Z" fill="#A8A8A8"/>
<path d="M178.934 366.141L136.334 371.466H89.8865C90.3844 375.072 90.9582 378.662 91.7051 382.199H136.666C136.889 382.199 137.112 382.184 137.332 382.157L180.265 376.791C182.202 376.594 183.881 375.363 184.654 373.576C185.425 371.786 185.165 369.721 183.978 368.177C182.791 366.634 180.86 365.856 178.934 366.141Z" fill="#A8A8A8"/>
<path d="M296.903 221.533L312.777 210.42C309.022 208.577 305.265 206.856 301.352 205.31L290.747 212.736C270.308 226.952 245.065 232.476 220.557 228.097C207.648 225.736 194.407 225.851 181.541 228.44L173.121 230.125C163.366 232.056 153.363 232.418 143.492 231.197C140.052 234.106 136.752 237.177 133.569 240.376C140.568 241.865 147.698 242.633 154.854 242.667C161.702 242.669 168.533 241.996 175.247 240.654L183.661 238.969C195.201 236.65 207.074 236.545 218.651 238.657C245.975 243.558 274.126 237.397 296.903 221.533V221.533Z" fill="#A8A8A8"/>
<path d="M399.531 354.761L378.552 365.274L362.067 353.977L359.087 365.198L375.187 375.931C376.788 376.998 378.835 377.126 380.554 376.269L398.609 367.242C399.096 363.062 399.403 358.898 399.531 354.761V354.761Z" fill="#B6B6B6"/>
<path d="M378.552 365.274L362.067 353.977L359.087 365.198L375.187 375.931C376.788 376.998 378.835 377.126 380.554 376.269L383.41 374.841C384.613 370.402 385.659 365.895 386.479 361.296L378.552 365.274Z" fill="#CDCDCD"/>
<path d="M168.866 430.499C166.822 430.51 164.949 429.359 164.037 427.53L153.304 406.064C151.978 403.412 153.055 400.189 155.707 398.863C158.361 397.537 161.584 398.614 162.91 401.268L173.643 422.735C174.471 424.393 174.385 426.364 173.413 427.944C172.441 429.524 170.722 430.491 168.866 430.499V430.499Z" fill="#A8A8A8"/>
<path d="M206.433 451.966C205.993 451.966 205.553 451.911 205.123 451.806L183.656 446.439C180.803 445.7 179.076 442.8 179.794 439.938C180.509 437.077 183.399 435.331 186.266 436.026L207.733 441.392C210.358 442.053 212.083 444.566 211.753 447.254C211.422 449.943 209.143 451.963 206.433 451.966V451.966Z" fill="#A8A8A8"/>
<path d="M168.866 468.066C168.292 468.063 167.721 467.971 167.176 467.793C164.366 466.858 162.844 463.826 163.772 461.014L169.138 444.828C170.071 442.013 173.111 440.486 175.925 441.419C178.742 442.349 180.267 445.389 179.337 448.203L173.97 464.384C173.242 466.585 171.182 468.068 168.866 468.066V468.066Z" fill="#A8A8A8"/>
<path d="M276.199 417.082C276.199 424.493 270.193 430.499 262.782 430.499C255.372 430.499 249.366 424.493 249.366 417.082C249.366 409.672 255.372 403.666 262.782 403.666C270.193 403.666 276.199 409.672 276.199 417.082Z" fill="#939393"/>
<path d="M190.333 435.866C190.333 444.757 183.125 451.966 174.233 451.966C165.342 451.966 158.134 444.757 158.134 435.866C158.134 426.975 165.342 419.766 174.233 419.766C183.125 419.766 190.333 426.975 190.333 435.866Z" fill="#A8A8A8"/>
<path d="M1122.78 433.743C1124.55 430.487 1127.62 429.345 1129.03 428.977C1129.44 428.872 1129.86 429.051 1130.07 429.412C1131.2 431.377 1132.33 433.342 1133.46 435.307L1136.59 440.758C1136.85 441.216 1136.52 441.787 1135.99 441.786L1129.71 441.774L1122.9 441.761C1122.49 441.76 1122.12 441.484 1122.01 441.086C1121.64 439.744 1121.13 436.774 1122.78 433.743V433.743Z" fill="#FFE170"/>
<path d="M1129.03 428.977C1128.17 429.202 1126.69 429.717 1125.26 430.829C1125.79 430.61 1126.26 430.464 1126.62 430.369C1127.03 430.264 1127.45 430.444 1127.66 430.804C1128.79 432.77 1129.91 434.735 1131.04 436.7L1133.97 441.782L1135.99 441.786C1136.52 441.787 1136.85 441.216 1136.59 440.758L1133.46 435.307C1132.33 433.342 1131.2 431.377 1130.07 429.412C1129.86 429.051 1129.44 428.872 1129.03 428.977V428.977Z" fill="#FFD071"/>
<path d="M1125.07 434.798C1126.57 432.049 1129.1 430.998 1130.67 430.456C1130.5 430.172 1130.23 429.696 1130.07 429.412C1129.86 429.051 1129.44 428.872 1129.03 428.977C1127.62 429.345 1124.55 430.487 1122.78 433.743C1121.13 436.774 1121.64 439.744 1122.01 441.086C1122.12 441.484 1122.49 441.76 1122.9 441.761L1124.21 441.763C1123.86 440.292 1123.56 437.571 1125.07 434.798V434.798Z" fill="#FF9A2D"/>
<path d="M1130.09 429.451C1130.08 429.438 1130.07 429.424 1130.07 429.412C1130.07 429.412 1130.07 429.412 1130.07 429.412C1129.86 429.051 1129.44 428.872 1129.03 428.977C1128.17 429.202 1126.69 429.717 1125.26 430.829C1125.79 430.61 1126.26 430.464 1126.62 430.369C1127.02 430.264 1127.45 430.444 1127.66 430.804C1127.81 431.076 1127.97 431.348 1128.12 431.62C1129.05 431.053 1129.96 430.702 1130.67 430.456C1130.47 430.121 1130.28 429.786 1130.09 429.451Z" fill="#FF8D29"/>
<path d="M1131.66 437.747C1132 438.329 1131.8 439.074 1131.22 439.41C1130.64 439.747 1129.89 439.547 1129.55 438.965C1129.22 438.382 1129.42 437.637 1130 437.301C1130.58 436.965 1131.33 437.165 1131.66 437.747Z" fill="#74C577"/>
<path d="M1130.74 433.534C1131.16 434.255 1130.91 435.178 1130.19 435.594C1129.47 436.011 1128.55 435.764 1128.13 435.042C1127.72 434.321 1127.96 433.398 1128.68 432.982C1129.41 432.565 1130.33 432.813 1130.74 433.534V433.534Z" fill="#E55045"/>
<path d="M1128.86 432.896C1129.35 433.761 1129.85 434.626 1130.35 435.49C1130.92 435.059 1131.12 434.27 1130.79 433.609C1130.43 432.898 1129.58 432.594 1128.86 432.896V432.896Z" fill="#C43730"/>
<path d="M1127.17 438.997C1126.92 438.499 1126.33 438.293 1125.85 438.535C1125.37 438.777 1125.18 439.377 1125.43 439.875C1125.68 440.372 1126.28 440.579 1126.76 440.337C1127.24 440.094 1127.42 439.495 1127.17 438.997Z" fill="#FFF8E3"/>
<path d="M1134.28 439.179C1134.1 438.824 1133.68 438.677 1133.34 438.849C1132.99 439.022 1132.86 439.449 1133.04 439.804C1133.22 440.158 1133.64 440.306 1133.98 440.133C1134.33 439.96 1134.46 439.533 1134.28 439.179V439.179Z" fill="#C43730"/>
<path d="M1130.26 429.299C1130.03 428.894 1129.58 428.674 1129.13 428.729C1129.12 428.729 1129.12 428.729 1129.12 428.73C1129.07 428.736 1129.02 428.745 1128.98 428.757C1128.81 428.801 1128.62 428.854 1128.42 428.919C1127.72 429.143 1126.83 429.506 1125.92 430.085C1124.58 430.933 1123.51 432.035 1122.73 433.365C1122.68 433.454 1122.63 433.543 1122.58 433.634C1120.93 436.676 1121.38 439.646 1121.79 441.146C1121.8 441.177 1121.81 441.208 1121.82 441.237C1121.85 441.297 1121.87 441.354 1121.9 441.408C1122.1 441.758 1122.48 441.987 1122.9 441.988L1135.99 442.013C1136.16 442.014 1136.31 441.971 1136.45 441.892C1136.59 441.814 1136.7 441.701 1136.78 441.558C1136.95 441.273 1136.95 440.931 1136.79 440.645L1130.26 429.299C1130.26 429.299 1130.26 429.299 1130.26 429.299C1130.26 429.299 1130.26 429.299 1130.26 429.299ZM1136.39 441.331C1136.31 441.474 1136.16 441.56 1135.99 441.559L1124.39 441.537C1124.33 441.269 1124.28 440.996 1124.25 440.723C1124.23 440.599 1124.12 440.512 1123.99 440.528C1123.87 440.545 1123.78 440.659 1123.8 440.784C1123.83 441.036 1123.87 441.288 1123.92 441.536L1122.9 441.534C1122.59 441.533 1122.31 441.324 1122.23 441.025C1121.83 439.591 1121.4 436.752 1122.98 433.851C1123.73 432.469 1124.8 431.331 1126.16 430.469C1127.29 429.755 1128.38 429.383 1129.09 429.197C1129.39 429.118 1129.71 429.253 1129.87 429.525C1129.95 429.666 1130.06 429.86 1130.16 430.047C1130.22 430.145 1130.27 430.245 1130.33 430.338C1129.57 430.608 1128.64 430.995 1127.71 431.613C1126.5 432.417 1125.55 433.452 1124.87 434.69C1124.05 436.207 1123.65 437.876 1123.7 439.652C1123.71 439.777 1123.81 439.876 1123.94 439.873C1124.06 439.869 1124.16 439.764 1124.16 439.639C1124.11 437.945 1124.48 436.352 1125.27 434.907C1125.91 433.735 1126.81 432.754 1127.96 431.991C1128.89 431.376 1129.82 430.997 1130.57 430.735L1136.39 440.871C1136.47 441.015 1136.47 441.187 1136.39 441.331V441.331Z" fill="black"/>
<path d="M1131.9 437.705C1131.54 436.994 1130.67 436.707 1129.96 437.066C1129.61 437.24 1129.36 437.537 1129.24 437.904C1129.12 438.27 1129.15 438.662 1129.32 439.006C1129.49 439.351 1129.79 439.607 1130.16 439.728C1130.52 439.849 1130.92 439.82 1131.26 439.646C1131.28 439.633 1131.31 439.62 1131.33 439.607C1131.99 439.227 1132.25 438.392 1131.9 437.705ZM1131.49 437.91C1131.74 438.397 1131.54 438.994 1131.06 439.24C1130.82 439.36 1130.55 439.379 1130.3 439.297C1130.05 439.214 1129.84 439.038 1129.72 438.802C1129.61 438.566 1129.59 438.297 1129.67 438.046C1129.75 437.813 1129.9 437.62 1130.11 437.498C1130.13 437.489 1130.15 437.48 1130.16 437.471C1130.65 437.225 1131.25 437.422 1131.49 437.91V437.91Z" fill="black"/>
<path d="M1130.22 435.837C1130.25 435.822 1130.28 435.807 1130.31 435.79C1130.73 435.547 1131.03 435.14 1131.13 434.661C1131.16 434.538 1131.08 434.417 1130.96 434.39C1130.84 434.363 1130.72 434.441 1130.69 434.563C1130.61 434.941 1130.36 435.258 1130.02 435.432C1129.71 435.586 1129.36 435.612 1129.04 435.505C1128.71 435.398 1128.45 435.17 1128.29 434.865C1128.14 434.559 1128.11 434.212 1128.22 433.887C1128.33 433.562 1128.56 433.298 1128.86 433.144C1129.49 432.826 1130.26 433.08 1130.58 433.711C1130.64 433.823 1130.78 433.868 1130.89 433.812C1131 433.755 1131.04 433.618 1130.99 433.507C1130.56 432.652 1129.51 432.308 1128.66 432.739C1128.24 432.947 1127.94 433.305 1127.79 433.745C1127.64 434.185 1127.68 434.656 1127.89 435.069C1128.1 435.483 1128.46 435.791 1128.9 435.936C1129.34 436.081 1129.81 436.046 1130.22 435.837V435.837Z" fill="black"/>
<path d="M1127.38 438.895C1127.23 438.602 1126.98 438.381 1126.67 438.274C1126.36 438.167 1126.03 438.187 1125.75 438.332C1125.15 438.631 1124.92 439.369 1125.23 439.977C1125.54 440.586 1126.27 440.838 1126.86 440.54C1126.88 440.53 1126.9 440.519 1126.92 440.508C1127.18 440.359 1127.37 440.121 1127.46 439.83C1127.55 439.521 1127.52 439.189 1127.38 438.895V438.895ZM1126.97 439.1C1127.06 439.287 1127.08 439.499 1127.02 439.696C1126.96 439.889 1126.83 440.045 1126.65 440.134C1126.29 440.32 1125.83 440.158 1125.64 439.773C1125.45 439.4 1125.57 438.954 1125.91 438.757C1125.93 438.751 1125.94 438.744 1125.95 438.738C1126.13 438.649 1126.33 438.636 1126.52 438.703C1126.72 438.771 1126.88 438.912 1126.97 439.1Z" fill="black"/>
<path d="M1134.48 439.077C1134.37 438.853 1134.18 438.684 1133.94 438.603C1133.71 438.52 1133.45 438.536 1133.23 438.647C1133.01 438.759 1132.85 438.952 1132.78 439.192C1132.7 439.428 1132.72 439.682 1132.84 439.907C1133.07 440.372 1133.63 440.565 1134.09 440.336C1134.1 440.329 1134.12 440.32 1134.13 440.312C1134.33 440.198 1134.47 440.015 1134.54 439.792C1134.62 439.555 1134.6 439.301 1134.48 439.077V439.077ZM1134.08 439.282C1134.14 439.4 1134.15 439.534 1134.11 439.657C1134.07 439.778 1133.99 439.876 1133.88 439.931C1133.65 440.047 1133.36 439.944 1133.24 439.702C1133.18 439.583 1133.17 439.45 1133.21 439.326C1133.24 439.214 1133.32 439.122 1133.42 439.065C1133.42 439.061 1133.43 439.057 1133.44 439.053C1133.55 438.997 1133.67 438.99 1133.79 439.031C1133.92 439.074 1134.02 439.163 1134.08 439.282V439.282Z" fill="black"/>
<path d="M1128.12 437.707C1128.17 437.807 1128.14 437.936 1128.04 437.994C1127.94 438.053 1127.81 438.018 1127.75 437.917C1127.69 437.816 1127.73 437.688 1127.83 437.629C1127.93 437.571 1128.06 437.606 1128.12 437.707V437.707Z" fill="black"/>
<path d="M1132.19 440.582C1132.25 440.683 1132.22 440.811 1132.12 440.87C1132.01 440.928 1131.89 440.893 1131.83 440.793C1131.77 440.692 1131.8 440.563 1131.91 440.505C1132.01 440.447 1132.13 440.481 1132.19 440.582Z" fill="black"/>
<path d="M1126.8 435.43C1126.86 435.531 1126.82 435.66 1126.72 435.718C1126.62 435.776 1126.49 435.742 1126.44 435.641C1126.38 435.54 1126.41 435.411 1126.51 435.353C1126.61 435.295 1126.74 435.329 1126.8 435.43Z" fill="black"/>
<path d="M1132.24 435.766C1132.3 435.867 1132.26 435.996 1132.16 436.054C1132.06 436.112 1131.93 436.078 1131.87 435.977C1131.82 435.876 1131.85 435.747 1131.95 435.689C1132.05 435.631 1132.18 435.665 1132.24 435.766Z" fill="black"/>
<path d="M1130.4 431.746C1130.46 431.846 1130.43 431.975 1130.33 432.033C1130.23 432.092 1130.1 432.057 1130.04 431.956C1129.98 431.856 1130.02 431.727 1130.12 431.669C1130.22 431.61 1130.35 431.645 1130.4 431.746Z" fill="black"/>
<path d="M1133.26 437.951C1133.31 438.052 1133.28 438.181 1133.18 438.239C1133.08 438.297 1132.95 438.263 1132.89 438.162C1132.83 438.061 1132.87 437.932 1132.97 437.874C1133.07 437.816 1133.2 437.85 1133.26 437.951Z" fill="black"/>
<path d="M1135.54 440.64C1135.6 440.741 1135.56 440.87 1135.46 440.928C1135.36 440.987 1135.23 440.952 1135.17 440.851C1135.12 440.75 1135.15 440.622 1135.25 440.563C1135.35 440.505 1135.48 440.54 1135.54 440.64Z" fill="black"/>
<path d="M1128.43 440.495C1128.49 440.596 1128.45 440.725 1128.35 440.783C1128.25 440.841 1128.12 440.807 1128.06 440.706C1128.01 440.605 1128.04 440.476 1128.14 440.418C1128.24 440.36 1128.37 440.395 1128.43 440.495Z" fill="black"/>
<path d="M1151.54 458.833C1150.24 457.242 1150.3 455.425 1150.4 454.623C1150.43 454.394 1150.61 454.215 1150.84 454.184C1152.09 454.015 1153.33 453.846 1154.58 453.677L1158.03 453.208C1158.32 453.169 1158.55 453.458 1158.44 453.729L1157.11 456.956L1155.68 460.448C1155.6 460.66 1155.38 460.79 1155.15 460.763C1154.38 460.674 1152.75 460.314 1151.54 458.833V458.833Z" fill="#FFE170"/>
<path d="M1150.4 454.623C1150.34 455.114 1150.29 455.985 1150.56 456.951C1150.56 456.632 1150.58 456.359 1150.61 456.154C1150.64 455.925 1150.82 455.745 1151.05 455.714C1152.3 455.545 1153.54 455.376 1154.79 455.207L1158.01 454.77L1158.44 453.73C1158.55 453.458 1158.32 453.169 1158.03 453.208L1154.58 453.677C1153.33 453.846 1152.09 454.015 1150.84 454.184C1150.61 454.215 1150.43 454.395 1150.4 454.623V454.623Z" fill="#FFD071"/>
<path d="M1152.56 457.876C1151.46 456.533 1151.45 455.012 1151.5 454.094C1151.32 454.118 1151.02 454.159 1150.84 454.184C1150.61 454.215 1150.43 454.394 1150.4 454.623C1150.3 455.425 1150.24 457.242 1151.54 458.833C1152.75 460.314 1154.38 460.674 1155.15 460.763C1155.38 460.79 1155.6 460.66 1155.68 460.448L1155.96 459.777C1155.13 459.648 1153.67 459.232 1152.56 457.876V457.876Z" fill="#FF9A2D"/>
<path d="M1150.87 454.18C1150.86 454.181 1150.85 454.183 1150.84 454.184C1150.84 454.184 1150.84 454.184 1150.84 454.184C1150.61 454.215 1150.43 454.395 1150.4 454.623C1150.34 455.114 1150.29 455.985 1150.56 456.951C1150.56 456.632 1150.58 456.359 1150.61 456.154C1150.64 455.925 1150.82 455.745 1151.05 455.714C1151.22 455.69 1151.4 455.667 1151.57 455.644C1151.47 455.052 1151.48 454.511 1151.5 454.094C1151.29 454.123 1151.08 454.152 1150.87 454.18Z" fill="#FF8D29"/>
<path d="M1155.46 455.107C1155.83 455.057 1156.17 455.315 1156.22 455.684C1156.27 456.054 1156.01 456.395 1155.64 456.446C1155.27 456.496 1154.93 456.238 1154.88 455.869C1154.83 455.499 1155.09 455.158 1155.46 455.107Z" fill="#74C577"/>
<path d="M1153.1 454.698C1153.56 454.635 1153.98 454.955 1154.04 455.413C1154.11 455.871 1153.79 456.293 1153.33 456.356C1152.87 456.419 1152.45 456.099 1152.39 455.641C1152.32 455.183 1152.64 454.761 1153.1 454.698V454.698Z" fill="#E55045"/>
<path d="M1152.38 455.534C1152.93 455.46 1153.47 455.385 1154.02 455.311C1153.92 454.928 1153.56 454.66 1153.15 454.693C1152.71 454.729 1152.37 455.099 1152.38 455.534V455.534Z" fill="#C43730"/>
<path d="M1155.16 457.676C1154.85 457.701 1154.62 457.962 1154.64 458.259C1154.67 458.557 1154.94 458.778 1155.25 458.753C1155.55 458.728 1155.78 458.467 1155.76 458.169C1155.74 457.872 1155.47 457.651 1155.16 457.676Z" fill="#FFF8E3"/>
<path d="M1156.74 454.064C1156.52 454.081 1156.36 454.267 1156.37 454.479C1156.39 454.691 1156.58 454.849 1156.8 454.831C1157.02 454.813 1157.18 454.627 1157.17 454.415C1157.15 454.203 1156.96 454.046 1156.74 454.064V454.064Z" fill="#C43730"/>
<path d="M1150.82 454.059C1150.57 454.094 1150.36 454.28 1150.29 454.524C1150.29 454.525 1150.29 454.527 1150.29 454.529C1150.29 454.554 1150.28 454.58 1150.28 454.607C1150.26 454.702 1150.25 454.808 1150.24 454.926C1150.21 455.332 1150.21 455.864 1150.32 456.455C1150.47 457.319 1150.82 458.1 1151.34 458.778C1151.37 458.824 1151.41 458.868 1151.44 458.913C1152.66 460.399 1154.28 460.788 1155.14 460.888C1155.16 460.89 1155.17 460.892 1155.19 460.892C1155.23 460.893 1155.26 460.892 1155.29 460.887C1155.52 460.857 1155.71 460.71 1155.8 460.496L1158.55 453.777C1158.59 453.692 1158.6 453.602 1158.59 453.516C1158.58 453.43 1158.54 453.347 1158.48 453.275C1158.37 453.13 1158.2 453.058 1158.02 453.083L1150.82 454.059C1150.82 454.059 1150.82 454.059 1150.82 454.059C1150.82 454.059 1150.82 454.059 1150.82 454.059ZM1158.29 453.429C1158.34 453.502 1158.35 453.596 1158.32 453.682L1155.88 459.636C1155.73 459.61 1155.58 459.578 1155.43 459.54C1155.37 459.522 1155.3 459.563 1155.28 459.63C1155.26 459.698 1155.3 459.766 1155.37 459.784C1155.51 459.819 1155.64 459.85 1155.78 459.875L1155.57 460.4C1155.5 460.56 1155.34 460.658 1155.17 460.638C1154.35 460.543 1152.8 460.171 1151.64 458.753C1151.09 458.078 1150.73 457.289 1150.57 456.41C1150.44 455.681 1150.47 455.045 1150.53 454.64C1150.55 454.468 1150.69 454.332 1150.86 454.308C1150.95 454.296 1151.07 454.281 1151.19 454.267C1151.25 454.26 1151.31 454.252 1151.37 454.245C1151.35 454.687 1151.36 455.246 1151.48 455.854C1151.64 456.644 1151.97 457.351 1152.46 457.956C1153.07 458.698 1153.85 459.249 1154.77 459.594C1154.83 459.619 1154.91 459.586 1154.93 459.521C1154.96 459.456 1154.92 459.383 1154.86 459.359C1153.98 459.029 1153.24 458.503 1152.66 457.797C1152.19 457.224 1151.88 456.554 1151.73 455.804C1151.6 455.199 1151.6 454.64 1151.62 454.204L1158.05 453.333C1158.14 453.32 1158.23 453.356 1158.29 453.429V453.429Z" fill="black"/>
<path d="M1155.48 454.978C1155.04 455.013 1154.71 455.4 1154.75 455.841C1154.77 456.054 1154.87 456.248 1155.03 456.387C1155.19 456.525 1155.4 456.592 1155.61 456.575C1155.83 456.558 1156.02 456.459 1156.16 456.296C1156.3 456.133 1156.36 455.925 1156.35 455.712C1156.35 455.697 1156.34 455.682 1156.34 455.667C1156.28 455.249 1155.91 454.944 1155.48 454.978ZM1155.5 455.229C1155.81 455.204 1156.07 455.43 1156.1 455.732C1156.11 455.879 1156.06 456.021 1155.97 456.133C1155.87 456.244 1155.74 456.312 1155.59 456.324C1155.45 456.336 1155.3 456.29 1155.19 456.195C1155.09 456.107 1155.02 455.986 1155 455.852C1155 455.842 1155 455.831 1155 455.82C1154.98 455.519 1155.2 455.253 1155.5 455.229V455.229Z" fill="black"/>
<path d="M1154.17 455.45C1154.17 455.431 1154.17 455.413 1154.17 455.395C1154.13 455.127 1153.98 454.889 1153.76 454.734C1153.7 454.695 1153.62 454.709 1153.58 454.767C1153.55 454.824 1153.56 454.902 1153.62 454.942C1153.79 455.064 1153.9 455.256 1153.92 455.47C1153.94 455.659 1153.88 455.843 1153.76 455.987C1153.63 456.132 1153.46 456.22 1153.27 456.235C1153.08 456.25 1152.9 456.191 1152.75 456.068C1152.61 455.945 1152.52 455.773 1152.51 455.584C1152.47 455.193 1152.77 454.85 1153.16 454.819C1153.23 454.813 1153.28 454.752 1153.27 454.683C1153.27 454.614 1153.21 454.562 1153.14 454.568C1152.61 454.61 1152.21 455.075 1152.25 455.604C1152.28 455.861 1152.39 456.093 1152.59 456.26C1152.79 456.427 1153.03 456.507 1153.29 456.486C1153.55 456.466 1153.78 456.346 1153.95 456.151C1154.11 455.955 1154.19 455.706 1154.17 455.45V455.45Z" fill="black"/>
<path d="M1155.15 457.55C1154.97 457.565 1154.8 457.647 1154.68 457.782C1154.56 457.918 1154.5 458.091 1154.52 458.27C1154.55 458.636 1154.88 458.909 1155.26 458.879C1155.63 458.848 1155.92 458.526 1155.89 458.159C1155.88 458.147 1155.88 458.135 1155.88 458.122C1155.86 457.959 1155.78 457.812 1155.65 457.705C1155.51 457.591 1155.33 457.536 1155.15 457.55V457.55ZM1155.17 457.801C1155.29 457.792 1155.4 457.827 1155.49 457.899C1155.57 457.971 1155.63 458.07 1155.63 458.18C1155.65 458.407 1155.47 458.608 1155.24 458.628C1155.01 458.646 1154.8 458.488 1154.77 458.272C1154.77 458.264 1154.77 458.257 1154.77 458.249C1154.76 458.14 1154.8 458.033 1154.87 457.949C1154.95 457.863 1155.05 457.811 1155.17 457.801Z" fill="black"/>
<path d="M1156.73 453.938C1156.59 453.949 1156.46 454.012 1156.37 454.115C1156.28 454.22 1156.24 454.353 1156.25 454.49C1156.26 454.627 1156.32 454.75 1156.43 454.839C1156.54 454.926 1156.67 454.968 1156.81 454.957C1157.1 454.934 1157.32 454.686 1157.29 454.405C1157.29 454.396 1157.29 454.386 1157.29 454.377C1157.27 454.251 1157.21 454.138 1157.11 454.056C1157 453.969 1156.87 453.927 1156.73 453.938V453.938ZM1156.75 454.189C1156.82 454.183 1156.89 454.205 1156.95 454.251C1157 454.295 1157.04 454.358 1157.04 454.426C1157.05 454.568 1156.94 454.694 1156.79 454.706C1156.72 454.712 1156.65 454.69 1156.59 454.644C1156.54 454.603 1156.51 454.546 1156.5 454.483C1156.5 454.479 1156.5 454.474 1156.5 454.469C1156.49 454.401 1156.52 454.335 1156.56 454.282C1156.61 454.228 1156.68 454.195 1156.75 454.189V454.189Z" fill="black"/>
<path d="M1154.69 456.922C1154.76 456.913 1154.82 456.958 1154.82 457.022C1154.83 457.086 1154.79 457.145 1154.72 457.153C1154.66 457.162 1154.6 457.117 1154.59 457.053C1154.58 456.99 1154.63 456.931 1154.69 456.922V456.922Z" fill="black"/>
<path d="M1157.02 455.429C1157.09 455.42 1157.15 455.465 1157.15 455.529C1157.16 455.593 1157.12 455.652 1157.05 455.66C1156.99 455.669 1156.93 455.624 1156.92 455.56C1156.91 455.497 1156.96 455.438 1157.02 455.429Z" fill="black"/>
<path d="M1153.25 457.121C1153.31 457.112 1153.37 457.156 1153.38 457.22C1153.39 457.284 1153.34 457.343 1153.28 457.352C1153.22 457.361 1153.16 457.316 1153.15 457.252C1153.14 457.188 1153.18 457.129 1153.25 457.121Z" fill="black"/>
<path d="M1154.56 454.398C1154.62 454.389 1154.68 454.434 1154.69 454.498C1154.7 454.562 1154.65 454.621 1154.59 454.63C1154.53 454.638 1154.47 454.594 1154.46 454.53C1154.45 454.466 1154.49 454.407 1154.56 454.398Z" fill="black"/>
<path d="M1152.11 454.499C1152.17 454.49 1152.23 454.535 1152.24 454.599C1152.25 454.663 1152.21 454.722 1152.14 454.731C1152.08 454.74 1152.02 454.695 1152.01 454.631C1152 454.567 1152.05 454.508 1152.11 454.499Z" fill="black"/>
<path d="M1155.89 454.332C1155.96 454.323 1156.02 454.368 1156.03 454.432C1156.03 454.496 1155.99 454.555 1155.93 454.564C1155.86 454.572 1155.8 454.528 1155.79 454.464C1155.79 454.4 1155.83 454.341 1155.89 454.332Z" fill="black"/>
<path d="M1157.75 453.722C1157.82 453.713 1157.88 453.758 1157.88 453.822C1157.89 453.886 1157.85 453.945 1157.78 453.954C1157.72 453.963 1157.66 453.918 1157.65 453.854C1157.64 453.79 1157.69 453.731 1157.75 453.722Z" fill="black"/>
<path d="M1156.19 457.344C1156.25 457.336 1156.31 457.38 1156.32 457.444C1156.33 457.508 1156.29 457.567 1156.22 457.576C1156.16 457.585 1156.1 457.54 1156.09 457.476C1156.08 457.412 1156.13 457.353 1156.19 457.344Z" fill="black"/>
<path d="M1123.37 452.81C1125.08 451.267 1127.12 451.231 1128.02 451.306C1128.28 451.328 1128.49 451.52 1128.54 451.775C1128.79 453.16 1129.05 454.546 1129.31 455.931L1130.02 459.774C1130.08 460.097 1129.77 460.364 1129.46 460.254L1125.77 458.949L1121.79 457.537C1121.54 457.452 1121.39 457.215 1121.4 456.958C1121.46 456.094 1121.78 454.248 1123.37 452.81V452.81Z" fill="#FFE170"/>
<path d="M1128.02 451.306C1127.47 451.26 1126.49 451.256 1125.42 451.613C1125.78 451.594 1126.09 451.606 1126.32 451.625C1126.58 451.647 1126.79 451.839 1126.84 452.094C1127.09 453.479 1127.35 454.864 1127.61 456.25L1128.27 459.833L1129.46 460.254C1129.77 460.364 1130.08 460.097 1130.02 459.774L1129.31 455.931C1129.05 454.546 1128.79 453.16 1128.54 451.775C1128.49 451.52 1128.28 451.328 1128.02 451.306V451.306Z" fill="#FFD071"/>
<path d="M1124.5 453.902C1125.94 452.599 1127.64 452.505 1128.67 452.511C1128.64 452.31 1128.57 451.975 1128.54 451.774C1128.49 451.52 1128.28 451.328 1128.02 451.306C1127.12 451.231 1125.08 451.267 1123.37 452.81C1121.78 454.248 1121.46 456.094 1121.4 456.958C1121.39 457.215 1121.54 457.452 1121.79 457.537L1122.55 457.809C1122.65 456.875 1123.04 455.217 1124.5 453.902V453.902Z" fill="#FF9A2D"/>
<path d="M1128.54 451.802C1128.54 451.793 1128.54 451.783 1128.54 451.775C1128.54 451.775 1128.54 451.775 1128.54 451.774C1128.49 451.52 1128.28 451.328 1128.02 451.306C1127.47 451.26 1126.49 451.256 1125.42 451.613C1125.78 451.594 1126.09 451.606 1126.32 451.625C1126.58 451.647 1126.79 451.839 1126.84 452.094C1126.87 452.285 1126.91 452.477 1126.94 452.668C1127.6 452.526 1128.21 452.508 1128.67 452.511C1128.63 452.275 1128.59 452.038 1128.54 451.802Z" fill="#FF8D29"/>
<path d="M1127.75 456.992C1127.83 457.403 1127.56 457.799 1127.15 457.876C1126.74 457.953 1126.34 457.682 1126.26 457.271C1126.19 456.86 1126.46 456.464 1126.87 456.387C1127.28 456.31 1127.68 456.581 1127.75 456.992Z" fill="#74C577"/>
<path d="M1128.08 454.332C1128.18 454.841 1127.84 455.331 1127.33 455.426C1126.83 455.521 1126.34 455.186 1126.24 454.677C1126.14 454.168 1126.48 453.678 1126.99 453.583C1127.5 453.487 1127.99 453.823 1128.08 454.332V454.332Z" fill="#E55045"/>
<path d="M1127.11 453.568C1127.22 454.178 1127.33 454.788 1127.45 455.397C1127.87 455.262 1128.15 454.84 1128.09 454.384C1128.03 453.893 1127.6 453.54 1127.11 453.568V453.568Z" fill="#C43730"/>
<path d="M1124.86 456.798C1124.82 456.455 1124.51 456.211 1124.18 456.254C1123.85 456.297 1123.62 456.61 1123.66 456.954C1123.7 457.297 1124.01 457.541 1124.34 457.498C1124.67 457.455 1124.91 457.142 1124.86 456.798Z" fill="#FFF8E3"/>
<path d="M1128.99 458.371C1128.96 458.127 1128.74 457.953 1128.51 457.984C1128.27 458.014 1128.1 458.237 1128.14 458.482C1128.17 458.727 1128.38 458.901 1128.62 458.87C1128.86 458.839 1129.02 458.616 1128.99 458.371V458.371Z" fill="#C43730"/>
<path d="M1128.68 451.749C1128.62 451.464 1128.4 451.241 1128.13 451.18C1128.12 451.18 1128.12 451.179 1128.12 451.179C1128.09 451.173 1128.06 451.168 1128.03 451.166C1127.93 451.157 1127.81 451.15 1127.67 451.146C1127.22 451.133 1126.62 451.163 1125.97 451.314C1125.01 451.534 1124.15 451.96 1123.42 452.579C1123.37 452.62 1123.32 452.663 1123.27 452.706C1121.68 454.148 1121.33 455.983 1121.26 456.949C1121.26 456.969 1121.26 456.988 1121.26 457.008C1121.26 457.047 1121.27 457.086 1121.27 457.124C1121.32 457.372 1121.49 457.584 1121.74 457.671L1129.41 460.387C1129.51 460.422 1129.61 460.429 1129.7 460.411C1129.8 460.393 1129.89 460.35 1129.97 460.284C1130.12 460.15 1130.2 459.95 1130.16 459.748L1128.68 451.749C1128.68 451.749 1128.68 451.749 1128.68 451.749C1128.68 451.749 1128.68 451.749 1128.68 451.749ZM1129.79 460.069C1129.71 460.136 1129.6 460.155 1129.5 460.121L1122.71 457.713C1122.73 457.544 1122.75 457.374 1122.79 457.207C1122.8 457.13 1122.76 457.055 1122.68 457.04C1122.6 457.024 1122.53 457.073 1122.51 457.149C1122.48 457.304 1122.45 457.461 1122.43 457.617L1121.83 457.404C1121.65 457.34 1121.53 457.16 1121.54 456.968C1121.61 456.045 1121.94 454.291 1123.46 452.915C1124.19 452.26 1125.05 451.813 1126.03 451.589C1126.84 451.403 1127.55 451.409 1128.01 451.447C1128.2 451.463 1128.36 451.609 1128.4 451.8C1128.42 451.9 1128.44 452.036 1128.46 452.167C1128.47 452.236 1128.49 452.305 1128.5 452.371C1128 452.374 1127.38 452.409 1126.7 452.579C1125.83 452.801 1125.05 453.211 1124.4 453.797C1123.6 454.517 1123.03 455.415 1122.69 456.467C1122.67 456.541 1122.71 456.62 1122.78 456.644C1122.86 456.668 1122.94 456.627 1122.96 456.553C1123.28 455.549 1123.83 454.693 1124.59 454.007C1125.21 453.451 1125.94 453.063 1126.77 452.853C1127.44 452.683 1128.07 452.654 1128.56 452.653L1129.88 459.8C1129.9 459.901 1129.86 460.002 1129.79 460.069V460.069Z" fill="black"/>
<path d="M1127.9 457.016C1127.84 456.525 1127.38 456.177 1126.89 456.241C1126.66 456.272 1126.44 456.393 1126.3 456.583C1126.15 456.773 1126.09 457.009 1126.12 457.247C1126.15 457.485 1126.27 457.696 1126.46 457.843C1126.65 457.989 1126.89 458.053 1127.12 458.022C1127.14 458.02 1127.16 458.017 1127.17 458.014C1127.64 457.927 1127.96 457.49 1127.9 457.016ZM1127.62 457.052C1127.66 457.389 1127.42 457.699 1127.09 457.742C1126.92 457.763 1126.76 457.72 1126.63 457.619C1126.5 457.519 1126.42 457.374 1126.4 457.21C1126.38 457.047 1126.42 456.886 1126.52 456.756C1126.61 456.635 1126.75 456.554 1126.89 456.526C1126.91 456.524 1126.92 456.522 1126.93 456.521C1127.27 456.477 1127.58 456.716 1127.62 457.052V457.052Z" fill="black"/>
<path d="M1127.3 455.574C1127.32 455.572 1127.34 455.568 1127.36 455.565C1127.66 455.509 1127.92 455.332 1128.08 455.073C1128.12 455.006 1128.1 454.919 1128.03 454.878C1127.97 454.837 1127.88 454.858 1127.84 454.924C1127.71 455.128 1127.5 455.263 1127.26 455.294C1127.05 455.322 1126.84 455.265 1126.68 455.135C1126.51 455.005 1126.4 454.818 1126.37 454.607C1126.34 454.396 1126.4 454.187 1126.53 454.018C1126.66 453.85 1126.85 453.742 1127.06 453.714C1127.49 453.658 1127.9 453.966 1127.95 454.402C1127.96 454.479 1128.03 454.534 1128.11 454.524C1128.19 454.514 1128.24 454.443 1128.23 454.366C1128.16 453.776 1127.61 453.358 1127.02 453.434C1126.74 453.471 1126.48 453.618 1126.31 453.846C1126.13 454.074 1126.05 454.357 1126.09 454.643C1126.13 454.929 1126.27 455.183 1126.5 455.359C1126.73 455.535 1127.01 455.611 1127.3 455.574V455.574Z" fill="black"/>
<path d="M1125 456.78C1124.97 456.578 1124.87 456.397 1124.72 456.271C1124.56 456.144 1124.36 456.088 1124.16 456.114C1123.75 456.167 1123.47 456.552 1123.52 456.972C1123.57 457.392 1123.95 457.691 1124.36 457.638C1124.37 457.637 1124.39 457.634 1124.4 457.632C1124.58 457.598 1124.74 457.497 1124.86 457.345C1124.98 457.184 1125.03 456.983 1125 456.78V456.78ZM1124.72 456.817C1124.74 456.946 1124.71 457.074 1124.63 457.177C1124.55 457.278 1124.45 457.342 1124.32 457.358C1124.07 457.391 1123.83 457.202 1123.8 456.936C1123.77 456.679 1123.93 456.443 1124.17 456.398C1124.18 456.397 1124.19 456.395 1124.2 456.394C1124.32 456.378 1124.44 456.413 1124.54 456.492C1124.64 456.571 1124.7 456.687 1124.72 456.817Z" fill="black"/>
<path d="M1129.13 458.354C1129.11 458.199 1129.03 458.061 1128.91 457.964C1128.79 457.867 1128.64 457.824 1128.49 457.844C1128.33 457.864 1128.2 457.944 1128.11 458.069C1128.01 458.192 1127.98 458.346 1128 458.501C1128.04 458.822 1128.33 459.051 1128.64 459.01C1128.65 459.009 1128.66 459.007 1128.67 459.005C1128.81 458.979 1128.93 458.902 1129.02 458.786C1129.11 458.662 1129.15 458.508 1129.13 458.354V458.354ZM1128.85 458.39C1128.86 458.472 1128.84 458.553 1128.79 458.617C1128.75 458.68 1128.68 458.721 1128.6 458.73C1128.44 458.751 1128.3 458.632 1128.28 458.464C1128.26 458.383 1128.29 458.302 1128.33 458.237C1128.38 458.178 1128.44 458.139 1128.51 458.126C1128.51 458.125 1128.52 458.125 1128.52 458.124C1128.6 458.114 1128.68 458.136 1128.74 458.185C1128.8 458.235 1128.84 458.308 1128.85 458.39V458.39Z" fill="black"/>
<path d="M1125.68 456.236C1125.69 456.307 1125.65 456.376 1125.58 456.389C1125.5 456.402 1125.44 456.355 1125.42 456.284C1125.41 456.213 1125.46 456.145 1125.53 456.131C1125.6 456.118 1125.67 456.165 1125.68 456.236V456.236Z" fill="black"/>
<path d="M1127.48 458.764C1127.49 458.835 1127.44 458.903 1127.37 458.917C1127.3 458.93 1127.23 458.883 1127.22 458.812C1127.21 458.741 1127.25 458.672 1127.33 458.659C1127.4 458.646 1127.46 458.693 1127.48 458.764Z" fill="black"/>
<path d="M1125.38 454.63C1125.39 454.701 1125.35 454.769 1125.27 454.783C1125.2 454.796 1125.14 454.749 1125.12 454.678C1125.11 454.607 1125.16 454.539 1125.23 454.525C1125.3 454.512 1125.37 454.559 1125.38 454.63Z" fill="black"/>
<path d="M1128.5 455.949C1128.51 456.02 1128.46 456.088 1128.39 456.102C1128.32 456.115 1128.25 456.068 1128.24 455.997C1128.23 455.926 1128.27 455.858 1128.35 455.844C1128.42 455.831 1128.49 455.878 1128.5 455.949Z" fill="black"/>
<path d="M1128.25 453.213C1128.27 453.284 1128.22 453.352 1128.15 453.366C1128.08 453.379 1128.01 453.332 1128 453.261C1127.98 453.19 1128.03 453.121 1128.1 453.108C1128.17 453.095 1128.24 453.142 1128.25 453.213Z" fill="black"/>
<path d="M1128.64 457.44C1128.66 457.512 1128.61 457.58 1128.54 457.593C1128.47 457.607 1128.4 457.56 1128.39 457.489C1128.37 457.418 1128.42 457.349 1128.49 457.336C1128.56 457.322 1128.63 457.369 1128.64 457.44Z" fill="black"/>
<path d="M1129.43 459.489C1129.44 459.56 1129.39 459.628 1129.32 459.642C1129.25 459.655 1129.18 459.608 1129.17 459.537C1129.16 459.466 1129.2 459.397 1129.28 459.384C1129.35 459.371 1129.42 459.418 1129.43 459.489Z" fill="black"/>
<path d="M1125.29 457.936C1125.3 458.007 1125.25 458.076 1125.18 458.089C1125.11 458.102 1125.04 458.056 1125.03 457.984C1125.02 457.913 1125.06 457.845 1125.14 457.831C1125.21 457.818 1125.28 457.865 1125.29 457.936Z" fill="black"/>
<path d="M1100.88 452.014C1102.88 450.793 1104.92 451.138 1105.81 451.383C1106.06 451.452 1106.24 451.684 1106.23 451.947C1106.23 453.377 1106.23 454.808 1106.23 456.239L1106.22 460.208C1106.22 460.542 1105.86 460.749 1105.57 460.582L1102.13 458.591L1098.42 456.436C1098.19 456.305 1098.08 456.039 1098.15 455.786C1098.37 454.935 1099.02 453.151 1100.88 452.014V452.014Z" fill="#FFE170"/>
<path d="M1105.81 451.383C1105.26 451.233 1104.29 451.046 1103.16 451.203C1103.52 451.251 1103.82 451.32 1104.05 451.383C1104.3 451.452 1104.48 451.684 1104.48 451.947C1104.47 453.377 1104.47 454.808 1104.47 456.239L1104.46 459.94L1105.57 460.582C1105.86 460.75 1106.22 460.542 1106.22 460.208L1106.23 456.239C1106.23 454.808 1106.23 453.377 1106.23 451.947C1106.24 451.684 1106.06 451.452 1105.81 451.383V451.383Z" fill="#FFD071"/>
<path d="M1101.8 453.314C1103.49 452.283 1105.21 452.508 1106.23 452.707C1106.23 452.5 1106.23 452.154 1106.23 451.946C1106.24 451.684 1106.06 451.452 1105.81 451.383C1104.92 451.138 1102.88 450.793 1100.88 452.014C1099.02 453.151 1098.37 454.935 1098.15 455.786C1098.08 456.039 1098.19 456.305 1098.42 456.436L1099.13 456.85C1099.41 455.936 1100.1 454.354 1101.8 453.314V453.314Z" fill="#FF9A2D"/>
<path d="M1106.23 451.975C1106.23 451.965 1106.23 451.956 1106.23 451.947C1106.23 451.947 1106.23 451.946 1106.23 451.946C1106.24 451.684 1106.06 451.452 1105.81 451.383C1105.26 451.233 1104.29 451.046 1103.16 451.203C1103.52 451.251 1103.82 451.32 1104.05 451.383C1104.3 451.452 1104.48 451.684 1104.48 451.947C1104.48 452.145 1104.48 452.342 1104.48 452.54C1105.16 452.521 1105.77 452.617 1106.23 452.707C1106.23 452.463 1106.23 452.219 1106.23 451.975Z" fill="#FF8D29"/>
<path d="M1104.48 457.008C1104.48 457.432 1104.13 457.776 1103.71 457.776C1103.28 457.776 1102.94 457.432 1102.94 457.008C1102.94 456.583 1103.28 456.239 1103.71 456.239C1104.13 456.239 1104.48 456.583 1104.48 457.008Z" fill="#74C577"/>
<path d="M1105.3 454.414C1105.3 454.94 1104.88 455.366 1104.35 455.366C1103.83 455.366 1103.4 454.94 1103.4 454.414C1103.4 453.888 1103.83 453.462 1104.35 453.462C1104.88 453.462 1105.3 453.888 1105.3 454.414V454.414Z" fill="#E55045"/>
<path d="M1104.47 453.47C1104.47 454.099 1104.47 454.729 1104.47 455.359C1104.92 455.303 1105.28 454.934 1105.3 454.468C1105.33 453.966 1104.96 453.533 1104.47 453.47V453.47Z" fill="#C43730"/>
<path d="M1101.63 456.273C1101.65 455.922 1101.39 455.622 1101.05 455.603C1100.71 455.583 1100.42 455.853 1100.4 456.204C1100.38 456.555 1100.64 456.856 1100.98 456.875C1101.32 456.894 1101.61 456.625 1101.63 456.273Z" fill="#FFF8E3"/>
<path d="M1105.45 458.616C1105.47 458.366 1105.28 458.152 1105.04 458.138C1104.8 458.124 1104.59 458.316 1104.58 458.566C1104.57 458.817 1104.75 459.031 1104.99 459.044C1105.23 459.058 1105.44 458.866 1105.45 458.616V458.616Z" fill="#C43730"/>
<path d="M1106.38 451.947C1106.38 451.652 1106.2 451.389 1105.94 451.276C1105.93 451.276 1105.93 451.275 1105.93 451.274C1105.9 451.262 1105.87 451.252 1105.85 451.244C1105.74 451.216 1105.62 451.186 1105.49 451.157C1105.04 451.059 1104.44 450.978 1103.75 451.006C1102.76 451.047 1101.82 451.311 1100.98 451.792C1100.92 451.825 1100.86 451.858 1100.81 451.892C1098.94 453.032 1098.25 454.799 1098.01 455.751C1098 455.77 1098 455.79 1097.99 455.81C1097.99 455.849 1097.98 455.888 1097.98 455.928C1097.98 456.183 1098.12 456.428 1098.35 456.56L1105.5 460.706C1105.59 460.759 1105.69 460.785 1105.79 460.785C1105.88 460.785 1105.98 460.759 1106.07 460.707C1106.25 460.604 1106.36 460.417 1106.36 460.209L1106.38 451.947C1106.38 451.947 1106.38 451.947 1106.38 451.947C1106.38 451.947 1106.38 451.947 1106.38 451.947ZM1105.93 460.459C1105.84 460.511 1105.73 460.511 1105.64 460.458L1099.3 456.783C1099.36 456.619 1099.42 456.454 1099.48 456.293C1099.51 456.22 1099.48 456.136 1099.4 456.106C1099.33 456.076 1099.25 456.111 1099.22 456.184C1099.16 456.333 1099.1 456.484 1099.05 456.636L1098.49 456.312C1098.32 456.213 1098.24 456.012 1098.28 455.822C1098.52 454.913 1099.18 453.224 1100.96 452.136C1101.81 451.618 1102.75 451.334 1103.77 451.292C1104.61 451.258 1105.32 451.397 1105.77 451.521C1105.96 451.573 1106.09 451.748 1106.09 451.946C1106.09 452.049 1106.09 452.189 1106.09 452.324C1106.09 452.395 1106.08 452.467 1106.08 452.534C1105.59 452.445 1104.96 452.362 1104.25 452.406C1103.34 452.464 1102.49 452.728 1101.73 453.192C1100.8 453.761 1100.06 454.55 1099.52 455.537C1099.49 455.606 1099.51 455.693 1099.58 455.731C1099.65 455.768 1099.74 455.742 1099.78 455.673C1100.28 454.731 1100.99 453.979 1101.88 453.437C1102.6 452.997 1103.4 452.747 1104.27 452.693C1104.97 452.649 1105.6 452.737 1106.09 452.827L1106.08 460.208C1106.07 460.313 1106.02 460.407 1105.93 460.459V460.459Z" fill="black"/>
<path d="M1104.62 457.059C1104.65 456.557 1104.26 456.125 1103.76 456.097C1103.52 456.083 1103.28 456.165 1103.1 456.327C1102.92 456.49 1102.81 456.713 1102.8 456.956C1102.78 457.199 1102.87 457.433 1103.03 457.615C1103.19 457.797 1103.41 457.905 1103.66 457.918C1103.67 457.919 1103.69 457.92 1103.71 457.92C1104.19 457.92 1104.59 457.544 1104.62 457.059ZM1104.33 457.043C1104.31 457.387 1104.02 457.651 1103.67 457.632C1103.51 457.623 1103.35 457.549 1103.24 457.424C1103.13 457.3 1103.07 457.139 1103.08 456.972C1103.09 456.806 1103.17 456.652 1103.29 456.541C1103.41 456.438 1103.55 456.382 1103.71 456.382C1103.72 456.382 1103.73 456.383 1103.74 456.383C1104.09 456.403 1104.35 456.699 1104.33 457.043V457.043Z" fill="black"/>
<path d="M1104.29 455.508C1104.31 455.509 1104.33 455.51 1104.35 455.51C1104.66 455.51 1104.95 455.382 1105.16 455.153C1105.21 455.094 1105.21 455.004 1105.15 454.95C1105.09 454.897 1105 454.901 1104.95 454.959C1104.78 455.14 1104.55 455.235 1104.31 455.222C1104.09 455.209 1103.89 455.114 1103.75 454.953C1103.6 454.792 1103.53 454.584 1103.54 454.368C1103.56 454.153 1103.65 453.955 1103.81 453.811C1103.97 453.667 1104.18 453.594 1104.4 453.606C1104.84 453.632 1105.18 454.014 1105.16 454.46C1105.15 454.539 1105.22 454.606 1105.29 454.611C1105.37 454.615 1105.44 454.555 1105.45 454.476C1105.48 453.873 1105.02 453.354 1104.41 453.32C1104.12 453.304 1103.84 453.402 1103.62 453.597C1103.4 453.792 1103.27 454.06 1103.26 454.352C1103.24 454.644 1103.34 454.925 1103.53 455.144C1103.73 455.362 1104 455.491 1104.29 455.508V455.508Z" fill="black"/>
<path d="M1101.77 456.282C1101.78 456.074 1101.71 455.875 1101.58 455.72C1101.45 455.564 1101.26 455.471 1101.06 455.46C1100.64 455.436 1100.28 455.766 1100.26 456.196C1100.23 456.626 1100.55 456.994 1100.97 457.018C1100.98 457.019 1101 457.019 1101.01 457.019C1101.2 457.019 1101.38 456.949 1101.52 456.818C1101.67 456.679 1101.76 456.489 1101.77 456.282V456.282ZM1101.48 456.265C1101.48 456.398 1101.42 456.52 1101.32 456.608C1101.23 456.695 1101.11 456.739 1100.98 456.732C1100.72 456.717 1100.53 456.484 1100.54 456.212C1100.56 455.949 1100.77 455.745 1101.01 455.745C1101.02 455.745 1101.03 455.745 1101.04 455.746C1101.17 455.753 1101.28 455.81 1101.36 455.907C1101.45 456.006 1101.49 456.133 1101.48 456.265Z" fill="black"/>
<path d="M1105.6 458.624C1105.61 458.466 1105.55 458.314 1105.45 458.195C1105.35 458.075 1105.21 458.004 1105.05 457.995C1104.89 457.987 1104.74 458.041 1104.63 458.148C1104.51 458.255 1104.45 458.4 1104.44 458.559C1104.42 458.887 1104.66 459.17 1104.98 459.188C1104.99 459.188 1105 459.189 1105.02 459.189C1105.16 459.189 1105.3 459.135 1105.41 459.035C1105.52 458.928 1105.59 458.783 1105.6 458.624V458.624ZM1105.31 458.608C1105.31 458.692 1105.27 458.769 1105.21 458.824C1105.15 458.878 1105.08 458.906 1105 458.901C1104.84 458.892 1104.71 458.746 1104.72 458.575C1104.73 458.491 1104.76 458.414 1104.82 458.359C1104.88 458.308 1104.95 458.281 1105.02 458.281C1105.02 458.281 1105.03 458.281 1105.03 458.281C1105.11 458.286 1105.18 458.322 1105.24 458.382C1105.29 458.444 1105.32 458.524 1105.31 458.608V458.608Z" fill="black"/>
<path d="M1102.55 455.865C1102.55 455.939 1102.49 455.998 1102.42 455.998C1102.34 455.998 1102.28 455.939 1102.28 455.865C1102.28 455.792 1102.34 455.732 1102.42 455.732C1102.49 455.732 1102.55 455.792 1102.55 455.865V455.865Z" fill="black"/>
<path d="M1103.87 458.724C1103.87 458.798 1103.81 458.857 1103.74 458.857C1103.66 458.857 1103.6 458.798 1103.6 458.724C1103.6 458.651 1103.66 458.591 1103.74 458.591C1103.81 458.591 1103.87 458.651 1103.87 458.724Z" fill="black"/>
<path d="M1102.55 454.206C1102.55 454.279 1102.49 454.339 1102.42 454.339C1102.34 454.339 1102.28 454.279 1102.28 454.206C1102.28 454.132 1102.34 454.073 1102.42 454.073C1102.49 454.073 1102.55 454.132 1102.55 454.206Z" fill="black"/>
<path d="M1105.42 456.106C1105.42 456.179 1105.36 456.239 1105.28 456.239C1105.21 456.239 1105.15 456.179 1105.15 456.106C1105.15 456.032 1105.21 455.973 1105.28 455.973C1105.36 455.973 1105.42 456.032 1105.42 456.106Z" fill="black"/>
<path d="M1105.68 453.329C1105.68 453.402 1105.62 453.462 1105.55 453.462C1105.48 453.462 1105.42 453.402 1105.42 453.329C1105.42 453.255 1105.48 453.196 1105.55 453.196C1105.62 453.196 1105.68 453.255 1105.68 453.329Z" fill="black"/>
<path d="M1105.28 457.622C1105.28 457.695 1105.22 457.755 1105.15 457.755C1105.08 457.755 1105.02 457.695 1105.02 457.622C1105.02 457.548 1105.08 457.489 1105.15 457.489C1105.22 457.489 1105.28 457.548 1105.28 457.622Z" fill="black"/>
<path d="M1105.68 459.813C1105.68 459.886 1105.62 459.946 1105.55 459.946C1105.48 459.946 1105.42 459.886 1105.42 459.813C1105.42 459.739 1105.48 459.68 1105.55 459.68C1105.62 459.68 1105.68 459.739 1105.68 459.813Z" fill="black"/>
<path d="M1101.84 457.489C1101.84 457.562 1101.78 457.622 1101.71 457.622C1101.63 457.622 1101.57 457.562 1101.57 457.489C1101.57 457.415 1101.63 457.356 1101.71 457.356C1101.78 457.356 1101.84 457.415 1101.84 457.489Z" fill="black"/>
<path d="M1150.78 435.333C1153.02 435.431 1154.46 436.796 1155.03 437.465C1155.2 437.656 1155.21 437.933 1155.07 438.142C1154.31 439.277 1153.54 440.413 1152.77 441.548L1150.64 444.698C1150.46 444.963 1150.06 444.934 1149.92 444.647L1148.26 441.229L1146.46 437.529C1146.35 437.304 1146.4 437.033 1146.59 436.867C1147.22 436.308 1148.7 435.242 1150.78 435.333V435.333Z" fill="#FFE170"/>
<path d="M1155.03 437.465C1154.68 437.056 1154.01 436.386 1153.03 435.905C1153.29 436.135 1153.49 436.353 1153.64 436.525C1153.8 436.716 1153.82 436.993 1153.68 437.202C1152.91 438.337 1152.14 439.473 1151.37 440.608L1149.39 443.545L1149.92 444.647C1150.06 444.934 1150.46 444.963 1150.64 444.698L1152.77 441.548C1153.54 440.413 1154.31 439.277 1155.07 438.142C1155.21 437.933 1155.2 437.656 1155.03 437.465V437.465Z" fill="#FFD071"/>
<path d="M1150.82 436.859C1152.71 436.941 1153.95 438.038 1154.66 438.745C1154.78 438.581 1154.96 438.306 1155.07 438.142C1155.21 437.933 1155.2 437.656 1155.03 437.465C1154.46 436.796 1153.02 435.431 1150.78 435.333C1148.7 435.242 1147.22 436.308 1146.59 436.867C1146.4 437.033 1146.35 437.304 1146.46 437.529L1146.81 438.239C1147.51 437.66 1148.91 436.776 1150.82 436.859V436.859Z" fill="#FF9A2D"/>
<path d="M1155.06 438.164C1155.06 438.157 1155.07 438.149 1155.07 438.142C1155.07 438.142 1155.07 438.142 1155.07 438.142C1155.21 437.933 1155.2 437.656 1155.03 437.465C1154.68 437.056 1154.01 436.386 1153.03 435.905C1153.29 436.135 1153.49 436.353 1153.64 436.525C1153.8 436.716 1153.82 436.993 1153.68 437.202C1153.57 437.359 1153.46 437.516 1153.36 437.673C1153.91 438.023 1154.34 438.424 1154.66 438.745C1154.8 438.552 1154.93 438.358 1155.06 438.164Z" fill="#FF8D29"/>
<path d="M1150.97 441.223C1150.74 441.56 1150.28 441.65 1149.95 441.423C1149.61 441.196 1149.52 440.738 1149.75 440.401C1149.97 440.063 1150.43 439.974 1150.77 440.201C1151.11 440.428 1151.2 440.886 1150.97 441.223Z" fill="#74C577"/>
<path d="M1153.01 439.605C1152.73 440.022 1152.17 440.133 1151.75 439.852C1151.33 439.571 1151.22 439.004 1151.5 438.586C1151.78 438.168 1152.35 438.057 1152.77 438.339C1153.18 438.62 1153.29 439.187 1153.01 439.605V439.605Z" fill="#E55045"/>
<path d="M1152.86 438.41C1152.52 438.91 1152.18 439.41 1151.85 439.909C1152.23 440.105 1152.71 440.003 1152.98 439.646C1153.27 439.263 1153.22 438.723 1152.86 438.41V438.41Z" fill="#C43730"/>
<path d="M1149.1 439.115C1149.3 438.847 1149.26 438.47 1149 438.273C1148.74 438.077 1148.36 438.135 1148.16 438.403C1147.95 438.672 1148 439.049 1148.26 439.246C1148.52 439.442 1148.89 439.384 1149.1 439.115Z" fill="#FFF8E3"/>
<path d="M1150.89 443.024C1151.03 442.833 1151 442.564 1150.81 442.424C1150.63 442.284 1150.36 442.325 1150.22 442.517C1150.07 442.708 1150.1 442.977 1150.29 443.117C1150.47 443.257 1150.74 443.215 1150.89 443.024V443.024Z" fill="#C43730"/>
<path d="M1155.19 438.219C1155.34 437.985 1155.34 437.681 1155.19 437.45C1155.19 437.448 1155.19 437.446 1155.19 437.445C1155.18 437.421 1155.16 437.398 1155.14 437.375C1155.07 437.296 1154.99 437.209 1154.9 437.117C1154.6 436.796 1154.16 436.41 1153.61 436.068C1152.79 435.566 1151.91 435.277 1150.98 435.207C1150.91 435.202 1150.85 435.199 1150.79 435.196C1148.7 435.105 1147.2 436.139 1146.5 436.764C1146.49 436.777 1146.47 436.79 1146.46 436.804C1146.43 436.832 1146.41 436.862 1146.39 436.893C1146.25 437.095 1146.23 437.362 1146.34 437.589L1149.8 444.707C1149.84 444.797 1149.91 444.871 1149.99 444.924C1150.07 444.977 1150.16 445.009 1150.26 445.016C1150.46 445.031 1150.64 444.94 1150.75 444.775L1155.19 438.219C1155.19 438.219 1155.19 438.219 1155.19 438.219C1155.19 438.219 1155.19 438.219 1155.19 438.219ZM1150.28 444.743C1150.18 444.735 1150.09 444.677 1150.05 444.587L1146.98 438.278C1147.11 438.175 1147.24 438.077 1147.38 437.984C1147.45 437.942 1147.46 437.857 1147.42 437.794C1147.38 437.731 1147.29 437.714 1147.23 437.756C1147.1 437.841 1146.98 437.931 1146.86 438.025L1146.58 437.469C1146.5 437.299 1146.54 437.094 1146.68 436.97C1147.36 436.372 1148.78 435.383 1150.78 435.47C1151.73 435.512 1152.63 435.791 1153.46 436.302C1154.15 436.725 1154.64 437.216 1154.93 437.554C1155.05 437.698 1155.07 437.908 1154.96 438.065C1154.9 438.146 1154.83 438.256 1154.75 438.363C1154.71 438.418 1154.68 438.475 1154.64 438.528C1154.29 438.192 1153.83 437.789 1153.25 437.447C1152.49 437.003 1151.68 436.758 1150.83 436.721C1149.78 436.676 1148.77 436.906 1147.82 437.405C1147.75 437.44 1147.73 437.523 1147.76 437.59C1147.8 437.657 1147.88 437.683 1147.95 437.648C1148.86 437.172 1149.82 436.953 1150.81 436.996C1151.62 437.031 1152.39 437.262 1153.11 437.684C1153.69 438.024 1154.15 438.431 1154.49 438.764L1150.53 444.621C1150.47 444.704 1150.38 444.75 1150.28 444.743V444.743Z" fill="black"/>
<path d="M1151.05 441.34C1151.35 440.956 1151.27 440.407 1150.89 440.116C1150.7 439.975 1150.47 439.915 1150.24 439.946C1150.01 439.978 1149.8 440.098 1149.66 440.284C1149.52 440.47 1149.46 440.7 1149.49 440.931C1149.52 441.162 1149.64 441.367 1149.83 441.508C1149.84 441.518 1149.86 441.528 1149.87 441.537C1150.25 441.794 1150.77 441.71 1151.05 441.34ZM1150.84 441.174C1150.64 441.437 1150.26 441.489 1150 441.289C1149.87 441.193 1149.79 441.052 1149.76 440.893C1149.74 440.735 1149.78 440.577 1149.88 440.45C1149.98 440.322 1150.12 440.24 1150.28 440.218C1150.42 440.198 1150.57 440.232 1150.69 440.314C1150.7 440.321 1150.71 440.328 1150.72 440.335C1150.98 440.534 1151.04 440.911 1150.84 441.174V441.174Z" fill="black"/>
<path d="M1151.62 439.931C1151.64 439.944 1151.65 439.955 1151.67 439.966C1151.92 440.131 1152.22 440.185 1152.5 440.115C1152.58 440.097 1152.62 440.023 1152.61 439.949C1152.59 439.876 1152.51 439.83 1152.44 439.848C1152.21 439.903 1151.97 439.854 1151.79 439.713C1151.62 439.588 1151.52 439.406 1151.49 439.201C1151.46 438.996 1151.51 438.792 1151.64 438.627C1151.76 438.462 1151.95 438.356 1152.15 438.328C1152.36 438.3 1152.56 438.353 1152.72 438.478C1153.07 438.736 1153.13 439.223 1152.87 439.563C1152.83 439.624 1152.84 439.71 1152.9 439.756C1152.96 439.801 1153.05 439.79 1153.09 439.729C1153.44 439.268 1153.35 438.609 1152.89 438.259C1152.67 438.09 1152.39 438.018 1152.11 438.056C1151.84 438.094 1151.59 438.238 1151.42 438.461C1151.25 438.685 1151.18 438.96 1151.22 439.238C1151.26 439.516 1151.4 439.762 1151.62 439.931V439.931Z" fill="black"/>
<path d="M1149.21 439.198C1149.33 439.04 1149.38 438.846 1149.36 438.651C1149.33 438.455 1149.23 438.282 1149.08 438.164C1148.76 437.922 1148.3 437.992 1148.05 438.32C1147.8 438.649 1147.86 439.113 1148.18 439.355C1148.19 439.363 1148.2 439.371 1148.21 439.379C1148.36 439.479 1148.54 439.519 1148.72 439.491C1148.91 439.461 1149.09 439.357 1149.21 439.198V439.198ZM1148.99 439.032C1148.91 439.134 1148.8 439.2 1148.68 439.219C1148.56 439.238 1148.44 439.209 1148.34 439.136C1148.14 438.986 1148.11 438.694 1148.27 438.486C1148.42 438.285 1148.7 438.235 1148.89 438.368C1148.9 438.373 1148.91 438.378 1148.91 438.383C1149.01 438.455 1149.07 438.562 1149.08 438.684C1149.1 438.807 1149.06 438.931 1148.99 439.032Z" fill="black"/>
<path d="M1150.99 443.107C1151.09 442.986 1151.13 442.838 1151.11 442.689C1151.09 442.538 1151.02 442.405 1150.9 442.315C1150.78 442.224 1150.63 442.187 1150.48 442.211C1150.33 442.234 1150.2 442.313 1150.11 442.434C1149.92 442.685 1149.96 443.041 1150.21 443.226C1150.21 443.233 1150.22 443.239 1150.23 443.245C1150.35 443.322 1150.48 443.352 1150.62 443.331C1150.77 443.308 1150.9 443.228 1150.99 443.107V443.107ZM1150.78 442.941C1150.73 443.005 1150.66 443.047 1150.58 443.059C1150.5 443.071 1150.43 443.053 1150.37 443.008C1150.25 442.913 1150.23 442.731 1150.33 442.6C1150.37 442.536 1150.44 442.494 1150.52 442.482C1150.59 442.471 1150.66 442.486 1150.72 442.525C1150.72 442.527 1150.73 442.53 1150.73 442.534C1150.79 442.579 1150.83 442.645 1150.84 442.721C1150.85 442.799 1150.82 442.877 1150.78 442.941V442.941Z" fill="black"/>
<path d="M1150.05 439.285C1150.01 439.343 1149.93 439.358 1149.87 439.319C1149.81 439.28 1149.8 439.201 1149.84 439.142C1149.88 439.084 1149.96 439.068 1150.01 439.108C1150.07 439.147 1150.09 439.226 1150.05 439.285V439.285Z" fill="black"/>
<path d="M1149.57 442.263C1149.53 442.322 1149.45 442.337 1149.39 442.298C1149.33 442.259 1149.32 442.18 1149.36 442.121C1149.4 442.063 1149.48 442.047 1149.53 442.087C1149.59 442.126 1149.61 442.205 1149.57 442.263Z" fill="black"/>
<path d="M1150.94 437.966C1150.9 438.024 1150.82 438.04 1150.76 438.001C1150.7 437.961 1150.68 437.882 1150.72 437.824C1150.76 437.765 1150.84 437.75 1150.9 437.789C1150.96 437.828 1150.97 437.908 1150.94 437.966Z" fill="black"/>
<path d="M1152.2 441.009C1152.16 441.067 1152.08 441.083 1152.02 441.043C1151.96 441.004 1151.95 440.925 1151.99 440.867C1152.03 440.808 1152.1 440.793 1152.16 440.832C1152.22 440.871 1152.24 440.951 1152.2 441.009Z" fill="black"/>
<path d="M1153.89 438.944C1153.85 439.003 1153.78 439.018 1153.72 438.979C1153.66 438.94 1153.64 438.861 1153.68 438.802C1153.72 438.744 1153.8 438.728 1153.86 438.768C1153.92 438.807 1153.93 438.886 1153.89 438.944Z" fill="black"/>
<path d="M1151.28 442.142C1151.24 442.201 1151.16 442.216 1151.1 442.177C1151.05 442.138 1151.03 442.059 1151.07 442C1151.11 441.942 1151.19 441.926 1151.25 441.966C1151.3 442.005 1151.32 442.084 1151.28 442.142Z" fill="black"/>
<path d="M1150.43 444.097C1150.39 444.155 1150.31 444.171 1150.25 444.131C1150.19 444.092 1150.18 444.013 1150.21 443.955C1150.25 443.896 1150.33 443.881 1150.39 443.92C1150.45 443.959 1150.47 444.039 1150.43 444.097Z" fill="black"/>
<path d="M1148.62 440.195C1148.58 440.254 1148.5 440.269 1148.44 440.23C1148.38 440.191 1148.37 440.112 1148.41 440.053C1148.44 439.995 1148.52 439.979 1148.58 440.019C1148.64 440.058 1148.66 440.137 1148.62 440.195Z" fill="black"/>
<path d="M1164.24 424.47C1168.15 423.862 1171.11 425.729 1172.34 426.688C1172.69 426.961 1172.81 427.437 1172.64 427.847C1171.71 430.081 1170.77 432.315 1169.83 434.548L1167.24 440.744C1167.02 441.265 1166.32 441.354 1165.98 440.905L1161.91 435.56L1157.51 429.776C1157.24 429.424 1157.24 428.936 1157.51 428.583C1158.4 427.397 1160.59 425.037 1164.24 424.47V424.47Z" fill="#FFE170"/>
<path d="M1172.34 426.688C1171.59 426.101 1170.19 425.174 1168.32 424.683C1168.85 424.991 1169.28 425.298 1169.59 425.544C1169.94 425.818 1170.07 426.293 1169.89 426.703C1168.96 428.937 1168.02 431.171 1167.09 433.404L1164.67 439.182L1165.98 440.905C1166.32 441.354 1167.02 441.265 1167.24 440.744L1169.83 434.548C1170.77 432.315 1171.71 430.081 1172.64 427.847C1172.81 427.437 1172.69 426.962 1172.34 426.688V426.688Z" fill="#FFD071"/>
<path d="M1164.83 427.101C1168.13 426.587 1170.67 428.055 1172.14 429.034C1172.28 428.711 1172.51 428.17 1172.64 427.847C1172.81 427.437 1172.69 426.961 1172.34 426.688C1171.11 425.729 1168.15 423.862 1164.24 424.47C1160.59 425.037 1158.4 427.397 1157.51 428.583C1157.24 428.936 1157.24 429.424 1157.51 429.776L1158.35 430.887C1159.38 429.638 1161.49 427.62 1164.83 427.101V427.101Z" fill="#FF9A2D"/>
<path d="M1172.62 427.891C1172.63 427.876 1172.63 427.861 1172.64 427.847C1172.64 427.847 1172.64 427.847 1172.64 427.847C1172.81 427.437 1172.69 426.961 1172.34 426.688C1171.59 426.101 1170.19 425.174 1168.32 424.683C1168.85 424.991 1169.28 425.298 1169.59 425.544C1169.94 425.818 1170.07 426.293 1169.89 426.703C1169.76 427.012 1169.64 427.321 1169.51 427.63C1170.59 428.045 1171.47 428.59 1172.14 429.034C1172.3 428.653 1172.46 428.272 1172.62 427.891Z" fill="#FF8D29"/>
<path d="M1166.6 434.61C1166.32 435.274 1165.56 435.587 1164.9 435.311C1164.24 435.035 1163.92 434.273 1164.2 433.61C1164.47 432.947 1165.24 432.633 1165.9 432.909C1166.56 433.185 1166.88 433.947 1166.6 434.61Z" fill="#74C577"/>
<path d="M1169.58 431.096C1169.24 431.918 1168.3 432.307 1167.47 431.964C1166.65 431.622 1166.26 430.679 1166.61 429.857C1166.95 429.036 1167.89 428.647 1168.71 428.989C1169.53 429.331 1169.92 430.275 1169.58 431.096V431.096Z" fill="#E55045"/>
<path d="M1168.9 429.081C1168.49 430.064 1168.08 431.047 1167.66 432.03C1168.4 432.234 1169.2 431.891 1169.54 431.179C1169.91 430.414 1169.62 429.499 1168.9 429.081V429.081Z" fill="#C43730"/>
<path d="M1162.63 431.609C1162.89 431.073 1162.68 430.435 1162.16 430.185C1161.64 429.934 1161.01 430.165 1160.75 430.701C1160.49 431.237 1160.7 431.875 1161.22 432.125C1161.74 432.376 1162.37 432.145 1162.63 431.609Z" fill="#FFF8E3"/>
<path d="M1167.08 437.759C1167.27 437.378 1167.12 436.923 1166.75 436.745C1166.38 436.566 1165.93 436.731 1165.75 437.113C1165.56 437.495 1165.71 437.949 1166.08 438.127C1166.45 438.306 1166.9 438.141 1167.08 437.759V437.759Z" fill="#C43730"/>
<path d="M1172.86 427.94C1173.06 427.481 1172.95 426.954 1172.61 426.606C1172.61 426.603 1172.61 426.601 1172.6 426.598C1172.57 426.562 1172.53 426.528 1172.49 426.496C1172.34 426.383 1172.18 426.259 1171.99 426.13C1171.35 425.682 1170.46 425.163 1169.38 424.763C1167.79 424.177 1166.16 423.983 1164.53 424.185C1164.42 424.198 1164.31 424.213 1164.2 424.23C1160.54 424.799 1158.31 427.11 1157.31 428.437C1157.29 428.464 1157.27 428.492 1157.25 428.521C1157.22 428.578 1157.19 428.638 1157.16 428.699C1156.99 429.097 1157.04 429.567 1157.32 429.923L1165.79 441.052C1165.89 441.193 1166.03 441.299 1166.19 441.363C1166.34 441.427 1166.51 441.451 1166.69 441.429C1167.04 441.384 1167.33 441.163 1167.46 440.838L1172.86 427.941C1172.86 427.941 1172.86 427.941 1172.86 427.941C1172.86 427.941 1172.86 427.941 1172.86 427.94ZM1166.63 440.948C1166.45 440.97 1166.28 440.899 1166.17 440.758L1158.66 430.894C1158.85 430.671 1159.05 430.453 1159.26 430.244C1159.36 430.149 1159.36 429.996 1159.26 429.901C1159.17 429.807 1159.01 429.807 1158.92 429.902C1158.73 430.094 1158.54 430.294 1158.36 430.499L1157.7 429.629C1157.5 429.364 1157.5 428.994 1157.7 428.729C1158.66 427.461 1160.79 425.252 1164.27 424.71C1165.93 424.451 1167.6 424.623 1169.21 425.219C1170.55 425.713 1171.57 426.394 1172.19 426.879C1172.45 427.084 1172.55 427.444 1172.42 427.753C1172.35 427.914 1172.26 428.131 1172.16 428.341C1172.12 428.451 1172.07 428.562 1172.02 428.667C1171.31 428.204 1170.37 427.665 1169.24 427.275C1167.78 426.769 1166.28 426.63 1164.79 426.861C1162.97 427.145 1161.29 427.894 1159.82 429.089C1159.72 429.173 1159.7 429.326 1159.78 429.43C1159.87 429.534 1160.02 429.55 1160.12 429.466C1161.53 428.326 1163.13 427.611 1164.86 427.34C1166.27 427.121 1167.69 427.254 1169.09 427.734C1170.21 428.122 1171.14 428.669 1171.84 429.128L1167.02 440.65C1166.95 440.814 1166.8 440.925 1166.63 440.948V440.948Z" fill="black"/>
<path d="M1166.79 434.783C1167.16 434.017 1166.84 433.092 1166.07 432.721C1165.7 432.542 1165.28 432.517 1164.89 432.652C1164.5 432.787 1164.19 433.066 1164.01 433.437C1163.83 433.808 1163.81 434.227 1163.94 434.617C1164.08 435.006 1164.36 435.32 1164.73 435.5C1164.75 435.512 1164.78 435.524 1164.81 435.536C1165.56 435.848 1166.43 435.523 1166.79 434.783ZM1166.35 434.572C1166.1 435.097 1165.46 435.317 1164.94 435.063C1164.68 434.94 1164.49 434.725 1164.4 434.457C1164.31 434.19 1164.32 433.903 1164.45 433.649C1164.57 433.394 1164.79 433.203 1165.05 433.11C1165.3 433.024 1165.57 433.032 1165.81 433.132C1165.82 433.14 1165.84 433.149 1165.86 433.158C1166.39 433.412 1166.61 434.046 1166.35 434.572V434.572Z" fill="black"/>
<path d="M1167.28 432.145C1167.32 432.161 1167.35 432.175 1167.38 432.189C1167.86 432.389 1168.4 432.379 1168.88 432.157C1169 432.101 1169.05 431.957 1168.99 431.835C1168.94 431.714 1168.79 431.661 1168.67 431.718C1168.3 431.892 1167.87 431.889 1167.5 431.709C1167.17 431.549 1166.92 431.271 1166.8 430.926C1166.68 430.581 1166.7 430.209 1166.86 429.88C1167.02 429.551 1167.3 429.304 1167.64 429.184C1167.99 429.064 1168.36 429.086 1168.69 429.245C1169.37 429.574 1169.65 430.394 1169.33 431.074C1169.27 431.194 1169.32 431.339 1169.44 431.398C1169.56 431.456 1169.7 431.406 1169.76 431.285C1170.21 430.365 1169.82 429.254 1168.9 428.808C1168.46 428.592 1167.95 428.563 1167.48 428.725C1167.02 428.888 1166.64 429.223 1166.42 429.668C1166.21 430.114 1166.18 430.617 1166.34 431.085C1166.5 431.553 1166.84 431.93 1167.28 432.145V432.145Z" fill="black"/>
<path d="M1162.84 431.715C1163 431.399 1163.02 431.043 1162.91 430.714C1162.81 430.382 1162.57 430.117 1162.26 429.967C1161.63 429.658 1160.85 429.94 1160.53 430.596C1160.22 431.251 1160.48 432.035 1161.11 432.344C1161.13 432.355 1161.16 432.364 1161.18 432.374C1161.47 432.496 1161.8 432.502 1162.1 432.39C1162.43 432.271 1162.69 432.031 1162.84 431.715V431.715ZM1162.41 431.503C1162.31 431.706 1162.14 431.859 1161.94 431.934C1161.73 432.009 1161.52 432 1161.32 431.907C1160.93 431.715 1160.77 431.222 1160.97 430.807C1161.16 430.406 1161.62 430.224 1162.01 430.385C1162.03 430.391 1162.04 430.397 1162.05 430.403C1162.24 430.495 1162.39 430.66 1162.45 430.866C1162.52 431.075 1162.51 431.301 1162.41 431.503Z" fill="black"/>
<path d="M1167.3 437.866C1167.42 437.624 1167.44 437.352 1167.35 437.101C1167.27 436.846 1167.09 436.642 1166.86 436.527C1166.62 436.412 1166.35 436.399 1166.1 436.491C1165.85 436.583 1165.65 436.766 1165.53 437.007C1165.29 437.509 1165.49 438.109 1165.97 438.346C1165.99 438.354 1166.01 438.362 1166.02 438.369C1166.25 438.463 1166.5 438.468 1166.73 438.382C1166.98 438.29 1167.18 438.107 1167.3 437.866V437.866ZM1166.86 437.654C1166.8 437.782 1166.7 437.878 1166.57 437.926C1166.44 437.973 1166.3 437.967 1166.19 437.909C1165.94 437.789 1165.84 437.48 1165.97 437.219C1166.03 437.091 1166.13 436.994 1166.26 436.947C1166.38 436.903 1166.51 436.906 1166.62 436.952C1166.63 436.956 1166.64 436.96 1166.64 436.964C1166.76 437.021 1166.85 437.123 1166.89 437.252C1166.94 437.383 1166.93 437.526 1166.86 437.654V437.654Z" fill="black"/>
<path d="M1164.33 431.572C1164.29 431.686 1164.15 431.741 1164.04 431.693C1163.92 431.645 1163.87 431.513 1163.92 431.398C1163.97 431.284 1164.1 431.229 1164.21 431.277C1164.33 431.325 1164.38 431.457 1164.33 431.572V431.572Z" fill="black"/>
<path d="M1164.54 436.899C1164.49 437.013 1164.36 437.068 1164.24 437.02C1164.13 436.972 1164.07 436.84 1164.12 436.726C1164.17 436.611 1164.3 436.556 1164.42 436.604C1164.53 436.652 1164.59 436.784 1164.54 436.899Z" fill="black"/>
<path d="M1165.41 428.979C1165.36 429.094 1165.23 429.148 1165.12 429.1C1165 429.052 1164.95 428.921 1165 428.806C1165.04 428.691 1165.18 428.637 1165.29 428.685C1165.41 428.732 1165.46 428.864 1165.41 428.979Z" fill="black"/>
<path d="M1168.66 433.813C1168.61 433.927 1168.48 433.982 1168.36 433.934C1168.25 433.886 1168.19 433.754 1168.24 433.639C1168.29 433.525 1168.42 433.47 1168.53 433.518C1168.65 433.566 1168.7 433.698 1168.66 433.813Z" fill="black"/>
<path d="M1170.88 429.647C1170.83 429.762 1170.7 429.816 1170.58 429.768C1170.47 429.72 1170.41 429.588 1170.46 429.474C1170.51 429.359 1170.64 429.305 1170.76 429.352C1170.87 429.4 1170.93 429.532 1170.88 429.647Z" fill="black"/>
<path d="M1167.46 436.095C1167.41 436.21 1167.28 436.264 1167.17 436.216C1167.05 436.168 1167 436.036 1167.05 435.922C1167.09 435.807 1167.22 435.753 1167.34 435.8C1167.45 435.848 1167.51 435.98 1167.46 436.095Z" fill="black"/>
<path d="M1166.66 439.777C1166.61 439.892 1166.48 439.946 1166.36 439.899C1166.25 439.851 1166.2 439.719 1166.24 439.604C1166.29 439.489 1166.42 439.435 1166.54 439.483C1166.65 439.531 1166.71 439.663 1166.66 439.777Z" fill="black"/>
<path d="M1162.17 433.647C1162.12 433.762 1161.99 433.816 1161.87 433.768C1161.76 433.72 1161.71 433.589 1161.75 433.474C1161.8 433.359 1161.93 433.305 1162.05 433.352C1162.16 433.4 1162.22 433.532 1162.17 433.647Z" fill="black"/>
<path d="M1183.28 437.186C1182.84 434.58 1184.06 432.587 1184.69 431.759C1184.87 431.523 1185.19 431.437 1185.47 431.549C1186.96 432.154 1188.46 432.759 1189.96 433.364L1194.12 435.043C1194.47 435.184 1194.53 435.651 1194.24 435.883L1190.7 438.643L1186.88 441.63C1186.65 441.812 1186.32 441.818 1186.08 441.643C1185.29 441.054 1183.69 439.613 1183.28 437.186V437.186Z" fill="#FFE170"/>
<path d="M1184.69 431.759C1184.31 432.266 1183.7 433.209 1183.39 434.461C1183.59 434.104 1183.79 433.815 1183.95 433.602C1184.13 433.366 1184.45 433.28 1184.73 433.391C1186.22 433.997 1187.72 434.602 1189.22 435.207L1193.1 436.773L1194.24 435.883C1194.53 435.651 1194.47 435.184 1194.12 435.043L1189.96 433.364C1188.46 432.759 1186.96 432.154 1185.47 431.549C1185.19 431.437 1184.87 431.523 1184.69 431.759V431.759Z" fill="#FFD071"/>
<path d="M1185.03 436.769C1184.66 434.569 1185.62 432.864 1186.26 431.87C1186.04 431.783 1185.68 431.636 1185.46 431.548C1185.19 431.437 1184.87 431.523 1184.69 431.759C1184.06 432.587 1182.84 434.58 1183.28 437.186C1183.69 439.613 1185.29 441.054 1186.08 441.643C1186.32 441.818 1186.65 441.812 1186.88 441.63L1187.61 441.057C1186.77 440.384 1185.41 438.989 1185.03 436.769V436.769Z" fill="#FF9A2D"/>
<path d="M1185.49 431.561C1185.48 431.557 1185.47 431.552 1185.47 431.549C1185.47 431.549 1185.46 431.549 1185.46 431.549C1185.19 431.437 1184.87 431.523 1184.69 431.759C1184.31 432.266 1183.7 433.209 1183.39 434.461C1183.59 434.104 1183.79 433.815 1183.95 433.602C1184.13 433.366 1184.45 433.28 1184.73 433.391C1184.93 433.475 1185.14 433.559 1185.35 433.642C1185.61 432.919 1185.97 432.321 1186.26 431.87C1186.01 431.767 1185.75 431.664 1185.49 431.561Z" fill="#FF8D29"/>
<path d="M1190.03 435.522C1190.47 435.701 1190.69 436.206 1190.51 436.651C1190.33 437.096 1189.83 437.312 1189.38 437.133C1188.94 436.955 1188.72 436.449 1188.9 436.004C1189.08 435.559 1189.58 435.343 1190.03 435.522Z" fill="#74C577"/>
<path d="M1187.66 433.563C1188.21 433.784 1188.48 434.411 1188.26 434.962C1188.04 435.513 1187.41 435.78 1186.86 435.559C1186.31 435.338 1186.04 434.711 1186.26 434.16C1186.48 433.609 1187.11 433.342 1187.66 433.563V433.563Z" fill="#E55045"/>
<path d="M1186.32 434.036C1186.98 434.302 1187.64 434.568 1188.3 434.835C1188.43 434.342 1188.19 433.811 1187.71 433.587C1187.2 433.346 1186.59 433.547 1186.32 434.036V434.036Z" fill="#C43730"/>
<path d="M1188.06 438.2C1187.7 438.031 1187.28 438.176 1187.11 438.524C1186.95 438.871 1187.11 439.289 1187.47 439.458C1187.83 439.627 1188.25 439.482 1188.42 439.134C1188.58 438.787 1188.42 438.369 1188.06 438.2Z" fill="#FFF8E3"/>
<path d="M1192.13 435.174C1191.87 435.054 1191.57 435.157 1191.45 435.404C1191.34 435.652 1191.45 435.95 1191.71 436.07C1191.96 436.19 1192.27 436.087 1192.38 435.84C1192.5 435.592 1192.38 435.294 1192.13 435.174V435.174Z" fill="#C43730"/>
<path d="M1185.53 431.398C1185.22 431.274 1184.87 431.349 1184.64 431.579C1184.64 431.581 1184.63 431.582 1184.63 431.584C1184.61 431.608 1184.59 431.634 1184.57 431.662C1184.49 431.759 1184.41 431.871 1184.32 431.996C1184.03 432.43 1183.69 433.025 1183.44 433.752C1183.06 434.816 1182.94 435.906 1183.09 436.995C1183.1 437.068 1183.11 437.14 1183.12 437.213C1183.53 439.648 1185.09 441.115 1185.99 441.774C1186.01 441.787 1186.03 441.8 1186.05 441.812C1186.08 441.835 1186.12 441.855 1186.16 441.872C1186.43 441.98 1186.75 441.942 1186.98 441.758L1194.34 436.011C1194.43 435.938 1194.5 435.845 1194.54 435.74C1194.58 435.637 1194.6 435.523 1194.58 435.407C1194.55 435.173 1194.4 434.982 1194.18 434.893L1185.53 431.399C1185.53 431.399 1185.53 431.399 1185.53 431.399C1185.53 431.399 1185.53 431.399 1185.53 431.398ZM1194.26 435.452C1194.28 435.569 1194.23 435.682 1194.14 435.755L1187.62 440.85C1187.47 440.725 1187.32 440.593 1187.18 440.456C1187.11 440.394 1187.01 440.395 1186.95 440.459C1186.89 440.524 1186.89 440.626 1186.95 440.688C1187.08 440.815 1187.22 440.937 1187.36 441.054L1186.78 441.503C1186.61 441.64 1186.36 441.644 1186.18 441.513C1185.33 440.884 1183.83 439.481 1183.44 437.159C1183.26 436.053 1183.36 434.943 1183.74 433.86C1184.06 432.963 1184.5 432.276 1184.82 431.858C1184.96 431.68 1185.2 431.615 1185.4 431.699C1185.51 431.742 1185.66 431.803 1185.8 431.863C1185.87 431.894 1185.95 431.925 1186.02 431.954C1185.71 432.437 1185.36 433.063 1185.11 433.82C1184.79 434.804 1184.71 435.805 1184.87 436.796C1185.08 438.011 1185.59 439.12 1186.4 440.094C1186.46 440.163 1186.56 440.172 1186.63 440.115C1186.7 440.058 1186.71 439.956 1186.65 439.887C1185.88 438.958 1185.39 437.9 1185.19 436.742C1185.03 435.804 1185.11 434.855 1185.42 433.922C1185.67 433.168 1186.03 432.545 1186.33 432.071L1194.06 435.194C1194.17 435.238 1194.24 435.334 1194.26 435.452V435.452Z" fill="black"/>
<path d="M1190.14 435.395C1189.63 435.154 1189.01 435.376 1188.77 435.89C1188.66 436.139 1188.64 436.419 1188.74 436.678C1188.83 436.937 1189.02 437.144 1189.27 437.26C1189.52 437.377 1189.8 437.39 1190.06 437.296C1190.32 437.203 1190.52 437.014 1190.64 436.765C1190.65 436.747 1190.65 436.729 1190.66 436.711C1190.86 436.208 1190.64 435.627 1190.14 435.395ZM1190.01 435.688C1190.36 435.853 1190.51 436.275 1190.35 436.627C1190.27 436.798 1190.12 436.928 1189.95 436.992C1189.77 437.056 1189.58 437.047 1189.41 436.967C1189.24 436.887 1189.11 436.745 1189.04 436.568C1188.98 436.403 1188.99 436.226 1189.05 436.065C1189.06 436.053 1189.06 436.04 1189.07 436.028C1189.23 435.675 1189.65 435.523 1190.01 435.688V435.688Z" fill="black"/>
<path d="M1188.38 435.086C1188.39 435.065 1188.4 435.043 1188.41 435.021C1188.54 434.699 1188.53 434.34 1188.37 434.024C1188.33 433.943 1188.24 433.91 1188.16 433.948C1188.08 433.987 1188.04 434.084 1188.08 434.164C1188.2 434.413 1188.2 434.699 1188.09 434.949C1187.98 435.17 1187.8 435.337 1187.57 435.42C1187.34 435.503 1187.09 435.492 1186.87 435.388C1186.65 435.285 1186.48 435.101 1186.4 434.872C1186.32 434.642 1186.33 434.394 1186.43 434.173C1186.65 433.717 1187.19 433.52 1187.65 433.734C1187.73 433.772 1187.82 433.737 1187.86 433.656C1187.9 433.575 1187.86 433.478 1187.78 433.441C1187.17 433.151 1186.43 433.418 1186.14 434.036C1186 434.335 1185.98 434.671 1186.09 434.982C1186.21 435.293 1186.43 435.541 1186.73 435.681C1187.03 435.822 1187.37 435.837 1187.68 435.725C1187.99 435.612 1188.24 435.385 1188.38 435.086V435.086Z" fill="black"/>
<path d="M1188.13 438.054C1187.92 437.954 1187.68 437.94 1187.46 438.015C1187.24 438.091 1187.07 438.247 1186.97 438.455C1186.77 438.883 1186.96 439.399 1187.4 439.605C1187.84 439.811 1188.36 439.631 1188.56 439.203C1188.57 439.189 1188.58 439.174 1188.58 439.159C1188.66 438.962 1188.66 438.745 1188.59 438.543C1188.5 438.327 1188.34 438.153 1188.13 438.054V438.054ZM1187.99 438.347C1188.13 438.41 1188.23 438.521 1188.28 438.658C1188.34 438.793 1188.33 438.938 1188.27 439.066C1188.15 439.332 1187.82 439.442 1187.54 439.312C1187.27 439.185 1187.14 438.88 1187.25 438.619C1187.25 438.61 1187.26 438.601 1187.26 438.593C1187.32 438.465 1187.43 438.368 1187.57 438.322C1187.7 438.274 1187.86 438.283 1187.99 438.347Z" fill="black"/>
<path d="M1192.2 435.028C1192.03 434.952 1191.85 434.941 1191.69 434.998C1191.52 435.056 1191.38 435.176 1191.31 435.336C1191.23 435.496 1191.23 435.676 1191.29 435.843C1191.35 436.008 1191.48 436.141 1191.64 436.217C1191.98 436.375 1192.37 436.237 1192.53 435.909C1192.53 435.897 1192.54 435.886 1192.54 435.875C1192.6 435.724 1192.6 435.557 1192.55 435.402C1192.48 435.236 1192.36 435.104 1192.2 435.028V435.028ZM1192.06 435.321C1192.14 435.361 1192.21 435.431 1192.24 435.517C1192.27 435.601 1192.27 435.692 1192.23 435.771C1192.16 435.937 1191.95 436.006 1191.78 435.924C1191.69 435.884 1191.62 435.814 1191.59 435.728C1191.56 435.649 1191.56 435.566 1191.59 435.49C1191.59 435.485 1191.6 435.479 1191.6 435.473C1191.64 435.394 1191.7 435.334 1191.79 435.305C1191.88 435.275 1191.97 435.281 1192.06 435.321V435.321Z" fill="black"/>
<path d="M1188.02 437.061C1188.1 437.092 1188.14 437.18 1188.1 437.257C1188.07 437.334 1187.99 437.371 1187.91 437.34C1187.83 437.309 1187.79 437.222 1187.83 437.145C1187.86 437.068 1187.94 437.03 1188.02 437.061V437.061Z" fill="black"/>
<path d="M1191.57 436.879C1191.65 436.91 1191.69 436.998 1191.66 437.075C1191.63 437.152 1191.54 437.189 1191.46 437.158C1191.39 437.127 1191.35 437.04 1191.38 436.963C1191.41 436.886 1191.5 436.848 1191.57 436.879Z" fill="black"/>
<path d="M1186.28 436.363C1186.36 436.394 1186.4 436.481 1186.37 436.558C1186.33 436.635 1186.25 436.672 1186.17 436.642C1186.09 436.611 1186.06 436.523 1186.09 436.446C1186.12 436.369 1186.2 436.332 1186.28 436.363Z" fill="black"/>
<path d="M1189.48 434.158C1189.56 434.189 1189.59 434.276 1189.56 434.353C1189.53 434.43 1189.44 434.467 1189.37 434.437C1189.29 434.406 1189.25 434.318 1189.28 434.241C1189.32 434.164 1189.4 434.127 1189.48 434.158Z" fill="black"/>
<path d="M1186.68 432.71C1186.76 432.741 1186.8 432.828 1186.76 432.905C1186.73 432.982 1186.65 433.02 1186.57 432.989C1186.49 432.958 1186.45 432.87 1186.49 432.793C1186.52 432.716 1186.6 432.679 1186.68 432.71Z" fill="black"/>
<path d="M1191.01 434.935C1191.09 434.966 1191.13 435.054 1191.1 435.131C1191.07 435.208 1190.98 435.245 1190.9 435.214C1190.82 435.183 1190.79 435.096 1190.82 435.019C1190.85 434.942 1190.94 434.904 1191.01 434.935Z" fill="black"/>
<path d="M1193.48 435.439C1193.55 435.47 1193.59 435.558 1193.56 435.635C1193.53 435.712 1193.44 435.749 1193.37 435.718C1193.29 435.687 1193.25 435.6 1193.28 435.523C1193.31 435.446 1193.4 435.408 1193.48 435.439Z" fill="black"/>
<path d="M1189.42 438.488C1189.5 438.519 1189.54 438.606 1189.51 438.683C1189.48 438.76 1189.39 438.798 1189.31 438.767C1189.24 438.736 1189.2 438.648 1189.23 438.571C1189.26 438.494 1189.35 438.457 1189.42 438.488Z" fill="black"/>
</svg>
