<svg width="58" height="56" viewBox="0 0 58 56" fill="none" xmlns="http://www.w3.org/2000/svg">
<path d="M57.6515 28.4699L57.4044 23.9682L55.99 18.1939L49.8807 8.29741L41.4884 5.08937L40.1469 1.63722L26.555 1.68266L24.2261 0L18.5294 1.70147L8.87299 8.37L6.94059 10.657L3.85755 15.7407L0.22179 26.7814L0 31.6613L2.84135 37.3343L13.4529 51.0657L18.6842 53.891L30.1217 56L32.2764 53.8453L34.6053 55.5282L40.302 53.8267L49.8807 47.2308L51.8905 44.8709L51.301 41.2147L54.9733 39.7875L57.6515 28.4699Z" fill="#A8A58F"/>
<path d="M57.6515 28.4699L57.4044 23.9682L55.9901 18.1939L49.8807 8.29741H45.9963L41.4884 5.08937L40.1469 1.63722L26.555 1.68266L24.2261 0L18.5294 1.70147L15.6254 8.29741L8.95071 10.333L3.85758 15.7407L1.17969 27.058L2.44027 31.8831L2.84137 37.3343L13.4529 51.0657L18.6843 53.891L30.1217 56L32.2764 53.8453L34.6054 55.5282L40.302 53.8267L49.8807 47.2308L51.8906 44.8709L51.301 41.2147L54.9733 39.7875L57.6515 28.4699Z" fill="#D3D1B7"/>
<path d="M24.0412 22.8462L24.5955 20.628L24.3063 19.229L19.9374 16.857L18.0227 16.1266L13.9536 15.0582L13.3364 14.7246L11.4263 15.4671L11.1754 18.077L9.62262 20.0734L6.61621 21.1563L6.63476 27.1374L13.3942 33.5277L20.3517 32.7695L24.3367 28.9558L23.6342 26.8339L24.0412 22.8462Z" fill="#9E9A80"/>
<path d="M23.6346 26.8339L24.0416 22.8462L19.8821 19.5188L14.2258 17.855L8.73556 23.3452L8.6748 29.0655L13.3945 33.5277L20.352 32.7696L24.337 28.9558L23.6346 26.8339Z" fill="#C1BEA0"/>
<path d="M43.8935 38.4058L39.244 34.5254L34.7536 35.2978L32.3174 37.9364L32.8594 39.287L32.7553 41.8945L32.4843 43.3581L32.7284 44.2557L35.6628 45.6211L36.9365 46.0187L39.6236 46.5492L40.0381 46.7411L41.2495 46.1819L41.3073 44.4759L42.2362 43.1161L44.146 42.2913L43.8935 38.4058Z" fill="#9E9A80"/>
<path d="M42.4905 37.235L39.244 34.5254L34.7536 35.2978L32.3174 37.9364L32.8594 39.287L32.7553 41.8945L35.5921 43.8893L39.3343 44.7428L42.6811 40.9544L42.4905 37.235Z" fill="#C1BEA0"/>
<path d="M48.1653 18.4671L47.8343 17.0194L46.8388 14.1375L46.7912 13.6312L45.5742 12.7796L43.901 13.6796L42.0726 13.5482L40.209 12.1733L36.613 14.5937L35.4863 21.2399L38.7452 25.1262L42.6484 25.9908L43.644 24.713L46.21 23.3522L47.7698 22.7927L48.4962 22.0545L48.1653 18.4671Z" fill="#9E9A80"/>
<path d="M45.2632 15.4281L39.7439 14.3315L36.2738 16.5992L35.4863 21.2399L38.7452 25.1262L42.6484 25.9908L43.644 24.713L46.21 23.3521L46.5391 19.5056L45.2632 15.4281Z" fill="#C1BEA0"/>
</svg>
