<svg width="112" height="109" viewBox="0 0 112 109" fill="none" xmlns="http://www.w3.org/2000/svg">
<path d="M101.351 88.8169C106.976 83.9628 109.536 76.366 107.764 69.1495C107.096 66.4277 105.827 63.7503 103.584 61.5895C95.7317 54.0281 96.5121 36.769 85.5451 34.323C74.5794 31.8769 59.6351 25.1444 51.9231 16.9554C44.211 8.76648 33.5664 9.79075 30.6285 11.6573C27.6907 13.5239 17.816 10.1157 11.9119 18.8856C6.00912 27.6554 -5.06862 33.0781 12.9904 49.9346C31.0493 66.7898 24.4886 69.1644 36.2636 77.8203C48.0375 86.4777 57.0042 83.2373 71.9992 94.5631C83.3091 103.106 93.6399 95.4698 101.351 88.8169Z" fill="#CA6D4E"/>
<path d="M34.4629 52.7171C36.2777 53.4321 38.3625 52.9476 39.6492 51.4826C48.7353 41.1343 59.43 48.4043 59.43 48.4043C65.6337 52.9578 70.5533 48.3943 70.5533 48.3943C75.1277 44.916 78.7676 47.1342 78.7676 47.1342C90.0546 40.305 95.7403 47.4492 95.7403 47.4492L95.8664 46.3861C93.6807 40.6792 91.1431 35.5721 85.5456 34.3232C74.5786 31.8772 59.6344 25.1447 51.9223 16.9558C44.2102 8.76684 33.5668 9.79091 30.629 11.6575C27.6899 13.5243 17.8152 10.116 11.9124 18.8858C6.00959 27.6556 -5.06815 33.0783 12.9909 49.9347C15.5371 52.3106 17.5929 54.3995 19.2813 56.2581C25.3792 50.5883 31.1179 51.3968 34.4629 52.7171Z" fill="#BF5543"/>
<path d="M76.5177 51.4828C78.5697 50.4563 79.4014 47.9596 78.3749 45.9077C77.3484 43.8558 74.8529 43.0238 72.801 44.0503C70.7477 45.0758 69.9159 47.5725 70.9424 49.6244C71.9691 51.6775 74.4646 52.5095 76.5177 51.4828Z" fill="#BF5543"/>
<path d="M53.0389 59.5577C58.7697 56.6918 61.0933 49.7223 58.2272 43.9902C55.36 38.2596 48.3905 35.936 42.6599 38.8032C36.9278 41.6693 34.6055 48.6386 37.4714 54.3694C40.3375 60.1015 47.3068 62.4238 53.0389 59.5577Z" fill="#B33C37"/>
<path d="M58.2279 43.9873C55.362 38.2565 48.3925 35.933 42.6617 38.7989C37.383 41.4395 34.9993 47.5581 36.8946 52.9864C37.9387 52.825 38.9211 52.3109 39.6491 51.4824C48.7287 41.1414 59.4144 48.3939 59.4298 48.4041C59.33 46.9091 58.9391 45.4098 58.2279 43.9873Z" fill="#A33131"/>
<path d="M75.5496 77.1141C79.2588 75.2587 80.7625 70.7488 78.9071 67.0397C77.053 63.3303 72.5419 61.8268 68.8327 63.6822C65.1248 65.5374 63.6211 70.0472 65.4765 73.7564C67.3306 77.4657 71.8415 78.968 75.5496 77.1141Z" fill="#BF5543"/>
<path d="M38.2315 10.4095C37.1732 12.331 36.8816 14.6681 37.6153 16.9184C39.0213 21.2309 43.6569 23.5868 47.9692 22.1796C50.2028 21.4522 51.9096 19.8562 52.8426 17.8884C52.5273 17.5797 52.2181 17.2687 51.9224 16.9557C47.656 12.4243 42.4924 10.7166 38.2315 10.4095Z" fill="#B33C37"/>
<path d="M82.8211 61.8144C82.5413 59.99 83.8072 58.3233 85.5837 58.0508C87.6624 57.7319 89.4753 59.418 89.379 61.4623C89.2974 63.0781 88.108 64.342 86.5846 64.5757C84.8019 64.8492 83.1001 63.6327 82.8211 61.8144Z" fill="#E2866D"/>
</svg>
