<svg width="52" height="55" viewBox="0 0 52 55" fill="none" xmlns="http://www.w3.org/2000/svg">
<path d="M9.33617 30.2269C6.54751 28.8025 4.58131 26.4079 3.63934 23.6663C3.59317 23.5349 3.55028 23.4024 3.51065 23.2689C2.66681 20.4956 2.85622 17.403 4.28064 14.6143C7.1914 8.91575 14.1947 6.64801 19.8932 9.55878C24.8754 12.1043 27.2239 17.7497 25.8178 22.9249L23.638 27.1923C20.2473 31.392 14.2856 32.755 9.33617 30.2269Z" fill="#725D57"/>
<path d="M9.33633 30.227C6.54767 28.8025 4.58146 26.408 3.6395 23.6664L3.5108 23.269C2.66697 20.4956 2.85637 17.403 4.28079 14.6144L24.7281 25.0586L23.6382 27.1923C20.2475 31.392 14.2858 32.7551 9.33633 30.227Z" fill="#53433F"/>
<path d="M26.5415 30.3226L15.1567 23.2584C14.8874 23.0908 14.7006 22.8405 14.6101 22.5608C14.4973 22.2124 14.5333 21.8186 14.7408 21.483L15.9773 19.0624C16.2474 18.404 17.0009 18.0886 17.6594 18.3587L30.0561 23.4419L28.2988 26.8822L26.5415 30.3226Z" fill="#FFF7CC"/>
<path d="M26.5416 30.3227L15.1568 23.2584C14.8875 23.0909 14.7007 22.8405 14.6102 22.5609C14.4974 22.2125 14.5334 21.8187 14.7409 21.4831L15.3592 20.2728L28.2989 26.8823L26.5416 30.3227Z" fill="#FFCA80"/>
<path d="M18.0595 21.6522C19.0291 19.7526 18.2734 17.4187 16.3743 16.448C14.4745 15.4776 12.1406 16.2333 11.1701 18.1332C10.1997 20.0331 10.9565 22.3675 12.8553 23.3374C14.7552 24.3078 17.0891 23.5521 18.0595 21.6522Z" fill="#FF641A"/>
<path d="M12.856 23.3374C10.9572 22.3675 10.2004 20.0331 11.1708 18.1332L18.0602 21.6523C17.0897 23.5521 14.7559 24.3079 12.856 23.3374Z" fill="#F03800"/>
<path d="M49.5778 40.6476C49.9948 39.8313 50.2199 38.9669 50.2708 38.1057C50.4185 35.6265 49.1183 33.1735 46.7691 31.9736L30.153 23.4863L28.3935 26.931L26.634 30.3757L37.6241 35.9893C36.8215 38.8792 38.1323 42.0399 40.9047 43.456C44.0701 45.0729 47.961 43.8129 49.5778 40.6476ZM43.2501 38.863C42.6157 38.539 42.3644 37.7629 42.6885 37.1285C43.0125 36.4942 43.7894 36.2426 44.4237 36.5666C45.0573 36.8909 45.3086 37.667 44.9854 38.3011C44.6614 38.9355 43.8845 39.187 43.2501 38.863Z" fill="#FF641A"/>
<path d="M49.5783 40.6473C49.9952 39.8311 50.2203 38.9667 50.2712 38.1054L28.3939 26.9307L26.6344 30.3754L37.6245 35.989C36.8219 38.879 38.1327 42.0396 40.9051 43.4558C44.0705 45.0726 47.9614 43.8127 49.5783 40.6473ZM43.2505 38.8628C42.6161 38.5387 42.3648 37.7627 42.6889 37.1283C43.0129 36.4939 43.7898 36.2424 44.4242 36.5664C45.0577 36.8907 45.309 37.6667 44.9858 38.3008C44.6618 38.9352 43.8849 39.1868 43.2505 38.8628Z" fill="#F03800"/>
<path d="M24.2884 34.9687C23.6548 34.6444 23.4024 33.8678 23.7265 33.2334L30.7645 19.4547C31.0885 18.8203 31.8654 18.5687 32.4998 18.8928C33.1333 19.2171 33.3849 19.9939 33.0617 20.628L26.0236 34.4068C25.6993 35.0403 24.9225 35.2919 24.2884 34.9687Z" fill="#FF9100"/>
<path d="M24.2881 34.969C23.6545 34.6447 23.4021 33.8681 23.7262 33.2337L27.2452 26.3443L29.5424 27.5177L26.0234 34.4071C25.6991 35.0406 24.9222 35.2922 24.2881 34.969Z" fill="#FF641A"/>
</svg>
