<svg width="141" height="189" viewBox="0 0 141 189" fill="none" xmlns="http://www.w3.org/2000/svg">
<path d="M120.557 119.468L129.646 123.368L124.546 136.29L132.277 141.391L138.08 126.701C139.903 122.144 137.748 116.964 133.229 115.049L121.395 109.97C121.018 109.812 120.621 109.705 120.216 109.652L120.557 119.468Z" fill="#FF5722"/>
<path d="M25.4434 119.468L16.3527 123.368L21.4533 136.29L13.7231 141.391L7.91895 126.701C6.09562 122.144 8.25207 116.964 12.7704 115.049L24.6039 109.97C24.9816 109.812 25.3781 109.705 25.7828 109.652L25.4434 119.468Z" fill="#FF5722"/>
<path d="M120.59 116.408C120.837 133.769 112.626 150.164 98.5769 160.365L72.7327 179.635L69.3549 177.073L47.3878 160.365C43.0822 157.345 39.2861 153.656 36.1438 149.439L30.1362 139.169C27.3966 132.94 25.8067 126.265 25.4435 119.469C25.3979 118.448 25.375 117.428 25.375 116.408C25.3729 114.15 25.5089 111.894 25.7829 109.652C28.6626 85.2602 46.9343 66.149 69.5821 64.4263C70.7154 64.3132 71.8486 64.2675 72.9818 64.2675C99.2794 64.2675 120.59 87.6179 120.59 116.408Z" fill="#FEC108"/>
<path d="M113.788 116.408C114.035 133.769 105.825 150.164 91.7755 160.365L69.3549 177.073L47.3878 160.365C43.0822 157.345 39.2861 153.656 36.1438 149.439L30.1362 139.169C27.3966 132.94 25.8067 126.265 25.4435 119.469C25.3979 118.448 25.375 117.428 25.375 116.408C25.3729 114.15 25.5089 111.894 25.7829 109.652C28.6626 85.2601 46.9343 66.1489 69.5821 64.4263C94.292 66.3077 113.788 88.8642 113.788 116.408Z" fill="#FF2E00"/>
<path d="M72.9819 175.35V182.152C72.9747 184.653 70.949 186.678 68.448 186.686H41.2444C38.7434 186.678 36.7178 184.653 36.7105 182.152V175.35C36.6918 167.023 43.1383 160.112 51.4455 159.55C51.8222 159.504 52.201 159.481 52.5798 159.481H57.1137C61.3228 159.478 65.3607 161.15 68.338 164.126C71.3143 167.102 72.985 171.141 72.9819 175.35Z" fill="#283593"/>
<path d="M66.1815 175.35V182.152C66.1743 184.653 64.1486 186.678 61.6476 186.686H41.2444C38.7434 186.678 36.7178 184.653 36.7105 182.152V175.35C36.6918 167.023 43.1383 160.112 51.4455 159.55C59.7537 160.112 66.1992 167.023 66.1815 175.35Z" fill="#3F51B5"/>
<path d="M109.254 175.35V182.152C109.247 184.653 107.221 186.678 104.721 186.686H77.5159C75.0149 186.678 72.9892 184.653 72.982 182.152V175.35C72.9643 167.023 79.4098 160.112 87.718 159.55C88.0937 159.504 88.4725 159.481 88.8512 159.481H93.3852C97.5953 159.478 101.633 161.15 104.609 164.126C107.587 167.102 109.258 171.141 109.254 175.35V175.35Z" fill="#283593"/>
<path d="M102.453 175.35V182.152C102.446 184.653 100.42 186.678 97.9191 186.686H77.5159C75.0149 186.678 72.9892 184.653 72.982 182.152V175.35C72.9643 167.023 79.4098 160.112 87.718 159.55C96.0252 160.112 102.472 167.023 102.453 175.35V175.35Z" fill="#3F51B5"/>
<path d="M63.9141 97.1393C63.9141 91.5053 61.8842 86.9371 59.3801 86.9371C56.876 86.9371 54.8462 91.5053 54.8462 97.1393C54.8462 102.773 56.876 107.34 59.3801 107.34C61.8842 107.34 63.9141 102.773 63.9141 97.1393Z" fill="#3F51B5"/>
<path d="M61.8986 92.6053C61.8986 89.4744 60.7716 86.9371 59.3799 86.9371C57.9894 86.9371 56.8613 89.4744 56.8613 92.6053C56.8613 95.7352 57.9894 98.2725 59.3799 98.2725C60.7716 98.2725 61.8986 95.7352 61.8986 92.6053Z" fill="#F5F5F5"/>
<path d="M91.1186 97.1393C91.1186 91.5053 89.0888 86.9371 86.5847 86.9371C84.0806 86.9371 82.0508 91.5053 82.0508 97.1393C82.0508 102.773 84.0806 107.34 86.5847 107.34C89.0888 107.34 91.1186 102.773 91.1186 97.1393V97.1393Z" fill="#3F51B5"/>
<path d="M89.1032 92.6053C89.1032 89.4744 87.9752 86.9371 86.5846 86.9371C85.193 86.9371 84.0649 89.4744 84.0649 92.6053C84.0649 95.7352 85.193 98.2725 86.5846 98.2725C87.9752 98.2725 89.1032 95.7352 89.1032 92.6053Z" fill="#F5F5F5"/>
<path d="M33.0937 142.14C28.6293 136.29 21.1305 134.51 16.3444 138.163C11.5583 141.814 11.2978 149.518 15.7622 155.367C20.2266 161.217 27.7254 162.998 32.5115 159.345C37.2976 155.692 37.5581 147.989 33.0937 142.14V142.14Z" fill="#FF9801"/>
<path d="M130.247 155.378C127.116 159.986 121.421 162.121 116.033 160.706C115.116 160.398 114.257 159.939 113.494 159.345C108.711 155.695 108.439 147.988 112.904 142.139C114.768 139.642 117.356 137.782 120.317 136.811C123.465 135.701 126.957 136.209 129.658 138.172C134.441 141.822 134.69 149.506 130.247 155.378V155.378Z" fill="#F57C00"/>
<path d="M123.446 155.378C121.578 157.87 118.991 159.73 116.033 160.706C115.116 160.398 114.257 159.939 113.494 159.345C108.711 155.695 108.439 147.988 112.904 142.139C114.768 139.642 117.356 137.782 120.317 136.811C121.234 137.119 122.092 137.578 122.856 138.172C127.64 141.822 127.889 149.506 123.446 155.378V155.378Z" fill="#FF9801"/>
<path d="M52.2673 122.862C52.2839 122.059 52.726 121.325 53.4286 120.935C54.1301 120.546 54.9873 120.558 55.6774 120.968C60.919 124.039 66.9089 125.598 72.9819 125.476C79.0558 125.598 85.0457 124.039 90.2874 120.968C90.9775 120.558 91.8347 120.546 92.5362 120.935C93.2387 121.325 93.6808 122.059 93.6964 122.862C93.878 130.996 92.0048 148.147 72.9819 148.147C53.9589 148.147 52.0857 130.996 52.2673 122.862V122.862Z" fill="#CFD8DC"/>
<path d="M92.8414 132.119C86.6533 135.141 79.8685 136.744 72.982 136.811C66.0965 136.744 59.3117 135.141 53.1236 132.119C52.4781 129.093 52.1927 126 52.2716 122.907C52.2768 122.098 52.7126 121.353 53.4162 120.954C54.1198 120.554 54.9822 120.56 55.6796 120.97C60.9212 124.039 66.9101 125.599 72.982 125.476C79.0549 125.599 85.0437 124.039 90.2854 120.97C90.9828 120.56 91.8452 120.554 92.5488 120.954C93.2523 121.353 93.6882 122.097 93.6934 122.907C93.7723 126 93.4869 129.092 92.8414 132.119V132.119Z" fill="#F5F5F5"/>
<path d="M47.3859 162.633C46.9231 162.632 46.4716 162.489 46.0918 162.225C41.5869 159.068 37.6155 155.211 34.331 150.799C33.8235 150.153 33.7063 149.282 34.0238 148.523C34.3414 147.766 35.0439 147.239 35.8606 147.147C36.6774 147.055 37.4795 147.412 37.9579 148.08C40.955 152.105 44.5767 155.624 48.6852 158.506C49.4967 159.072 49.8474 160.101 49.5496 161.045C49.2528 161.989 48.3769 162.632 47.3869 162.632L47.3859 162.633Z" fill="black"/>
<path d="M98.5789 162.633C97.5889 162.634 96.712 161.991 96.4152 161.047C96.1173 160.102 96.467 159.073 97.2796 158.507C101.416 155.618 105.052 152.069 108.041 148.005C108.784 146.996 110.204 146.782 111.211 147.525C112.22 148.268 112.434 149.688 111.691 150.697C108.407 155.159 104.415 159.054 99.8729 162.226C99.4931 162.491 99.0417 162.633 98.5789 162.633V162.633Z" fill="black"/>
<path d="M115.805 141.481C115.488 141.482 115.175 141.415 114.885 141.284C113.741 140.776 113.227 139.436 113.736 138.292C116.389 132.305 117.921 125.885 118.259 119.346C118.301 118.383 118.322 117.396 118.322 116.408C118.324 114.243 118.193 112.08 117.93 109.931C115.017 85.1844 95.6928 66.5339 72.9817 66.5339C50.2716 66.5339 30.9476 85.1844 28.0346 109.917C27.7711 112.071 27.6403 114.238 27.6424 116.408C27.6424 117.396 27.6642 118.382 27.7078 119.366C28.0533 125.882 29.5788 132.282 32.2106 138.253C32.5374 138.994 32.4451 139.853 31.9667 140.507C31.4893 141.162 30.6986 141.51 29.8922 141.424C29.0869 141.337 28.3896 140.826 28.0616 140.085C25.2078 133.606 23.5536 126.662 23.179 119.592C23.1313 118.517 23.1084 117.463 23.1084 116.408C23.1053 114.057 23.2485 111.707 23.5339 109.373C26.7126 82.3721 47.9729 62 72.9817 62C97.9914 62 119.252 82.3721 122.433 109.386C122.717 111.715 122.858 114.061 122.856 116.408C122.856 117.463 122.833 118.516 122.786 119.57C122.42 126.667 120.757 133.639 117.877 140.136C117.513 140.955 116.701 141.481 115.805 141.481V141.481Z" fill="black"/>
<path d="M68.4479 188.952H41.2443C37.4897 188.948 34.447 185.905 34.4429 182.152V175.35C34.4543 165.339 42.5674 157.226 52.5796 157.215H57.1136C67.1247 157.226 75.2379 165.339 75.2493 175.35V182.152C75.2451 185.905 72.2024 188.948 68.4479 188.952ZM52.5796 161.749C45.0705 161.757 38.9851 167.841 38.9768 175.35V182.152C38.9778 183.403 39.9928 184.417 41.2443 184.418H68.4479C69.6994 184.417 70.7143 183.403 70.7153 182.152V175.35C70.707 167.841 64.6217 161.757 57.1136 161.749H52.5796Z" fill="black"/>
<path d="M72.9818 179.884H36.7104C35.4578 179.884 34.4429 178.869 34.4429 177.618C34.4429 176.365 35.4578 175.35 36.7104 175.35H72.9818C74.2343 175.35 75.2493 176.365 75.2493 177.618C75.2493 178.869 74.2343 179.884 72.9818 179.884V179.884Z" fill="black"/>
<path d="M104.72 188.952H77.5157C73.7622 188.948 70.7195 185.905 70.7153 182.152V175.35C70.7267 165.339 78.8399 157.226 88.851 157.215H93.385C103.396 157.226 111.509 165.339 111.521 175.35V182.152C111.518 185.905 108.475 188.948 104.72 188.952V188.952ZM88.851 161.749C81.3429 161.757 75.2576 167.841 75.2493 175.35V182.152C75.2503 183.403 76.2642 184.417 77.5157 184.418H104.72C105.972 184.417 106.986 183.403 106.987 182.152V175.35C106.978 167.841 100.894 161.757 93.385 161.749H88.851Z" fill="black"/>
<path d="M109.254 179.884H72.9818C71.7303 179.884 70.7153 178.869 70.7153 177.618C70.7153 176.365 71.7303 175.35 72.9818 175.35H109.254C110.506 175.35 111.521 176.365 111.521 177.618C111.521 178.869 110.506 179.884 109.254 179.884V179.884Z" fill="black"/>
<path d="M59.38 109.608C54.9145 109.608 52.5796 103.336 52.5796 97.1393C52.5796 90.9418 54.9145 84.6707 59.38 84.6707C63.8464 84.6707 66.1814 90.9418 66.1814 97.1393C66.1814 103.336 63.8464 109.608 59.38 109.608ZM59.3353 89.1974C58.7905 89.406 57.1135 92.1602 57.1135 97.1393C57.1135 102.118 58.7905 104.872 59.4256 105.08C59.9694 104.872 61.6474 102.118 61.6474 97.1393C61.6474 92.1602 59.9694 89.406 59.3353 89.1974Z" fill="black"/>
<path d="M86.5846 109.608C82.1181 109.608 79.7832 103.336 79.7832 97.1393C79.7832 90.9418 82.1181 84.6707 86.5846 84.6707C91.0501 84.6707 93.385 90.9418 93.385 97.1393C93.385 103.336 91.0501 109.608 86.5846 109.608V109.608ZM86.539 89.1974C85.9952 89.406 84.3171 92.1602 84.3171 97.1393C84.3171 102.118 85.9952 104.872 86.6292 105.08C87.1741 104.872 88.8511 102.118 88.8511 97.1393C88.8511 92.1602 87.1741 89.406 86.539 89.1974V89.1974Z" fill="black"/>
<path d="M26.7292 163.513C25.6396 163.51 24.5531 163.38 23.4935 163.126C19.6767 162.156 16.3102 159.902 13.9607 156.742C8.74605 149.909 9.19955 140.763 14.9694 136.36C20.7424 131.952 29.6795 133.929 34.8963 140.765C37.3236 143.864 38.6104 147.706 38.5378 151.642C38.5181 155.354 36.8058 158.854 33.8866 161.147C31.8287 162.706 29.3111 163.539 26.7292 163.513V163.513ZM22.1642 138.525C20.5639 138.499 19.0011 139.005 17.7205 139.964C13.9358 142.853 13.8663 149.145 17.5648 153.993C19.2792 156.321 21.7418 157.988 24.5406 158.713C26.8029 159.346 29.2302 158.915 31.1355 157.542C32.964 156.066 34.0204 153.839 34.0059 151.489C34.0433 148.598 33.0854 145.783 31.2922 143.515C29.1721 140.544 25.8087 138.706 22.1642 138.525V138.525Z" fill="black"/>
<path d="M11.6145 142.222L5.81139 127.533C3.52834 121.836 6.22442 115.36 11.876 112.966L23.7115 107.887C24.2875 107.645 24.8935 107.481 25.5131 107.401L26.0558 111.903C25.8545 111.931 25.6584 111.985 25.4716 112.065L13.6651 117.133C10.2768 118.567 8.65898 122.45 10.0278 125.866L15.8319 140.557L11.6145 142.222Z" fill="black"/>
<path d="M19.3444 137.122L14.2439 124.202C13.7935 123.061 14.3321 121.769 15.4581 121.286L24.5488 117.385L26.3378 121.551L19.2687 124.585L23.5619 135.456L19.3444 137.122Z" fill="black"/>
<path d="M119.272 163.495C116.691 163.525 114.172 162.699 112.11 161.147C109.192 158.853 107.48 155.354 107.461 151.642C107.415 143.562 112.828 136.469 120.634 134.383C124.22 133.421 128.048 134.149 131.03 136.36C136.801 140.763 137.253 149.909 132.038 156.742C129.052 160.842 124.341 163.332 119.272 163.495V163.495ZM123.851 138.532C123.121 138.534 122.393 138.622 121.684 138.792C115.977 140.38 112.019 145.566 111.994 151.489C111.98 153.839 113.036 156.066 114.862 157.543C118.649 160.432 124.736 158.838 128.435 153.993C132.134 149.145 132.063 142.853 128.281 139.964C127.003 139.009 125.445 138.505 123.85 138.532H123.851Z" fill="black"/>
<path d="M134.385 142.222L130.168 140.558L135.972 125.868C137.342 122.451 135.724 118.567 132.333 117.133L120.502 112.054C120.323 111.98 120.136 111.929 119.945 111.903L120.488 107.401C121.097 107.48 121.693 107.639 122.261 107.875L134.123 112.966C139.776 115.36 142.473 121.838 140.188 127.536L134.385 142.222Z" fill="black"/>
<path d="M126.654 137.122L122.438 135.456L126.73 124.585L119.663 121.551L121.451 117.385L130.542 121.286C131.669 121.769 132.206 123.061 131.757 124.202L126.654 137.122Z" fill="black"/>
<path d="M72.9816 150.413C66.5642 150.78 60.3262 148.218 56.0185 143.447C48.0175 134.122 50.2404 118.973 50.3389 118.33C50.4687 117.487 51.0602 116.789 51.8696 116.522C52.6791 116.256 53.5695 116.465 54.1755 117.066C54.2948 117.181 60.6459 123.21 72.9816 123.21C85.3755 123.21 91.7275 117.125 91.7898 117.064C92.3969 116.467 93.2862 116.261 94.0936 116.528C94.902 116.794 95.4935 117.49 95.6253 118.33C95.7239 118.973 97.9468 134.122 89.9457 143.447C85.638 148.218 79.4001 150.78 72.9816 150.413ZM54.5398 122.933C54.4412 127.582 55.0399 135.354 59.4701 140.507C62.9341 144.242 67.8987 146.216 72.9816 145.879C78.0707 146.216 83.0405 144.238 86.5056 140.495C90.9419 135.324 91.5355 127.568 91.4297 122.928C85.8424 126.203 79.4572 127.869 72.9816 127.744C66.5092 127.868 60.127 126.204 54.5398 122.933V122.933Z" fill="black"/>
<path d="M72.9821 139.079C65.7552 139.03 58.6311 137.349 52.1441 134.162C51.3917 133.825 50.8812 133.107 50.8106 132.286C50.74 131.464 51.1209 130.669 51.8058 130.209C52.4907 129.75 53.3707 129.699 54.1034 130.074C65.9908 136.008 79.9745 136.008 91.8609 130.074C92.5946 129.699 93.4746 129.75 94.1595 130.209C94.8444 130.669 95.2253 131.464 95.1547 132.286C95.0841 133.107 94.5735 133.825 93.8201 134.162C87.3332 137.349 80.21 139.03 72.9821 139.079V139.079Z" fill="black"/>
<path d="M66.1815 111.874C65.5796 111.875 65.0026 111.636 64.5781 111.21C63.09 110.077 61.248 109.509 59.38 109.608C57.4996 109.506 55.6462 110.084 54.1571 111.237C53.2511 112.085 51.8335 112.056 50.9639 111.171C50.1005 110.29 50.1057 108.878 50.9763 108.005C53.2999 105.989 56.3073 104.941 59.38 105.074C62.4528 104.941 65.4602 105.989 67.7837 108.005C68.4323 108.653 68.6264 109.628 68.2756 110.475C67.9249 111.322 67.0978 111.874 66.1815 111.874Z" fill="black"/>
<path d="M93.3848 111.874C92.784 111.875 92.207 111.636 91.7825 111.21C90.2944 110.077 88.4524 109.509 86.5844 109.608C84.704 109.506 82.8496 110.084 81.3604 111.237C80.4544 112.085 79.0379 112.056 78.1683 111.171C77.3038 110.29 77.309 108.878 78.1807 108.005C80.5043 105.989 83.5106 104.941 86.5844 105.074C89.6572 104.941 92.6646 105.989 94.9881 108.005C95.6357 108.653 95.8298 109.628 95.479 110.475C95.1282 111.322 94.3022 111.874 93.3848 111.874Z" fill="black"/>
<path d="M50.8416 79.8722C52.0755 80.8902 53.409 81.7827 54.8214 82.5361C56.1487 83.2262 57.5362 83.7928 58.9672 84.2286C60.418 84.569 61.8636 84.8907 63.4046 85.1522C64.1674 85.339 64.9644 85.3785 65.7738 85.5912C66.6352 85.7033 67.4851 85.887 68.3153 86.1412L68.3993 86.1682C68.72 86.2751 68.9493 86.5573 68.9888 86.8936C69.0272 87.2288 68.8684 87.5567 68.5799 87.7342C66.9486 88.7003 65.1107 89.2638 63.2178 89.3769C59.2785 89.6073 55.4264 88.1555 52.6183 85.3837C51.2121 84.0315 50.2273 82.3005 49.7821 80.4014C49.7292 80.1503 49.8402 79.8929 50.0592 79.758C50.2781 79.6241 50.5573 79.6428 50.7576 79.8037L50.8416 79.8722Z" fill="black"/>
<path d="M96.1807 80.4014C95.7366 82.3005 94.7517 84.0315 93.3456 85.3837C90.5374 88.1555 86.6853 89.6073 82.746 89.3769C80.8531 89.2638 79.0153 88.7003 77.3829 87.7342C77.0965 87.5567 76.9377 87.2288 76.9771 86.8936C77.0155 86.5594 77.2449 86.2761 77.5645 86.1692L77.6486 86.1422C78.4798 85.888 79.3297 85.7033 80.1911 85.5922C81.0005 85.3795 81.7975 85.3401 82.5602 85.1522C84.1023 84.8918 85.5469 84.5711 86.9977 84.2297C88.4277 83.7938 89.8162 83.2262 91.1424 82.5361C92.5558 81.7837 93.8883 80.8912 95.1232 79.8732L95.2052 79.8068C95.4045 79.6459 95.6836 79.6273 95.9026 79.7611C96.1205 79.895 96.2326 80.1513 96.1807 80.4014Z" fill="black"/>
<path d="M39.4119 161.245C28.6654 138.884 34.3883 126.071 42.6478 113.999C51.6928 100.778 54.0238 87.6917 54.0238 87.6917C54.0238 87.6917 61.1341 96.935 58.2897 111.392C70.8511 97.4088 73.2218 75.1303 71.3249 66.5981C99.7184 86.4403 111.853 129.404 95.4996 161.245C182.48 112.032 117.135 38.3947 105.759 30.0999C109.551 38.3944 110.271 52.4364 102.61 59.251C89.6422 10.0777 57.5789 0 57.5789 0C61.3711 25.359 43.833 53.0888 26.9209 73.8091C26.3269 63.6972 25.6956 56.7196 20.3781 47.043C19.1845 65.4123 5.14616 80.3861 1.3446 98.791C-3.80478 123.716 5.20179 141.965 39.4119 161.245Z" fill="url(#paint0_linear)" fill-opacity="0.39"/>
<defs>
<linearGradient id="paint0_linear" x1="70" y1="0" x2="70" y2="161.245" gradientUnits="userSpaceOnUse">
<stop offset="0.28125" stop-color="#EA1D1D"/>
<stop offset="0.541667" stop-color="#FF7A00" stop-opacity="0.5625"/>
<stop offset="1" stop-color="#EA1D1D" stop-opacity="0"/>
</linearGradient>
</defs>
</svg>
