<svg width="116" height="116" viewBox="0 0 116 116" fill="none" xmlns="http://www.w3.org/2000/svg">
<path d="M99.998 18.001L93.9975 22.0012L83.9968 20.0011L77.9963 18.001L69.9956 20.0011L63.9951 18.001L67.9953 10.0004H75.9959L83.8366 6.0802C89.8834 9.07038 95.3537 13.1066 99.998 18.001Z" fill="#03AA6F"/>
<path d="M53.9951 10.0004L51.995 16.0009L45.9945 18.001L39.994 28.0018L29.9933 34.0023L15.9924 36.0024V42.0029L19.9926 46.0031V54.0037L13.9925 50.0033L7.99196 46.0031L4.51172 35.5425C10.502 21.2672 21.953 9.9823 36.3139 4.19995L41.9943 8.00032L53.9951 10.0004Z" fill="#03AA6F"/>
<path d="M57.9952 66.0043L55.9951 76.005L47.9945 84.0056V90.0062L39.9938 96.0065V106.007L33.9935 104.007L29.9931 94.0064V74.0049L19.9924 72.0048L15.9922 64.0042V58.0037L19.9924 54.0035L25.9929 48.0029L29.9931 56.0036H43.994L49.9946 66.0043H57.9952Z" fill="#03AA6F"/>
<path d="M108.599 29.6618C119.518 49.1412 118.274 73.161 105.399 91.4061L99.9987 86.0058V78.0052L95.9985 70.0045L91.9983 62.0039V54.0033L85.9977 50.0031L77.9971 52.0032L63.9962 46.0027L61.9961 32.0017L67.9966 26.0012H79.9974L83.9976 32.0017L95.9985 34.0018L107.999 30.0016L108.599 29.6618Z" fill="#03AA6F"/>
<path d="M69.9969 20.0011L77.9975 18.001L83.9981 20.0011L93.9988 22.0012L99.9993 18.001C103.349 21.5073 106.24 25.4255 108.6 29.6617L108 30.0018L95.9991 34.002L83.9983 32.0019L79.9981 26.0014H67.9973L61.9967 32.0019L63.9968 46.0028L77.9978 52.0034L85.9984 50.0033L91.9989 54.0035V62.0041L95.9991 70.0047L99.9993 78.0053V86.006L105.4 91.4063C86.9284 117.58 50.7356 123.823 24.5637 105.351C2.33609 89.662 -6.00257 60.6338 4.51223 35.5422L7.99246 46.0028L13.993 50.003L19.9935 54.0032L15.9931 58.0037V64.0042L19.9933 72.0048L29.994 74.0049V94.0064L33.9942 104.007L39.9947 106.007V96.0065L47.9954 90.0059V84.0054L55.996 76.0048L57.9961 66.0041H49.9955L43.9949 56.0033H29.994L25.9938 48.0027L19.9933 54.0032V46.0026L15.9931 42.0026V36.0021L29.994 34.002L39.9947 28.0015L45.9953 18.0008L51.9958 16.0007L53.9959 10.0001L41.9951 8.00005L36.3147 4.19968C51.6958 -1.99479 68.993 -1.31079 83.8381 6.07992L75.9974 10.0001H67.9968L63.9966 18.0008L69.9969 20.0011Z" fill="#86DAF1"/>
</svg>
