<svg width="282" height="217" viewBox="0 0 282 217" fill="none" xmlns="http://www.w3.org/2000/svg">
<path d="M273.783 11.265C266.789 8.53159 259.004 12.1996 256.606 19.2307L239.201 70.2857L230.117 73.3921L237.74 98.4498L250.651 94.1793C260.689 91.1256 262.912 81.701 263.066 81.4504L281.264 28.0706C283.547 21.3744 280.372 13.8403 273.783 11.265Z" fill="#F7CF9C"/>
<path d="M271.927 18.7345C272.829 16.0894 272.867 13.317 272.192 10.7671C265.646 9.11533 258.823 12.729 256.606 19.2315L239.201 70.2866L230.117 73.393L234.306 87.161L241.314 84.8431C251.352 81.7894 253.575 72.3657 253.729 72.1142L271.927 18.7345Z" fill="#EAB883"/>
<path d="M2.35187 93.0288C6.71323 86.9155 15.2363 85.7293 21.0888 90.3048L63.5817 123.53L73.5671 120.512L80.8879 145.66L67.062 149.796C56.9874 152.729 49.959 146.048 49.7066 145.929L5.27898 111.19C-0.294012 106.833 -1.7563 98.7888 2.35187 93.0288Z" fill="#EAB883"/>
<path d="M70.2711 136.794C60.1965 139.727 53.168 133.046 52.9157 132.927L8.48807 98.1881C6.19141 96.3927 4.60678 93.9669 3.80809 91.3372C3.28809 91.8546 2.79358 92.4094 2.35175 93.0297C-1.75726 98.7888 -0.294129 106.833 5.27887 111.191L49.7065 145.93C49.9588 146.049 56.9873 152.73 67.0619 149.797L80.8877 145.662L77.6624 134.584L70.2711 136.794Z" fill="#F7CF9C"/>
<path d="M156.918 70.5516C149.799 75.71 140.933 78.5071 131.865 78.1868L135.979 91.5317C136.915 94.5693 135.255 97.7997 132.239 98.8058L126.005 100.886C131.879 109.026 143.906 113.333 154.068 110.724C165.218 107.862 174.274 96.2415 174.507 85.4447L169.012 87.2757C165.561 88.4262 161.839 86.5119 160.768 83.0359L156.918 70.5516Z" fill="#EAB883"/>
<path d="M131.864 78.1877L135.978 91.5326C136.914 94.5702 135.254 97.8006 132.238 98.8066L126.004 100.887C128.934 104.947 133.396 108.053 138.393 109.823L142.35 108.268C148.746 105.756 152.03 98.6537 149.801 92.1546L145.377 79.2481L145.025 76.4518C140.814 77.7356 136.364 78.3465 131.864 78.1877Z" fill="#E0A773"/>
<path d="M134.16 80.8437C156.408 80.8437 174.443 62.8084 174.443 40.5608C174.443 18.3131 156.408 0.277832 134.16 0.277832C111.913 0.277832 93.8774 18.3131 93.8774 40.5608C93.8774 62.8084 111.913 80.8437 134.16 80.8437Z" fill="#F7CF9C"/>
<path d="M127.051 58.2024C110.814 43.0197 109.95 17.5567 125.109 1.30505C117.56 3.03923 110.429 6.96387 104.74 13.0475C89.5453 29.2966 90.4001 54.7868 106.649 69.9814C122.898 85.1753 148.388 84.3197 163.583 68.0705C163.594 68.0586 163.604 68.0459 163.616 68.0331C151 70.9314 137.217 67.7086 127.051 58.2024Z" fill="#EAB883"/>
<path d="M111.7 147.666L88.9269 154.594C84.8757 155.827 80.5916 153.542 79.3587 149.49L69.9537 118.578C68.7209 114.526 71.0065 110.242 75.0577 109.009L102.228 100.744L121.64 94.8378C123.207 94.3611 124.893 95.074 125.631 96.5354C130.857 106.875 142.539 112.808 154.067 109.849C166.434 106.674 174.076 94.8777 172.577 82.7572C172.072 78.6745 176.445 78.1188 176.638 77.9931L194.171 72.6588L194.203 72.7625L221.409 64.4858C225.46 63.253 229.744 65.5386 230.977 69.5898L240.381 100.503C241.614 104.554 239.328 108.838 235.277 110.071L215.057 116.222C211.359 117.347 209.363 121.345 210.7 124.971C215.38 137.658 224.935 167.878 227.815 209.574L131.677 216.628C131.677 216.628 133.546 178.177 118.531 150.483C117.208 148.041 114.356 146.858 111.7 147.666Z" fill="#ED5A5A"/>
<path d="M157.588 137.537C154.773 137.537 152.171 135.714 151.308 132.882C150.253 129.413 152.209 125.745 155.678 124.69L163.179 122.408C166.651 121.351 170.316 123.308 171.371 126.777C172.426 130.246 170.47 133.914 167.001 134.969L159.5 137.251C158.864 137.445 158.22 137.537 157.588 137.537Z" fill="#F47D7D"/>
<path d="M155.445 214.884C155.445 214.884 158.672 184.941 146.695 154.493C142.87 144.771 131.91 139.956 122.149 143.679L111.699 147.666C114.356 146.858 117.208 148.041 118.531 150.482C133.546 178.177 131.678 216.627 131.678 216.627L155.445 214.884Z" fill="#D14242"/>
<circle cx="110.457" cy="44.4608" r="9.69606" stroke="black"/>
<circle cx="151.241" cy="30.866" r="9.69606" stroke="black"/>
<circle cx="110.457" cy="44.4608" r="4.24836" fill="black"/>
<circle cx="151.242" cy="30.866" r="4.24836" fill="black"/>
<path d="M150.151 51.5217C151.28 54.3461 147.977 60.7605 141.737 63.2533C135.498 65.7461 128.684 63.3734 127.556 60.549C127.18 59.6075 129.815 60.7382 139.23 56.9768C148.644 53.2154 149.775 50.5802 150.151 51.5217Z" fill="#662113"/>
<path d="M139.731 58.2322C135.965 59.7367 132.576 60.3629 132.576 60.3629L135.585 67.8947C137.109 71.7076 141.435 73.5638 145.248 72.0405C149.061 70.5171 150.917 66.1909 149.394 62.3779L146.385 54.8461C146.385 54.8461 143.497 56.7276 139.731 58.2322Z" fill="#EA596E"/>
<path d="M144.872 69.279C145.011 69.6261 144.842 70.019 144.495 70.1574C144.149 70.2959 143.756 70.1276 143.617 69.7805L139.605 59.7381C139.466 59.3916 139.635 58.9981 139.982 58.8597C140.328 58.7213 140.722 58.8901 140.86 59.2366L144.872 69.279Z" fill="#DD2E44"/>
</svg>
