<svg width="146" height="140" viewBox="0 0 146 140" fill="none" xmlns="http://www.w3.org/2000/svg">
<path d="M142.492 30.5436H2.54443V61.0776H142.492V30.5436Z" fill="#CB465F"/>
<path d="M132.314 61.0775H15.2671V137.412H132.314V61.0775Z" fill="#EF4D4D"/>
<path d="M142.492 27.999H106.21C108.284 25.0347 109.413 21.5131 109.413 17.8032C109.413 13.0323 107.566 8.55905 104.215 5.20795C97.271 -1.73598 85.9709 -1.73598 79.027 5.20795L71.8286 12.4063L64.6327 5.20795C57.6888 -1.73598 46.3887 -1.73598 39.4448 5.20795C36.0937 8.55905 34.2464 13.0323 34.2464 17.8032C34.2464 21.5131 35.3761 25.0347 37.4499 27.999H2.5445C1.13993 27.999 0 29.1364 0 30.5435C0 31.9506 1.13993 33.088 2.5445 33.088H71.2459V94.1559H15.267C13.8624 94.1559 12.7225 95.2933 12.7225 96.7004C12.7225 98.1075 13.8624 99.2449 15.267 99.2449H71.2459V137.412C71.2459 138.819 72.3858 139.957 73.7904 139.957C75.195 139.957 76.3349 138.819 76.3349 137.412V99.2449H132.314C133.718 99.2449 134.858 98.1075 134.858 96.7004C134.858 95.2933 133.718 94.1559 132.314 94.1559H76.3349V33.088H142.492C143.896 33.088 145.036 31.9506 145.036 30.5435C145.036 29.1364 143.896 27.999 142.492 27.999ZM82.6249 8.80587C87.5867 3.84664 95.6578 3.84664 100.617 8.80587C103.006 11.1977 104.324 14.391 104.324 17.8032C104.324 21.2128 103.006 24.4087 100.617 26.798L99.416 27.999H63.4318L73.625 17.8058L73.6275 17.8032L73.6301 17.8007L82.6249 8.80587ZM43.0427 26.798C40.6534 24.4087 39.3354 21.2128 39.3354 17.8032C39.3354 14.391 40.6534 11.1977 43.0427 8.80587C48.0045 3.84664 56.0756 3.84664 61.0348 8.80587L68.2307 16.0042L59.2333 25.0016C58.3911 25.8438 57.6507 26.8718 56.9484 28.0015H44.2412L43.0427 26.798Z" fill="#EBBA16"/>
</svg>
