<svg width="231" height="336" viewBox="0 0 231 336" fill="none" xmlns="http://www.w3.org/2000/svg">
<path d="M224.059 9.63387C218.335 7.39691 211.964 10.3988 210.002 16.1528L195.757 57.9354L188.323 60.4776L194.562 80.9843L205.128 77.4895C213.343 74.9903 215.163 67.2775 215.288 67.0723L230.182 23.3873C232.049 17.9072 229.451 11.7415 224.059 9.63387Z" fill="#F7CF9C"/>
<path d="M222.54 15.7468C223.278 13.5822 223.309 11.3132 222.757 9.22649C217.4 7.87471 211.816 10.8321 210.002 16.1536L195.757 57.9362L188.323 60.4784L191.751 71.7459L197.487 69.849C205.702 67.3499 207.521 59.6377 207.647 59.4319L222.54 15.7468Z" fill="#EAB883"/>
<path d="M1.92432 76.548C5.49359 71.545 12.4687 70.5742 17.2583 74.3187L52.0337 101.51L60.2056 99.04L66.1968 119.62L54.8819 123.005C46.6371 125.406 40.8851 119.938 40.6786 119.84L4.31982 91.4106C-0.241013 87.8448 -1.43772 81.2619 1.92432 76.548Z" fill="#EAB883"/>
<path d="M57.5086 112.364C49.2637 114.765 43.5118 109.297 43.3052 109.2L6.94649 80.7702C5.06694 79.3009 3.7701 77.3157 3.11647 75.1636C2.69091 75.587 2.28621 76.0411 1.92463 76.5487C-1.43811 81.2618 -0.24071 87.8455 4.32013 91.412L40.6789 119.842C40.8854 119.939 46.6374 125.407 54.8822 123.006L66.197 119.622L63.5575 110.556L57.5086 112.364Z" fill="#F7CF9C"/>
<path d="M128.419 58.1532C122.592 62.3747 115.337 64.6638 107.915 64.4017L111.282 75.3229C112.048 77.8088 110.69 80.4526 108.222 81.2759L103.12 82.9781C107.927 89.6396 117.77 93.1644 126.086 91.0296C135.211 88.687 142.622 79.1773 142.813 70.3414L138.316 71.8399C135.492 72.7814 132.446 71.2148 131.569 68.3701L128.419 58.1532Z" fill="#EAB883"/>
<path d="M107.915 64.4023L111.282 75.3236C112.048 77.8095 110.689 80.4532 108.221 81.2765L103.12 82.9787C105.517 86.3018 109.169 88.8434 113.258 90.2918L116.497 89.0193C121.731 86.9638 124.418 81.1513 122.594 75.8326L118.974 65.2701L118.686 62.9817C115.24 64.0324 111.598 64.5323 107.915 64.4023Z" fill="#E0A773"/>
<path d="M112.198 239.763L104.797 323.689C104.258 329.745 108.867 335.071 115.006 335.345C120.79 335.604 125.664 331.02 126.177 325.253L133.903 239.763H112.198V239.763Z" fill="#F7CF9C"/>
<path d="M115.351 323.689L122.752 239.763H112.198L104.798 323.689C104.259 329.744 108.868 335.071 115.007 335.345C117.074 335.438 119.021 334.903 120.698 333.926C117.186 331.908 114.969 327.988 115.351 323.689Z" fill="#EAB883"/>
<path d="M182.004 239.763H160.358L168.025 325.253C168.539 331.02 173.412 335.604 179.196 335.345C185.336 335.071 189.944 329.744 189.405 323.689L182.004 239.763Z" fill="#F7CF9C"/>
<path d="M178.77 325.253L171.103 239.763H160.358L168.025 325.253C168.538 331.02 173.412 335.604 179.196 335.345C181.017 335.264 182.698 334.729 184.154 333.872C181.189 332.103 179.096 328.92 178.77 325.253Z" fill="#EAB883"/>
<path d="M186.44 171.927L107.762 177.699L103.402 234.307C103.402 237.716 106.166 240.48 109.575 240.48C111.774 240.48 184.851 240.48 183.317 240.48C187.449 240.48 190.8 237.129 190.8 232.997L186.44 171.927Z" fill="#666666"/>
<path d="M122.744 234.31L127.215 176.272L107.763 177.699L103.403 234.307C103.403 237.716 106.167 240.479 109.576 240.479C110.231 240.479 117.187 240.479 126.586 240.479C124.311 239.355 122.744 237.019 122.744 234.31Z" fill="#5A5B5B"/>
<path d="M147.101 194.555C144.133 194.555 141.728 196.96 141.728 199.928V240.479C145.581 240.479 148.632 240.479 152.473 240.479V199.928C152.474 196.959 150.068 194.555 147.101 194.555Z" fill="#5A5B5B"/>
<path d="M109.794 66.576C128.002 66.576 142.761 51.8162 142.761 33.6091C142.761 15.4021 128.002 0.642334 109.794 0.642334C91.5874 0.642334 76.8276 15.4021 76.8276 33.6091C76.8276 51.8162 91.5874 66.576 109.794 66.576Z" fill="#F7CF9C"/>
<path d="M103.977 48.0467C90.6885 35.6214 89.9813 14.783 102.387 1.48291C96.2089 2.90213 90.3728 6.11398 85.7174 11.0927C73.2823 24.3907 73.9819 45.2514 87.2798 57.6864C100.578 70.1208 121.438 69.4206 133.874 56.1226C133.883 56.1128 133.891 56.1024 133.901 56.092C123.576 58.4638 112.296 55.8263 103.977 48.0467Z" fill="#EAB883"/>
<path d="M91.4132 121.262L72.7763 126.932C69.4608 127.941 65.9549 126.071 64.9459 122.755L57.249 97.4567C56.24 94.1412 58.1106 90.6352 61.426 89.6263L83.6614 82.8619L99.5482 78.0284C100.83 77.6383 102.21 78.2218 102.814 79.4178C107.091 87.8795 116.652 92.7352 126.086 90.3133C136.207 87.7147 142.461 78.0611 141.234 68.1419C140.821 64.8007 144.399 64.3459 144.558 64.243L158.907 59.8776L158.932 59.9624L181.197 53.1889C184.512 52.18 188.018 54.0505 189.027 57.3659L196.723 82.6644C197.732 85.9798 195.862 89.4858 192.546 90.4948L175.999 95.5291C172.973 96.4498 171.339 99.7215 172.433 102.689C176.263 113.072 184.083 137.803 186.44 171.926L107.762 177.699C107.762 177.699 109.292 146.232 97.0039 123.567C95.9212 121.569 93.5869 120.601 91.4132 121.262Z" fill="#ED5A5A"/>
<path d="M128.966 112.973C126.663 112.973 124.534 111.481 123.828 109.163C122.964 106.324 124.565 103.322 127.404 102.459L133.543 100.591C136.384 99.7263 139.383 101.328 140.247 104.167C141.11 107.006 139.509 110.008 136.67 110.871L130.532 112.738C130.011 112.897 129.484 112.973 128.966 112.973Z" fill="#F47D7D"/>
<path d="M127.214 176.272C127.214 176.272 129.854 151.768 120.053 126.849C116.923 118.893 107.953 114.953 99.9653 118L91.4131 121.262C93.5875 120.601 95.9211 121.569 97.0044 123.567C109.292 146.232 107.763 177.699 107.763 177.699L127.214 176.272Z" fill="#D14242"/>
<circle cx="90.396" cy="36.8008" r="7.84427" stroke="black"/>
<circle cx="123.773" cy="25.6752" r="7.84427" stroke="black"/>
<circle cx="90.3962" cy="36.8009" r="3.47678" fill="black"/>
<circle cx="123.773" cy="25.675" r="3.47678" fill="black"/>
<path d="M108.631 43.7428C108.595 43.7571 108.977 46.7142 108.941 46.7219C108.769 48.2375 109.418 50.5347 110.43 52.1524C110.854 52.8416 111.405 53.4449 112.053 53.9304C112.068 53.3802 113.647 55.547 113.992 54.8687L120.764 52.1741C121.481 52.4301 121.14 49.7705 121.529 50.1602C121.666 49.3623 121.651 48.5456 121.486 47.7531C121.11 45.8824 120.003 43.7677 118.837 42.7845C118.806 42.8032 116.319 40.7638 116.283 40.7781L108.631 43.7428Z" fill="#802D40"/>
<path d="M116.176 50.5028L120.223 54.7391L118.329 55.9129C116.694 56.5601 114.044 55.1068 112.329 53.8203C112.334 53.1313 112.488 52.4515 112.781 51.8279C112.949 51.4898 113.183 51.1887 113.47 50.9426C114.861 49.7711 116.091 50.4567 116.176 50.5028V50.5028Z" fill="#FB7B76"/>
<path d="M121.252 50.2701C120.937 52.2199 119.646 53.8729 117.83 54.6508L117.828 54.6519L116.177 50.5027C116.207 50.4105 116.63 49.0671 118.446 48.9628C118.823 48.9451 119.2 49.003 119.554 49.1333C120.196 49.3852 120.775 49.773 121.252 50.2701V50.2701Z" fill="#FF5364"/>
<path d="M119.554 49.1332C119.199 49.0029 118.823 48.945 118.445 48.9628C116.63 49.0671 116.207 50.4105 116.176 50.5027C116.091 50.4567 114.861 49.771 113.47 50.9425C113.184 51.1887 112.949 51.4897 112.781 51.8278C112.213 50.8896 112.142 49.7322 112.59 48.7311C113.422 46.7991 114.968 47.4648 114.635 48.2376C114.302 49.0105 114.907 49.727 115.735 49.4008L115.74 49.3986C116.566 49.0671 116.513 48.1306 115.741 47.7977C114.968 47.4648 115.634 45.9192 117.566 46.7514C118.579 47.1708 119.322 48.061 119.554 49.1332V49.1332Z" fill="#2C2F38"/>
<path d="M117.016 42.5131C116.96 42.6478 116.957 42.799 117.008 42.9357L117.055 43.0518C116.926 42.866 116.633 42.7168 116.152 42.9082C115.917 42.9974 115.714 43.1562 115.571 43.3634C115.451 43.5298 115.419 43.7443 115.486 43.9384L115.433 43.8058C115.336 43.5597 115.012 43.2851 114.459 43.5051C114.222 43.595 114.024 43.7632 113.896 43.9819C113.779 44.1722 113.757 44.4056 113.834 44.6149C113.747 44.4094 113.57 44.2555 113.354 44.1974C113.112 44.1262 112.852 44.1404 112.618 44.2376C112.065 44.4575 112.018 44.8795 112.116 45.1256L112.169 45.2582C112.084 45.0713 111.914 44.9372 111.712 44.8988C111.466 44.8463 111.21 44.8702 110.978 44.9671C110.497 45.1584 110.386 45.4682 110.42 45.6914L110.321 45.4426C110.281 45.3462 110.211 45.2652 110.121 45.2119L110.144 45.1738L110.15 45.1717C110.327 44.8917 110.528 44.6283 110.752 44.3845C110.755 44.3834 110.754 44.3805 110.756 44.3795C112.072 42.9467 113.969 42.192 115.909 42.3294C115.912 42.3282 115.913 42.3311 115.916 42.33C116.246 42.3533 116.573 42.4062 116.894 42.488L116.9 42.4858C116.939 42.4959 116.978 42.5059 117.016 42.5131Z" fill="#FB7B76"/>
<path d="M113.724 44.3386L114.079 45.2314C114.131 45.4227 114.02 45.6203 113.83 45.6762L112.907 46.0436C112.731 46.1335 112.515 46.0659 112.421 45.8913L112.006 44.8492C111.908 44.6031 111.955 44.1812 112.508 43.9612C112.741 43.864 113.001 43.8498 113.244 43.9211C113.46 43.9791 113.637 44.1331 113.724 44.3386Z" fill="#FAC176"/>
<path d="M112.059 44.982L112.361 45.7422C112.427 45.9081 112.292 46.1156 112.063 46.2068L111.228 46.539C110.996 46.6314 110.758 46.5723 110.692 46.4065L110.583 46.1329C110.582 46.1086 110.577 46.0845 110.568 46.0621L110.31 45.4152C110.276 45.192 110.386 44.8823 110.867 44.6909C111.1 44.594 111.356 44.5703 111.602 44.6227C111.804 44.661 111.974 44.7951 112.059 44.982Z" fill="#FAC176"/>
<path d="M115.323 43.5293L115.737 44.5713C115.789 44.7627 115.679 44.9602 115.489 45.0162L114.565 45.3835C114.389 45.4735 114.173 45.4059 114.079 45.2312L113.724 44.3384C113.646 44.1292 113.669 43.8957 113.786 43.7054C113.913 43.4868 114.112 43.3185 114.348 43.2286C114.901 43.0086 115.225 43.2832 115.323 43.5293Z" fill="#FAC176"/>
<path d="M117.239 43.4843L117.348 43.7579C117.414 43.9238 117.281 44.1302 117.049 44.2225L116.214 44.5547C115.985 44.646 115.744 44.5881 115.678 44.4222L115.376 43.662C115.309 43.468 115.341 43.2535 115.461 43.0871C115.604 42.8799 115.806 42.721 116.042 42.6318C116.523 42.4404 116.816 42.5896 116.944 42.7754L117.202 43.4222C117.21 43.4451 117.223 43.4661 117.239 43.4843V43.4843Z" fill="#FAC176"/>
<path d="M117.081 40.182C114.26 38.9736 112.527 41.3282 112.527 41.3282C112.527 41.3282 109.649 40.8081 108.429 43.6245C106.857 47.2693 108.523 52.2517 111.454 55.4175C114.384 58.5833 118.708 56.8632 118.708 56.8632C118.708 56.8632 123.034 55.142 122.986 50.829C122.938 46.516 120.728 41.7504 117.081 40.182V40.182ZM121.21 47.863C121.375 48.6555 121.389 49.4722 121.252 50.2701C120.937 52.2199 119.646 53.8729 117.831 54.6508L117.825 54.653C115.971 55.335 113.898 55.0209 112.329 53.8203C111.681 53.3348 111.131 52.7316 110.706 52.0424C109.694 50.4246 109.266 48.6803 109.438 47.1647C109.488 46.6985 109.603 46.2416 109.782 45.808L109.79 45.7887L109.793 45.7809C109.89 45.5841 109.999 45.3941 110.121 45.2119L110.144 45.1739L110.15 45.1717C110.327 44.8917 110.528 44.6283 110.752 44.3845C110.755 44.3834 110.754 44.3805 110.757 44.3795C112.072 42.9468 113.969 42.192 115.909 42.3294C115.912 42.3283 115.913 42.3311 115.916 42.33C116.246 42.3533 116.574 42.4062 116.894 42.488L116.9 42.4859C116.939 42.4959 116.978 42.5059 117.017 42.5132C117.205 42.5609 117.39 42.6186 117.572 42.6859L117.58 42.6893L117.599 42.6977C118.026 42.8903 118.424 43.1427 118.781 43.4473C119.947 44.4305 120.834 45.9922 121.21 47.863V47.863Z" fill="#DF4D60"/>
<path d="M113.834 44.6149L114.189 45.5077C114.241 45.6991 114.13 45.8967 113.94 45.9526L113.017 46.3199C112.84 46.4099 112.624 46.3423 112.531 46.1676L112.116 45.1256C112.018 44.8795 112.065 44.4576 112.618 44.2376C112.851 44.1404 113.111 44.1262 113.354 44.1974C113.57 44.2555 113.747 44.4094 113.834 44.6149Z" fill="#F5EFCA"/>
<path d="M112.169 45.2581L112.471 46.0183C112.537 46.1842 112.402 46.3917 112.173 46.483L111.338 46.8151C111.106 46.9075 110.868 46.8485 110.802 46.6826L110.693 46.409C110.692 46.3847 110.687 46.3607 110.677 46.3382L110.42 45.6914C110.386 45.4681 110.496 45.1584 110.977 44.967C111.21 44.8702 111.466 44.8463 111.712 44.8988C111.914 44.9371 112.084 45.0712 112.169 45.2581Z" fill="#F5EFCA"/>
<path d="M115.433 43.8058L115.848 44.8478C115.9 45.0391 115.789 45.2367 115.599 45.2927L114.676 45.66C114.499 45.75 114.283 45.6823 114.189 45.5077L113.834 44.6149C113.756 44.4056 113.779 44.1722 113.896 43.9819C114.023 43.7632 114.222 43.595 114.459 43.5051C115.011 43.2851 115.335 43.5597 115.433 43.8058Z" fill="#F5EFCA"/>
<path d="M117.349 43.7606L117.458 44.0343C117.524 44.2001 117.392 44.4065 117.16 44.4989L116.325 44.8311C116.095 44.9224 115.855 44.8645 115.789 44.6986L115.486 43.9384C115.419 43.7443 115.451 43.5298 115.571 43.3634C115.714 43.1562 115.917 42.9974 116.152 42.9082C116.633 42.7168 116.926 42.866 117.055 43.0518L117.312 43.6986C117.32 43.7214 117.333 43.7424 117.349 43.7606V43.7606Z" fill="#F5EFCA"/>
<path d="M118.78 43.4471C118.749 43.4662 118.716 43.4825 118.681 43.496L117.846 43.8282C117.682 43.9108 117.485 43.8838 117.349 43.7605L117.102 43.1413C117.09 43.1095 117.074 43.0794 117.054 43.0516L117.008 42.9356C116.957 42.7988 116.959 42.6476 117.016 42.513C117.204 42.5607 117.389 42.6185 117.571 42.6857L117.579 42.6892L117.598 42.6975C118.026 42.8902 118.424 43.1426 118.78 43.4471V43.4471Z" fill="#F9EAB0"/>
<path d="M110.321 45.4426L110.42 45.6914C110.425 45.7252 110.433 45.7583 110.446 45.7898L110.693 46.409C110.679 46.592 110.553 46.7475 110.378 46.8L109.543 47.1322C109.509 47.146 109.473 47.1569 109.437 47.1647C109.487 46.6984 109.603 46.2416 109.781 45.808L109.79 45.7887L109.793 45.7808C109.889 45.5841 109.999 45.394 110.12 45.2119C110.21 45.2652 110.281 45.3462 110.321 45.4426Z" fill="#F9EAB0"/>
<path d="M117.774 53.7126C117.621 53.7733 117.448 53.6988 117.388 53.5462C117.284 53.2852 116.73 53.4878 116.725 53.4896C116.572 53.5504 116.399 53.4758 116.338 53.3232C116.278 53.1705 116.352 52.9977 116.505 52.9369C116.887 52.7848 117.68 52.6702 117.941 53.3262C118.001 53.4788 117.927 53.6519 117.774 53.7126Z" fill="#FF5364"/>
<path d="M116.671 52.5505C116.519 52.6112 116.346 52.5367 116.285 52.384C116.024 51.728 116.678 51.2669 117.061 51.1148C117.213 51.054 117.386 51.1286 117.447 51.2812C117.508 51.4339 117.433 51.6069 117.281 51.6677C117.27 51.6718 116.734 51.9043 116.838 52.1641C116.899 52.3167 116.824 52.4898 116.671 52.5505Z" fill="#FB7B76"/>
</svg>
