<svg width="114" height="114" viewBox="0 0 114 114" fill="none" xmlns="http://www.w3.org/2000/svg">
<path d="M5.87719 82.2275C5.72614 81.9221 5.57747 81.615 5.43164 81.3065C5.57723 81.6153 5.72614 81.9221 5.87719 82.2275Z" fill="#FF4F19"/>
<path d="M5.30269 81.0303C5.16304 80.7303 5.02529 80.4294 4.89062 80.1268C5.02505 80.4296 5.16304 80.7303 5.30269 81.0303Z" fill="#FF4F19"/>
<path d="M4.75706 79.8223C4.62667 79.5245 4.49747 79.2257 4.37207 78.9253C4.49747 79.2257 4.62667 79.5243 4.75706 79.8223Z" fill="#FF4F19"/>
<path d="M4.24299 78.6078C4.11973 78.3073 3.99718 78.0062 3.87891 77.7031C3.99718 78.0064 4.11973 78.3073 4.24299 78.6078Z" fill="#FF4F19"/>
<path d="M72.0956 2.02478C81.2529 4.53824 89.4877 9.28135 96.1869 15.629C93.9276 15.3566 91.6326 15.2001 89.2999 15.2001C59.7858 15.2001 35.5111 37.6315 32.5939 66.3758C32.5932 66.3834 32.5925 66.3913 32.5918 66.3989C32.5916 66.4022 32.5913 66.4055 32.5909 66.4089C40.1172 67.7125 48.51 68.4001 56.9999 68.4001C66.9414 68.4001 76.6623 67.4686 85.112 65.7059C88.4463 65.0081 91.5728 64.1844 94.408 63.253C95.4043 62.9226 96.4769 63.4681 96.8054 64.4664C97.1319 65.4627 96.5902 66.5352 95.592 66.8637C93.7447 67.4703 91.7713 68.0267 89.7148 68.5402C89.6908 68.5599 89.6796 68.5889 89.6545 68.6079L85.9362 71.3966L89.8048 72.4634C90.638 72.6936 91.2113 73.4543 91.2001 74.3171C91.189 75.1819 90.599 75.9295 89.7602 76.1373C80.1728 78.5347 68.8433 79.8001 56.9999 79.8001C56.1632 79.8001 55.4246 79.2526 55.1816 78.4511C54.9386 77.6495 55.2502 76.7831 55.9461 76.319C56.5548 75.9127 56.5325 75.3096 56.4954 75.0702C56.4584 74.8289 56.295 74.2464 55.5899 74.0459L45.19 71.7469C45.1745 71.7433 45.1634 71.7322 45.1479 71.7284C40.7214 71.3968 36.4077 70.9005 32.3381 70.2172C32.3156 70.8755 32.3001 71.5358 32.3001 72.1998C32.3001 85.0735 36.5778 96.9409 43.7785 106.48C48.1898 104.472 52.7282 102.433 57.0799 102.602C63.9247 102.902 67.4223 100.971 67.4558 100.95C68.365 100.444 69.5247 100.756 70.0424 101.659C70.5602 102.565 70.2595 103.715 69.3577 104.24C69.1834 104.344 65.0103 106.745 56.9206 106.398C53.7283 106.235 49.9666 107.843 46.2483 109.532C46.2483 109.532 46.2485 109.532 46.2488 109.532C46.2485 109.532 46.2483 109.532 46.2478 109.533C47.4705 110.941 48.7603 112.289 50.1133 113.571C47.0593 113.203 44.0804 112.592 41.1945 111.761C41.1943 111.761 41.1938 111.762 41.1936 111.762C41.1853 111.759 41.1769 111.757 41.1686 111.754C40.6917 111.617 40.2174 111.473 39.7455 111.323C39.452 111.231 39.161 111.133 38.8696 111.036C38.7571 110.998 38.6442 110.961 38.5321 110.923C37.2544 110.491 35.9945 110.02 34.7611 109.497C34.7742 109.498 34.7884 109.496 34.8017 109.497C23.0514 104.525 13.3146 95.7285 7.15723 84.6655C16.8883 102.161 35.5601 114 56.9999 114C88.48 114 114 88.4802 114 57.0001C114 30.7464 96.2489 8.64224 72.0956 2.02478ZM64.5999 55.1001C64.5386 55.1039 64.4384 55.0982 64.3569 55.0982C61.6423 55.0982 59.9705 55.9517 58.0409 56.9369C55.9905 57.9833 53.7231 59.1411 50.2331 59.1411C49.3089 59.1411 48.3015 59.0594 47.1883 58.8739C46.153 58.7013 45.4534 57.7216 45.626 56.6882C45.7968 55.653 46.7727 54.9421 47.8117 55.126C51.8994 55.8033 53.9423 54.7623 56.3135 53.5525C58.4363 52.4671 60.7647 51.1906 64.6315 51.3001C65.6798 51.3167 66.5168 52.1814 66.4999 53.2317C66.4833 54.2688 65.6352 55.1001 64.5999 55.1001ZM79.3935 52.4745C77.6883 54.6455 73.5339 55.0314 72.302 55.0982C72.2666 55.1001 72.2334 55.1001 72.198 55.1001C71.196 55.1001 70.3593 54.317 70.3035 53.3039C70.246 52.2574 71.0475 51.3611 72.094 51.3036C73.9161 51.1996 76.0108 50.6282 76.406 50.1254C77.0537 49.3015 78.2466 49.155 79.0741 49.8062C79.8982 50.4539 80.0429 51.649 79.3935 52.4745ZM48.8489 79.2303C48.4872 79.5903 47.9934 79.7998 47.4999 79.7998C47.0064 79.7998 46.511 79.5901 46.1509 79.2488C45.8077 78.8871 45.5999 78.3933 45.5999 77.8998C45.5999 77.4063 45.8077 76.9109 46.1509 76.5508C46.8541 75.8476 48.1269 75.8476 48.8487 76.5508C49.2087 76.9109 49.3997 77.4063 49.3997 77.8998C49.3997 78.3933 49.2087 78.8871 48.8489 79.2303ZM73.5487 88.7303C73.1869 89.0903 72.6932 89.2998 72.1997 89.2998C71.7061 89.2998 71.2107 89.0901 70.8507 88.7488C70.5075 88.3871 70.2997 87.8933 70.2997 87.3998C70.2997 86.9063 70.5075 86.4109 70.8507 86.0508C71.5539 85.3476 72.8267 85.3476 73.5484 86.0508C73.9085 86.4109 74.0994 86.9063 74.0994 87.3998C74.0994 87.8933 73.9087 88.3871 73.5487 88.7303ZM88.7486 46.9068C88.3869 47.2668 87.8932 47.4763 87.3996 47.4763C86.9061 47.4763 86.4107 47.2666 86.0506 46.9253C85.7075 46.5636 85.4996 46.0698 85.4996 45.5763C85.4996 45.0828 85.7075 44.5874 86.0506 44.2273C86.7539 43.5241 88.0266 43.5241 88.7484 44.2273C89.1085 44.5874 89.2994 45.0828 89.2994 45.5763C89.2994 46.0698 89.1087 46.5636 88.7486 46.9068ZM96.3486 54.5303C95.9869 54.8904 95.4932 55.0998 94.9996 55.0998C94.5061 55.0998 94.0107 54.8901 93.6506 54.5488C93.3075 54.1871 93.0996 53.6934 93.0996 53.1998C93.0996 52.7063 93.3075 52.2109 93.6506 51.8508C94.3539 51.1476 95.6266 51.1476 96.3484 51.8508C96.7085 52.2109 96.8994 52.7063 96.8994 53.1998C96.8994 53.6934 96.7087 54.1871 96.3486 54.5303ZM87.821 31.0012C87.678 31.0347 87.5372 31.0494 87.3961 31.0494C86.5297 31.0494 85.7467 30.4538 85.5462 29.5724C85.3125 28.55 85.9507 27.5313 86.975 27.2976C92.8669 25.9505 97.9779 24.2892 102.269 22.3783C103.056 23.4062 103.811 24.4595 104.528 25.5406C99.8722 27.6871 94.2681 29.5287 87.821 31.0012Z" fill="#FF4F19"/>
<path d="M6.48004 83.4116C6.31474 83.0965 6.15276 82.7792 5.99316 82.4607C6.15276 82.7794 6.31498 83.0965 6.48004 83.4116Z" fill="#FF4F19"/>
<path d="M7.1092 84.5802C6.92609 84.2498 6.74701 83.9173 6.57031 83.5831C6.74677 83.9173 6.92633 84.2498 7.1092 84.5802Z" fill="#FF4F19"/>
<path d="M0.711606 66.0137C0.677644 65.8004 0.644869 65.5867 0.613281 65.3724C0.644869 65.5867 0.677644 65.8004 0.711606 66.0137Z" fill="#FF4F19"/>
<path d="M65.4707 0.627319C65.7925 0.675294 66.1127 0.727782 66.4326 0.781219C66.1124 0.728019 65.7923 0.675294 65.4707 0.627319Z" fill="#FF4F19"/>
<path d="M66.8311 0.847412C67.1745 0.907262 67.5162 0.971387 67.8575 1.03741C67.5162 0.971625 67.1745 0.907025 66.8311 0.847412Z" fill="#FF4F19"/>
<path d="M0.103562 60.3936C0.0924 60.2053 0.079575 60.0177 0.0703125 59.8289C0.079575 60.0177 0.0926375 60.2053 0.103562 60.3936Z" fill="#FF4F19"/>
<path d="M0.0351797 58.8938C0.0299547 58.7354 0.0223547 58.5775 0.0185547 58.4186C0.0223547 58.5772 0.0299547 58.7352 0.0351797 58.8938Z" fill="#FF4F19"/>
<path d="M64.0938 0.439209C64.3942 0.476496 64.693 0.518534 64.992 0.560571C64.693 0.518534 64.3942 0.476496 64.0938 0.439209Z" fill="#FF4F19"/>
<path d="M58.4443 0.0183105C58.626 0.022823 58.8065 0.0320855 58.9877 0.0382605C58.8065 0.0320855 58.626 0.022823 58.4443 0.0183105Z" fill="#FF4F19"/>
<path d="M59.876 0.0720215C60.103 0.0834215 60.3289 0.0995715 60.5552 0.113584C60.3289 0.099809 60.1033 0.0834215 59.876 0.0720215Z" fill="#FF4F19"/>
<path d="M68.1748 1.09802C68.5403 1.1707 68.9042 1.24788 69.2671 1.32768C68.9039 1.24812 68.5401 1.1707 68.1748 1.09802Z" fill="#FF4F19"/>
<path d="M69.501 1.37878C69.8888 1.46571 70.275 1.55691 70.6597 1.65167C70.275 1.55715 69.8891 1.46547 69.501 1.37878Z" fill="#FF4F19"/>
<path d="M70.8086 1.68799C71.2207 1.79059 71.6308 1.8977 72.0393 2.00933C71.6308 1.89794 71.2207 1.79059 70.8086 1.68799Z" fill="#FF4F19"/>
<path d="M0.510648 64.6349C0.482386 64.4245 0.454598 64.2141 0.428711 64.0032C0.454836 64.2141 0.482623 64.4245 0.510648 64.6349Z" fill="#FF4F19"/>
<path d="M0.341917 63.2413C0.319355 63.0349 0.296555 62.8288 0.276367 62.6217C0.296555 62.8288 0.319355 63.0349 0.341917 63.2413Z" fill="#FF4F19"/>
<path d="M0.20565 61.8307C0.188787 61.6305 0.170975 61.4308 0.15625 61.2301C0.170975 61.4308 0.189025 61.6308 0.20565 61.8307Z" fill="#FF4F19"/>
<path d="M61.2959 0.160645C61.5507 0.179645 61.8044 0.203632 62.0583 0.226195C61.8044 0.203632 61.5507 0.179645 61.2959 0.160645Z" fill="#FF4F19"/>
<path d="M1.83604 71.399C1.7769 71.1719 1.72156 70.9434 1.66504 70.7152C1.72156 70.9434 1.7769 71.1719 1.83604 71.399Z" fill="#FF4F19"/>
<path d="M3.76548 77.405C3.64531 77.092 3.52585 76.7785 3.41113 76.4629C3.52585 76.7785 3.64531 77.0918 3.76548 77.405Z" fill="#FF4F19"/>
<path d="M2.19488 72.7138C2.12601 72.4737 2.06188 72.2314 1.99609 71.9901C2.06188 72.2316 2.12624 72.4737 2.19488 72.7138Z" fill="#FF4F19"/>
<path d="M1.50752 70.0709C1.45551 69.8498 1.40682 69.6275 1.35742 69.4054C1.40682 69.6275 1.45575 69.8498 1.50752 70.0709Z" fill="#FF4F19"/>
<path d="M3.35064 76.2919C2.98133 75.2654 2.64218 74.225 2.33105 73.1721C2.64218 74.2247 2.98157 75.2654 3.35064 76.2919Z" fill="#FF4F19"/>
<path d="M1.21139 68.7315C1.16579 68.5133 1.12233 68.294 1.0791 68.0751C1.12233 68.2943 1.16555 68.5133 1.21139 68.7315Z" fill="#FF4F19"/>
<path d="M0.945767 67.3787C0.906105 67.1633 0.868105 66.9472 0.831055 66.7308C0.868342 66.9472 0.906342 67.1631 0.945767 67.3787Z" fill="#FF4F19"/>
<path d="M62.7021 0.283203C62.9805 0.310991 63.2574 0.343528 63.5348 0.375116C63.2574 0.343528 62.9805 0.310991 62.7021 0.283203Z" fill="#FF4F19"/>
<path d="M34.8013 109.496C34.7883 109.496 34.7738 109.497 34.7607 109.497C35.9941 110.02 37.2542 110.49 38.5317 110.923C38.6438 110.962 38.7569 110.998 38.8692 111.036C39.1606 111.133 39.4516 111.23 39.7451 111.323C40.2168 111.472 40.6911 111.616 41.1682 111.754C41.1765 111.757 41.1849 111.759 41.1932 111.762C41.1934 111.762 41.1939 111.761 41.1941 111.761C44.0797 112.592 47.0589 113.203 50.1129 113.571C48.7599 112.289 47.4701 110.94 46.2474 109.533C45.9007 109.69 45.5537 109.847 45.2083 110.005C43.8487 110.624 42.5127 111.23 41.2143 111.753C41.0331 111.701 40.8516 111.649 40.6709 111.595C40.0299 111.405 39.3958 111.199 38.7638 110.988C38.3569 110.85 37.947 110.719 37.5442 110.573C37.1025 110.414 36.67 110.236 36.2335 110.066C35.7551 109.879 35.2754 109.695 34.8035 109.495C37.0056 109.549 40.3638 108.034 43.633 106.546C43.6853 106.523 43.7377 106.499 43.7902 106.475C44.5787 107.52 45.391 108.545 46.2479 109.532C49.9662 107.843 53.7279 106.235 56.9202 106.398C65.0101 106.745 69.183 104.344 69.3573 104.24C70.2591 103.715 70.5598 102.565 70.042 101.659C69.5243 100.756 68.3646 100.444 67.4554 100.951C67.4219 100.971 63.9245 102.903 57.0795 102.602C52.7278 102.433 48.1894 104.472 43.7781 106.48C36.5776 96.941 32.3 85.0736 32.3 72.2C32.3 71.5359 32.3154 70.8759 32.338 70.2173C36.4078 70.9008 40.7213 71.3972 45.1478 71.7285C45.1632 71.7323 45.1741 71.7435 45.1898 71.747L55.5897 74.046C56.2948 74.2465 56.458 74.8291 56.4953 75.0704C56.5323 75.3098 56.5547 75.9128 55.9459 76.3192C55.2501 76.783 54.9385 77.6496 55.1814 78.4512C55.4244 79.2528 56.163 79.8 57 79.8C68.8434 79.8 80.1728 78.5346 89.76 76.1372C90.5986 75.9294 91.1888 75.1818 91.2 74.317C91.2111 73.4542 90.6378 72.6935 89.8046 72.4633L85.936 71.3965L89.6543 68.6078C89.6795 68.5888 89.6906 68.56 89.7146 68.5401C91.7709 68.0266 93.7445 67.4701 95.5918 66.8636C96.59 66.5351 97.1318 65.4628 96.8052 64.4663C96.4767 63.468 95.4044 62.9225 94.4079 63.2529C91.5726 64.1843 88.4461 65.0082 85.1119 65.7058C76.6623 67.4685 66.9415 68.4 57 68.4C48.5101 68.4 40.1173 67.7124 32.5909 66.4088C32.5912 66.4054 32.5914 66.4021 32.5919 66.3988C32.465 67.6556 32.3945 68.9284 32.3503 70.208C31.578 70.0784 30.799 69.9535 30.0454 69.81C29.0137 69.6133 28.3366 68.6187 28.5332 67.5889C28.728 66.5572 29.7226 65.8817 30.7543 66.0767C31.3488 66.19 31.9877 66.2705 32.5938 66.3757C35.5112 37.6314 59.7858 15.2 89.3 15.2C91.6327 15.2 93.9276 15.3565 96.187 15.6289C89.4876 9.28126 81.253 4.53815 72.0957 2.02469C72.0769 2.01946 72.0582 2.01447 72.0394 2.00949C71.6311 1.89786 71.2207 1.79075 70.8087 1.68815C70.7593 1.6758 70.7094 1.66392 70.6598 1.65181C70.275 1.55705 69.8888 1.46585 69.501 1.37892C69.4231 1.36135 69.3447 1.34496 69.2668 1.32786C68.9039 1.24806 68.5401 1.17111 68.1746 1.0982C68.0691 1.0773 67.9632 1.05782 67.8578 1.0374C67.5165 0.971374 67.1747 0.90725 66.8313 0.8474C66.6988 0.824362 66.5653 0.803462 66.4325 0.781375C66.1126 0.727937 65.7922 0.67545 65.4706 0.627475C65.3118 0.603725 65.1519 0.583062 64.9926 0.5605C64.6935 0.518462 64.3948 0.476425 64.0943 0.439137C63.9086 0.4161 63.7215 0.396625 63.5353 0.37525C63.2581 0.343425 62.9812 0.310887 62.7026 0.283337C62.4886 0.261962 62.2734 0.2451 62.059 0.2261C61.8051 0.203775 61.5514 0.179787 61.2966 0.16055C61.0505 0.142262 60.8028 0.128725 60.5558 0.113525C60.3295 0.0995124 60.1036 0.083125 59.8766 0.0719625C59.5811 0.0572375 59.2842 0.04845 58.9876 0.0382375C58.8064 0.0320625 58.6259 0.0228 58.4442 0.0182875C57.964 0.0064125 57.4828 0 57 0C32.0592 0 10.863 16.0201 3.13167 38.3301C3.24164 38.0081 3.35469 37.6874 3.47154 37.3687C3.51334 37.406 3.56606 37.4221 3.60525 37.4637C6.64453 40.7108 12.1757 43.7166 19.5994 46.1548C20.5977 46.4832 21.1394 47.5555 20.8128 48.5521C20.5494 49.3537 19.8073 49.8602 19.0074 49.8602C18.8107 49.8602 18.6122 49.8306 18.4155 49.7657C11.342 47.4434 5.78716 44.5616 2.18714 41.372C2.47594 40.3574 2.78326 39.3509 3.1217 38.3586C1.10081 44.1999 0 50.4711 0 57C0 57.4743 0.0064125 57.9469 0.01805 58.4186C0.02185 58.5774 0.0296875 58.7354 0.034675 58.8938C0.0448875 59.2059 0.0551 59.5179 0.0703 59.8288C0.0795625 60.0176 0.0923875 60.2053 0.10355 60.3936C0.119937 60.6729 0.136087 60.952 0.156512 61.2301C0.171237 61.4308 0.18905 61.6305 0.205912 61.8307C0.228237 62.0948 0.250325 62.3587 0.276212 62.6216C0.2964 62.8287 0.3192 63.0348 0.341762 63.2412C0.36955 63.4956 0.397812 63.7497 0.428925 64.0031C0.454812 64.2143 0.4826 64.4247 0.510862 64.6349C0.543875 64.8812 0.577837 65.127 0.613937 65.3723C0.645525 65.5865 0.6783 65.8003 0.712262 66.0136C0.750262 66.2532 0.789925 66.4921 0.831012 66.7308C0.8683 66.9472 0.906062 67.1633 0.945725 67.3787C0.988475 67.6115 1.0336 67.8433 1.0792 68.0751C1.12242 68.2943 1.16565 68.5132 1.21149 68.7315C1.25851 68.9567 1.30839 69.1811 1.35826 69.4053C1.40766 69.6274 1.45635 69.8497 1.50836 70.0708C1.55895 70.2862 1.61262 70.5006 1.66559 70.7151C1.72187 70.9433 1.77745 71.1718 1.83659 71.3989C1.88812 71.5967 1.94299 71.7931 1.99666 71.99C2.06245 72.2315 2.12657 72.4736 2.19545 72.7137C2.23939 72.8671 2.28665 73.0191 2.33177 73.1718C2.6429 74.2246 2.98205 75.2654 3.35136 76.2916C3.37179 76.3484 3.39102 76.4058 3.41169 76.4626C3.5264 76.7782 3.64586 77.0917 3.76604 77.4048C3.80404 77.504 3.84085 77.604 3.87932 77.7028C3.9976 78.0059 4.12015 78.307 4.24341 78.6075C4.28687 78.7132 4.32915 78.8193 4.37309 78.9248C4.49849 79.2254 4.62769 79.524 4.75807 79.8218C4.80248 79.9232 4.84618 80.0251 4.89131 80.1265C5.02597 80.4291 5.16372 80.73 5.30337 81.03C5.34636 81.1221 5.38887 81.2143 5.43233 81.3062C5.57816 81.6147 5.72683 81.9218 5.87788 82.2272C5.91636 82.3049 5.95483 82.3828 5.99378 82.4602C6.15315 82.7789 6.31536 83.096 6.48066 83.4111C6.51058 83.4684 6.54098 83.5254 6.57115 83.5826C6.74785 83.9168 6.92716 84.2495 7.11003 84.5796C7.12595 84.6081 7.14186 84.6364 7.15777 84.6649C13.3145 95.7286 23.0513 104.525 34.8013 109.496ZM40.451 17.651C41.1542 16.9478 42.427 16.9478 43.1487 17.651C43.5088 18.011 43.6997 18.5065 43.6997 19C43.6997 19.4935 43.5086 19.987 43.1487 20.3305C42.787 20.6903 42.2935 20.9 41.8 20.9C41.3065 20.9 40.811 20.6903 40.451 20.349C40.1078 19.987 39.9 19.4935 39.9 19C39.9 18.5065 40.1078 18.011 40.451 17.651ZM24.8983 25.1816C26.3698 22.8691 28.9983 21.9079 30.7688 23.0346C32.5394 24.1613 32.7819 26.9493 31.3103 29.2619C29.8388 31.5744 27.2106 32.5356 25.4398 31.4089C23.669 30.2822 23.4268 27.4942 24.8983 25.1816ZM13.2133 65.2692C12.7426 63.0914 13.7128 61.0337 15.3803 60.6731C17.0477 60.3126 18.7813 61.7861 19.252 63.9639C19.7227 66.1418 18.7525 68.1995 17.085 68.56C15.4175 68.9203 13.684 67.4469 13.2133 65.2692Z" fill="#DB3F3D"/>
<path d="M64.6312 51.3C60.7645 51.1906 58.4358 52.4671 56.3133 53.5525C53.9421 54.7623 51.8991 55.8033 47.8115 55.1259C46.7724 54.9423 45.7965 55.6529 45.6258 56.6882C45.4531 57.7218 46.1528 58.7015 47.1881 58.8739C48.3015 59.0594 49.3089 59.1411 50.2328 59.1411C53.7229 59.1411 55.9903 57.9833 58.0406 56.9369C59.9703 55.9517 61.6421 55.0981 64.3567 55.0981C64.4384 55.0981 64.5386 55.1036 64.5997 55.1C65.6349 55.1 66.483 54.2688 66.4996 53.2316C66.5163 52.1814 65.6796 51.3167 64.6312 51.3Z" fill="#DB3F3D"/>
<path d="M79.0743 49.8065C78.2469 49.1552 77.0537 49.3018 76.4062 50.1257C76.0111 50.6285 73.9163 51.1999 72.0942 51.3039C71.0478 51.3614 70.2462 52.2577 70.3037 53.3041C70.3593 54.3173 71.1962 55.1003 72.1982 55.1003C72.2334 55.1003 72.2669 55.1003 72.3023 55.0984C73.5342 55.0317 77.6888 54.6458 79.3938 52.4748C80.0429 51.649 79.8982 50.4539 79.0743 49.8065Z" fill="#DB3F3D"/>
<path d="M24.8969 25.1819C23.4252 27.4945 23.6676 30.2827 25.4383 31.4095C27.2089 32.5363 29.8373 31.575 31.309 29.2624C32.7806 26.9498 32.5382 24.1616 30.7676 23.0349C28.9969 21.9081 26.3685 22.8694 24.8969 25.1819Z" fill="#A03939"/>
<path d="M17.0854 68.5579C18.7528 68.1974 19.7228 66.1397 19.252 63.962C18.7812 61.7842 17.0479 60.3109 15.3804 60.6714C13.713 61.0319 12.743 63.0895 13.2138 65.2673C13.6846 67.4451 15.418 68.9183 17.0854 68.5579Z" fill="#A03939"/>
<path d="M41.8004 20.9001C42.2939 20.9001 42.7874 20.6904 43.1494 20.3306C43.5092 19.9871 43.7004 19.4936 43.7004 19.0001C43.7004 18.5066 43.5092 18.0111 43.1494 17.6511C42.4276 16.9478 41.1549 16.9478 40.4516 17.6511C40.1082 18.0111 39.9004 18.5066 39.9004 19.0001C39.9004 19.4936 40.1082 19.9871 40.4514 20.3491C40.8114 20.6904 41.3069 20.9001 41.8004 20.9001Z" fill="#A03939"/>
<path d="M86.051 44.2275C85.7078 44.5876 85.5 45.083 85.5 45.5765C85.5 46.07 85.7078 46.5635 86.051 46.9255C86.4111 47.267 86.9065 47.4765 87.4 47.4765C87.8935 47.4765 88.387 47.2668 88.749 46.907C89.109 46.5638 89.3 46.0703 89.3 45.5765C89.3 45.0827 89.1088 44.5876 88.749 44.2275C88.027 43.5243 86.7542 43.5243 86.051 44.2275Z" fill="#DB3F3D"/>
<path d="M93.6506 51.851C93.3074 52.2111 93.0996 52.7065 93.0996 53.2C93.0996 53.6936 93.3074 54.1871 93.6506 54.549C94.0107 54.8906 94.5061 55.1 94.9996 55.1C95.4931 55.1 95.9867 54.8903 96.3486 54.5305C96.7087 54.1873 96.8996 53.6938 96.8996 53.2C96.8996 52.7063 96.7084 52.2111 96.3486 51.851C95.6266 51.1478 94.3538 51.1478 93.6506 51.851Z" fill="#DB3F3D"/>
<path d="M46.1506 76.551C45.8074 76.911 45.5996 77.4065 45.5996 77.9C45.5996 78.3935 45.8074 78.887 46.1506 79.249C46.5107 79.5905 47.0061 79.8 47.4996 79.8C47.9931 79.8 48.4867 79.5903 48.8486 79.2305C49.2087 78.8873 49.3996 78.3937 49.3996 77.9C49.3996 77.4062 49.2084 76.911 48.8486 76.551C48.1268 75.8478 46.8538 75.8478 46.1506 76.551Z" fill="#DB3F3D"/>
<path d="M70.8508 86.051C70.5076 86.411 70.2998 86.9065 70.2998 87.4C70.2998 87.8935 70.5076 88.387 70.8508 88.749C71.2109 89.0905 71.7063 89.3 72.1998 89.3C72.6933 89.3 73.1869 89.0903 73.5488 88.7305C73.9089 88.3873 74.0998 87.8937 74.0998 87.4C74.0998 86.9062 73.9086 86.411 73.5488 86.051C72.8268 85.3478 71.554 85.3478 70.8508 86.051Z" fill="#DB3F3D"/>
<path d="M28.533 67.5893C28.3363 68.6191 29.0135 69.6135 30.0452 69.8104C30.7987 69.9538 31.5777 70.0787 32.3501 70.2084C32.394 68.9288 32.4646 67.656 32.5916 66.3992C32.5923 66.3916 32.5928 66.3837 32.5938 66.3761C31.9877 66.2709 31.3486 66.1904 30.7543 66.0771C29.7222 65.8821 28.7277 66.5576 28.533 67.5893Z" fill="#A03939"/>
<path d="M18.4159 49.7655C18.6125 49.8304 18.8111 49.8601 19.0077 49.8601C19.8074 49.8601 20.5496 49.3535 20.8132 48.5519C21.1398 47.5556 20.598 46.4831 19.5998 46.1546C12.176 43.7164 6.6449 40.7106 3.60561 37.4635C3.56666 37.422 3.5137 37.4058 3.4719 37.3685C3.35505 37.6873 3.242 38.0079 3.13204 38.3299C3.12871 38.3394 3.12539 38.3487 3.12206 38.3582C2.78362 39.3505 2.4763 40.3572 2.1875 41.3716C5.78752 44.5615 11.3424 47.4433 18.4159 49.7655Z" fill="#A03939"/>
<path d="M43.7905 106.475C43.7382 106.499 43.6855 106.523 43.6332 106.547C40.3641 108.035 37.006 109.549 34.8037 109.495C35.2756 109.695 35.7554 109.879 36.2337 110.066C36.6702 110.236 37.1027 110.414 37.5445 110.573C37.9473 110.719 38.3569 110.851 38.764 110.988C39.396 111.199 40.0301 111.405 40.6711 111.596C40.8516 111.65 41.0331 111.701 41.2145 111.753C42.513 111.23 43.8489 110.624 45.2086 110.005C45.5539 109.848 45.9009 109.69 46.2476 109.533C46.2479 109.532 46.2481 109.532 46.2486 109.532C46.2484 109.532 46.2484 109.532 46.2484 109.532C45.3915 108.545 44.579 107.52 43.7905 106.475Z" fill="#A03939"/>
<path d="M102.269 22.3783C97.978 24.2895 92.867 25.9505 86.9751 27.2976C85.9507 27.5313 85.3126 28.55 85.5463 29.5724C85.7467 30.4538 86.5298 31.0494 87.3962 31.0494C87.5372 31.0494 87.6783 31.0345 87.821 31.0012C94.2682 29.5287 99.8723 27.6871 104.528 25.5406C103.811 24.4595 103.056 23.4062 102.269 22.3783Z" fill="#DB3F3D"/>
</svg>
