<svg width="119" height="119" viewBox="0 0 119 119" fill="none" xmlns="http://www.w3.org/2000/svg">
<path d="M118.72 59.3593C118.72 92.1431 92.1431 118.72 59.3593 118.72C26.5767 118.72 0 92.1431 0 59.3593C0 26.5767 26.5767 0 59.3593 0C92.1431 0 118.72 26.5767 118.72 59.3593Z" fill="#3A484A"/>
<path d="M59.3595 0C57.5582 0 55.7789 0.094262 54.0176 0.250504C84.6075 3.00606 108.041 28.6466 108.041 59.3593C108.041 90.0732 84.6075 115.712 54.0176 118.468C55.7789 118.626 57.5582 118.72 59.3595 118.72C80.6343 118.821 100.335 107.528 111.001 89.1215C121.667 70.7146 121.667 48.0065 111.001 29.5996C100.335 11.1926 80.6343 -0.0994273 59.3595 0.00129118V0Z" fill="#59636D"/>
<path d="M15.1014 59.3596C15.1065 29.4991 37.293 4.29115 66.9106 0.49484C44.9837 -2.31494 23.3112 7.29591 10.6723 25.433C-1.96781 43.5713 -3.47858 67.2298 6.75078 86.8285C16.9789 106.427 37.2529 118.716 59.3593 118.72C61.885 118.715 64.4069 118.55 66.9106 118.226C37.293 114.428 15.1065 89.22 15.1014 59.3596Z" fill="#2C363E"/>
<path d="M81.9965 64.7309C81.9965 71.5268 76.488 77.0353 69.6921 77.0353C62.8962 77.0353 57.3877 71.5268 57.3877 64.7309C57.3877 57.935 62.8962 52.4252 69.6921 52.4252C76.488 52.4252 81.9965 57.935 81.9965 64.7309Z" fill="#59636D"/>
<path d="M117.141 45.7919C114.746 35.5703 109.675 26.1699 102.449 18.5541C94.9266 22.6112 92.1194 31.9974 96.1765 39.519C100.234 47.0406 109.62 49.8491 117.141 45.7919Z" fill="#3A484A"/>
<path d="M96.5234 24.2537C101.577 31.1168 105.084 38.9922 106.806 47.3389C110.326 48.0413 113.981 47.4938 117.142 45.7919C114.747 35.5703 109.675 26.1699 102.45 18.5541C99.9982 19.8867 97.9516 21.8558 96.5234 24.2537Z" fill="#59636D"/>
<path d="M3.69336 38.7107C9.1696 47.7947 19.6947 52.5427 30.1293 50.6355C40.564 48.7283 48.7287 40.5637 50.6359 30.129C52.543 19.6943 47.7951 9.16794 38.7111 3.69299C22.507 9.72576 9.72613 22.5067 3.69336 38.7107Z" fill="#59636D"/>
<path d="M36.5965 91.8267C29.0284 91.8293 22.4572 97.0408 20.7295 104.41C28.9432 111.475 38.9401 116.145 49.6292 117.911C53.3454 112.976 53.9498 106.361 51.1878 100.833C48.4257 95.3066 42.7752 91.8176 36.5952 91.8267H36.5965Z" fill="#59636D"/>
<path d="M38.7101 3.69299C37.743 4.05067 36.7913 4.43676 35.85 4.8448C35.6692 4.92227 35.4936 5.0075 35.3206 5.08626C34.5575 5.42457 33.8021 5.7758 33.0557 6.14381C32.8233 6.26002 32.5947 6.3814 32.3636 6.4989C31.6792 6.85142 31.0013 7.21426 30.3312 7.58744C30.0807 7.72689 29.834 7.87151 29.5861 8.01355C28.9405 8.38931 28.3013 8.77669 27.6699 9.17569C27.4271 9.32935 27.1844 9.4843 26.9442 9.64183C26.3102 10.0563 25.6852 10.4824 25.0693 10.9215C24.851 11.0764 24.6302 11.2301 24.4081 11.3876C23.7573 11.8615 23.1208 12.3509 22.4906 12.8519C22.324 12.9849 22.1536 13.1166 21.987 13.2483C21.2523 13.8462 20.5318 14.4595 19.8267 15.0897C19.7764 15.1349 19.7234 15.1762 19.6731 15.2214C18.1158 16.6224 16.6348 18.1048 15.2337 19.662C15.1885 19.7124 15.1459 19.7653 15.1007 19.8144C14.4706 20.5194 13.8573 21.2399 13.2594 21.976C13.1264 22.1412 12.9947 22.3117 12.8617 22.4783C12.362 23.1071 11.8713 23.7463 11.3974 24.3971C11.2399 24.6127 11.0862 24.8322 10.9313 25.0504C10.4909 25.6664 10.0648 26.2914 9.65162 26.9254C9.49408 27.1655 9.34171 27.407 9.18676 27.651C8.78776 28.2825 8.39909 28.9216 8.02334 29.5686C7.88001 29.8139 7.73539 30.0618 7.59722 30.3098C7.22017 30.9786 6.85733 31.6565 6.50869 32.3422C6.38989 32.5746 6.26851 32.8045 6.1523 33.0395C5.783 33.7845 5.43178 34.5412 5.09347 35.3044C5.0147 35.4825 4.92948 35.6569 4.85329 35.8325C4.44654 36.7751 4.06046 37.7293 3.7002 38.6965C6.55905 43.4251 10.8693 47.1039 15.9865 49.1854C18.9668 32.0517 29.3098 17.0872 44.2832 8.2434C42.6472 6.47308 40.771 4.94164 38.7101 3.69299Z" fill="#3A484A"/>
<path d="M51.7256 114.18C41.9146 110.102 33.3742 103.473 26.9902 94.98C23.846 97.2771 21.6276 100.621 20.7314 104.41C22.7419 106.136 24.8661 107.726 27.0883 109.17L27.1245 109.194C30.4598 111.356 34.003 113.175 37.7025 114.625L37.8833 114.698C40.3625 115.662 42.905 116.456 45.4927 117.077L45.6993 117.125C46.9918 117.429 48.2986 117.695 49.6221 117.918C50.4834 116.77 51.191 115.512 51.7256 114.18Z" fill="#3A484A"/>
<path d="M36.819 70.1723H15.2226C13.7622 70.1723 12.5781 68.9882 12.5781 67.5278C12.5781 66.0674 13.7622 64.8833 15.2226 64.8833H36.819C38.2794 64.8833 39.4635 66.0674 39.4635 67.5278C39.4635 68.9882 38.2794 70.1723 36.819 70.1723Z" fill="#2C363E"/>
<path d="M74.4614 96.4378H64.9228C63.4624 96.4378 62.2783 95.2537 62.2783 93.7933C62.2783 92.3329 63.4624 91.1488 64.9228 91.1488H74.4614C75.9218 91.1488 77.1059 92.3329 77.1059 93.7933C77.1059 95.2537 75.9218 96.4378 74.4614 96.4378Z" fill="#2C363E"/>
<path d="M74.4614 35.5794H64.9228C63.4624 35.5794 62.2783 34.3953 62.2783 32.9349C62.2783 31.4745 63.4624 30.2904 64.9228 30.2904H74.4614C75.9218 30.2904 77.1059 31.4745 77.1059 32.9349C77.1059 34.3953 75.9218 35.5794 74.4614 35.5794Z" fill="#2C363E"/>
<path d="M88.7214 96.4378H84.8076C83.3472 96.4378 82.1631 95.2537 82.1631 93.7933C82.1631 92.3329 83.3472 91.1488 84.8076 91.1488H88.7214C90.1818 91.1488 91.3659 92.3329 91.3659 93.7933C91.3659 95.2537 90.1818 96.4378 88.7214 96.4378Z" fill="#2C363E"/>
<path d="M102.201 75.3438H98.2832C96.8228 75.3438 95.6387 74.161 95.6387 72.6993C95.6387 71.2389 96.8228 70.0548 98.2832 70.0548H102.201C103.661 70.0548 104.845 71.2389 104.845 72.6993C104.845 74.161 103.661 75.3438 102.201 75.3438Z" fill="#2C363E"/>
</svg>
