<svg width="61" height="57" viewBox="0 0 61 57" fill="none" xmlns="http://www.w3.org/2000/svg">
<path d="M46.7549 15.5472C55.9692 22.9919 57.7888 33.3085 58.1324 37.9562C58.2308 39.2829 57.4235 40.5103 56.1694 40.9543C49.3408 43.3722 42.5121 45.7902 35.6835 48.2085L16.7424 54.9158C15.1505 55.4794 13.5455 54.1086 13.853 52.4483L17.5149 32.6908L21.478 11.3094C21.719 10.0082 22.7946 9.02273 24.1125 8.90421C28.5449 8.50604 38.1746 8.61483 46.7549 15.5472Z" fill="#FFE170"/>
<path d="M58.1326 37.9562C57.9225 35.1122 57.1592 30.1458 54.4876 25.014C54.871 26.8105 55.0569 28.3784 55.1452 29.5719C55.2435 30.8986 54.4363 32.1259 53.1822 32.57C46.3535 34.9879 39.5249 37.4062 32.6962 39.8242L15.0338 46.0787L13.8531 52.4479C13.5452 54.1084 15.1507 55.4794 16.7425 54.9155L35.6837 48.2085C42.5123 45.7902 49.341 43.3722 56.1695 40.954C57.4237 40.5103 58.231 39.2829 58.1326 37.9562Z" fill="#FFD071"/>
<path d="M42.1162 22.1451C49.8965 28.4312 51.7411 36.9997 52.5405 42.2394C53.5291 41.8891 55.1816 41.3043 56.1705 40.9539C57.4246 40.5099 58.2308 39.2829 58.1324 37.9562C57.7888 33.3085 55.9692 22.9919 46.7549 15.5472C38.1746 8.61483 28.5449 8.50604 24.1125 8.90421C22.7946 9.02273 21.719 10.0082 21.478 11.3094L20.7167 15.4155C25.5403 15.1725 34.2668 15.8037 42.1162 22.1451Z" fill="#FF9A2D"/>
<path d="M56.0359 41.0017C56.0811 40.9856 56.1271 40.9696 56.1699 40.9544C56.1702 40.9542 56.1706 40.9541 56.1709 40.954C57.425 40.5099 58.2312 39.283 58.1329 37.9563C57.9224 35.1124 57.159 30.146 54.4878 25.0141C54.8712 26.8106 55.0571 28.3785 55.1454 29.572C55.2437 30.8987 54.4365 32.126 53.1824 32.57C52.2379 32.9046 51.2937 33.2386 50.3493 33.5731C51.5998 36.7979 52.1779 39.8615 52.5405 42.2395C53.7055 41.8268 54.8709 41.4144 56.0359 41.0017Z" fill="#FF8D29"/>
<path d="M29.046 41.17C27.021 41.8916 24.7948 40.8348 24.0734 38.8101C23.3519 36.7854 24.4082 34.5589 26.4333 33.8374C28.458 33.1159 30.6845 34.1726 31.406 36.1973C32.1274 38.222 31.0707 40.4486 29.046 41.17Z" fill="#74C577"/>
<path d="M42.821 40.7076C40.3129 41.6013 37.5555 40.2925 36.6619 37.7846C35.7682 35.2765 37.0767 32.5192 39.5849 31.6255C42.0927 30.7319 44.8503 32.0403 45.744 34.5485C46.6376 37.0563 45.3289 39.8141 42.821 40.7076Z" fill="#E55045"/>
<path d="M45.9126 35.1441C42.9081 36.2079 39.9034 37.2721 36.8985 38.336C37.9249 40.3776 40.2922 41.4587 42.5622 40.7919C45.0043 40.0742 46.4469 37.593 45.9126 35.1441Z" fill="#C43730"/>
<path d="M27.7051 26.3305C29.4139 25.8283 30.4063 24.0833 29.9211 22.4334C29.4363 20.7834 27.658 19.8531 25.9488 20.3554C24.24 20.8575 23.2476 22.6026 23.7328 24.2524C24.2176 25.9024 25.9959 26.8328 27.7051 26.3305Z" fill="#FFF8E3"/>
<path d="M23.0383 48.5663C24.2556 48.2084 24.9623 46.9656 24.617 45.7903C24.2715 44.6146 23.0046 43.9518 21.7872 44.3098C20.5697 44.6673 19.8628 45.9106 20.2082 47.0859C20.5537 48.2616 21.8206 48.9244 23.0383 48.5663Z" fill="#C43730"/>
<path d="M56.4126 41.638C57.817 41.1408 58.771 39.8468 58.8592 38.3926C58.8595 38.3825 58.8608 38.3724 58.8612 38.3622C58.8693 38.2105 58.8676 38.057 58.8563 37.9026C58.8155 37.3534 58.7554 36.7368 58.6684 36.0645C58.3659 33.7349 57.7362 30.7346 56.4431 27.529C54.5503 22.835 51.7018 18.8315 47.9691 15.6153C47.7202 15.401 47.4677 15.1901 47.2109 14.9827C38.6028 8.02772 29.0031 7.73613 24.0473 8.18116C23.9452 8.19067 23.8443 8.20374 23.7446 8.22121C23.5454 8.2565 23.3513 8.30759 23.1634 8.37373C21.9448 8.80354 21.008 9.86316 20.7643 11.1769L13.1393 52.3158C13.0429 52.8369 13.0864 53.3554 13.2553 53.8293C13.423 54.2999 13.7142 54.7266 14.1139 55.068C14.9163 55.7535 15.9894 55.9525 16.9844 55.5999L56.4115 41.6384C56.4119 41.6383 56.4119 41.6383 56.4119 41.6383C56.4119 41.6383 56.4122 41.6382 56.4126 41.638ZM15.0563 53.9643C14.6529 53.6193 14.4699 53.1023 14.5664 52.5805L21.3246 16.1185C22.2001 16.0903 23.0851 16.0947 23.965 16.1363C24.3657 16.1552 24.7053 15.846 24.7243 15.4456C24.7434 15.0452 24.4341 14.7053 24.0337 14.6862C23.222 14.648 22.4052 14.6382 21.5955 14.6571L22.1915 11.4416C22.3732 10.462 23.1898 9.71565 24.1773 9.62698C28.9147 9.20163 38.0881 9.47819 46.2988 16.1117C50.2112 19.2727 53.1713 23.2967 55.0971 28.072C56.6925 32.0293 57.2349 35.6605 57.4088 38.0099C57.4823 39.0056 56.8731 39.9352 55.9272 40.2703C55.4373 40.4436 54.7661 40.6712 54.1166 40.891C53.7779 41.0056 53.4331 41.1224 53.1099 41.2332C52.694 38.7149 52.0146 35.565 50.6077 32.2808C48.7784 28.0108 46.075 24.4109 42.5721 21.5806C38.2779 18.1115 33.2558 15.9136 27.6444 15.0479C27.2483 14.9868 26.8777 15.2585 26.8166 15.6546C26.7555 16.0507 27.0273 16.4217 27.4234 16.4828C32.7778 17.3084 37.5679 19.4036 41.66 22.7097C44.9771 25.3899 47.5385 28.802 49.2734 32.8521C50.6745 36.1235 51.3265 39.2775 51.7247 41.7585L16.4998 54.2319C15.9996 54.409 15.4599 54.3088 15.0563 53.9643Z" fill="black"/>
<path d="M29.0413 41.9344C31.4844 41.2163 32.8875 38.6444 32.1697 36.202C31.8212 35.019 31.0342 34.0411 29.9515 33.4504C28.8687 32.8596 27.6204 32.7254 26.4375 33.0731C25.2539 33.421 24.2768 34.2089 23.686 35.2917C23.0949 36.3746 22.961 37.6223 23.3088 38.8056C23.3338 38.8906 23.3611 38.9739 23.3904 39.0562C24.205 41.3434 26.6833 42.6269 29.0413 41.9344ZM28.632 40.5415C26.957 41.0336 25.1941 40.0713 24.7016 38.3964C24.4631 37.585 24.555 36.7294 24.9601 35.9868C25.3652 35.2446 26.0351 34.7046 26.8468 34.466C27.6581 34.2274 28.5138 34.3193 29.256 34.7245C29.9447 35.1002 30.4596 35.704 30.7208 36.437C30.7411 36.494 30.7598 36.5523 30.7772 36.6111C31.2693 38.2862 30.3071 40.0494 28.632 40.5415Z" fill="black"/>
<path d="M35.8815 37.7302C35.9115 37.8323 35.9442 37.933 35.9796 38.0324C36.5018 39.4981 37.608 40.6715 39.0542 41.28C39.4235 41.4357 39.849 41.262 40.0046 40.8924C40.1599 40.523 39.9866 40.0976 39.6172 39.9424C38.4768 39.4624 37.6227 38.5069 37.2741 37.3211C36.966 36.2718 37.0844 35.1651 37.6085 34.2048C38.1323 33.245 38.9991 32.5462 40.0485 32.2381C41.098 31.9295 42.2045 32.0484 43.1646 32.5721C44.1249 33.0962 44.8232 33.9636 45.1319 35.0123C45.7685 37.1784 44.524 39.459 42.3575 40.0954C41.973 40.2087 41.7527 40.6118 41.8657 40.9965C41.9787 41.3791 42.3824 41.6011 42.7667 41.4883C45.7009 40.6257 47.3868 37.537 46.5246 34.6028C46.1067 33.1801 45.1601 32.0075 43.8601 31.298C42.5596 30.5882 41.0607 30.4274 39.6392 30.8452C38.2177 31.263 37.0442 32.2092 36.3344 33.5097C35.6247 34.8102 35.4638 36.3091 35.8815 37.7302Z" fill="black"/>
<path d="M27.9081 27.0264C28.916 26.7303 29.7532 26.0713 30.2654 25.171C30.782 24.2619 30.9069 23.2171 30.6159 22.2283C30.0184 20.1967 27.8332 19.0443 25.7429 19.6583C23.6528 20.2727 22.4381 22.4251 23.0348 24.4566C23.0551 24.526 23.0774 24.5942 23.1014 24.6615C23.4205 25.5573 24.0606 26.2905 24.9217 26.7412C25.8394 27.2211 26.9002 27.3226 27.9081 27.0264ZM27.4989 25.6335C26.8539 25.8232 26.1777 25.7597 25.5948 25.455C25.0207 25.1544 24.6068 24.6559 24.4275 24.047C24.0564 22.7837 24.8301 21.4396 26.1522 21.0512C27.4306 20.6755 28.7609 21.3281 29.1833 22.5137C29.1978 22.5542 29.2114 22.5959 29.2235 22.6378C29.4022 23.245 29.3239 23.8899 29.0033 24.4531C28.6782 25.0248 28.144 25.4442 27.4989 25.6335Z" fill="black"/>
<path d="M23.2409 49.2621C24.0113 49.0358 24.6511 48.5322 25.0428 47.8433C25.4396 47.1463 25.5349 46.344 25.3118 45.5849C25.088 44.8253 24.5746 44.203 23.864 43.8314C23.1618 43.4642 22.3509 43.3864 21.5809 43.6126C19.9814 44.0826 19.0527 45.7324 19.5101 47.2898C19.5259 47.3432 19.543 47.3957 19.5615 47.4476C19.8065 48.1351 20.2975 48.698 20.9579 49.0437C21.6601 49.4109 22.4709 49.4884 23.2409 49.2621ZM22.8318 47.8696C22.4243 47.9895 21.9979 47.9493 21.6311 47.7574C21.2725 47.5698 21.0128 47.2575 20.903 46.8806C20.671 46.091 21.1588 45.2496 21.9902 45.0055C22.3976 44.8856 22.8243 44.9253 23.1908 45.1173C23.5247 45.292 23.7718 45.5735 23.8941 45.9167C23.9031 45.942 23.9115 45.9679 23.9194 45.9944C24.0303 46.3721 23.9813 46.774 23.7812 47.1257C23.5764 47.4855 23.2392 47.7497 22.8318 47.8696Z" fill="black"/>
<path d="M31.2191 30.0367C30.8687 30.1615 30.4834 29.9786 30.3586 29.6283C30.2336 29.2776 30.4166 28.8926 30.7669 28.7678C31.1176 28.6429 31.5025 28.8255 31.6274 29.1762C31.7523 29.5265 31.5697 29.9117 31.2191 30.0367Z" fill="black"/>
<path d="M19.8294 41.1991C19.4791 41.324 19.0937 41.1411 18.9689 40.7908C18.844 40.4401 19.027 40.0551 19.3773 39.9303C19.7276 39.8055 20.1128 39.988 20.2378 40.3387C20.3626 40.689 20.1797 41.0743 19.8294 41.1991Z" fill="black"/>
<path d="M39.1321 27.2171C38.7818 27.3419 38.3965 27.159 38.2716 26.8087C38.1467 26.458 38.3297 26.0731 38.68 25.9482C39.0303 25.8234 39.4156 26.0059 39.5405 26.3566C39.6653 26.7069 39.4825 27.0923 39.1321 27.2171Z" fill="black"/>
<path d="M34.9427 44.1171C34.5924 44.2419 34.207 44.0591 34.0822 43.7087C33.9574 43.3584 34.1402 42.9731 34.4906 42.8483C34.8409 42.7234 35.2262 42.9063 35.3511 43.2566C35.4759 43.6069 35.293 43.9923 34.9427 44.1171Z" fill="black"/>
<path d="M48.639 40.6668C48.2887 40.7916 47.9033 40.6088 47.7785 40.2584C47.6537 39.9081 47.8365 39.5228 48.1869 39.3979C48.5372 39.2731 48.9225 39.456 49.0473 39.8063C49.1722 40.1566 48.9893 40.542 48.639 40.6668Z" fill="black"/>
<path d="M27.4866 46.0589C27.136 46.1838 26.751 46.0008 26.6261 45.6505C26.5013 45.3002 26.6838 44.915 27.0345 44.79C27.3848 44.6652 27.7702 44.8481 27.895 45.1984C28.0198 45.5487 27.837 45.9341 27.4866 46.0589Z" fill="black"/>
<path d="M17.7161 51.6852C17.3658 51.8101 16.9805 51.6272 16.8556 51.2769C16.7308 50.9265 16.9137 50.5412 17.264 50.4164C17.6143 50.2915 17.9997 50.4744 18.1245 50.8247C18.2493 51.1751 18.0665 51.5604 17.7161 51.6852Z" fill="black"/>
<path d="M22.2708 29.4142C21.9201 29.5392 21.5351 29.3562 21.4103 29.0059C21.2855 28.6555 21.468 28.2703 21.8187 28.1454C22.169 28.0205 22.5544 28.2034 22.6792 28.5537C22.804 28.9041 22.6211 29.2894 22.2708 29.4142Z" fill="black"/>
</svg>
