<svg width="67" height="67" viewBox="0 0 67 67" fill="none" xmlns="http://www.w3.org/2000/svg">
<path d="M33.5 67C52.0015 67 67 52.0015 67 33.5C67 14.9985 52.0015 0 33.5 0C14.9985 0 0 14.9985 0 33.5C0 52.0015 14.9985 67 33.5 67Z" fill="#FFD15C"/>
<path d="M33.5 60.8584C48.6096 60.8584 60.8584 48.6096 60.8584 33.5C60.8584 18.3904 48.6096 6.1416 33.5 6.1416C18.3904 6.1416 6.1416 18.3904 6.1416 33.5C6.1416 48.6096 18.3904 60.8584 33.5 60.8584Z" fill="#FFD15C"/>
<path d="M50.5291 48.2958C52.996 48.2958 54.9957 46.4835 54.9957 44.2479C54.9957 42.0123 52.996 40.2 50.5291 40.2C48.0623 40.2 46.0625 42.0123 46.0625 44.2479C46.0625 46.4835 48.0623 48.2958 50.5291 48.2958Z" fill="#FF7058"/>
<path d="M51.0879 41.3166C50.8088 41.5958 50.2504 41.5958 49.9713 41.3166C49.6921 41.0375 49.4129 41.0375 49.1338 41.177C47.8775 41.7354 46.9004 42.852 46.9004 44.2479C46.9004 45.6438 47.7379 46.7604 49.1338 47.3188C49.4129 47.4584 49.8316 47.3188 49.9713 47.1791C50.2504 46.9 50.8088 46.9 51.0879 47.1791C51.367 47.4583 51.6463 47.4583 51.9254 47.3188C53.1816 46.7604 54.1588 45.6438 54.1588 44.2479C54.1588 42.852 53.3213 41.7354 51.9254 41.177C51.6463 41.0375 51.367 41.1771 51.0879 41.3166Z" fill="#F1543F"/>
<path d="M49.2725 44.2479C49.2725 44.6666 49.4121 44.9457 49.6912 45.225C49.8309 45.3646 49.8308 45.5041 49.8308 45.6437C49.8308 46.6209 48.5746 46.9 48.0162 46.2021C47.5975 45.6437 47.1787 44.9459 47.1787 44.248C47.1787 43.4105 47.4578 42.7126 48.0162 42.2939C48.5746 41.596 49.8308 42.0147 49.8308 42.8522C49.8308 42.9919 49.6912 43.1314 49.6912 43.271C49.4121 43.55 49.2725 43.8291 49.2725 44.2479Z" fill="#FF7058"/>
<path d="M48.7144 44.3875V44.1084C48.5748 43.9688 48.1561 43.9688 48.0166 44.1084L47.877 44.248L48.0166 44.3876C48.1561 44.5271 48.5748 44.5271 48.7144 44.3875Z" fill="#FFD15C"/>
<path d="M49.1334 43.2709H49.273V43.1313C49.1334 42.8521 48.8543 42.7125 48.5752 42.8521H48.4355V42.9918C48.575 43.2709 48.8542 43.4104 49.1334 43.2709Z" fill="#FFD15C"/>
<path d="M48.5752 45.7834H48.4355V45.6438C48.5752 45.3647 48.8543 45.225 49.1334 45.3647H49.2731V45.5043C49.2731 45.7834 48.8543 45.9229 48.5752 45.7834Z" fill="#FFD15C"/>
<path d="M52.0642 44.2479C52.0642 43.9688 51.9246 43.55 51.6455 43.4104C51.5059 43.2707 51.5059 43.1313 51.5059 42.9916C51.5059 42.1541 52.6225 41.875 53.1809 42.4332C53.5996 42.9916 53.8787 43.5499 53.8787 44.2479C53.8787 44.9457 53.5996 45.5041 53.1809 46.0625C52.6225 46.7604 51.5059 46.3416 51.5059 45.5041C51.5059 45.3645 51.5059 45.225 51.6455 45.0854C51.9246 44.9459 52.0642 44.6666 52.0642 44.2479Z" fill="#FF7058"/>
<path d="M52.7627 44.1084V44.3875C52.9023 44.5272 53.3211 44.5272 53.4606 44.3875L53.6002 44.2479L53.4606 44.1083C53.3211 43.9688 52.9023 43.9688 52.7627 44.1084Z" fill="#FFD15C"/>
<path d="M52.3437 45.225H52.2041V45.3646C52.3437 45.6438 52.6228 45.7834 52.902 45.6438H53.0416V45.5041C52.9021 45.225 52.6228 45.0854 52.3437 45.225Z" fill="#FFD15C"/>
<path d="M52.9029 42.7125H53.0426V42.8521C52.9029 43.1312 52.6238 43.2709 52.3447 43.1312H52.2051V42.9916C52.3446 42.7125 52.6237 42.5729 52.9029 42.7125Z" fill="#FFD15C"/>
<path d="M42.6328 56.636C43.8013 54.7301 43.0438 52.1399 40.9408 50.8504C38.8378 49.561 36.1857 50.0607 35.0172 51.9665C33.8487 53.8724 34.6062 56.4626 36.7092 57.7521C38.8121 59.0415 41.4642 58.5418 42.6328 56.636Z" fill="#FF7058"/>
<path d="M40.758 52.0646C40.3392 52.2043 39.9205 51.925 39.7808 51.5062C39.6412 51.2271 39.5017 50.9479 39.083 50.9479C37.6871 50.6687 36.2912 51.2271 35.5933 52.4834C34.8955 53.6 35.035 55.1355 35.8725 56.2521C36.0121 56.5312 36.4308 56.6709 36.71 56.5312C37.1287 56.3916 37.5475 56.6709 37.6871 57.0896C37.8267 57.3687 37.9662 57.648 38.385 57.648C39.7808 57.9271 41.1767 57.3687 41.8746 56.1125C42.5725 54.9959 42.433 53.4604 41.5955 52.3437C41.4558 52.2041 41.1767 52.0646 40.758 52.0646Z" fill="#F1543F"/>
<path d="M37.6871 53.7396C37.5475 54.0187 37.408 54.4375 37.5475 54.7168C37.5475 54.8564 37.5475 54.9959 37.5475 55.1355C37.1288 55.973 35.8725 55.5543 35.5934 54.7168C35.4538 54.0189 35.5934 53.1814 36.0121 52.623C36.4309 51.9251 36.9893 51.5064 37.6871 51.3668C38.5246 51.0876 39.3621 52.0646 38.9434 52.9021C38.8037 53.0418 38.6643 53.1812 38.5246 53.1812C38.2455 53.1812 37.9662 53.3209 37.6871 53.7396Z" fill="#FF7058"/>
<path d="M37.1295 53.4604H37.2691V53.3208C37.1295 53.0417 36.8504 52.902 36.5713 52.902H36.4316V53.0417C36.5713 53.3209 36.8504 53.6 37.1295 53.4604Z" fill="#FFD15C"/>
<path d="M38.1063 52.7625H38.2459V52.6229C38.2459 52.3438 38.1062 52.0645 37.8271 52.0645H37.6875V52.2041C37.6875 52.4834 37.8271 52.7625 38.1063 52.7625Z" fill="#FFD15C"/>
<path d="M36.292 54.7167V54.4375C36.5711 54.2979 36.8504 54.2979 36.9899 54.5772L37.1295 54.7168L36.9899 54.8564C36.8504 54.8563 36.5712 54.8563 36.292 54.7167Z" fill="#FFD15C"/>
<path d="M40.061 55.1354C40.2006 54.8562 40.2006 54.577 40.2006 54.1582C40.2006 54.0186 40.2006 53.8791 40.2006 53.7395C40.6194 53.0416 41.736 53.3207 41.8756 54.1582C42.0152 54.8561 41.8756 55.4145 41.4569 56.1123C41.0381 56.6707 40.4797 57.0895 39.9215 57.229C39.084 57.5081 38.3861 56.5311 38.8049 55.8331C38.9445 55.6935 38.9445 55.554 39.2236 55.554C39.6422 55.5541 39.9215 55.4146 40.061 55.1354Z" fill="#FF7058"/>
<path d="M40.7588 55.4146H40.6191V55.5542C40.7588 55.8333 41.0379 55.973 41.317 55.973H41.4566V55.8333C41.317 55.5541 41.0379 55.275 40.7588 55.4146Z" fill="#FFD15C"/>
<path d="M39.7812 56.1125H39.6416V56.2521C39.6416 56.5312 39.7812 56.8105 40.0603 56.8105H40.2V56.6709C40.2 56.3916 40.0603 56.1125 39.7812 56.1125Z" fill="#FFD15C"/>
<path d="M41.5963 54.1584V54.4375C41.3172 54.5771 41.0379 54.5771 40.8984 54.2979L40.7588 54.1582L40.8984 54.0186C41.0379 54.0187 41.4567 54.0187 41.5963 54.1584Z" fill="#FFD15C"/>
<path d="M38.2459 47.7375C40.7128 47.7375 42.7125 45.9252 42.7125 43.6896C42.7125 41.454 40.7128 39.6417 38.2459 39.6417C35.7791 39.6417 33.7793 41.454 33.7793 43.6896C33.7793 45.9252 35.7791 47.7375 38.2459 47.7375Z" fill="#FF7058"/>
<path d="M38.8037 40.6188C38.5246 40.8979 37.9662 40.8979 37.6871 40.6188C37.408 40.3396 37.1287 40.3396 36.8496 40.4791C35.5933 41.0375 34.6162 42.1541 34.6162 43.55C34.6162 44.9459 35.4537 46.0625 36.8496 46.6209C37.1287 46.7605 37.5475 46.6209 37.6871 46.4813C37.9662 46.2021 38.5246 46.2021 38.8037 46.4813C39.0828 46.7604 39.3621 46.7604 39.6412 46.6209C40.8975 46.0625 41.8746 44.9459 41.8746 43.55C41.8746 42.1541 41.0371 41.0375 39.6412 40.4791C39.3621 40.3396 39.083 40.4791 38.8037 40.6188Z" fill="#F1543F"/>
<path d="M36.9893 43.6896C36.9893 44.1084 37.1289 44.3875 37.408 44.6667C37.5476 44.8064 37.5476 44.9459 37.5476 45.0855C37.5476 46.0626 36.2914 46.3417 35.733 45.6439C35.3143 45.0855 34.8955 44.3876 34.8955 43.6898C34.8955 42.9919 35.1746 42.1544 35.733 41.7356C36.2914 41.0378 37.5476 41.4565 37.5476 42.294C37.5476 42.4336 37.408 42.5731 37.408 42.7128C37.1288 42.8521 36.9893 43.2709 36.9893 43.6896Z" fill="#FF7058"/>
<path d="M36.4312 43.6896V43.4105C36.2916 43.2709 35.8729 43.2709 35.7334 43.4105L35.5938 43.55L35.7334 43.6896C35.8729 43.9687 36.2916 43.9687 36.4312 43.6896Z" fill="#FFD15C"/>
<path d="M36.8502 42.7125H36.9898V42.5729C36.8502 42.2937 36.5711 42.1541 36.292 42.2937H36.1523V42.4334C36.2918 42.5729 36.5711 42.7125 36.8502 42.7125Z" fill="#FFD15C"/>
<path d="M36.292 45.225H36.1523V45.0854C36.292 44.8062 36.5711 44.6666 36.8502 44.8062H36.9898V44.9459C36.8503 45.0854 36.5712 45.225 36.292 45.225Z" fill="#FFD15C"/>
<path d="M39.781 43.6896C39.781 43.4105 39.6414 42.9918 39.3623 42.8521C39.2227 42.7125 39.2227 42.573 39.2227 42.4334C39.2227 41.5959 40.3393 41.3168 40.8977 41.875C41.3164 42.4334 41.5955 42.9916 41.5955 43.6896C41.5955 44.3877 41.3164 44.9459 40.8977 45.5043C40.3393 46.2021 39.2227 45.7834 39.2227 44.9459C39.2227 44.8063 39.2227 44.6668 39.3623 44.5271C39.6414 44.2479 39.781 43.9688 39.781 43.6896Z" fill="#FF7058"/>
<path d="M40.4795 43.5501V43.8292C40.6191 43.9688 41.0379 43.9688 41.1774 43.8292L41.317 43.6896L41.1774 43.5499C41.0379 43.2709 40.6191 43.2709 40.4795 43.5501Z" fill="#FFD15C"/>
<path d="M40.0605 44.5272H39.9209V44.6668C40.0605 44.9459 40.3397 45.0855 40.6188 44.9459H40.7584V44.8063C40.6189 44.6667 40.3398 44.5272 40.0605 44.5272Z" fill="#FFD15C"/>
<path d="M40.6197 42.0146H40.7594V42.1543C40.6197 42.4334 40.3406 42.573 40.0615 42.4334H39.9219V42.2938C39.9219 42.1541 40.3406 42.0146 40.6197 42.0146Z" fill="#FFD15C"/>
<path d="M16.7638 36.2938C14.9781 34.9489 12.3273 35.456 10.8433 37.4265C9.35923 39.397 9.60382 42.0847 11.3896 43.4297C13.1754 44.7746 15.8261 44.2674 17.3102 42.2969C18.7942 40.3264 18.5496 37.6387 16.7638 36.2938Z" fill="#FF7058"/>
<path d="M12.1439 37.6875C12.1439 38.1063 11.8648 38.525 11.446 38.525C11.1669 38.525 10.8876 38.8042 10.7482 39.0834C10.3294 40.4793 10.7482 41.875 11.8648 42.7125C12.9814 43.55 14.5169 43.55 15.6335 42.8522C15.9126 42.7125 16.0523 42.4334 16.0523 42.0147C16.0523 41.5959 16.3314 41.1772 16.7501 41.1772C17.0293 41.1772 17.3085 40.898 17.448 40.6188C17.8668 39.2229 17.448 37.8272 16.3314 36.9897C15.2148 36.1522 13.6793 36.1522 12.5626 36.85C12.2835 36.9897 12.1439 37.2688 12.1439 37.6875Z" fill="#F1543F"/>
<path d="M13.4 40.8979C13.6791 41.177 14.0978 41.177 14.3771 41.177C14.5167 41.177 14.6562 41.177 14.7958 41.3166C15.4937 41.875 15.075 43.1313 14.2375 43.1313C13.5396 43.1313 12.7021 42.9916 12.1437 42.5729C11.5853 42.1541 11.1666 41.3166 11.0271 40.6188C10.8875 39.6416 11.8646 38.9438 12.7021 39.5021C12.8417 39.6418 12.9812 39.7813 12.9812 39.9209C12.9812 40.3396 13.1208 40.6188 13.4 40.8979Z" fill="#FF7058"/>
<path d="M13.1209 41.3166V41.1769H12.9812C12.7021 41.3166 12.5625 41.5957 12.5625 41.8748V42.0144H12.7021C12.9812 41.8749 13.1209 41.5958 13.1209 41.3166Z" fill="#FFD15C"/>
<path d="M12.5621 40.3396V40.2H12.4225C12.1434 40.0604 11.8641 40.3396 11.7246 40.6187V40.7584H11.8642C12.1434 40.7584 12.5621 40.6187 12.5621 40.3396Z" fill="#FFD15C"/>
<path d="M14.2372 42.2937L14.0976 42.4334L13.9579 42.2937C13.8183 42.0146 13.8183 41.7354 14.0976 41.5959L14.2372 41.4562L14.3768 41.5959C14.5163 41.875 14.5163 42.1541 14.2372 42.2937Z" fill="#FFD15C"/>
<path d="M15.0754 38.6647C14.7962 38.525 14.517 38.3855 14.0982 38.525C13.9586 38.525 13.8191 38.525 13.6795 38.3854C12.9816 37.827 13.4004 36.85 14.2379 36.7104C14.9357 36.7104 15.4941 36.85 16.0525 37.2688C16.6109 37.6875 16.89 38.2459 17.0296 38.9438C17.1692 39.7813 16.1921 40.4791 15.6337 39.9209C15.4941 39.7813 15.4941 39.6418 15.3546 39.5022C15.4941 39.2229 15.3545 38.8041 15.0754 38.6647Z" fill="#FF7058"/>
<path d="M15.3535 37.9666V38.1063H15.4931C15.7723 38.1063 15.9119 37.8271 15.9119 37.5479V37.4083H15.7723C15.6328 37.4084 15.3535 37.6875 15.3535 37.9666Z" fill="#FFD15C"/>
<path d="M15.9121 38.9438V39.0834H16.0517C16.3309 39.223 16.6101 38.9438 16.7496 38.6647V38.525H16.61C16.3309 38.525 16.0517 38.8041 15.9121 38.9438Z" fill="#FFD15C"/>
<path d="M14.3767 37.1291L14.5164 36.9895L14.656 37.1291C14.7956 37.4083 14.7956 37.6875 14.5164 37.827L14.3767 37.9666L14.2371 37.827C13.958 37.5479 14.0975 37.2688 14.3767 37.1291Z" fill="#FFD15C"/>
<path d="M27.5044 43.2709C28.884 41.5116 28.4287 38.8514 26.4875 37.329C24.5463 35.8067 21.8542 35.9988 20.4746 37.758C19.095 39.5172 19.5502 42.1775 21.4914 43.6998C23.4327 45.2221 26.1247 45.0301 27.5044 43.2709Z" fill="#FF7058"/>
<path d="M26.2421 38.525C25.8233 38.525 25.4046 38.2459 25.4046 37.8271C25.4046 37.548 25.1255 37.2688 24.8462 37.1293C23.4503 36.7105 22.0546 37.1293 21.2171 38.2459C20.3796 39.3625 20.3796 40.898 21.0775 42.0146C21.2171 42.2937 21.4962 42.4334 21.915 42.4334C22.3337 42.4334 22.7525 42.7125 22.7525 43.1313C22.7525 43.4104 23.0316 43.6896 23.3108 43.8291C24.7067 44.2479 26.1025 43.8291 26.9399 42.7125C27.7774 41.5959 27.7774 40.0604 27.0796 38.9438C26.8005 38.6646 26.5213 38.525 26.2421 38.525Z" fill="#F1543F"/>
<path d="M22.8916 39.6416C22.6125 39.9207 22.6125 40.3395 22.6125 40.6187C22.6125 40.7584 22.6125 40.8979 22.4728 41.0375C21.9145 41.7354 20.6582 41.3166 20.6582 40.3396C20.6582 39.6418 20.7978 38.8043 21.3561 38.2459C21.9143 37.6875 22.4727 37.2687 23.1707 37.1293C24.1478 36.9896 24.8457 38.1064 24.2873 38.8043C24.1477 38.9439 24.0082 39.0834 23.8686 39.0834C23.5896 39.2229 23.1708 39.3625 22.8916 39.6416Z" fill="#FF7058"/>
<path d="M22.4734 39.3625H22.613V39.2229C22.613 38.9438 22.3339 38.8041 22.0547 38.8041H21.915V38.9438C21.9152 39.2229 22.1943 39.5021 22.4734 39.3625Z" fill="#FFD15C"/>
<path d="M23.4501 38.9438H23.5897V38.8041C23.7294 38.525 23.5897 38.2458 23.3106 38.1063H23.171V38.2459C23.0314 38.525 23.171 38.8041 23.4501 38.9438Z" fill="#FFD15C"/>
<path d="M21.4961 40.4791L21.3564 40.3395L21.4961 40.1999C21.7752 40.0602 22.0545 40.1999 22.1939 40.3395L22.3336 40.4791L22.1939 40.6187C21.9148 40.7584 21.6356 40.7584 21.4961 40.4791Z" fill="#FFD15C"/>
<path d="M25.1254 41.3166C25.265 41.0375 25.4045 40.7583 25.4045 40.3395C25.4045 40.1999 25.4045 40.0604 25.5441 39.9208C26.1025 39.2229 27.0795 39.6416 27.2191 40.4791C27.2191 41.177 27.0795 41.7354 26.6607 42.2938C26.242 42.8521 25.6836 43.1313 24.9857 43.2709C24.1482 43.4105 23.5899 42.4334 24.0086 41.875C24.1482 41.7354 24.2877 41.7354 24.4274 41.7354C24.567 41.7354 24.8462 41.5959 25.1254 41.3166Z" fill="#FF7058"/>
<path d="M25.8222 41.7354H25.6826V41.875C25.6826 42.1541 25.9617 42.2937 26.241 42.2937H26.3806V42.1541C26.241 41.875 26.1015 41.7354 25.8222 41.7354Z" fill="#FFD15C"/>
<path d="M24.7061 42.2937H24.5665V42.4333C24.4269 42.7124 24.5665 42.9917 24.8456 43.1312H24.9852V42.9916C25.1249 42.7124 24.9852 42.4333 24.7061 42.2937Z" fill="#FFD15C"/>
<path d="M26.6607 40.6187L26.8004 40.7584L26.6607 40.898C26.3816 41.0376 26.1024 40.898 25.9629 40.7584L25.8232 40.6187L25.9629 40.4791C26.242 40.3396 26.5212 40.4791 26.6607 40.6187Z" fill="#FFD15C"/>
<path d="M43.8289 34.1979C46.2958 34.1979 48.2956 32.3856 48.2956 30.15C48.2956 27.9144 46.2958 26.1021 43.8289 26.1021C41.3621 26.1021 39.3623 27.9144 39.3623 30.15C39.3623 32.3856 41.3621 34.1979 43.8289 34.1979Z" fill="#FF7058"/>
<path d="M44.3877 27.2187C44.1086 27.4979 43.5502 27.4979 43.2711 27.2187C42.9919 26.9396 42.7127 26.9396 42.4336 27.0791C41.1773 27.6375 40.2002 28.7541 40.2002 30.15C40.2002 31.5459 41.0377 32.6625 42.4336 33.2209C42.7127 33.3605 43.1314 33.2209 43.2711 33.0812C43.5502 32.8021 44.1086 32.8021 44.3877 33.0812C44.6668 33.3604 44.9461 33.3604 45.2252 33.2209C46.4814 32.6625 47.4586 31.5459 47.4586 30.15C47.4586 28.7541 46.6211 27.6375 45.2252 27.0791C44.9461 26.9396 44.5273 27.0791 44.3877 27.2187Z" fill="#F1543F"/>
<path d="M42.5732 30.15C42.5732 30.5688 42.7129 30.8479 42.992 31.1271C43.1316 31.2668 43.1316 31.4063 43.1316 31.5459C43.1316 32.523 41.8754 32.8021 41.317 32.1043C40.8982 31.5459 40.4795 30.848 40.4795 30.1501C40.4795 29.4523 40.7586 28.6148 41.317 28.196C41.8754 27.4981 43.1316 27.9169 43.1316 28.7544C43.1316 28.894 42.992 29.0335 42.992 29.1731C42.7129 29.4521 42.5732 29.8709 42.5732 30.15Z" fill="#FF7058"/>
<path d="M42.0143 30.2897V30.0105C41.8746 29.8709 41.4559 29.8709 41.3164 30.0105L41.1768 30.1502L41.3164 30.2898C41.4559 30.4292 41.735 30.4292 42.0143 30.2897Z" fill="#FFD15C"/>
<path d="M42.4332 29.3125H42.5728V29.1729C42.4332 28.8938 42.1541 28.7541 41.875 28.8938H41.7354V29.0334C41.8748 29.1729 42.154 29.3125 42.4332 29.3125Z" fill="#FFD15C"/>
<path d="M41.875 31.6854H41.7354V31.5458C41.875 31.2666 42.1541 31.127 42.4332 31.2666H42.5728V31.4063C42.4334 31.6854 42.1541 31.825 41.875 31.6854Z" fill="#FFD15C"/>
<path d="M45.2254 30.15C45.2254 29.8709 45.0857 29.4522 44.8066 29.3125C44.667 29.1729 44.667 29.0334 44.667 28.8938C44.667 28.0563 45.7836 27.7772 46.342 28.3354C46.7607 28.8938 47.0399 29.452 47.0399 30.15C47.0399 30.848 46.7607 31.4063 46.342 31.9647C45.7836 32.6625 44.667 32.2438 44.667 31.4063C44.667 31.2667 44.667 31.1272 44.8066 30.9875C45.0857 30.8479 45.2254 30.5688 45.2254 30.15Z" fill="#FF7058"/>
<path d="M46.0625 30.0104V30.2895C46.2021 30.4291 46.6209 30.4291 46.7604 30.2895L46.9 30.1499L46.7604 30.0103C46.4813 29.8709 46.2021 29.8709 46.0625 30.0104Z" fill="#FFD15C"/>
<path d="M45.5039 31.1272H45.3643V31.2668C45.5039 31.5459 45.783 31.6855 46.0621 31.5459H46.2018V31.4063C46.0623 31.1272 45.7831 30.9875 45.5039 31.1272Z" fill="#FFD15C"/>
<path d="M46.0631 28.6147H46.2027V28.7543C46.0631 29.0334 45.784 29.173 45.5049 29.0334H45.3652V28.8938C45.5047 28.6147 45.784 28.475 46.0631 28.6147Z" fill="#FFD15C"/>
<path d="M27.6377 27.4979L27.498 27.6376L27.6377 27.7772C27.9168 27.9168 28.196 27.7772 28.3355 27.6376L28.4752 27.4979L28.3355 27.3583C28.196 27.0792 27.7773 27.2188 27.6377 27.4979Z" fill="#FFD15C"/>
<path d="M27.498 28.6147L27.3584 28.7543L27.498 28.8939C27.6377 29.173 27.9168 29.173 28.1959 29.0335L28.3355 28.8939L28.1959 28.7543C28.0564 28.475 27.7773 28.475 27.498 28.6147Z" fill="#FFD15C"/>
<path d="M27.3582 25.9625H27.4978V26.1022C27.4978 26.3813 27.2187 26.5209 26.9394 26.5209H26.7998V26.3813C26.7998 26.2416 27.0789 25.9625 27.3582 25.9625Z" fill="#FFD15C"/>
<path d="M36.0125 16.8895C38.4794 16.8895 40.4791 15.0772 40.4791 12.8416C40.4791 10.6061 38.4794 8.79376 36.0125 8.79376C33.5457 8.79376 31.5459 10.6061 31.5459 12.8416C31.5459 15.0772 33.5457 16.8895 36.0125 16.8895Z" fill="#FF7058"/>
<path d="M36.5713 9.91038C36.2922 10.1895 35.7338 10.1895 35.4547 9.91038C35.315 9.63126 34.8963 9.63126 34.6172 9.77076C33.3609 10.3291 32.3838 11.4458 32.3838 12.8416C32.3838 14.2375 33.2213 15.3541 34.6172 15.9125C34.8963 16.0521 35.315 15.9125 35.4547 15.7729C35.7338 15.4938 36.2922 15.4938 36.5713 15.7729C36.8504 16.052 37.1297 16.052 37.4088 15.9125C38.665 15.3541 39.6422 14.2375 39.6422 12.8416C39.6422 11.4458 38.8047 10.1895 37.5484 9.77076C37.1295 9.63126 36.8504 9.63126 36.5713 9.91038Z" fill="#F1543F"/>
<path d="M34.7559 12.8416C34.7559 13.2604 34.8955 13.5395 35.1746 13.8187C35.3142 13.9584 35.3142 14.0979 35.3142 14.2375C35.3142 15.2146 34.058 15.4937 33.4996 14.7959C33.0809 14.2375 32.6621 13.5396 32.6621 12.8417C32.6621 12.0042 32.9412 11.3064 33.4996 10.8876C34.058 10.1897 35.3142 10.6085 35.3142 11.446C35.3142 11.5856 35.1746 11.7251 35.1746 11.8647C34.8955 12.1437 34.7559 12.4229 34.7559 12.8416Z" fill="#FF7058"/>
<path d="M34.1978 12.9813V12.7021C34.0582 12.5625 33.6395 12.5625 33.5 12.7021L33.3604 12.8418L33.5 12.9813C33.6396 13.1209 34.0584 13.1209 34.1978 12.9813Z" fill="#FFD15C"/>
<path d="M34.6168 11.8646H34.7564V11.725C34.6168 11.4459 34.3377 11.3063 34.0586 11.4459H33.9189V11.5855C34.0586 11.8646 34.4773 12.0041 34.6168 11.8646Z" fill="#FFD15C"/>
<path d="M34.0586 14.3772H33.9189V14.2375C34.0586 13.9584 34.3377 13.8188 34.6168 13.9584H34.7564V14.098C34.7564 14.3772 34.3377 14.5166 34.0586 14.3772Z" fill="#FFD15C"/>
<path d="M37.5476 12.8416C37.5476 12.5625 37.408 12.1438 37.1289 12.0041C36.9893 11.8645 36.9893 11.725 36.9893 11.5854C36.9893 10.7479 38.1059 10.4688 38.6643 11.027C39.083 11.5854 39.3621 12.1436 39.3621 12.8416C39.3621 13.5396 39.083 14.0979 38.6643 14.6563C38.1059 15.3541 36.9893 14.9354 36.9893 14.0979C36.9893 13.9583 36.9893 13.8188 37.1289 13.6791C37.4081 13.4 37.5476 13.1209 37.5476 12.8416Z" fill="#FF7058"/>
<path d="M38.2461 12.7021V12.9812C38.3857 13.1208 38.8045 13.1208 38.944 12.9812L39.0836 12.8416L38.944 12.702C38.8043 12.5625 38.5252 12.5625 38.2461 12.7021Z" fill="#FFD15C"/>
<path d="M37.8271 13.8188H37.6875V13.9584C37.8271 14.2375 38.1063 14.3771 38.3854 14.2375H38.525V14.0979C38.3854 13.8188 38.1062 13.6791 37.8271 13.8188Z" fill="#FFD15C"/>
<path d="M38.3854 11.3062H38.525V11.4459C38.3854 11.725 38.1062 11.8646 37.8271 11.725H37.6875V11.5854C37.8271 11.3062 38.1063 11.1666 38.3854 11.3062Z" fill="#FFD15C"/>
<path d="M52.0643 26.6604C54.5311 26.6604 56.5309 24.8481 56.5309 22.6125C56.5309 20.3769 54.5311 18.5646 52.0643 18.5646C49.5974 18.5646 47.5977 20.3769 47.5977 22.6125C47.5977 24.8481 49.5974 26.6604 52.0643 26.6604Z" fill="#FF7058"/>
<path d="M52.6231 19.6813C52.3439 19.9604 51.7856 19.9604 51.5064 19.6813C51.2273 19.4021 50.9481 19.4021 50.6689 19.5416C49.4127 20.1 48.4355 21.2166 48.4355 22.6125C48.4355 24.0084 49.2731 25.125 50.6689 25.6834C50.9481 25.823 51.3668 25.6834 51.5064 25.5438C51.7856 25.2646 52.3439 25.2646 52.6231 25.5438C52.9022 25.8229 53.1814 25.8229 53.4606 25.6834C54.7168 25.125 55.6939 24.0084 55.6939 22.6125C55.6939 21.2166 54.8564 20.1 53.4606 19.5416C53.1814 19.4021 52.9023 19.5416 52.6231 19.6813Z" fill="#F1543F"/>
<path d="M50.8086 22.6125C50.8086 23.0313 50.9482 23.3104 51.2273 23.5897C51.367 23.7293 51.367 23.8688 51.367 24.0084C51.367 24.9855 50.1107 25.2647 49.5523 24.5668C49.1336 24.0084 48.7148 23.3105 48.7148 22.6127C48.7148 21.9148 48.994 21.0773 49.5523 20.6585C50.1107 19.9607 51.367 20.3794 51.367 21.2169C51.367 21.3565 51.2273 21.496 51.2273 21.6357C50.9481 21.9147 50.8086 22.1938 50.8086 22.6125Z" fill="#FF7058"/>
<path d="M50.2496 22.7521V22.473C50.11 22.3334 49.6912 22.3334 49.5517 22.473L49.4121 22.6125L49.5517 22.7521C49.6912 22.8916 50.11 22.8916 50.2496 22.7521Z" fill="#FFD15C"/>
<path d="M50.6686 21.6354H50.8082V21.4958C50.6686 21.2166 50.3894 21.077 50.1103 21.2166H49.9707V21.3563C50.1102 21.6354 50.3894 21.775 50.6686 21.6354Z" fill="#FFD15C"/>
<path d="M50.1103 24.1479H49.9707V24.0083C50.1103 23.7292 50.3895 23.5895 50.6686 23.7292H50.8082V23.8688C50.6687 24.1479 50.3896 24.2875 50.1103 24.1479Z" fill="#FFD15C"/>
<path d="M53.6004 22.6125C53.6004 22.3334 53.4607 21.9146 53.1816 21.775C53.042 21.6354 53.042 21.4959 53.042 21.3562C53.042 20.5187 54.1586 20.2396 54.717 20.7979C55.1357 21.3562 55.4149 21.9145 55.4149 22.6125C55.4149 23.3104 55.1357 23.8687 54.717 24.4271C54.1586 25.125 53.042 24.7062 53.042 23.8687C53.042 23.7291 53.042 23.5896 53.1816 23.45C53.4607 23.3104 53.6004 23.0312 53.6004 22.6125Z" fill="#FF7058"/>
<path d="M54.2979 22.4729V22.752C54.4375 22.8916 54.8562 22.8916 54.9957 22.752L55.1353 22.6124L54.9957 22.4727C54.8562 22.3334 54.4375 22.3334 54.2979 22.4729Z" fill="#FFD15C"/>
<path d="M53.8789 23.5896H53.7393V23.7293C53.8789 24.0084 54.158 24.148 54.4371 24.0084H54.5768V23.8688C54.4373 23.5896 54.1581 23.45 53.8789 23.5896Z" fill="#FFD15C"/>
<path d="M54.4381 21.0771H54.5777V21.2167C54.4381 21.4959 54.159 21.6355 53.8799 21.4959H53.7402V21.3562C53.8797 21.0771 54.159 20.9375 54.4381 21.0771Z" fill="#FFD15C"/>
<path d="M18.8436 25.5437C21.3104 25.5437 23.3102 23.7314 23.3102 21.4959C23.3102 19.2603 21.3104 17.448 18.8436 17.448C16.3767 17.448 14.377 19.2603 14.377 21.4959C14.377 23.7314 16.3767 25.5437 18.8436 25.5437Z" fill="#FF7058"/>
<path d="M19.4023 18.5647C19.1232 18.8438 18.5648 18.8438 18.2857 18.5647C18.0066 18.2855 17.7273 18.2855 17.4482 18.425C16.192 18.9834 15.2148 20.1 15.2148 21.4959C15.2148 22.8918 16.0523 24.0084 17.4482 24.5668C17.7273 24.7064 18.1461 24.5668 18.2857 24.4272C18.5648 24.148 19.1232 24.148 19.4023 24.4272C19.6815 24.7063 19.9607 24.7063 20.2398 24.5668C21.4961 24.0084 22.4732 22.8918 22.4732 21.4959C22.4732 20.1 21.6357 18.9834 20.2398 18.425C19.9606 18.2854 19.6815 18.2854 19.4023 18.5647Z" fill="#F1543F"/>
<path d="M17.5879 21.4959C17.5879 21.9146 17.7275 22.1938 18.0066 22.473C18.1463 22.6127 18.1463 22.7522 18.1463 22.8918C18.1463 23.8689 16.89 24.148 16.3316 23.4502C15.9129 22.8918 15.4941 22.1939 15.4941 21.496C15.4941 20.6585 15.7733 19.9607 16.3316 19.5419C16.89 18.844 18.1463 19.2628 18.1463 20.1003C18.1463 20.2399 18.0066 20.3794 18.0066 20.519C17.7275 20.6584 17.5879 21.0771 17.5879 21.4959Z" fill="#FF7058"/>
<path d="M17.0289 21.4959V21.2168C16.8893 21.0772 16.4705 21.0772 16.331 21.2168L16.1914 21.3564L16.331 21.496C16.4707 21.775 16.7498 21.775 17.0289 21.4959Z" fill="#FFD15C"/>
<path d="M17.4479 20.5188H17.5875V20.3791C17.4479 20.1 17.1688 19.9604 16.8896 20.1H16.75V20.2396C16.8896 20.5188 17.1687 20.6584 17.4479 20.5188Z" fill="#FFD15C"/>
<path d="M16.8896 23.0313H16.75V22.8916C16.8896 22.6125 17.1687 22.4729 17.4479 22.6125H17.5875V22.7521C17.4479 22.8916 17.1688 23.0313 16.8896 23.0313Z" fill="#FFD15C"/>
<path d="M20.3787 21.4959C20.3787 21.2167 20.2391 20.798 19.9599 20.6584C19.8203 20.5187 19.8203 20.3792 19.8203 20.2396C19.8203 19.4021 20.9369 19.123 21.4953 19.6812C21.9141 20.2396 22.1932 20.7979 22.1932 21.4959C22.1932 22.1937 21.9141 22.7521 21.4953 23.3105C20.9369 24.0084 19.8203 23.5896 19.8203 22.7521C19.8203 22.6125 19.8203 22.473 19.9599 22.3334C20.0996 22.0541 20.3787 21.775 20.3787 21.4959Z" fill="#FF7058"/>
<path d="M21.0771 21.3563V21.6354C21.2168 21.775 21.6355 21.775 21.775 21.6354L21.9146 21.4958L21.775 21.3563C21.6354 21.0771 21.2166 21.0771 21.0771 21.3563Z" fill="#FFD15C"/>
<path d="M20.6582 22.3334H20.5186V22.473C20.6582 22.7521 20.9373 22.8917 21.2164 22.7521H21.3561V22.6125C21.2164 22.4729 20.7977 22.3334 20.6582 22.3334Z" fill="#FFD15C"/>
<path d="M21.2164 19.8209H21.3561V19.9605C21.2164 20.2396 20.9373 20.3792 20.6582 20.2396H20.5186V20.1C20.5186 19.9604 20.9373 19.8209 21.2164 19.8209Z" fill="#FFD15C"/>
<path d="M44.6667 52.6229C44.527 51.6457 45.5042 50.6687 46.6208 50.5291C47.7374 50.3895 49.1333 50.9479 49.1333 51.925C49.2729 52.9021 47.877 53.8791 46.7604 54.0187C45.7834 54.0187 44.8063 53.6 44.6667 52.6229Z" fill="#40596B"/>
<path d="M48.0164 52.3437C48.2477 52.3437 48.4352 52.1562 48.4352 51.925C48.4352 51.6937 48.2477 51.5062 48.0164 51.5062C47.7851 51.5062 47.5977 51.6937 47.5977 51.925C47.5977 52.1562 47.7851 52.3437 48.0164 52.3437Z" fill="#334A5E"/>
<path d="M43.2712 36.2916C44.2483 36.0125 45.3649 36.7104 45.6441 37.827C45.9232 38.9436 45.6441 40.3395 44.6669 40.6186C43.6898 40.8978 42.5732 39.6415 42.2941 38.6645C42.1544 37.5479 42.4337 36.4313 43.2712 36.2916Z" fill="#40596B"/>
<path d="M44.5272 39.7812C44.7584 39.7812 44.9459 39.5937 44.9459 39.3625C44.9459 39.1312 44.7584 38.9437 44.5272 38.9437C44.2959 38.9437 44.1084 39.1312 44.1084 39.3625C44.1084 39.5937 44.2959 39.7812 44.5272 39.7812Z" fill="#334A5E"/>
<path d="M30.7086 53.4603C31.6857 53.1812 32.8024 53.8791 33.0815 54.9957C33.3606 56.1123 33.0815 57.5082 32.1044 57.7873C31.1272 58.0665 30.0106 56.8102 29.7315 55.8332C29.4524 54.8562 29.7315 53.7396 30.7086 53.4603Z" fill="#40596B"/>
<path d="M31.825 57.0896C32.0563 57.0896 32.2437 56.9022 32.2437 56.6709C32.2437 56.4396 32.0563 56.2521 31.825 56.2521C31.5937 56.2521 31.4062 56.4396 31.4062 56.6709C31.4062 56.9022 31.5937 57.0896 31.825 57.0896Z" fill="#334A5E"/>
<path d="M30.8483 46.6209C30.1504 47.3188 28.7545 47.3188 28.0566 46.6209C27.3588 45.923 26.8004 44.3875 27.3588 43.8293C27.9171 43.271 29.5921 43.5501 30.4296 44.248C31.267 44.9459 31.5463 46.0625 30.8483 46.6209Z" fill="#40596B"/>
<path d="M28.1961 45.0854C28.4274 45.0854 28.6148 44.8979 28.6148 44.6666C28.6148 44.4353 28.4274 44.2479 28.1961 44.2479C27.9648 44.2479 27.7773 44.4353 27.7773 44.6666C27.7773 44.8979 27.9648 45.0854 28.1961 45.0854Z" fill="#334A5E"/>
<path d="M33.3608 20.9375C32.8024 20.1 33.0817 18.8437 33.9192 18.1458C34.7567 17.448 36.292 17.3083 36.8504 18.0062C37.4088 18.8437 36.8504 20.3791 35.8733 20.9375C34.8963 21.4958 33.9192 21.6353 33.3608 20.9375Z" fill="#40596B"/>
<path d="M35.7332 18.9834C35.9645 18.9834 36.152 18.7959 36.152 18.5646C36.152 18.3334 35.9645 18.1459 35.7332 18.1459C35.5019 18.1459 35.3145 18.3334 35.3145 18.5646C35.3145 18.7959 35.5019 18.9834 35.7332 18.9834Z" fill="#334A5E"/>
<path d="M39.0836 28.475C38.3857 29.1729 36.9899 29.1729 36.292 28.475C35.5941 27.7771 35.0357 26.2416 35.5941 25.6834C36.1525 25.1251 37.8275 25.4043 38.665 26.1021C39.3627 26.8 39.6419 27.7771 39.0836 28.475Z" fill="#40596B"/>
<path d="M36.4314 26.8C36.6627 26.8 36.8502 26.6125 36.8502 26.3813C36.8502 26.15 36.6627 25.9625 36.4314 25.9625C36.2002 25.9625 36.0127 26.15 36.0127 26.3813C36.0127 26.6125 36.2002 26.8 36.4314 26.8Z" fill="#334A5E"/>
<path d="M57.788 28.1959C57.9276 29.173 56.9505 30.15 55.9734 30.2896C54.8567 30.4292 53.4609 29.8709 53.3212 28.8937C53.1816 27.9166 54.5775 26.9396 55.6941 26.8C56.8109 26.6604 57.788 27.2187 57.788 28.1959Z" fill="#40596B"/>
<path d="M54.5769 29.3125C54.8082 29.3125 54.9957 29.125 54.9957 28.8937C54.9957 28.6625 54.8082 28.475 54.5769 28.475C54.3457 28.475 54.1582 28.6625 54.1582 28.8937C54.1582 29.125 54.3457 29.3125 54.5769 29.3125Z" fill="#334A5E"/>
<path d="M30.5691 12.1437C29.5919 9.77086 26.9399 8.79373 24.5669 9.77086C22.3336 10.748 21.2169 13.5396 22.3336 15.9125C22.6127 16.4709 22.6127 16.1916 23.0314 16.6104C23.3106 16.8895 23.8689 17.0291 24.2877 16.8895C24.9856 16.6104 25.8231 17.0291 25.9627 17.8666L26.2418 19.1229C26.3814 19.9604 27.2189 20.3791 27.9168 20.1L29.5918 19.4021C30.2897 19.123 30.5689 18.1459 30.1502 17.5875L29.4523 16.6104C29.0336 15.9125 29.3127 15.075 30.0107 14.7957C30.4294 14.6561 30.7086 14.2373 30.7086 13.6791C30.7087 12.7021 30.8482 12.7021 30.5691 12.1437Z" fill="#757238"/>
<g opacity="0.1">
<path opacity="0.1" d="M29.3119 18.5646L27.6369 19.2625C27.0786 19.5416 26.5203 19.2625 26.1016 18.8437C26.2412 19.6812 27.0787 20.1 27.7766 19.8208L29.4516 19.123C30.1494 18.8439 30.4287 17.8667 30.0099 17.3083C30.1494 17.8666 29.8703 18.425 29.3119 18.5646Z" fill="#231F20"/>
<path opacity="0.1" d="M25.8226 17.1687C25.683 16.3312 24.8455 15.9124 24.1476 16.1916C23.7289 16.3312 23.1705 16.3312 22.8914 15.9124C22.6123 15.6333 22.4726 15.6333 22.333 15.3541C22.333 15.4937 22.333 15.6332 22.4726 15.6332C22.7518 16.1916 22.7518 15.9123 23.1705 16.3311C23.4496 16.6102 24.008 16.7498 24.4268 16.6102C24.8456 16.4708 25.5435 16.7499 25.8226 17.1687Z" fill="#231F20"/>
<path opacity="0.1" d="M30.4295 12.8416C30.4295 13.2603 30.1504 13.6791 29.7317 13.9582C29.0338 14.2373 28.7545 15.2145 29.1733 15.7728C29.0337 15.2145 29.3129 14.6562 29.8712 14.377C30.2899 14.2373 30.569 13.8186 30.569 13.2603C30.569 12.702 30.7087 12.702 30.4294 12.1437C30.4294 12.1437 30.4294 12.0041 30.2898 12.0041C30.5692 12.2833 30.4295 12.4228 30.4295 12.8416Z" fill="#231F20"/>
</g>
<path d="M43.9971 21.9173C45.0163 20.7937 44.8464 19.1885 43.6573 18.2254C42.4682 17.3426 40.6846 17.5031 39.7503 18.6267C39.5804 18.8675 39.6653 18.8675 39.5804 19.1885C39.4955 19.4293 39.5804 19.7504 39.8352 19.9108C40.175 20.2319 40.175 20.7134 39.8352 21.0344L39.2407 21.4357C38.9009 21.6765 38.816 22.2383 39.2407 22.5593L40.09 23.2013C40.4298 23.5224 41.0243 23.3618 41.1942 22.9606L41.534 22.3185C41.7888 21.9172 42.2984 21.837 42.6382 22.0777C42.893 22.2382 43.1478 22.3185 43.4026 22.158C43.7423 22.0778 43.7423 22.1581 43.9971 21.9173Z" fill="#757238"/>
<g opacity="0.1">
<path opacity="0.1" d="M41.1768 22.7521L39.781 21.6353C39.3622 21.2166 39.2226 20.6582 39.5018 20.1C38.9435 20.5187 38.804 21.4959 39.5018 22.0541L40.8977 23.1707C41.4561 23.7291 42.4331 23.4498 42.7123 22.752C42.2935 23.1709 41.7351 23.1709 41.1768 22.7521Z" fill="#231F20"/>
<path opacity="0.1" d="M40.7581 18.9834C41.456 18.5646 41.456 17.5875 40.7581 17.0292C40.479 16.7501 40.3393 16.1917 40.479 15.773C40.6186 15.3542 40.479 15.2146 40.7581 14.9355C40.6184 15.0751 40.6184 15.0751 40.479 15.2146C40.1998 15.6334 40.3393 15.6334 40.1998 16.1917C40.0602 16.6105 40.1998 17.1689 40.6186 17.448C41.0372 17.8666 41.0372 18.425 40.7581 18.9834Z" fill="#231F20"/>
<path opacity="0.1" d="M46.9 21.0771C46.4812 21.3562 45.9228 21.2167 45.6437 20.9375C45.0853 20.3791 44.1084 20.6583 43.8291 21.3562C44.2479 21.0771 44.9457 20.9375 45.3645 21.3562C45.7832 21.6353 46.202 21.775 46.6207 21.4958C47.1791 21.2167 47.1791 21.3562 47.5979 20.9375L47.7375 20.7978C47.3187 20.9375 47.3187 20.9375 46.9 21.0771Z" fill="#231F20"/>
</g>
<path d="M49.6919 37.6875C50.9481 39.7812 53.8794 40.4791 55.9731 39.0834C58.0669 37.6875 58.7648 34.7562 57.2294 32.6625C56.9503 32.2437 56.8106 32.3833 56.3919 32.1041C55.9731 31.825 55.5544 31.825 55.1356 32.1041C54.4378 32.5228 53.6003 32.2437 53.3211 31.4062L53.042 30.4291C52.7628 29.7312 51.9253 29.3125 51.2274 29.7312L49.692 30.7083C48.9941 31.1271 48.8545 32.1042 49.4129 32.6625L50.2504 33.5C50.8088 34.0583 50.6691 35.0353 49.9713 35.4541C49.5525 35.7332 49.2734 36.152 49.4129 36.5707C49.5524 37.1291 49.4128 37.1291 49.6919 37.6875Z" fill="#757238"/>
<g opacity="0.1">
<path opacity="0.1" d="M49.9711 31.1271L51.5065 30.15C52.0649 29.8708 52.6231 30.0103 53.0419 30.4291C52.7628 29.7312 51.9253 29.3125 51.2274 29.7312L49.692 30.7084C48.9941 31.1271 48.8545 32.1042 49.4129 32.6625C49.2731 32.1041 49.4128 31.4062 49.9711 31.1271Z" fill="#231F20"/>
<path opacity="0.1" d="M53.7402 31.9646C54.0194 32.6625 54.8569 33.0812 55.5549 32.6625C55.9736 32.3833 56.532 32.3833 56.8111 32.6625C57.2299 32.9416 57.2299 32.8021 57.509 33.0812C57.509 32.9416 57.3694 32.8021 57.3694 32.8021C57.0902 32.3833 56.9506 32.523 56.5319 32.2437C56.1131 31.9646 55.6944 31.9646 55.2756 32.2437C54.7172 32.5228 54.0194 32.3833 53.7402 31.9646Z" fill="#231F20"/>
<path opacity="0.1" d="M49.6915 36.9896C49.6915 36.5709 49.8311 36.0125 50.2499 35.873C50.9478 35.4543 51.0874 34.4771 50.529 33.9189C50.6686 34.4773 50.529 35.0355 49.9706 35.3148C49.5519 35.5939 49.2728 36.0126 49.4123 36.4314C49.5519 36.9898 49.4123 36.9898 49.6914 37.548L49.8311 37.6875C49.6915 37.5479 49.8311 37.4084 49.6915 36.9896Z" fill="#231F20"/>
</g>
<path d="M20.9032 52.318C22.0584 53.6282 24.0476 53.8439 25.3627 52.6832C26.6778 51.5225 26.766 49.3945 25.6094 48.2216C25.3373 47.9456 25.336 48.083 24.9947 47.8753C24.7213 47.7366 24.3774 47.8036 24.0323 48.0078C23.6166 48.4177 23.0005 48.2087 22.7297 47.7955L22.3934 47.0386C22.1918 46.5571 21.5065 46.4164 21.0908 46.8263L20.122 47.6455C19.7063 48.0554 19.7692 48.6736 20.1787 48.9502L20.8603 49.5028C21.3378 49.8484 21.2634 50.466 20.9171 50.8076C20.7092 51.0126 20.5001 51.3549 20.6349 51.6301C20.7003 51.9737 20.563 51.973 20.9032 52.318Z" fill="#757238"/>
<g opacity="0.1">
<path opacity="0.1" d="M18.0066 51.3666L18.1463 49.552C18.1463 48.9936 18.7046 48.4353 19.2629 48.4353C18.565 48.1562 17.7275 48.7145 17.7275 49.552L17.5879 51.3666C17.5879 52.2041 18.2858 52.7625 18.9838 52.6228C18.2858 52.4833 17.867 52.0646 18.0066 51.3666Z" fill="#231F20"/>
<path opacity="0.1" d="M20.7988 48.8541C21.6363 49.1332 22.3342 48.575 22.3342 47.7375C22.3342 47.3187 22.6133 46.9 23.1717 46.6209C23.5904 46.4812 23.5905 46.3417 23.8696 46.3417C23.7299 46.3417 23.5905 46.3417 23.4508 46.3417C22.8924 46.3417 23.0321 46.4814 22.4737 46.6209C22.0549 46.7605 21.7758 47.1792 21.6362 47.7375C21.776 48.2959 21.3572 48.7146 20.7988 48.8541Z" fill="#231F20"/>
<path opacity="0.1" d="M22.6125 54.9959C22.1937 54.7168 21.9146 54.298 22.0541 53.8793C22.0541 53.0418 21.3562 52.4834 20.6582 52.623C21.2166 52.7626 21.6353 53.3209 21.4957 53.8793C21.4957 54.298 21.6353 54.8564 22.0541 54.9959C22.6125 55.275 22.4728 55.4146 23.1707 55.4146C23.3103 55.4146 23.3103 55.4146 23.4498 55.4146C23.0312 55.275 23.0312 55.1354 22.6125 54.9959Z" fill="#231F20"/>
</g>
<path d="M35.2631 38.9726C37.1444 39.129 38.8056 37.6935 38.8129 35.735C38.8951 33.8549 37.2454 32.1264 35.2886 32.0422C34.837 32.0228 34.9869 32.1799 34.6104 32.2391C34.3088 32.3768 34.0066 32.6652 34.0805 33.045C34.0783 33.6477 33.4745 34.0737 32.873 33.8972L31.971 33.557C31.3695 33.3805 30.8412 33.7345 30.7635 34.4092L30.683 35.8373C30.6808 36.44 31.2056 36.9899 31.8083 36.8651L32.7119 36.7533C33.3145 36.6285 33.8394 37.1785 33.8372 37.7811C33.8361 38.0824 33.985 38.5409 34.361 38.6324C34.8871 38.8811 34.8115 38.9532 35.2631 38.9726Z" fill="#757238"/>
<g opacity="0.1">
<path opacity="0.1" d="M30.1494 38.3854L28.8932 36.9895C28.4744 36.5708 28.4744 35.8729 28.7535 35.4542C28.0557 35.8729 27.916 36.7104 28.4744 37.4083L29.7307 38.8042C30.289 39.3625 31.266 39.3625 31.6848 38.6645C31.266 38.8042 30.5682 38.8042 30.1494 38.3854Z" fill="#231F20"/>
<path opacity="0.1" d="M30.2894 34.4772C30.9872 34.0584 31.1269 33.0813 30.5685 32.523C30.2894 32.2439 30.1497 31.6855 30.2894 31.2668C30.429 30.848 30.429 30.7084 30.5685 30.5689C30.4289 30.7085 30.4289 30.7085 30.2894 30.848C29.8706 31.2668 30.0102 31.2668 29.8706 31.6855C29.731 32.1043 29.731 32.6627 30.1497 32.9418C30.5685 33.3604 30.5685 34.0584 30.2894 34.4772Z" fill="#231F20"/>
<path opacity="0.1" d="M36.0121 37.4084C35.5934 37.548 35.035 37.4084 34.7559 37.1293C34.1975 36.5709 33.2205 36.5709 32.8018 37.2689C33.2205 36.9898 33.9184 36.9898 34.3371 37.4085C34.6162 37.6877 35.1746 37.9669 35.5934 37.6877C36.1518 37.548 36.1518 37.6877 36.71 37.1293L36.8496 36.9897C36.5705 37.2688 36.4309 37.2688 36.0121 37.4084Z" fill="#231F20"/>
</g>
<path d="M17.4674 28.369C16.8882 27.1425 15.376 26.5862 14.1719 27.2276C12.9549 27.7637 12.5024 29.2963 13.1872 30.5132C13.332 30.8199 13.3653 30.657 13.5565 30.9062C13.7346 31.05 14.0055 31.0789 14.2634 31.0023C14.614 30.8108 15.1225 31.0314 15.1745 31.453L15.3583 32.0757C15.4103 32.4973 15.9188 32.7178 16.2694 32.5264L17.1822 32.1244C17.5328 31.9329 17.6924 31.4923 17.3825 31.1473L16.9408 30.601C16.6903 30.304 16.7904 29.8154 17.141 29.6239C17.3395 29.4995 17.525 29.2696 17.499 29.0588C17.5064 28.6851 17.6122 28.6756 17.4674 28.369Z" fill="#757238"/>
<g opacity="0.1">
<path opacity="0.1" d="M20.3789 31.9646L19.5414 33.6396C19.2623 34.198 18.7039 34.4771 18.1455 34.3375C18.7039 34.8959 19.6809 34.6166 19.9601 33.9187L20.7976 32.2437C21.0768 31.5459 20.7976 30.7084 19.9601 30.5687C20.3789 30.8478 20.6581 31.4062 20.3789 31.9646Z" fill="#231F20"/>
<path opacity="0.1" d="M16.7502 33.3603C16.0523 32.8019 15.2148 33.0812 14.9356 33.7791C14.7959 34.1978 14.2377 34.4769 13.8189 34.4769C13.4002 34.4769 13.2606 34.6166 12.9814 34.4769C13.1211 34.4769 13.1211 34.6166 13.2606 34.6166C13.8189 34.8957 13.6793 34.6166 14.2377 34.7562C14.6564 34.7562 15.0752 34.4771 15.3543 34.0583C15.6336 33.3603 16.1918 33.2208 16.7502 33.3603Z" fill="#231F20"/>
<path opacity="0.1" d="M17.3084 26.9396C17.5875 27.3584 17.7271 27.7771 17.448 28.1959C17.1689 28.8937 17.448 29.7312 18.2855 29.8709C17.8668 29.5917 17.5876 28.8937 17.8668 28.3355C18.0064 27.9167 18.0064 27.3584 17.7271 27.0792C17.3084 26.6605 17.448 26.5209 16.8896 26.2417C16.8896 26.2417 16.75 26.2417 16.75 26.1021C17.0291 26.5209 17.0291 26.6604 17.3084 26.9396Z" fill="#231F20"/>
</g>
<path opacity="0.1" d="M34.1978 6.56036C26.2416 6.56036 19.1228 10.1895 14.377 15.7729C18.9832 11.8645 24.9853 9.35199 31.4061 9.35199C45.9227 9.35199 57.6477 21.077 57.6477 35.5936C57.6477 42.154 55.2748 48.0165 51.2268 52.6227C56.8102 47.8769 60.4393 40.7581 60.4393 32.8019C60.4396 18.2854 48.7146 6.56036 34.1978 6.56036Z" fill="#231F20"/>
<path d="M33.5002 62.5334C17.448 62.5334 4.4668 49.5521 4.4668 33.5C4.4668 17.4479 17.448 4.46661 33.5002 4.46661C49.5523 4.46661 62.5336 17.4479 62.5336 33.5C62.5336 49.5521 49.5523 62.5334 33.5002 62.5334ZM33.5002 7.25837C18.9836 7.25837 7.25855 18.9834 7.25855 33.5C7.25855 48.0166 18.9836 59.7416 33.5002 59.7416C48.0168 59.7416 59.7418 48.0166 59.7418 33.5C59.7418 18.9834 48.0168 7.25837 33.5002 7.25837Z" fill="#FF7058"/>
<path d="M31.0375 28.5675C31.3646 28.6451 31.7221 28.6434 32.1033 28.4825C32.7587 28.2061 33.2248 27.5774 33.2393 26.8661C33.2558 26.0694 32.7503 25.39 32.0422 25.1416C31.9924 24.4182 31.3914 23.8468 30.6556 23.8468C30.6535 23.8468 30.6514 23.847 30.6493 23.847C30.6624 23.7375 30.655 23.6218 30.6196 23.5009C30.52 23.1614 30.2216 22.901 29.8703 22.8592C29.5823 22.8251 29.3178 22.9282 29.1325 23.1114C28.9566 22.9526 28.7255 22.8531 28.4692 22.8531C27.9203 22.8531 27.4754 23.2981 27.4754 23.847C27.4754 23.8487 27.4758 23.8503 27.4758 23.852C26.8086 23.9026 26.2826 24.4589 26.2826 25.139C26.2826 25.243 26.2961 25.3436 26.3193 25.4404C25.5251 25.4735 24.891 26.1257 24.891 26.9279C24.891 27.1997 24.9648 27.4536 25.092 27.6732C24.848 27.8737 24.6924 28.1778 24.6924 28.5182C24.6924 28.9941 24.9971 29.398 25.4218 29.5481C25.367 31.4918 26.0606 32.6385 27.4024 34.1832C27.4264 34.2109 27.4507 34.2387 27.4751 34.2663C27.4804 34.2722 27.4857 34.2781 27.491 34.284C28.049 34.9101 29.3075 34.4306 29.0367 33.6368C27.5911 29.3961 32.047 30.0091 32.047 30.0091C32.047 30.0091 32.1744 28.7263 31.0249 28.6662C31.0264 28.6342 31.0278 28.6019 31.0293 28.5698C31.0323 28.5692 31.0346 28.5681 31.0375 28.5675Z" fill="#88C057"/>
<path d="M27.4916 34.2847C27.4863 34.2788 27.481 34.2729 27.4758 34.267C27.4513 34.2394 27.4271 34.2118 27.403 34.1839C26.061 32.6392 25.3674 31.4925 25.4224 29.5488C24.9977 29.3986 24.693 28.9948 24.693 28.5189C24.693 28.1783 24.8486 27.8744 25.0926 27.6739C24.9657 27.4543 24.8916 27.2004 24.8916 26.9286C24.8916 26.1264 25.5258 25.474 26.3199 25.4411C26.2967 25.3443 26.2832 25.2437 26.2832 25.1397C26.2832 24.5994 26.6156 24.1385 27.0865 23.9457C27.0553 23.8434 27.0156 23.7403 26.9635 23.6372C26.7037 23.1224 26.2466 22.7992 25.8292 22.8671C25.4853 22.923 25.2447 23.2036 25.1411 23.5811C24.8526 23.3869 24.5325 23.3114 24.2434 23.4132C23.6236 23.6315 23.4281 24.5227 23.7831 25.3481C23.7841 25.3506 23.7856 25.3527 23.7866 25.3552C23.1148 25.6762 22.9362 26.6304 23.3621 27.4912C23.4243 27.6167 23.4967 27.7321 23.5755 27.8386C22.8335 28.1454 22.6376 29.0771 23.1049 29.8913C23.2542 30.1515 23.4537 30.3657 23.6755 30.5275C23.5705 30.7786 23.5933 31.0876 23.7603 31.3727C23.9844 31.7556 24.4051 31.983 24.7991 31.9802C25.4914 33.3398 26.3408 33.8672 27.627 34.4129C27.6405 34.4186 27.654 34.4243 27.6675 34.4298C27.6042 34.3897 27.5441 34.3438 27.4916 34.2847Z" fill="#659C35"/>
<path d="M27.996 28.0026C28.0082 27.9756 28.0139 27.9473 28.0143 27.9195C28.1655 27.5391 28.3475 27.2198 28.5369 26.9534C29.4825 26.7569 30.1959 27.0524 30.2117 27.0591C30.2393 27.0713 30.268 27.0768 30.2958 27.0768C30.377 27.0768 30.4544 27.0296 30.4892 26.9507C30.536 26.844 30.4873 26.7196 30.3808 26.6728C30.3515 26.6601 29.7697 26.4117 28.9331 26.4726C29.3418 26.0465 29.7005 25.8531 29.7541 25.8261C30.0605 25.6793 30.5082 25.8691 30.6552 25.9547C30.6887 25.9745 30.7254 25.9838 30.7619 25.9838C30.834 25.9838 30.9044 25.9467 30.9436 25.8801C31.0027 25.7797 30.9696 25.6506 30.869 25.5914C30.845 25.577 30.3709 25.3031 29.8852 25.3581C29.9268 25.1871 30.0189 25.0315 30.066 24.9691C30.1366 24.8767 30.1189 24.7445 30.0263 24.6738C29.9342 24.6032 29.8015 24.6205 29.7309 24.7133C29.7176 24.7304 29.4409 25.0973 29.4415 25.5197C29.1347 25.7076 28.342 26.2772 27.7874 27.4218C27.7575 27.4834 27.7286 27.5496 27.6999 27.616C27.1246 27.2227 27.2193 26.523 27.2246 26.4891C27.2425 26.3744 27.1643 26.2666 27.0493 26.2483C26.9346 26.2299 26.8262 26.3084 26.8079 26.4233C26.7467 26.806 26.8344 27.5947 27.5449 28.0184C27.388 28.4798 27.2691 29.0306 27.2324 29.6808C27.2282 29.7012 27.2273 29.721 27.229 29.7413C27.2071 30.197 27.2282 30.7025 27.3015 31.256C27.0341 31.1088 26.9118 30.8935 26.904 30.879C26.849 30.7767 26.722 30.7377 26.6196 30.7917C26.5166 30.8459 26.4768 30.9734 26.5312 31.0766C26.5424 31.0979 26.7948 31.5645 27.3783 31.7448C27.5303 32.5791 27.8013 33.5158 28.2395 34.567C28.384 34.5576 28.5246 34.5194 28.6491 34.4574C28.6484 34.4557 28.6486 34.4538 28.648 34.4519C28.1881 33.3577 27.9106 32.3937 27.7629 31.542C27.7621 31.5369 27.7617 31.5321 27.7606 31.5272C27.651 30.8883 27.6153 30.314 27.636 29.7997C27.9312 29.2963 28.799 29.2761 28.8079 29.2759C28.9243 29.274 29.0173 29.1784 29.0156 29.062C29.0139 28.9465 28.92 28.8541 28.8049 28.8541C28.8041 28.8541 28.8032 28.8541 28.8024 28.8541C28.768 28.8545 28.1668 28.8676 27.6898 29.1666C27.748 28.7491 27.8448 28.3792 27.9648 28.0507C27.9772 28.0361 27.988 28.0203 27.996 28.0026Z" fill="#659C35"/>
</svg>
