<svg width="232" height="232" viewBox="0 0 232 232" fill="none" xmlns="http://www.w3.org/2000/svg">
<path d="M182.83 100.4C180.548 100.736 178.228 100.924 175.908 100.924C171.305 100.924 166.852 100.212 162.663 98.9402C155.59 96.7696 149.228 92.8779 144.139 87.7528C139.013 82.6624 135.121 76.3022 132.95 69.2295C131.679 65.0381 130.968 60.5854 130.968 55.9829C130.968 53.6624 131.154 51.3438 131.492 49.0599C132.95 39.6686 137.366 30.913 144.176 24.1399L156.787 11.5657C161.802 6.55206 168.648 3.74561 175.76 3.74561H175.982C183.094 3.74561 189.94 6.59043 194.955 11.604L220.4 37.0485C225.415 42.0639 228.258 48.9101 228.258 56.0212C228.258 63.1306 225.452 69.9786 220.438 74.9922L207.752 87.7144C203.561 91.9424 198.584 95.2367 193.159 97.4804C189.867 98.8653 186.386 99.8392 182.83 100.4Z" fill="#E6E9ED"/>
<path d="M202.326 55.1224C204.535 57.3295 205.807 60.3991 205.807 63.5052C205.807 66.6843 204.571 69.679 202.326 71.9245L197.162 77.1245C191.588 82.7374 183.841 85.9568 175.908 85.9568C159.369 85.9568 145.936 72.522 145.936 55.9829C145.936 48.0496 149.153 40.3044 154.766 34.7281L159.856 29.6779C162.1 27.4324 165.095 26.1973 168.276 26.1973C171.68 26.1973 174.636 27.4324 176.881 29.6779L202.326 55.1224Z" fill="#69D6F4"/>
<path d="M169.772 124.759C168.986 126.183 168.012 127.491 166.852 128.651L151.548 143.957L136.244 159.261C132.875 162.628 128.272 164.537 123.483 164.537C119.367 164.537 115.439 163.078 112.258 160.532C112.258 163.863 111.658 167.156 110.462 170.225C109.226 173.629 107.281 176.81 104.737 179.505L71.0964 164.537L67.3545 160.795L52.3867 127.155C55.0817 124.609 58.2609 122.664 61.6666 121.43C64.7344 120.232 68.0287 119.634 71.3577 119.634C68.8143 116.453 67.3545 112.523 67.3545 108.408C67.3545 103.618 69.262 99.0151 72.6312 95.6478L87.9351 80.3438L103.239 65.0381C104.399 63.8779 105.709 62.9058 107.131 62.1202C109.787 60.5854 112.857 59.7632 116 59.7632C120.788 59.7632 125.391 61.6707 128.76 65.0381L132.95 69.2295C135.12 76.3022 139.012 82.6624 144.139 87.7528C149.228 92.8779 155.59 96.7696 162.662 98.9402L166.852 103.132C170.221 106.499 172.129 111.102 172.129 115.892C172.129 119.035 171.305 122.103 169.772 124.759Z" fill="#CCD1D9"/>
<path d="M112.258 78.4729L153.419 119.634L127.226 145.828L86.0645 104.666L112.258 78.4729Z" fill="#B4DD7F"/>
<path d="M127.226 112.15C127.226 116.283 123.875 119.634 119.742 119.634C115.609 119.634 112.258 116.283 112.258 112.15C112.258 108.016 115.609 104.667 119.742 104.667C123.875 104.667 127.226 108.016 127.226 112.15Z" fill="#FCD770"/>
<path d="M164.645 157.053L143.728 177.97C140.359 181.338 135.757 183.247 130.968 183.247C126.179 183.247 121.576 181.338 118.207 177.97L110.462 170.225C111.659 167.156 112.258 163.863 112.258 160.532C115.439 163.077 119.367 164.537 123.484 164.537C128.273 164.537 132.875 162.628 136.244 159.261L151.548 143.957L164.645 157.053Z" fill="#F5E0CD"/>
<path d="M189.304 106.874C192.673 110.241 194.581 114.843 194.581 119.634C194.581 124.423 192.673 129.025 189.304 132.393L183.355 138.344L169.772 124.759C171.305 122.103 172.129 119.035 172.129 115.892C172.129 111.101 170.222 106.499 166.853 103.132L162.663 98.9402C166.853 100.212 171.305 100.924 175.908 100.924C178.228 100.924 180.549 100.736 182.831 100.4L189.304 106.874Z" fill="#F5E0CD"/>
<path d="M132.951 69.2294L128.761 65.038C125.392 61.6706 120.789 59.7631 116 59.7631C112.858 59.7631 109.788 60.5853 107.132 62.1201L93.5488 48.5373L99.4979 42.5864C102.867 39.219 107.47 37.3115 112.259 37.3115C117.047 37.3115 121.65 39.219 125.019 42.5864L131.493 49.0599C131.155 51.3438 130.968 53.6624 130.968 55.9828C130.968 60.5853 131.679 65.038 132.951 69.2294Z" fill="#F5E0CD"/>
<path d="M87.9358 80.3438L72.6319 95.6478C69.2627 99.0152 67.3552 103.618 67.3552 108.408C67.3552 112.523 68.8151 116.453 71.3584 119.634C68.0294 119.634 64.7351 120.232 61.6674 121.43L53.9222 113.683C50.553 110.316 48.6455 105.713 48.6455 100.924C48.6455 96.1338 50.553 91.5313 53.9222 88.1639L74.8391 67.2471L87.9358 80.3438Z" fill="#F5E0CD"/>
<path d="M194.581 149.57L175.871 168.279L151.549 143.957L166.853 128.651C168.013 127.491 168.987 126.183 169.772 124.759L183.355 138.344L194.581 149.57Z" fill="#E6E9ED"/>
<path d="M93.5488 48.5373L107.132 62.1201C105.71 62.9058 104.4 63.8778 103.24 65.038L87.9359 80.3438L63.6133 56.0212L82.323 37.3115L93.5488 48.5373Z" fill="#E6E9ED"/>
<path d="M201.915 156.904C204.422 159.41 205.807 162.778 205.807 166.258C205.807 173.593 199.894 179.505 192.56 179.505C189.079 179.505 185.712 178.12 183.205 175.613L175.871 168.279L194.581 149.57L201.915 156.904Z" fill="#FFEAA7"/>
<path d="M82.3222 37.3115L63.6125 56.0212L56.2785 48.6871C53.7717 46.1785 52.3867 42.8111 52.3867 39.3323C52.3867 31.9964 58.2993 26.0857 65.6333 26.0857C69.114 26.0857 72.4813 27.4688 74.9882 29.9775L82.3222 37.3115Z" fill="#FFEAA7"/>
<path d="M72.9673 211.312L60.0204 224.259C57.5136 226.765 54.1462 228.15 50.6655 228.15C43.3315 228.15 37.4189 222.238 37.4189 214.904V213.855C37.4189 210.974 38.3544 208.205 40.0756 205.922L51.8623 190.207L72.9673 211.312Z" fill="#FFEAA7"/>
<path d="M41.6859 180.028L25.9691 191.816C23.687 193.537 20.9171 194.473 18.0357 194.473H16.9888C9.65474 194.473 3.74219 188.56 3.74219 181.226C3.74219 177.746 5.12714 174.378 7.63395 171.872L20.5809 158.925L41.6859 180.028Z" fill="#FFEAA7"/>
<path d="M71.0964 164.537L104.737 179.505C104.549 179.728 104.324 179.953 104.138 180.141L72.9673 211.312L51.8623 190.207L71.0964 164.537Z" fill="#E6E9ED"/>
<path d="M52.3875 127.155L67.3552 160.795L41.6861 180.028L20.5811 158.924L51.7517 127.754C51.938 127.566 52.1628 127.341 52.3875 127.155Z" fill="#E6E9ED"/>
<path d="M223.034 34.3882L197.612 8.96566C191.831 3.18466 184.144 0 175.747 0C167.59 0 159.915 3.1737 154.137 8.92912L141.543 21.4832C135.888 27.1181 131.739 34.1123 129.4 41.6784L127.675 39.9517C123.562 35.8371 118.085 33.5696 112.258 33.5696C106.431 33.5696 100.954 35.8371 96.8372 39.9572L93.5484 43.246L77.6196 27.3154C74.413 24.1088 70.1503 22.3438 65.6191 22.3438C56.2606 22.3438 48.6452 29.9574 48.6452 39.3159C48.6452 43.8471 50.412 48.1135 53.6186 51.3164L69.5474 67.247L51.2908 85.5036C47.1707 89.6201 44.9032 95.0978 44.9032 100.924C44.9032 106.749 47.1707 112.229 51.2908 116.343L55.3087 120.363C53.0832 121.691 50.9693 123.241 49.0873 125.123L4.96976 169.24C1.76682 172.447 0 176.71 0 181.241C0 190.599 7.61542 198.215 16.9739 198.215H18.0428C21.6915 198.215 25.3074 197.009 28.229 194.82L63.6129 168.279L37.0722 203.671C34.8815 206.585 33.6774 210.202 33.6774 213.851V214.922C33.6774 224.277 41.2928 231.892 50.6513 231.892C55.1826 231.892 59.4489 230.125 62.6518 226.919L106.769 182.801C108.651 180.919 110.201 178.805 111.529 176.578L115.547 180.598C119.663 184.722 125.141 186.989 130.968 186.989C136.794 186.989 142.272 184.722 146.389 180.601L153.419 173.569L164.192 184.343C165.652 185.801 165.652 188.175 164.192 189.635L159.807 194.02C155.429 198.394 155.429 205.518 159.807 209.892L180.709 230.796L186.001 225.505L165.098 204.602C163.638 203.143 163.638 200.769 165.098 199.311L169.483 194.924C173.861 190.55 173.861 183.426 169.483 179.052L158.711 168.279L164.645 162.343L180.574 178.274C183.781 181.48 188.043 183.247 192.574 183.247C201.933 183.247 209.548 175.632 209.548 166.273C209.548 161.742 207.782 157.476 204.575 154.273L188.646 138.344L191.935 135.053C196.055 130.939 198.323 125.459 198.323 119.634C198.323 113.807 196.055 108.33 191.935 104.213L190.21 102.488C197.776 100.153 204.77 96.0022 210.405 90.3454L223.067 77.6378C228.826 71.8605 232 64.1884 232 56.0322C232 47.8558 228.815 40.1692 223.034 34.3882ZM102.129 45.2467C107.539 39.8366 116.978 39.8366 122.388 45.2467L127.578 50.4376C127.365 52.2756 127.226 54.1155 127.226 55.9719C127.226 57.0791 127.319 58.1608 127.39 59.2497C123.997 57.1614 120.089 56.0212 116 56.0212C113.175 56.0212 110.436 56.5639 107.888 57.5852L98.8397 48.5374L102.129 45.2467ZM87.9355 75.0525L68.9042 56.0212L82.3226 42.6011L101.392 61.6707C101.122 61.9173 100.839 62.1457 100.579 62.4088L87.9355 75.0525ZM56.129 39.3159C56.129 34.0849 60.388 29.8277 65.6191 29.8277C68.1515 29.8277 70.5359 30.8143 72.3283 32.6067L77.0312 37.3116L63.6129 50.7299L58.9099 46.0251C57.1175 44.2327 56.129 41.8501 56.129 39.3159ZM56.5822 111.054C53.8762 108.348 52.3871 104.749 52.3871 100.924C52.3871 97.1003 53.8762 93.499 56.5822 90.7949L74.8387 72.5365L82.6441 80.3438L70.0005 92.9875C65.8804 97.104 63.6129 102.582 63.6129 108.408C63.6129 111.162 64.1702 113.912 65.2262 116.486C64.3693 116.654 63.5453 116.939 62.7067 117.178L56.5822 111.054ZM62.7268 159.59L42.0474 175.1L25.872 158.924L51.183 133.613L62.7268 159.59ZM23.7342 188.833C22.1045 190.057 20.08 190.731 18.0391 190.731H16.9739C11.7429 190.731 7.48387 186.472 7.48387 181.241C7.48387 178.707 8.47234 176.324 10.2647 174.532L20.5806 164.214L36.0015 179.635L23.7342 188.833ZM72.3008 169.165L98.2788 180.709L72.9677 206.02L56.7904 189.843L72.3008 169.165ZM57.3605 221.627C55.5681 223.42 53.1837 224.408 50.6513 224.408C45.4203 224.408 41.1613 220.149 41.1613 214.918V213.848C41.1613 211.809 41.8355 209.788 43.0578 208.156L52.2555 195.891L67.6764 211.312L57.3605 221.627ZM103.685 174.928L73.2528 161.4L70.4902 158.639L56.964 128.207C60.7133 125.38 65.1696 123.734 69.8964 123.451L83.5541 137.112L88.8454 131.821L74.2285 117.2C72.215 114.63 71.0968 111.513 71.0968 108.408C71.0968 104.584 72.5859 100.983 75.2918 98.2788L105.87 67.6983C111.281 62.2882 120.719 62.2882 126.13 67.6983L129.736 71.3069C134.571 85.8288 146.06 97.3159 160.582 102.15L164.188 105.759C166.898 108.467 168.387 112.068 168.387 115.892C168.387 119.716 166.898 123.316 164.192 126.022L133.613 156.6C128.708 161.503 120.416 162.149 114.686 157.655L100.075 143.043L94.7835 148.334L108.445 161.992C108.156 166.723 106.51 171.179 103.685 174.928ZM169.483 131.311C169.745 131.05 169.973 130.769 170.222 130.5L189.289 149.57L175.871 162.988L156.84 143.957L169.483 131.311ZM141.097 175.31C135.687 180.72 126.248 180.72 120.838 175.31L114.712 169.184C114.953 168.345 115.236 167.523 115.404 166.666C123.431 169.958 132.842 167.961 138.905 161.892L151.548 149.246L159.354 157.053L141.097 175.31ZM202.065 166.273C202.065 171.504 197.806 175.763 192.574 175.763C190.042 175.763 187.658 174.775 185.865 172.982L181.162 168.279L194.581 154.859L199.284 159.564C201.076 161.356 202.065 163.739 202.065 166.273ZM186.644 109.505C189.35 112.209 190.839 115.81 190.839 119.634C190.839 123.458 189.35 127.058 186.644 129.764L183.355 133.052L174.307 124.005C175.328 121.456 175.871 118.717 175.871 115.892C175.871 111.801 174.729 107.895 172.639 104.5C173.726 104.571 174.811 104.666 175.92 104.666C177.775 104.666 179.62 104.528 181.455 104.314L186.644 109.505ZM217.769 72.3575L205.107 85.0651C197.433 92.7664 186.79 97.1825 175.92 97.1825C153.195 97.1825 134.71 78.6957 134.71 55.9719C134.71 45.0969 139.126 34.4594 146.825 26.7855L159.421 14.2314C163.788 9.87922 169.584 7.48387 175.964 7.48387C182.142 7.48387 187.95 9.89018 192.317 14.257L217.739 39.6795C222.106 44.0463 224.512 49.8547 224.512 56.0322C224.516 62.1951 222.121 67.9907 217.769 72.3575Z" fill="black"/>
<path d="M179.538 27.0286C176.541 24.0339 172.642 22.4517 168.263 22.4517C164.091 22.4517 160.17 24.0723 157.232 27.0085L152.113 32.0879C145.807 38.3658 142.193 47.0702 142.193 55.9719C142.193 74.5702 157.322 89.6987 175.92 89.6987C184.822 89.6987 193.524 86.0828 199.811 79.7738L204.982 74.5574C207.928 71.6102 209.548 67.6874 209.548 63.5125C209.548 59.396 207.88 55.3653 204.968 52.4584L179.538 27.0286ZM199.676 69.2788L194.502 74.4989C189.618 79.4047 182.841 82.2148 175.92 82.2148C161.449 82.2148 149.677 70.4427 149.677 55.9719C149.677 49.0453 152.487 42.2722 157.389 37.3938L162.513 32.3108C164.049 30.7778 166.094 29.9355 168.266 29.9355C170.618 29.9355 172.69 30.7632 174.254 32.3236L199.684 57.7534C201.196 59.2681 202.064 61.3711 202.064 63.5161C202.064 65.6904 201.218 67.7367 199.676 69.2788Z" fill="black"/>
<path d="M158.711 119.634L112.258 73.1815L80.7734 104.666L127.226 151.117L158.711 119.634ZM112.258 83.7624L148.128 119.634L127.226 140.536L91.3561 104.666L112.258 83.7624Z" fill="black"/>
<path d="M130.968 112.15C130.968 105.96 125.931 100.925 119.742 100.925C113.554 100.925 108.517 105.96 108.517 112.15C108.517 118.339 113.554 123.376 119.742 123.376C125.931 123.376 130.968 118.339 130.968 112.15ZM119.742 115.892C117.681 115.892 116 114.211 116 112.15C116 110.088 117.681 108.408 119.742 108.408C121.803 108.408 123.484 110.088 123.484 112.15C123.484 114.211 121.803 115.892 119.742 115.892Z" fill="black"/>
</svg>
