<svg width="73" height="73" viewBox="0 0 73 73" fill="none" xmlns="http://www.w3.org/2000/svg">
<path d="M36.5 73C56.6584 73 73 56.6584 73 36.5C73 16.3416 56.6584 0 36.5 0C16.3416 0 0 16.3416 0 36.5C0 56.6584 16.3416 73 36.5 73Z" fill="#FFD15C"/>
<path d="M36.4998 66.3084C52.9625 66.3084 66.3082 52.9628 66.3082 36.5C66.3082 20.0373 52.9625 6.69165 36.4998 6.69165C20.0371 6.69165 6.69141 20.0373 6.69141 36.5C6.69141 52.9628 20.0371 66.3084 36.4998 66.3084Z" fill="#FFD15C"/>
<path d="M55.0541 52.6207C57.7419 52.6207 59.9207 50.6461 59.9207 48.2104C59.9207 45.7746 57.7419 43.8 55.0541 43.8C52.3664 43.8 50.1875 45.7746 50.1875 48.2104C50.1875 50.6461 52.3664 52.6207 55.0541 52.6207Z" fill="#FF7058"/>
<path d="M55.6621 45.0166C55.358 45.3207 54.7496 45.3207 54.4455 45.0166C54.1414 44.7125 53.8371 44.7125 53.533 44.8645C52.1642 45.4729 51.0996 46.6895 51.0996 48.2104C51.0996 49.7312 52.0121 50.9479 53.533 51.5562C53.8371 51.7084 54.2934 51.5562 54.4455 51.4041C54.7496 51.1 55.358 51.1 55.6621 51.4041C55.9662 51.7082 56.2705 51.7082 56.5746 51.5562C57.9434 50.9479 59.008 49.7312 59.008 48.2104C59.008 46.6895 58.0955 45.4729 56.5746 44.8645C56.2705 44.7125 55.9662 44.8646 55.6621 45.0166Z" fill="#F1543F"/>
<path d="M53.6856 48.2104C53.6856 48.6666 53.8377 48.9707 54.1418 49.275C54.2939 49.4271 54.2939 49.5791 54.2939 49.7313C54.2939 50.7959 52.9252 51.1 52.3168 50.3396C51.8606 49.7313 51.4043 48.9709 51.4043 48.2105C51.4043 47.298 51.7084 46.5376 52.3168 46.0814C52.9252 45.321 54.2939 45.7773 54.2939 46.6898C54.2939 46.8419 54.1418 46.9939 54.1418 47.146C53.8377 47.45 53.6856 47.7541 53.6856 48.2104Z" fill="#FF7058"/>
<path d="M53.0775 48.3625V48.0584C52.9254 47.9062 52.4692 47.9062 52.3172 48.0584L52.165 48.2105L52.3172 48.3626C52.4692 48.5146 52.9254 48.5146 53.0775 48.3625Z" fill="#FFD15C"/>
<path d="M53.5338 47.1459H53.6859V46.9937C53.5338 46.6896 53.2297 46.5375 52.9256 46.6896H52.7734V46.8418C52.9254 47.1459 53.2296 47.2979 53.5338 47.1459Z" fill="#FFD15C"/>
<path d="M52.9256 49.8834H52.7734V49.7312C52.9256 49.4271 53.2297 49.275 53.5338 49.4271H53.6859V49.5792C53.6859 49.8834 53.2297 50.0353 52.9256 49.8834Z" fill="#FFD15C"/>
<path d="M56.7275 48.2104C56.7275 47.9063 56.5754 47.45 56.2713 47.2979C56.1191 47.1457 56.1191 46.9938 56.1191 46.8416C56.1191 45.9291 57.3358 45.625 57.9441 46.2332C58.4004 46.8416 58.7045 47.4499 58.7045 48.2104C58.7045 48.9707 58.4004 49.5791 57.9441 50.1875C57.3358 50.9479 56.1191 50.4916 56.1191 49.5791C56.1191 49.427 56.1191 49.275 56.2713 49.1229C56.5754 48.9709 56.7275 48.6666 56.7275 48.2104Z" fill="#FF7058"/>
<path d="M57.4873 48.0584V48.3625C57.6394 48.5146 58.0957 48.5146 58.2477 48.3625L58.3998 48.2104L58.2477 48.0582C58.0957 47.9063 57.6394 47.9063 57.4873 48.0584Z" fill="#FFD15C"/>
<path d="M57.031 49.275H56.8789V49.4271C57.031 49.7312 57.3352 49.8833 57.6393 49.7312H57.7914V49.5791C57.6394 49.275 57.3352 49.1228 57.031 49.275Z" fill="#FFD15C"/>
<path d="M57.6403 46.5375H57.7924V46.6896C57.6403 46.9937 57.3361 47.1458 57.032 46.9937H56.8799V46.8416C57.0319 46.5375 57.336 46.3853 57.6403 46.5375Z" fill="#FFD15C"/>
<path d="M46.4505 61.7079C47.7237 59.6314 46.8984 56.8091 44.607 55.4042C42.3157 53.9993 39.4261 54.5438 38.153 56.6203C36.8798 58.6968 37.7051 61.519 39.9964 62.9239C42.2878 64.3288 45.1774 63.7844 46.4505 61.7079Z" fill="#FF7058"/>
<path d="M44.4079 56.7272C43.9517 56.8793 43.4954 56.575 43.3433 56.1188C43.1912 55.8147 43.0392 55.5104 42.5829 55.5104C41.0621 55.2063 39.5412 55.8147 38.7808 57.1834C38.0205 58.4 38.1724 60.073 39.0849 61.2896C39.2371 61.5938 39.6933 61.7459 39.9974 61.5938C40.4537 61.4416 40.9099 61.7459 41.0621 62.2021C41.2142 62.5063 41.3662 62.8105 41.8224 62.8105C43.3433 63.1146 44.8642 62.5063 45.6246 61.1375C46.3849 59.9209 46.2329 58.2479 45.3204 57.0313C45.1683 56.8791 44.8642 56.7272 44.4079 56.7272Z" fill="#F1543F"/>
<path d="M41.0629 58.5521C40.9108 58.8562 40.7588 59.3125 40.9108 59.6168C40.9108 59.7689 40.9108 59.9209 40.9108 60.073C40.4545 60.9855 39.0858 60.5293 38.7817 59.6168C38.6295 58.8564 38.7817 57.9439 39.2379 57.3355C39.6942 56.5751 40.3025 56.1189 41.0629 55.9667C41.9754 55.6626 42.8879 56.7271 42.4317 57.6396C42.2795 57.7918 42.1275 57.9437 41.9754 57.9437C41.6713 57.9437 41.367 58.0959 41.0629 58.5521Z" fill="#FF7058"/>
<path d="M40.4547 58.2478H40.6068V58.0957C40.4547 57.7916 40.1506 57.6395 39.8465 57.6395H39.6943V57.7916C39.8465 58.0959 40.1506 58.4 40.4547 58.2478Z" fill="#FFD15C"/>
<path d="M41.5188 57.4875H41.6709V57.3354C41.6709 57.0312 41.5187 56.727 41.2146 56.727H41.0625V56.8791C41.0625 57.1834 41.2146 57.4875 41.5188 57.4875Z" fill="#FFD15C"/>
<path d="M39.542 59.6166V59.3125C39.8461 59.1604 40.1504 59.1604 40.3024 59.4646L40.4545 59.6168L40.3024 59.7689C40.1504 59.7688 39.8463 59.7688 39.542 59.6166Z" fill="#FFD15C"/>
<path d="M43.6476 60.0729C43.7997 59.7688 43.7997 59.4645 43.7997 59.0082C43.7997 58.8561 43.7997 58.7041 43.7997 58.552C44.2559 57.7916 45.4726 58.0957 45.6247 59.0082C45.7768 59.7686 45.6247 60.377 45.1684 61.1374C44.7122 61.7457 44.1038 62.202 43.4956 62.354C42.5831 62.6581 41.8227 61.5936 42.279 60.8331C42.4311 60.681 42.4311 60.529 42.7352 60.529C43.1913 60.5291 43.4956 60.3771 43.6476 60.0729Z" fill="#FF7058"/>
<path d="M44.408 60.3771H44.2559V60.5292C44.408 60.8333 44.7121 60.9855 45.0162 60.9855H45.1684V60.8333C45.0162 60.5291 44.7121 60.225 44.408 60.3771Z" fill="#FFD15C"/>
<path d="M43.3435 61.1375H43.1914V61.2896C43.1914 61.5937 43.3435 61.898 43.6476 61.898H43.7998V61.7458C43.7998 61.4416 43.6477 61.1375 43.3435 61.1375Z" fill="#FFD15C"/>
<path d="M45.3207 59.0084V59.3125C45.0166 59.4646 44.7123 59.4646 44.5603 59.1603L44.4082 59.0082L44.5603 58.8561C44.7123 58.8562 45.1686 58.8562 45.3207 59.0084Z" fill="#FFD15C"/>
<path d="M41.6713 52.0125C44.3591 52.0125 46.5379 50.0379 46.5379 47.6021C46.5379 45.1664 44.3591 43.1918 41.6713 43.1918C38.9835 43.1918 36.8047 45.1664 36.8047 47.6021C36.8047 50.0379 38.9835 52.0125 41.6713 52.0125Z" fill="#FF7058"/>
<path d="M42.2793 44.2562C41.9752 44.5603 41.3668 44.5603 41.0627 44.2562C40.7586 43.9521 40.4543 43.9521 40.1502 44.1041C38.7814 44.7125 37.7168 45.9291 37.7168 47.45C37.7168 48.9709 38.6293 50.1875 40.1502 50.7959C40.4543 50.948 40.9106 50.7959 41.0627 50.6437C41.3668 50.3396 41.9752 50.3396 42.2793 50.6437C42.5834 50.9479 42.8877 50.9479 43.1918 50.7959C44.5606 50.1875 45.6252 48.9709 45.6252 47.45C45.6252 45.9291 44.7127 44.7125 43.1918 44.1041C42.8877 43.9521 42.5836 44.1041 42.2793 44.2562Z" fill="#F1543F"/>
<path d="M40.3018 47.6022C40.3018 48.0584 40.4539 48.3625 40.758 48.6668C40.9101 48.8189 40.9101 48.9709 40.9101 49.123C40.9101 50.1877 39.5414 50.4918 38.933 49.7314C38.4768 49.123 38.0205 48.3627 38.0205 47.6023C38.0205 46.8419 38.3246 45.9294 38.933 45.4732C39.5414 44.7128 40.9101 45.1691 40.9101 46.0816C40.9101 46.2337 40.758 46.3857 40.758 46.5378C40.4537 46.6897 40.3018 47.1459 40.3018 47.6022Z" fill="#FF7058"/>
<path d="M39.6937 47.6022V47.2981C39.5416 47.1459 39.0854 47.1459 38.9334 47.2981L38.7812 47.45L38.9334 47.6022C39.0854 47.9063 39.5416 47.9063 39.6937 47.6022Z" fill="#FFD15C"/>
<path d="M40.15 46.5375H40.3021V46.3854C40.15 46.0813 39.8459 45.9292 39.5418 46.0813H39.3896V46.2334C39.5416 46.3854 39.8459 46.5375 40.15 46.5375Z" fill="#FFD15C"/>
<path d="M39.5418 49.275H39.3896V49.1229C39.5418 48.8188 39.8459 48.6666 40.15 48.8188H40.3021V48.9709C40.1502 49.1229 39.846 49.275 39.5418 49.275Z" fill="#FFD15C"/>
<path d="M43.3437 47.6022C43.3437 47.298 43.1916 46.8418 42.8875 46.6897C42.7353 46.5375 42.7354 46.3855 42.7354 46.2334C42.7354 45.3209 43.952 45.0168 44.5604 45.625C45.0166 46.2334 45.3207 46.8416 45.3207 47.6022C45.3207 48.3627 45.0166 48.9709 44.5604 49.5793C43.952 50.3396 42.7354 49.8834 42.7354 48.9709C42.7354 48.8188 42.7353 48.6668 42.8875 48.5147C43.1916 48.2104 43.3437 47.9063 43.3437 47.6022Z" fill="#FF7058"/>
<path d="M44.1045 47.45V47.7541C44.2566 47.9062 44.7129 47.9062 44.8649 47.7541L45.017 47.602L44.8649 47.4498C44.7129 47.1459 44.2566 47.1458 44.1045 47.45Z" fill="#FFD15C"/>
<path d="M43.6482 48.5146H43.4961V48.6667C43.6482 48.9708 43.9523 49.123 44.2565 48.9708H44.4086V48.8187C44.2566 48.6666 43.9525 48.5146 43.6482 48.5146Z" fill="#FFD15C"/>
<path d="M44.2574 45.7771H44.4096V45.9292C44.2574 46.2334 43.9533 46.3855 43.6492 46.2334H43.4971V46.0812C43.4971 45.9291 43.9533 45.7771 44.2574 45.7771Z" fill="#FFD15C"/>
<path d="M18.2651 39.544C16.3194 38.0786 13.4313 38.6312 11.8144 40.7782C10.1974 42.9251 10.4639 45.8535 12.4096 47.3189C14.3553 48.7843 17.2434 48.2317 18.8604 46.0847C20.4773 43.9377 20.2108 41.0093 18.2651 39.544Z" fill="#FF7058"/>
<path d="M13.2314 41.0625C13.2314 41.5187 12.9273 41.975 12.471 41.975C12.1669 41.975 11.8626 42.2791 11.7107 42.5834C11.2544 44.1042 11.7107 45.625 12.9273 46.5375C14.1439 47.45 15.8169 47.45 17.0335 46.6896C17.3376 46.5375 17.4898 46.2334 17.4898 45.7771C17.4898 45.3209 17.7939 44.8646 18.2501 44.8646C18.5543 44.8646 18.8585 44.5605 19.0105 44.2562C19.4668 42.7353 19.0105 41.2146 17.7939 40.3021C16.5773 39.3896 14.9043 39.3896 13.6876 40.15C13.3835 40.3021 13.2314 40.6062 13.2314 41.0625Z" fill="#F1543F"/>
<path d="M14.6 44.5604C14.9041 44.8645 15.3604 44.8645 15.6646 44.8645C15.8168 44.8645 15.9687 44.8645 16.1209 45.0166C16.8812 45.625 16.425 46.9938 15.5125 46.9938C14.7521 46.9938 13.8396 46.8416 13.2312 46.3854C12.6229 45.9291 12.1666 45.0166 12.0146 44.2563C11.8625 43.1916 12.9271 42.4313 13.8396 43.0396C13.9918 43.1918 14.1437 43.3438 14.1437 43.4959C14.1437 43.9521 14.2959 44.2563 14.6 44.5604Z" fill="#FF7058"/>
<path d="M14.2959 45.0166V44.8644H14.1438C13.8396 45.0166 13.6875 45.3207 13.6875 45.6248V45.777H13.8396C14.1438 45.625 14.2959 45.3208 14.2959 45.0166Z" fill="#FFD15C"/>
<path d="M13.6879 43.9521V43.8H13.5358C13.2316 43.6479 12.9274 43.9521 12.7754 44.2562V44.4084H12.9275C13.2316 44.4084 13.6879 44.2562 13.6879 43.9521Z" fill="#FFD15C"/>
<path d="M15.5126 46.0812L15.3605 46.2333L15.2083 46.0812C15.0562 45.7771 15.0562 45.4728 15.3605 45.3208L15.5126 45.1687L15.6647 45.3208C15.8167 45.625 15.8167 45.9291 15.5126 46.0812Z" fill="#FFD15C"/>
<path d="M16.4253 42.1271C16.1212 41.975 15.8169 41.823 15.3606 41.975C15.2085 41.975 15.0565 41.975 14.9044 41.8229C14.144 41.2145 14.6003 40.15 15.5128 39.9979C16.2731 39.9979 16.8815 40.15 17.4899 40.6062C18.0983 41.0625 18.4024 41.6709 18.5545 42.4313C18.7067 43.3438 17.642 44.1041 17.0337 43.4959C16.8815 43.3438 16.8815 43.1918 16.7295 43.0396C16.8815 42.7354 16.7294 42.2791 16.4253 42.1271Z" fill="#FF7058"/>
<path d="M16.7285 41.3666V41.5188H16.8806C17.1848 41.5188 17.3369 41.2146 17.3369 40.9104V40.7582H17.1848C17.0328 40.7584 16.7285 41.0625 16.7285 41.3666Z" fill="#FFD15C"/>
<path d="M17.3379 42.4313V42.5834H17.49C17.7941 42.7355 18.0984 42.4313 18.2504 42.1272V41.975H18.0983C17.7941 41.975 17.49 42.2792 17.3379 42.4313Z" fill="#FFD15C"/>
<path d="M15.6646 40.4541L15.8167 40.302L15.9689 40.4541C16.121 40.7583 16.121 41.0625 15.8167 41.2145L15.6646 41.3666L15.5125 41.2145C15.2083 40.9104 15.3603 40.6063 15.6646 40.4541Z" fill="#FFD15C"/>
<path d="M29.967 47.1459C31.4701 45.2291 30.9741 42.3306 28.859 40.6719C26.744 39.0133 23.8108 39.2225 22.3077 41.1393C20.8045 43.0561 21.3005 45.9545 23.4156 47.6132C25.5307 49.2719 28.4638 49.0626 29.967 47.1459Z" fill="#FF7058"/>
<path d="M28.5918 41.975C28.1355 41.975 27.6793 41.6709 27.6793 41.2146C27.6793 40.9105 27.3752 40.6062 27.0709 40.4542C25.55 39.998 24.0293 40.4542 23.1168 41.6709C22.2043 42.8875 22.2043 44.5605 22.9647 45.7771C23.1168 46.0812 23.4209 46.2334 23.8772 46.2334C24.3334 46.2334 24.7897 46.5375 24.7897 46.9937C24.7897 47.2979 25.0938 47.6021 25.398 47.7541C26.9189 48.2104 28.4397 47.7541 29.3522 46.5375C30.2647 45.3209 30.2647 43.6479 29.5043 42.4312C29.2002 42.1271 28.8961 41.975 28.5918 41.975Z" fill="#F1543F"/>
<path d="M24.9412 43.1916C24.6371 43.4957 24.6371 43.952 24.6371 44.2562C24.6371 44.4084 24.6371 44.5603 24.4849 44.7125C23.8766 45.4728 22.5078 45.0166 22.5078 43.9521C22.5078 43.1917 22.6599 42.2792 23.2682 41.6709C23.8764 41.0625 24.4848 40.6062 25.2453 40.4542C26.3099 40.3021 27.0703 41.5189 26.4619 42.2792C26.3098 42.4314 26.1578 42.5834 26.0057 42.5834C25.7017 42.7353 25.2455 42.8875 24.9412 43.1916Z" fill="#FF7058"/>
<path d="M24.4853 42.8875H24.6375V42.7354C24.6375 42.4312 24.3333 42.2791 24.0291 42.2791H23.877V42.4312C23.8771 42.7354 24.1812 43.0396 24.4853 42.8875Z" fill="#FFD15C"/>
<path d="M25.5493 42.4312H25.7015V42.2791C25.8536 41.975 25.7015 41.6707 25.3974 41.5187H25.2452V41.6709C25.0931 41.975 25.2452 42.2791 25.5493 42.4312Z" fill="#FFD15C"/>
<path d="M23.4207 44.1041L23.2686 43.952L23.4207 43.7998C23.7248 43.6477 24.0291 43.7998 24.1811 43.952L24.3332 44.1041L24.1811 44.2562C23.8769 44.4084 23.5727 44.4084 23.4207 44.1041Z" fill="#FFD15C"/>
<path d="M27.3748 45.0166C27.527 44.7125 27.679 44.4083 27.679 43.952C27.679 43.7999 27.679 43.6479 27.8311 43.4958C28.4395 42.7354 29.504 43.1916 29.6561 44.1041C29.6561 44.8645 29.504 45.4729 29.0477 46.0813C28.5915 46.6897 27.9831 46.9938 27.2227 47.1459C26.3102 47.298 25.7018 46.2334 26.1581 45.625C26.3102 45.4729 26.4622 45.4729 26.6143 45.4729C26.7665 45.4729 27.0707 45.3209 27.3748 45.0166Z" fill="#FF7058"/>
<path d="M28.1355 45.4729H27.9834V45.625C27.9834 45.9291 28.2875 46.0813 28.5918 46.0813H28.7439V45.9291C28.5918 45.625 28.4398 45.4729 28.1355 45.4729Z" fill="#FFD15C"/>
<path d="M26.9188 46.0813H26.7667V46.2334C26.6146 46.5375 26.7667 46.8418 27.0708 46.9938H27.223V46.8417C27.3751 46.5375 27.223 46.2334 26.9188 46.0813Z" fill="#FFD15C"/>
<path d="M29.0482 44.2563L29.2004 44.4084L29.0482 44.5605C28.7441 44.7127 28.4399 44.5605 28.2879 44.4084L28.1357 44.2563L28.2879 44.1042C28.592 43.9522 28.8963 44.1041 29.0482 44.2563Z" fill="#FFD15C"/>
<path d="M47.7543 37.2604C50.4421 37.2604 52.6209 35.2858 52.6209 32.85C52.6209 30.4142 50.4421 28.4396 47.7543 28.4396C45.0666 28.4396 42.8877 30.4142 42.8877 32.85C42.8877 35.2858 45.0666 37.2604 47.7543 37.2604Z" fill="#FF7058"/>
<path d="M48.3623 29.6563C48.0582 29.9604 47.4498 29.9604 47.1457 29.6563C46.8416 29.3521 46.5373 29.3521 46.2332 29.5041C44.8644 30.1125 43.7998 31.3291 43.7998 32.85C43.7998 34.3709 44.7123 35.5875 46.2332 36.1959C46.5373 36.348 46.9936 36.1959 47.1457 36.0437C47.4498 35.7396 48.0582 35.7396 48.3623 36.0437C48.6664 36.3479 48.9707 36.3479 49.2748 36.1959C50.6436 35.5875 51.7082 34.3709 51.7082 32.85C51.7082 31.3291 50.7957 30.1125 49.2748 29.5041C48.9707 29.3521 48.5144 29.5041 48.3623 29.6563Z" fill="#F1543F"/>
<path d="M46.3857 32.85C46.3857 33.3063 46.5379 33.6104 46.842 33.9146C46.9941 34.0668 46.9941 34.2188 46.9941 34.3709C46.9941 35.4355 45.6254 35.7396 45.017 34.9793C44.5607 34.3709 44.1045 33.6105 44.1045 32.8502C44.1045 32.0898 44.4086 31.1773 45.017 30.721C45.6254 29.9607 46.9941 30.4169 46.9941 31.3294C46.9941 31.4816 46.842 31.6335 46.842 31.7857C46.5379 32.0896 46.3857 32.5459 46.3857 32.85Z" fill="#FF7058"/>
<path d="M45.7768 33.0021V32.698C45.6246 32.5459 45.1684 32.5459 45.0164 32.698L44.8643 32.8501L45.0164 33.0023C45.1684 33.1541 45.4725 33.1541 45.7768 33.0021Z" fill="#FFD15C"/>
<path d="M46.233 31.9375H46.3852V31.7854C46.233 31.4813 45.9289 31.3291 45.6248 31.4813H45.4727V31.6334C45.6246 31.7854 45.9288 31.9375 46.233 31.9375Z" fill="#FFD15C"/>
<path d="M45.6248 34.5229H45.4727V34.3708C45.6248 34.0666 45.9289 33.9145 46.233 34.0666H46.3852V34.2188C46.2332 34.5229 45.9289 34.675 45.6248 34.5229Z" fill="#FFD15C"/>
<path d="M49.2754 32.85C49.2754 32.5459 49.1232 32.0897 48.8191 31.9375C48.667 31.7854 48.667 31.6334 48.667 31.4813C48.667 30.5688 49.8836 30.2647 50.492 30.8729C50.9482 31.4813 51.2524 32.0895 51.2524 32.85C51.2524 33.6105 50.9482 34.2188 50.492 34.8272C49.8836 35.5875 48.667 35.1313 48.667 34.2188C48.667 34.0666 48.667 33.9147 48.8191 33.7625C49.1232 33.6104 49.2754 33.3063 49.2754 32.85Z" fill="#FF7058"/>
<path d="M50.1875 32.6979V33.002C50.3396 33.1541 50.7959 33.1541 50.9479 33.002L51.1 32.8499L50.9479 32.6977C50.6438 32.5459 50.3396 32.5459 50.1875 32.6979Z" fill="#FFD15C"/>
<path d="M49.5789 33.9146H49.4268V34.0667C49.5789 34.3709 49.883 34.523 50.1871 34.3709H50.3393V34.2187C50.1873 33.9146 49.8832 33.7625 49.5789 33.9146Z" fill="#FFD15C"/>
<path d="M50.1881 31.1771H50.3402V31.3292C50.1881 31.6334 49.884 31.7855 49.5799 31.6334H49.4277V31.4812C49.5797 31.1771 49.884 31.025 50.1881 31.1771Z" fill="#FFD15C"/>
<path d="M32.5362 29.4285C31.8841 27.0816 29.2562 25.7624 26.6665 26.4819C24.0769 27.2014 22.5062 29.6872 23.1582 32.0341C23.8103 34.3809 26.4382 35.7002 29.0279 34.9807C31.6175 34.2611 33.1882 31.7753 32.5362 29.4285Z" fill="#FF7058"/>
<path d="M27.6786 27.375C27.3745 27.8312 26.9183 27.9834 26.462 27.6791C26.1579 27.527 25.8536 27.527 25.5495 27.8312C24.3329 28.7437 23.7245 30.2646 24.1808 31.7854C24.637 33.3062 25.8536 34.2187 27.3745 34.3709C27.6786 34.3709 28.1349 34.2187 28.287 33.9146C28.5911 33.4584 29.0474 33.3062 29.5036 33.6105C29.8078 33.7626 30.112 33.7626 30.4161 33.4584C31.6328 32.5459 32.2411 31.025 31.7849 29.5043C31.3286 27.9834 30.112 27.0709 28.5911 26.9189C28.1349 26.9187 27.8308 27.0709 27.6786 27.375Z" fill="#F1543F"/>
<path d="M26.6148 31.025C26.7669 31.4812 27.071 31.7854 27.3752 31.9375C27.5273 32.0896 27.6793 32.2416 27.6793 32.3937C27.9834 33.3062 26.7668 34.0666 25.8543 33.6104C25.2459 33.1541 24.6377 32.5457 24.4855 31.7854C24.3334 31.025 24.3334 30.1125 24.7896 29.5041C25.2459 28.5916 26.6146 28.5916 26.9188 29.6562C26.9188 29.8084 26.9188 29.9604 26.7666 30.1125C26.4627 30.2646 26.4627 30.5687 26.6148 31.025Z" fill="#FF7058"/>
<path d="M26.0059 31.3291L26.158 31.177L25.8539 31.0249C25.5498 30.8727 25.2455 31.0249 25.0935 31.177L24.9414 31.3291L25.0934 31.4813C25.5496 31.6334 25.8538 31.6334 26.0059 31.3291Z" fill="#FFD15C"/>
<path d="M26.1576 30.1125L26.3097 29.9604L26.1576 29.8082C26.0055 29.5041 25.7014 29.5041 25.3972 29.6561L25.2451 29.8082L25.3972 29.9604C25.5492 30.2646 25.8534 30.2646 26.1576 30.1125Z" fill="#FFD15C"/>
<path d="M26.3103 32.85H26.1582V32.6979C26.1582 32.3938 26.4623 32.2416 26.7666 32.2416H26.9187V32.3938C26.9187 32.6979 26.6146 32.85 26.3103 32.85Z" fill="#FFD15C"/>
<path d="M29.3525 30.2646C29.2003 29.9605 29.0484 29.6562 28.7441 29.5042C28.592 29.5042 28.44 29.3521 28.44 29.2001C28.1358 28.2876 29.2003 27.6792 29.9609 28.1355C30.5692 28.5917 31.0255 29.048 31.1775 29.8084C31.3296 30.5687 31.3296 31.3292 31.0253 31.9375C30.5691 32.6978 29.3525 32.6978 29.2003 31.7853C29.2003 31.6332 29.2003 31.4812 29.2003 31.3291C29.5045 31.025 29.5045 30.5687 29.3525 30.2646Z" fill="#FF7058"/>
<path d="M30.1131 29.9603L29.9609 30.1125L30.1131 30.2646C30.4172 30.4167 30.7214 30.2646 30.8734 30.1125L31.0256 29.9603L30.8734 29.8082C30.7214 29.5041 30.2652 29.6562 30.1131 29.9603Z" fill="#FFD15C"/>
<path d="M29.9607 31.1771L29.8086 31.3292L29.9607 31.4813C30.1129 31.7855 30.417 31.7855 30.7211 31.6335L30.8732 31.4813L30.7211 31.3292C30.5691 31.0249 30.265 31.0249 29.9607 31.1771Z" fill="#FFD15C"/>
<path d="M29.8086 28.2875H29.9607V28.4396C29.9607 28.7437 29.6566 28.8959 29.3523 28.8959H29.2002V28.7437C29.2002 28.5916 29.5043 28.2875 29.8086 28.2875Z" fill="#FFD15C"/>
<path d="M39.2377 18.402C41.9255 18.402 44.1043 16.4274 44.1043 13.9916C44.1043 11.5558 41.9255 9.58124 39.2377 9.58124C36.55 9.58124 34.3711 11.5558 34.3711 13.9916C34.3711 16.4274 36.55 18.402 39.2377 18.402Z" fill="#FF7058"/>
<path d="M39.8457 10.7979C39.5416 11.102 38.9332 11.102 38.6291 10.7979C38.477 10.4937 38.0207 10.4937 37.7166 10.6457C36.3478 11.2541 35.2832 12.4707 35.2832 13.9916C35.2832 15.5125 36.1957 16.7291 37.7166 17.3375C38.0207 17.4896 38.477 17.3375 38.6291 17.1854C38.9332 16.8812 39.5416 16.8812 39.8457 17.1854C40.1498 17.4895 40.4541 17.4895 40.7582 17.3375C42.127 16.7291 43.1916 15.5125 43.1916 13.9916C43.1916 12.4707 42.2791 11.102 40.9103 10.6457C40.4539 10.4937 40.1498 10.4937 39.8457 10.7979Z" fill="#F1543F"/>
<path d="M37.8682 13.9916C37.8682 14.4479 38.0203 14.752 38.3244 15.0563C38.4765 15.2084 38.4766 15.3604 38.4766 15.5125C38.4766 16.5771 37.1078 16.8813 36.4994 16.1209C36.0432 15.5125 35.5869 14.7521 35.5869 13.9918C35.5869 13.0793 35.891 12.3189 36.4994 11.8626C37.1078 11.1023 38.4766 11.5585 38.4766 12.471C38.4766 12.6232 38.3244 12.7751 38.3244 12.9273C38.0203 13.2313 37.8682 13.5354 37.8682 13.9916Z" fill="#FF7058"/>
<path d="M37.2601 14.1437V13.8396C37.108 13.6875 36.6518 13.6875 36.4998 13.8396L36.3477 13.9918L36.4998 14.1437C36.6519 14.2959 37.1082 14.2959 37.2601 14.1437Z" fill="#FFD15C"/>
<path d="M37.7164 12.9271H37.8686V12.775C37.7164 12.4709 37.4123 12.3187 37.1082 12.4709H36.9561V12.623C37.1082 12.9271 37.5644 13.0791 37.7164 12.9271Z" fill="#FFD15C"/>
<path d="M37.1082 15.6646H36.9561V15.5125C37.1082 15.2084 37.4123 15.0562 37.7164 15.2084H37.8686V15.3605C37.8686 15.6646 37.4123 15.8166 37.1082 15.6646Z" fill="#FFD15C"/>
<path d="M40.9101 13.9916C40.9101 13.6875 40.758 13.2313 40.4539 13.0791C40.3018 12.927 40.3018 12.775 40.3018 12.6229C40.3018 11.7104 41.5184 11.4063 42.1268 12.0145C42.583 12.6229 42.8871 13.2311 42.8871 13.9916C42.8871 14.7521 42.583 15.3604 42.1268 15.9688C41.5184 16.7291 40.3018 16.2729 40.3018 15.3604C40.3018 15.2082 40.3018 15.0563 40.4539 14.9041C40.7582 14.6 40.9101 14.2959 40.9101 13.9916Z" fill="#FF7058"/>
<path d="M41.6709 13.8396V14.1437C41.823 14.2958 42.2793 14.2958 42.4313 14.1437L42.5834 13.9916L42.4313 13.8394C42.2791 13.6874 41.975 13.6874 41.6709 13.8396Z" fill="#FFD15C"/>
<path d="M41.2146 15.0562H41.0625V15.2083C41.2146 15.5125 41.5188 15.6646 41.8229 15.5125H41.975V15.3603C41.8229 15.0562 41.5187 14.9041 41.2146 15.0562Z" fill="#FFD15C"/>
<path d="M41.8229 12.3187H41.975V12.4709C41.8229 12.775 41.5187 12.9271 41.2146 12.775H41.0625V12.6228C41.2146 12.3187 41.5188 12.1666 41.8229 12.3187Z" fill="#FFD15C"/>
<path d="M56.727 29.0478C59.4147 29.0478 61.5936 27.0733 61.5936 24.6375C61.5936 22.2017 59.4147 20.2271 56.727 20.2271C54.0392 20.2271 51.8604 22.2017 51.8604 24.6375C51.8604 27.0733 54.0392 29.0478 56.727 29.0478Z" fill="#FF7058"/>
<path d="M57.335 21.4437C57.0308 21.7478 56.4225 21.7478 56.1183 21.4437C55.8142 21.1396 55.51 21.1396 55.2058 21.2916C53.8371 21.9 52.7725 23.1166 52.7725 24.6375C52.7725 26.1584 53.685 27.375 55.2058 27.9834C55.51 28.1355 55.9662 27.9834 56.1183 27.8312C56.4225 27.5271 57.0308 27.5271 57.335 27.8312C57.6391 28.1353 57.9433 28.1353 58.2475 27.9834C59.6162 27.375 60.6808 26.1584 60.6808 24.6375C60.6808 23.1166 59.7683 21.9 58.2475 21.2916C57.9433 21.1396 57.6392 21.2916 57.335 21.4437Z" fill="#F1543F"/>
<path d="M55.3584 24.6375C55.3584 25.0937 55.5105 25.3979 55.8146 25.7021C55.9668 25.8543 55.9668 26.0062 55.9668 26.1584C55.9668 27.223 54.598 27.5271 53.9896 26.7668C53.5334 26.1584 53.0771 25.398 53.0771 24.6376C53.0771 23.8773 53.3813 22.9648 53.9896 22.5085C54.598 21.7481 55.9668 22.2044 55.9668 23.1169C55.9668 23.269 55.8146 23.421 55.8146 23.5732C55.5104 23.8771 55.3584 24.1812 55.3584 24.6375Z" fill="#FF7058"/>
<path d="M54.7504 24.7896V24.4855C54.5983 24.3334 54.142 24.3334 53.99 24.4855L53.8379 24.6375L53.99 24.7896C54.142 24.9416 54.5983 24.9416 54.7504 24.7896Z" fill="#FFD15C"/>
<path d="M55.2067 23.5729H55.3588V23.4208C55.2067 23.1166 54.9025 22.9645 54.5984 23.1166H54.4463V23.2688C54.5983 23.5729 54.9025 23.725 55.2067 23.5729Z" fill="#FFD15C"/>
<path d="M54.5984 26.3104H54.4463V26.1582C54.5984 25.8541 54.9025 25.702 55.2067 25.8541H55.3588V26.0062C55.2068 26.3104 54.9027 26.4625 54.5984 26.3104Z" fill="#FFD15C"/>
<path d="M58.4004 24.6375C58.4004 24.3334 58.2482 23.8771 57.9441 23.725C57.792 23.5729 57.792 23.4209 57.792 23.2687C57.792 22.3562 59.0086 22.0521 59.617 22.6604C60.0732 23.2687 60.3774 23.877 60.3774 24.6375C60.3774 25.3979 60.0732 26.0062 59.617 26.6146C59.0086 27.375 57.792 26.9187 57.792 26.0062C57.792 25.8541 57.792 25.7021 57.9441 25.55C58.2482 25.3979 58.4004 25.0937 58.4004 24.6375Z" fill="#FF7058"/>
<path d="M59.1602 24.4854V24.7895C59.3123 24.9417 59.7685 24.9417 59.9205 24.7895L60.0727 24.6374L59.9205 24.4853C59.7685 24.3334 59.3123 24.3334 59.1602 24.4854Z" fill="#FFD15C"/>
<path d="M58.7039 25.7021H58.5518V25.8543C58.7039 26.1584 59.008 26.3105 59.3121 26.1584H59.4643V26.0063C59.3123 25.7021 59.0082 25.55 58.7039 25.7021Z" fill="#FFD15C"/>
<path d="M59.3131 22.9647H59.4652V23.1168C59.3131 23.4209 59.009 23.573 58.7049 23.4209H58.5527V23.2688C58.7047 22.9647 59.009 22.8125 59.3131 22.9647Z" fill="#FFD15C"/>
<path d="M20.5317 27.8312C23.2194 27.8312 25.3983 25.8566 25.3983 23.4209C25.3983 20.9851 23.2194 19.0105 20.5317 19.0105C17.8439 19.0105 15.665 20.9851 15.665 23.4209C15.665 25.8566 17.8439 27.8312 20.5317 27.8312Z" fill="#FF7058"/>
<path d="M21.1396 20.2272C20.8355 20.5313 20.2271 20.5313 19.923 20.2272C19.6189 19.923 19.3146 19.923 19.0105 20.075C17.6418 20.6834 16.5771 21.9 16.5771 23.4209C16.5771 24.9418 17.4896 26.1584 19.0105 26.7668C19.3146 26.9189 19.7709 26.7668 19.923 26.6147C20.2271 26.3105 20.8355 26.3105 21.1396 26.6147C21.4438 26.9188 21.748 26.9188 22.0521 26.7668C23.4209 26.1584 24.4855 24.9418 24.4855 23.4209C24.4855 21.9 23.573 20.6834 22.0521 20.075C21.7479 19.9229 21.4438 19.9229 21.1396 20.2272Z" fill="#F1543F"/>
<path d="M19.1621 23.4209C19.1621 23.8771 19.3142 24.1812 19.6184 24.4855C19.7705 24.6376 19.7705 24.7896 19.7705 24.9418C19.7705 26.0064 18.4017 26.3105 17.7934 25.5501C17.3371 24.9418 16.8809 24.1814 16.8809 23.421C16.8809 22.5085 17.185 21.7482 17.7934 21.2919C18.4017 20.5315 19.7705 20.9878 19.7705 21.9003C19.7705 22.0524 19.6184 22.2044 19.6184 22.3565C19.3142 22.5084 19.1621 22.9646 19.1621 23.4209Z" fill="#FF7058"/>
<path d="M18.5541 23.4209V23.1168C18.402 22.9647 17.9457 22.9647 17.7937 23.1168L17.6416 23.2689L17.7937 23.421C17.9459 23.725 18.25 23.725 18.5541 23.4209Z" fill="#FFD15C"/>
<path d="M19.0104 22.3563H19.1625V22.2041C19.0104 21.9 18.7062 21.7479 18.4021 21.9H18.25V22.0521C18.4021 22.3563 18.7062 22.5084 19.0104 22.3563Z" fill="#FFD15C"/>
<path d="M18.4021 25.0938H18.25V24.9416C18.4021 24.6375 18.7062 24.4854 19.0104 24.6375H19.1625V24.7896C19.0104 24.9416 18.7062 25.0938 18.4021 25.0938Z" fill="#FFD15C"/>
<path d="M22.2041 23.4209C22.2041 23.1168 22.052 22.6605 21.7478 22.5084C21.5957 22.3563 21.5957 22.2043 21.5957 22.0521C21.5957 21.1396 22.8123 20.8355 23.4207 21.4438C23.877 22.0521 24.1811 22.6604 24.1811 23.4209C24.1811 24.1813 23.877 24.7896 23.4207 25.398C22.8123 26.1584 21.5957 25.7021 21.5957 24.7896C21.5957 24.6375 21.5957 24.4855 21.7478 24.3334C21.9 24.0291 22.2041 23.725 22.2041 23.4209Z" fill="#FF7058"/>
<path d="M22.9648 23.2687V23.5729C23.117 23.725 23.5732 23.725 23.7252 23.5729L23.8773 23.4207L23.7252 23.2687C23.5731 22.9646 23.1168 22.9646 22.9648 23.2687Z" fill="#FFD15C"/>
<path d="M22.5086 24.3334H22.3564V24.4855C22.5086 24.7896 22.8127 24.9418 23.1168 24.7896H23.2689V24.6375C23.1168 24.4854 22.6606 24.3334 22.5086 24.3334Z" fill="#FFD15C"/>
<path d="M23.1168 21.5959H23.2689V21.748C23.1168 22.0521 22.8127 22.2043 22.5086 22.0521H22.3564V21.9C22.3564 21.7479 22.8127 21.5959 23.1168 21.5959Z" fill="#FFD15C"/>
<path d="M48.6669 57.3354C48.5147 56.2708 49.5794 55.2063 50.796 55.0541C52.0126 54.902 53.5335 55.5104 53.5335 56.575C53.6856 57.6397 52.1647 58.7042 50.9481 58.8563C49.8836 58.8563 48.819 58.4 48.6669 57.3354Z" fill="#40596B"/>
<path d="M52.3166 57.0313C52.5686 57.0313 52.7729 56.827 52.7729 56.575C52.7729 56.323 52.5686 56.1188 52.3166 56.1188C52.0646 56.1188 51.8604 56.323 51.8604 56.575C51.8604 56.827 52.0646 57.0313 52.3166 57.0313Z" fill="#334A5E"/>
<path d="M47.1459 39.5416C48.2106 39.2375 49.4272 39.9979 49.7313 41.2145C50.0354 42.4311 49.7313 43.952 48.6667 44.2561C47.602 44.5602 46.3854 43.1915 46.0813 42.127C45.9292 40.9104 46.2334 39.6937 47.1459 39.5416Z" fill="#40596B"/>
<path d="M48.5149 43.3438C48.7668 43.3438 48.9711 43.1395 48.9711 42.8875C48.9711 42.6355 48.7668 42.4313 48.5149 42.4313C48.2629 42.4313 48.0586 42.6355 48.0586 42.8875C48.0586 43.1395 48.2629 43.3438 48.5149 43.3438Z" fill="#334A5E"/>
<path d="M33.4586 58.2478C34.5233 57.9437 35.7399 58.7041 36.044 59.9207C36.3481 61.1373 36.044 62.6582 34.9794 62.9623C33.9147 63.2664 32.6981 61.8977 32.394 60.8332C32.0899 59.7687 32.394 58.5521 33.4586 58.2478Z" fill="#40596B"/>
<path d="M34.675 62.2021C34.927 62.2021 35.1313 61.9979 35.1313 61.7459C35.1313 61.4939 34.927 61.2896 34.675 61.2896C34.423 61.2896 34.2188 61.4939 34.2188 61.7459C34.2188 61.9979 34.423 62.2021 34.675 62.2021Z" fill="#334A5E"/>
<path d="M33.6099 50.7959C32.8495 51.5563 31.3286 51.5563 30.5683 50.7959C29.8079 50.0355 29.1995 48.3625 29.8079 47.7543C30.4163 47.146 32.2413 47.4502 33.1538 48.2105C34.0661 48.9709 34.3704 50.1875 33.6099 50.7959Z" fill="#40596B"/>
<path d="M30.7209 49.1229C30.9729 49.1229 31.1771 48.9186 31.1771 48.6666C31.1771 48.4147 30.9729 48.2104 30.7209 48.2104C30.4689 48.2104 30.2646 48.4147 30.2646 48.6666C30.2646 48.9186 30.4689 49.1229 30.7209 49.1229Z" fill="#334A5E"/>
<path d="M36.3477 22.8125C35.7394 21.9 36.0436 20.5312 36.9561 19.7708C37.8686 19.0105 39.5415 18.8583 40.1499 19.6187C40.7583 20.5312 40.1499 22.2041 39.0852 22.8125C38.0208 23.4208 36.9561 23.5728 36.3477 22.8125Z" fill="#40596B"/>
<path d="M38.9338 20.6834C39.1858 20.6834 39.39 20.4791 39.39 20.2271C39.39 19.9751 39.1858 19.7709 38.9338 19.7709C38.6818 19.7709 38.4775 19.9751 38.4775 20.2271C38.4775 20.4791 38.6818 20.6834 38.9338 20.6834Z" fill="#334A5E"/>
<path d="M42.5835 31.025C41.8231 31.7853 40.3023 31.7853 39.5419 31.025C38.7815 30.2646 38.1731 28.5916 38.7815 27.9834C39.3899 27.3751 41.2149 27.6792 42.1274 28.4396C42.8876 29.2 43.1917 30.2646 42.5835 31.025Z" fill="#40596B"/>
<path d="M39.6936 29.2C39.9455 29.2 40.1498 28.9957 40.1498 28.7437C40.1498 28.4917 39.9455 28.2875 39.6936 28.2875C39.4416 28.2875 39.2373 28.4917 39.2373 28.7437C39.2373 28.9957 39.4416 29.2 39.6936 29.2Z" fill="#334A5E"/>
<path d="M62.9623 30.7209C63.1144 31.7855 62.0498 32.85 60.9852 33.0022C59.7685 33.1543 58.2477 32.5459 58.0955 31.4813C57.9434 30.4166 59.4643 29.3521 60.6809 29.2C61.8977 29.0479 62.9623 29.6563 62.9623 30.7209Z" fill="#40596B"/>
<path d="M59.465 31.9375C59.717 31.9375 59.9213 31.7333 59.9213 31.4813C59.9213 31.2293 59.717 31.025 59.465 31.025C59.2131 31.025 59.0088 31.2293 59.0088 31.4813C59.0088 31.7333 59.2131 31.9375 59.465 31.9375Z" fill="#334A5E"/>
<path d="M33.3058 13.2312C32.2411 10.6459 29.3516 9.58124 26.7661 10.6459C24.3328 11.7105 23.1161 14.7521 24.3328 17.3375C24.6369 17.9459 24.6369 17.6416 25.0931 18.0979C25.3972 18.402 26.0056 18.5541 26.4619 18.402C27.2222 18.0979 28.1347 18.5541 28.2869 19.4666L28.591 20.8354C28.7431 21.7479 29.6556 22.2041 30.416 21.9L32.241 21.1396C33.0014 20.8355 33.3056 19.7709 32.8494 19.1625L32.089 18.0979C31.6327 17.3375 31.9369 16.425 32.6974 16.1207C33.1536 15.9686 33.4577 15.5123 33.4577 14.9041C33.4579 13.8396 33.6099 13.8396 33.3058 13.2312Z" fill="white"/>
<g opacity="0.1">
<path opacity="0.1" d="M31.9373 20.2271L30.1123 20.9875C29.5039 21.2916 28.8957 20.9875 28.4395 20.5312C28.5916 21.4437 29.5041 21.9 30.2645 21.5958L32.0895 20.8355C32.8498 20.5313 33.1541 19.4667 32.6978 18.8583C32.8498 19.4666 32.5457 20.075 31.9373 20.2271Z" fill="#231F20"/>
<path opacity="0.1" d="M28.1351 18.7063C27.983 17.7938 27.0705 17.3375 26.3101 17.6416C25.8539 17.7938 25.2455 17.7938 24.9414 17.3375C24.6373 17.0334 24.4851 17.0334 24.333 16.7291C24.333 16.8813 24.333 17.0332 24.4851 17.0332C24.7893 17.6416 24.7893 17.3374 25.2455 17.7936C25.5496 18.0977 26.158 18.2499 26.6143 18.0977C27.0707 17.9459 27.831 18.25 28.1351 18.7063Z" fill="#231F20"/>
<path opacity="0.1" d="M33.1544 13.9916C33.1544 14.4479 32.8503 14.9041 32.394 15.2082C31.6336 15.5123 31.3294 16.577 31.7856 17.1854C31.6335 16.577 31.9378 15.9687 32.546 15.6645C33.0023 15.5123 33.3064 15.0561 33.3064 14.4479C33.3064 13.8395 33.4585 13.8395 33.1542 13.2312C33.1542 13.2312 33.1542 13.0791 33.0021 13.0791C33.3065 13.3834 33.1544 13.5354 33.1544 13.9916Z" fill="#231F20"/>
</g>
<path d="M51.7084 22.8125C53.5334 20.6834 53.2293 17.6416 51.1 15.8166C48.9709 14.1437 45.7771 14.4479 44.1041 16.577C43.8 17.0332 43.952 17.0332 43.8 17.6416C43.6479 18.0979 43.8 18.7062 44.2562 19.0104C44.8646 19.6187 44.8646 20.5312 44.2562 21.1395L43.1916 21.8999C42.5832 22.3561 42.4312 23.4207 43.1916 24.029L44.7125 25.2456C45.3209 25.854 46.3854 25.5497 46.6896 24.7893L47.298 23.5727C47.7543 22.8124 48.6668 22.6602 49.2751 23.1165C49.7314 23.4206 50.1876 23.5727 50.6439 23.2686C51.2521 23.1166 51.2521 23.2687 51.7084 22.8125Z" fill="white"/>
<g opacity="0.1">
<path opacity="0.1" d="M44.8643 24.7897L43.3434 23.5729C42.8871 23.1166 42.735 22.5083 43.0393 21.9C42.4309 22.3563 42.2789 23.4209 43.0393 24.0291L44.5601 25.2458C45.1685 25.8541 46.233 25.5499 46.5373 24.7895C46.0809 25.2459 45.4725 25.2459 44.8643 24.7897Z" fill="#231F20"/>
<path opacity="0.1" d="M44.4085 20.6834C45.1688 20.2271 45.1688 19.1625 44.4085 18.5543C44.1043 18.2501 43.9522 17.6418 44.1043 17.1855C44.2565 16.7293 44.1043 16.5771 44.4085 16.273C44.2563 16.4251 44.2563 16.4251 44.1043 16.5771C43.8002 17.0334 43.9522 17.0334 43.8002 17.6418C43.6481 18.098 43.8002 18.7064 44.2565 19.0105C44.7126 19.4666 44.7126 20.075 44.4085 20.6834Z" fill="#231F20"/>
<path opacity="0.1" d="M51.0998 22.9646C50.6435 23.2688 50.0352 23.1168 49.731 22.8125C49.1227 22.2041 48.0582 22.5084 47.7539 23.2688C48.2102 22.9646 48.9705 22.8125 49.4268 23.2688C49.883 23.5729 50.3393 23.725 50.7955 23.4209C51.4039 23.1168 51.4039 23.2688 51.8602 22.8125L52.0123 22.6604C51.556 22.8125 51.556 22.8125 51.0998 22.9646Z" fill="#231F20"/>
</g>
<path d="M54.1413 41.0625C55.51 43.3438 58.7038 44.1041 60.985 42.5834C63.2663 41.0625 64.0266 37.8688 62.3538 35.5875C62.0497 35.1313 61.8975 35.2834 61.4413 34.9791C60.985 34.675 60.5288 34.675 60.0725 34.9791C59.3122 35.4354 58.3997 35.1313 58.0955 34.2188L57.7914 33.1541C57.4872 32.3938 56.5747 31.9375 55.8143 32.3938L54.1414 33.4584C53.3811 33.9146 53.2289 34.9793 53.8373 35.5875L54.7498 36.5C55.3582 37.1084 55.2061 38.1729 54.4457 38.6291C53.9894 38.9333 53.6853 39.3895 53.8373 39.8458C53.9893 40.4541 53.8372 40.4541 54.1413 41.0625Z" fill="white"/>
<g opacity="0.1">
<path opacity="0.1" d="M54.4455 33.9147L56.1184 32.85C56.7268 32.5459 57.335 32.6979 57.7913 33.1541C57.4871 32.3938 56.5747 31.9375 55.8143 32.3938L54.1414 33.4584C53.3811 33.9147 53.2289 34.9793 53.8373 35.5875C53.685 34.9791 53.8372 34.2188 54.4455 33.9147Z" fill="#231F20"/>
<path opacity="0.1" d="M58.5518 34.8271C58.8559 35.5875 59.7684 36.0438 60.5289 35.5875C60.9851 35.2834 61.5935 35.2834 61.8976 35.5875C62.3539 35.8916 62.3539 35.7396 62.658 36.0438C62.658 35.8916 62.5059 35.7396 62.5059 35.7396C62.2018 35.2834 62.0496 35.4355 61.5934 35.1313C61.1371 34.8271 60.6809 34.8271 60.2246 35.1313C59.6162 35.4354 58.8559 35.2834 58.5518 34.8271Z" fill="#231F20"/>
<path opacity="0.1" d="M54.1416 40.3022C54.1416 39.8459 54.2938 39.2375 54.75 39.0855C55.5104 38.6293 55.6625 37.5647 55.0541 36.9564C55.2063 37.5648 55.0541 38.173 54.4458 38.4773C53.9895 38.7814 53.6854 39.2377 53.8374 39.6939C53.9895 40.3023 53.8374 40.3023 54.1415 40.9105L54.2938 41.0625C54.1416 40.9104 54.2938 40.7584 54.1416 40.3022Z" fill="#231F20"/>
</g>
<path d="M25.2465 60.3771C27.984 60.5292 30.4174 58.5521 30.5693 55.8146C30.7215 53.0771 28.4402 50.6437 25.8547 50.6437C25.2463 50.6437 25.3985 50.7959 24.7901 50.9479C24.3338 51.1 24.0297 51.5562 23.8776 52.1645C23.8776 53.077 22.9651 53.5332 22.2047 53.3811L20.9881 52.9248C20.2277 52.6207 19.3152 53.229 19.3152 54.1415L19.1631 56.1187C19.1631 57.0312 19.9235 57.6396 20.684 57.4875L22.0527 57.3354C22.9652 57.1832 23.5736 57.9437 23.5736 58.7041C23.5736 59.1604 23.7257 59.7687 24.182 59.9207C24.6381 60.225 24.486 60.3771 25.2465 60.3771Z" fill="white"/>
<g opacity="0.1">
<path opacity="0.1" d="M19.6193 55.9666L19.7715 53.9895C19.7715 53.3811 20.3798 52.7728 20.9881 52.7728C20.2277 52.4687 19.3152 53.077 19.3152 53.9895L19.1631 55.9666C19.1631 56.8791 19.9235 57.4875 20.684 57.3353C19.9235 57.1833 19.4672 56.7271 19.6193 55.9666Z" fill="#231F20"/>
<path opacity="0.1" d="M22.6611 53.2291C23.5736 53.5332 24.334 52.925 24.334 52.0125C24.334 51.5562 24.6381 51.1 25.2465 50.7959C25.7027 50.6437 25.7027 50.4918 26.0069 50.4918C25.8547 50.4918 25.7027 50.4918 25.5506 50.4918C24.9422 50.4918 25.0944 50.6439 24.486 50.7959C24.0297 50.948 23.7256 51.4043 23.5735 52.0125C23.7258 52.6209 23.2695 53.0771 22.6611 53.2291Z" fill="#231F20"/>
<path opacity="0.1" d="M24.6381 59.9209C24.1818 59.6167 23.8777 59.1605 24.0297 58.7042C24.0297 57.7917 23.2693 57.1834 22.5088 57.3355C23.1172 57.4876 23.5734 58.0959 23.4213 58.7042C23.4213 59.1605 23.5734 59.7689 24.0297 59.9209C24.6381 60.225 24.4859 60.3771 25.2463 60.3771C25.3984 60.3771 25.3984 60.3771 25.5504 60.3771C25.0943 60.225 25.0943 60.0729 24.6381 59.9209Z" fill="#231F20"/>
</g>
<path d="M39.8462 40.6062C41.8233 38.7812 41.9753 35.5875 39.9983 33.6104C38.1733 31.6332 34.8274 31.6332 32.8504 33.6104C32.3942 34.0666 32.6983 34.0666 32.3942 34.5228C32.242 34.9791 32.242 35.5875 32.6983 35.8916C33.3067 36.5 33.1545 37.5645 32.3942 38.0207L31.1776 38.6291C30.4172 39.0854 30.2651 39.9978 30.8734 40.7582L32.2422 42.2791C32.8506 42.8875 33.9151 42.8875 34.3713 42.127L35.1315 41.0625C35.5878 40.3021 36.6524 40.3021 37.2606 40.9104C37.5648 41.2145 38.1731 41.5187 38.6294 41.2145C39.3899 40.9104 39.3899 41.0625 39.8462 40.6062Z" fill="white"/>
<g opacity="0.1">
<path opacity="0.1" d="M32.8498 41.8229L31.4811 40.302C31.0248 39.8458 31.0248 39.0854 31.3289 38.6292C30.5686 39.0854 30.4164 39.9979 31.0248 40.7583L32.3936 42.2791C33.0019 42.8875 34.0664 42.8875 34.5227 42.127C34.0664 42.2791 33.3061 42.2791 32.8498 41.8229Z" fill="#231F20"/>
<path opacity="0.1" d="M33.0023 37.5646C33.7627 37.1084 33.9148 36.0438 33.3064 35.4355C33.0023 35.1314 32.8502 34.523 33.0023 34.0668C33.1544 33.6105 33.1544 33.4584 33.3064 33.3064C33.1543 33.4585 33.1543 33.4585 33.0023 33.6105C32.5461 34.0668 32.6982 34.0668 32.5461 34.523C32.3939 34.9793 32.3939 35.5876 32.8502 35.8918C33.3064 36.3479 33.3064 37.1084 33.0023 37.5646Z" fill="#231F20"/>
<path opacity="0.1" d="M39.2371 40.7584C38.7809 40.9105 38.1725 40.7584 37.8684 40.4542C37.26 39.8459 36.1955 39.8459 35.7393 40.6064C36.1955 40.3023 36.9559 40.3023 37.4121 40.7585C37.7162 41.0626 38.3246 41.3669 38.7809 41.0626C39.3893 40.9105 39.3892 41.0626 39.9975 40.4542L40.1496 40.3021C39.8455 40.6062 39.6934 40.6062 39.2371 40.7584Z" fill="#231F20"/>
</g>
<path d="M18.5541 28.7438C16.1207 27.5271 13.0791 28.5916 12.0144 31.1771C10.7978 33.6105 12.0144 36.6521 14.5998 37.7168C15.2082 38.0209 15.0561 37.7168 15.6644 37.8689C16.1207 37.8689 16.5769 37.5648 16.8811 37.1085C17.1852 36.3482 18.2498 36.0439 18.8582 36.6523L19.9228 37.4127C20.5312 38.021 21.5957 37.7168 21.9 36.9564L22.8125 35.1314C23.1166 34.371 22.8125 33.4585 21.9 33.3064L20.5312 33.0023C19.7708 32.8502 19.3146 31.9377 19.6187 31.1773C19.7708 30.721 19.7708 30.1127 19.4666 29.8085C19.0103 29.2 19.1625 29.0479 18.5541 28.7438Z" fill="white"/>
<g opacity="0.1">
<path opacity="0.1" d="M22.2039 34.8272L21.2914 36.6521C20.9873 37.2605 20.3789 37.5646 19.7705 37.4125C20.3789 38.0209 21.4434 37.7166 21.7476 36.9563L22.6601 35.1313C22.9643 34.3709 22.6601 33.4584 21.7476 33.3063C22.2039 33.6104 22.5081 34.2188 22.2039 34.8272Z" fill="#231F20"/>
<path opacity="0.1" d="M18.2498 36.3479C17.4894 35.7395 16.5769 36.0437 16.2727 36.8041C16.1205 37.2604 15.5123 37.5645 15.0561 37.5645C14.5998 37.5645 14.4477 37.7166 14.1436 37.5645C14.2957 37.5645 14.2957 37.7166 14.4477 37.7166C15.0561 38.0207 14.9039 37.7166 15.5123 37.8687C15.9686 37.8687 16.4248 37.5646 16.7289 37.1084C17.0332 36.3479 17.6414 36.1959 18.2498 36.3479Z" fill="#231F20"/>
<path opacity="0.1" d="M18.8584 29.3521C19.1625 29.8084 19.3146 30.2646 19.0105 30.7209C18.7064 31.4813 19.0105 32.3938 19.923 32.5459C19.4668 32.2418 19.1626 31.4813 19.4668 30.873C19.6189 30.4168 19.6189 29.8084 19.3146 29.5043C18.8584 29.048 19.0105 28.8959 18.4021 28.5918C18.4021 28.5918 18.25 28.5918 18.25 28.4396C18.5541 28.8959 18.5541 29.0479 18.8584 29.3521Z" fill="#231F20"/>
</g>
<path opacity="0.1" d="M37.2599 7.14789C28.5912 7.14789 20.8349 11.102 15.6641 17.1854C20.6828 12.927 27.2224 10.1895 34.2182 10.1895C50.0348 10.1895 62.8098 22.9645 62.8098 38.7811C62.8098 45.929 60.2244 52.3165 55.8139 57.3352C61.8973 52.1644 65.8514 44.4081 65.8514 35.7394C65.8517 19.9229 53.0767 7.14789 37.2599 7.14789Z" fill="#231F20"/>
<path d="M36.4996 68.1334C19.01 68.1334 4.86621 53.9896 4.86621 36.5C4.86621 19.0104 19.01 4.86664 36.4996 4.86664C53.9892 4.86664 68.133 19.0104 68.133 36.5C68.133 53.9896 53.9892 68.1334 36.4996 68.1334ZM36.4996 7.9084C20.683 7.9084 7.90797 20.6834 7.90797 36.5C7.90797 52.3166 20.683 65.0916 36.4996 65.0916C52.3162 65.0916 65.0912 52.3166 65.0912 36.5C65.0912 20.6834 52.3162 7.9084 36.4996 7.9084Z" fill="#FF7058"/>
</svg>
