<svg width="51" height="55" viewBox="0 0 51 55" fill="none" xmlns="http://www.w3.org/2000/svg">
<path d="M31.5889 34.3504H15.5024C17.2424 34.3504 18.654 32.9388 18.654 31.1984V22.935C18.654 21.1946 17.2424 19.783 15.5024 19.783H31.5889C31.864 19.783 32.1365 19.8189 32.4021 19.8899L47.5304 23.9275C48.2412 24.117 48.845 24.5346 49.27 25.0876C49.695 25.6414 49.9424 26.3307 49.9424 27.0667C49.9424 28.5382 48.9528 29.8264 47.5304 30.2059L43.7486 31.2153L35.5665 33.3989L32.4021 34.2435C32.1365 34.3145 31.864 34.3504 31.5889 34.3504V34.3504Z" fill="#E5ECEC"/>
<path d="M23.5943 19.7831H12.0067C12.0067 0.917929 26.3738 1.05752 26.3738 1.05752H32.0039V9.53897L28.5941 8.61921V12.6646L31.9915 11.8336C31.7524 16.2647 28.0849 19.7831 23.5943 19.7831V19.7831Z" fill="#E5ECEC"/>
<path d="M12.0067 34.3505H23.5943C28.0721 34.3505 31.7326 37.8498 31.9895 42.264L28.5941 41.3476V45.3938L32.0039 44.5595V53.0761H26.3738C26.3738 53.0761 12.0067 53.2157 12.0067 34.3505V34.3505Z" fill="#E5ECEC"/>
<path d="M32.0032 23.1255L28.7194 23.1453V27.0668H35.249L32.0032 23.1255Z" fill="#95E8FA"/>
<path d="M32.0032 31.0081L28.7194 30.9878V27.0668H35.249L32.0032 31.0081Z" fill="#95E8FA"/>
<path d="M18.6543 31.1979V22.9354C18.6543 21.1946 17.2435 19.7833 15.5027 19.7833H7.82946V34.35H15.5027C17.2435 34.35 18.6543 32.9387 18.6543 31.1979V31.1979Z" fill="#8291A8"/>
<path d="M7.82946 30.7081V23.4248H7.99838C9.74085 23.4248 11.1533 24.8377 11.1533 26.5797V27.5532C11.1533 29.2957 9.74085 30.7081 7.99838 30.7081H7.82946Z" fill="#8291A8"/>
<path d="M28.5947 41.3475V45.3933H24.017V41.3475H28.5947Z" fill="#8291A8"/>
<path d="M28.5947 8.61914V12.6649H24.017V8.61914H28.5947Z" fill="#8291A8"/>
<path d="M19.6104 14.9338H12.3675C12.9519 11.2457 14.2029 8.53764 15.7269 6.54944H19.6099V14.9338H19.6104Z" fill="#8291A8"/>
<path d="M19.6104 47.5846H15.7269C14.2033 45.596 12.9523 42.888 12.3675 39.1998H19.6104V47.5846Z" fill="#8291A8"/>
<path d="M12.0072 19.7837H7.82966V14.9333H12.3682C12.1352 16.3917 12.0072 18.0024 12.0072 19.7837Z" fill="#8291A8"/>
<path d="M12.3682 39.1998H7.82966V34.3495H12.0072C12.0072 36.1308 12.1352 37.7415 12.3682 39.1998V39.1998Z" fill="#8291A8"/>
<path d="M7.8291 17.3588V14.9336C7.8291 14.9336 4.64897 14.92 1.05708 17.3588C4.64897 19.7975 7.8291 19.7839 7.8291 19.7839V17.3588Z" fill="#FFCB7C"/>
<path d="M7.8291 36.7748V34.3496C7.8291 34.3496 4.64897 34.336 1.05708 36.7748C4.64897 39.2136 7.8291 39.1999 7.8291 39.1999V36.7748Z" fill="#FFCB7C"/>
<path d="M26.3738 54.1333H32.0039C32.5879 54.1333 33.0612 53.6596 33.0612 53.0761V45.3896L36.7109 44.4971C37.1797 44.3823 37.5113 43.9652 37.5171 43.4824C37.5171 43.4783 37.5171 43.4741 37.5171 43.47C37.5171 42.9926 37.197 42.5738 36.7353 42.4495L32.9658 41.4322C32.6242 39.0009 31.3625 36.8764 29.5511 35.4077H31.5892C31.9556 35.4077 32.3207 35.3598 32.675 35.2648L35.8395 34.4203C36.4036 34.2695 36.739 33.6905 36.5882 33.1263C36.4379 32.5621 35.8585 32.2268 35.2943 32.3771L32.1299 33.2221C31.9531 33.2692 31.7714 33.2932 31.5892 33.2932H29.777V32.0521L31.9973 32.0657C32.3153 32.0674 32.6176 31.9261 32.8196 31.6804L35.7486 28.124H48.612C48.3303 28.6341 47.8496 29.0264 47.2582 29.1842L43.4763 30.194C42.9121 30.3447 42.5772 30.925 42.7275 31.4883C42.8783 32.0525 43.4577 32.3874 44.0219 32.2371L47.8038 31.2273C49.6858 30.7247 51 29.014 51 27.0667C51 26.1242 50.6836 25.1925 50.1083 24.4433C49.5334 23.6945 48.7144 23.1485 47.8038 22.9061L32.675 18.8682C32.3207 18.7736 31.9552 18.7257 31.5892 18.7257H29.556C31.3703 17.2542 32.6312 15.1235 32.9682 12.6839L36.7105 11.7686C37.1792 11.6538 37.5109 11.2367 37.5167 10.7543C37.5167 10.7498 37.5167 10.7456 37.5167 10.7415C37.5167 10.2641 37.197 9.84528 36.7348 9.72096L33.0608 8.72934V1.05738C33.0608 0.473807 32.5875 9.09166e-05 32.0035 9.09166e-05L26.3837 9.09166e-05C26.152 -0.0019741 20.6562 -0.0048653 16.2432 4.36554C13.8363 6.7494 12.2425 9.93531 11.4776 13.8762H7.82912C7.6445 13.8758 4.25704 13.908 0.463191 16.4839C0.173262 16.6805 -0.000199779 17.0084 -0.000199779 17.3586C-0.000199779 17.7089 0.173262 18.0364 0.463191 18.2334C3.05107 19.9903 5.44939 20.5631 6.77183 20.7502V33.3828C5.44939 33.5699 3.05107 34.1427 0.463191 35.9C0.173262 36.0966 -0.000199779 36.4241 -0.000199779 36.7748C-0.000199779 37.125 0.173262 37.4525 0.463191 37.6491C4.25746 40.225 7.64492 40.2572 7.82912 40.2568H11.4776C12.088 43.401 13.2267 46.0632 14.884 48.222C14.8853 48.2237 14.8865 48.2257 14.8882 48.2274C14.8886 48.2278 14.889 48.2282 14.8894 48.2286C15.3082 48.7738 15.7588 49.2876 16.2437 49.7679C20.6562 54.1383 26.152 54.1354 26.3738 54.1333V54.1333ZM27.5368 42.4049V44.3361H25.0741V42.4049H27.5368ZM29.6518 44.0461V42.7282L32.2145 43.4196L29.6518 44.0461ZM30.6868 40.8173L28.87 40.3266C28.7812 40.3027 28.6862 40.2903 28.5945 40.2903H24.0168C23.4328 40.2903 22.9595 40.7636 22.9595 41.3476V45.3934C22.9595 45.9769 23.4328 46.4506 24.0168 46.4506H28.5945C28.6776 46.4506 28.7643 46.4407 28.8452 46.4209L30.9466 45.9067V52.0188H26.3664C26.3197 52.0192 21.8295 51.9969 18.1294 48.642H19.6105C20.1945 48.642 20.6678 48.1687 20.6678 47.5848V39.1999C20.6678 38.6164 20.1945 38.1427 19.6105 38.1427H13.2874C13.187 37.3307 13.1193 36.484 13.0871 35.6072C13.0846 35.5407 13.0834 35.4742 13.0813 35.4077C13.1259 35.4077 13.1709 35.4077 13.2159 35.4077H23.5943C26.9628 35.4077 29.8319 37.6867 30.6868 40.8173V40.8173ZM13.6388 40.2572H18.5532V46.5275H16.2614C15.0393 44.799 14.1601 42.6964 13.6388 40.2572ZM12.2107 27.5532V26.5798C12.2107 24.5618 10.7837 22.8718 8.88641 22.463V20.8407H12.0066C12.0087 20.8407 12.0108 20.8407 12.0128 20.8407H15.5023C16.6575 20.8407 17.5971 21.7803 17.5971 22.9354V31.198C17.5971 32.3528 16.6575 33.2928 15.5023 33.2928H12.0128C12.0108 33.2928 12.0087 33.2923 12.0066 33.2923H8.88641V31.6705C10.7837 31.2616 12.2107 29.5712 12.2107 27.5532V27.5532ZM23.5943 33.2932H19.1508C19.5068 32.6757 19.7117 31.9604 19.7117 31.198V22.9354C19.7117 22.173 19.5068 21.4581 19.1508 20.8407H27.6624V33.2932H23.5943ZM31.507 24.1856L33.0091 26.0094H29.777V24.1963L31.507 24.1856ZM29.777 29.9371V28.124H33.0091L31.507 29.9478L29.777 29.9371ZM32.1299 20.9113L47.259 24.9492C47.7224 25.0727 48.1391 25.3507 48.4315 25.7311C48.4997 25.8199 48.5596 25.9132 48.6128 26.0094H35.7482L32.8196 22.453C32.6172 22.2073 32.3153 22.0661 31.9969 22.0677L29.777 22.0813V20.8403H31.5892C31.7714 20.8403 31.9531 20.8642 32.1299 20.9113ZM27.5368 9.67636V11.6076H25.0741V9.67636H27.5368ZM29.6518 11.3172V9.99974L32.2145 10.6911L29.6518 11.3172ZM26.3738 2.11467L30.9466 2.11467V8.15857C30.9466 8.15857 29.2677 7.70551 29.1186 7.66544C28.9468 7.61919 28.7742 7.56178 28.5945 7.56178H24.0168C23.4328 7.56178 22.9595 8.0355 22.9595 8.61907V12.6649C22.9595 13.2488 23.4328 13.7221 24.0168 13.7221H28.5945C28.678 13.7221 28.7643 13.7118 28.8456 13.692L30.7087 13.2365C29.8827 16.4096 26.997 18.7257 23.5939 18.7257H13.0813C13.0829 18.6592 13.0846 18.5927 13.0871 18.5262C13.1193 17.6498 13.187 16.8032 13.287 15.9916H19.6101C20.194 15.9916 20.6673 15.5179 20.6673 14.9343V6.54909C20.6673 5.96552 20.194 5.4918 19.6101 5.4918H18.1286C21.8287 2.13656 26.3197 2.11467 26.3738 2.11467V2.11467ZM16.2614 7.60638H18.5532V13.8766H13.6388C14.1601 11.4374 15.0393 9.33481 16.2614 7.60638V7.60638ZM10.9659 18.6902C10.9655 18.7021 10.9651 18.7141 10.9646 18.7261H8.88682V15.9908H11.1559C11.0567 16.8589 10.9936 17.7588 10.9659 18.6902ZM6.03916 18.4581C5.29575 18.278 4.26985 17.9501 3.12211 17.3586C4.60273 16.5967 5.91319 16.2588 6.77224 16.1093V18.6105C6.555 18.5733 6.30967 18.5237 6.03916 18.4581ZM8.88641 24.68C9.60049 25.0149 10.0961 25.7406 10.0961 26.5802V27.5536C10.0961 28.3929 9.60049 29.1185 8.88641 29.4539V24.68ZM6.03916 37.8742C5.29575 37.6941 4.26985 37.3662 3.12211 36.7752C4.60273 36.0128 5.91319 35.675 6.77224 35.5254V38.027C6.555 37.9894 6.30967 37.9399 6.03916 37.8742V37.8742ZM8.88682 38.1427V35.4073H10.9646C10.9646 35.4193 10.9655 35.4313 10.9659 35.4433C10.9936 36.3746 11.0567 37.2745 11.1554 38.1427H8.88682Z" fill="white"/>
<path d="M40.6094 31.9146C40.4401 31.5078 40.0234 31.241 39.5823 31.2624C39.1528 31.2831 38.7707 31.5718 38.6324 31.979C38.4891 32.3999 38.6324 32.8827 38.9855 33.1548C39.3328 33.4224 39.8177 33.4472 40.1902 33.2168C40.6247 32.9479 40.806 32.3862 40.6094 31.9146Z" fill="black"/>
</svg>
