<svg width="84" height="76" viewBox="0 0 84 76" fill="none" xmlns="http://www.w3.org/2000/svg">
<path d="M42.0001 4.40002C41.2259 4.40002 40.6001 5.02582 40.6001 5.80002V11.4C40.6001 12.1742 41.2259 12.8 42.0001 12.8C42.7743 12.8 43.4001 12.1742 43.4001 11.4V5.80002C43.4001 5.02582 42.7743 4.40002 42.0001 4.40002Z" fill="#556080"/>
<path d="M50.4 7.20001C49.6258 7.20001 49 7.82581 49 8.60001V12.8C49 13.5742 49.6258 14.2 50.4 14.2C51.1742 14.2 51.8 13.5742 51.8 12.8V8.60001C51.8 7.82581 51.1742 7.20001 50.4 7.20001Z" fill="#556080"/>
<path d="M33.6002 7.20001C32.826 7.20001 32.2002 7.82581 32.2002 8.60001V12.8C32.2002 13.5742 32.826 14.2 33.6002 14.2C34.3744 14.2 35.0002 13.5742 35.0002 12.8V8.60001C35.0002 7.82581 34.3744 7.20001 33.6002 7.20001Z" fill="#556080"/>
<path d="M45.7895 66.4102L43.3997 64.0204V61.8C43.3997 61.0258 42.7739 60.4 41.9997 60.4C41.2255 60.4 40.5997 61.0258 40.5997 61.8V64.0204L38.2099 66.4102C37.6625 66.9576 37.6625 67.8424 38.2099 68.3898C38.4829 68.6628 38.8413 68.8 39.1997 68.8C39.5581 68.8 39.9165 68.6628 40.1895 68.3898L41.9997 66.5796L43.8099 68.3898C44.0829 68.6628 44.4413 68.8 44.7997 68.8C45.1581 68.8 45.5165 68.6628 45.7895 68.3898C46.3369 67.8424 46.3369 66.9576 45.7895 66.4102Z" fill="#556080"/>
<path d="M22.4 36.6C22.4 30.8096 24.927 25.6212 28.9198 22.033L12.6 28.7096L7 26.4192V31V42.2V46.7822L12.6 44.4918L28.9198 51.1684C24.927 47.5788 22.4 42.3904 22.4 36.6Z" fill="#BDC3C7"/>
<path d="M61.5999 36.6C61.5999 42.3904 59.0729 47.5788 55.0801 51.167L71.3999 44.4904L76.9999 46.7808V42.2V31V26.4178L71.3999 28.7082L55.0801 22.0316C59.0729 25.6212 61.5999 30.8096 61.5999 36.6Z" fill="#BDC3C7"/>
<path d="M61.6001 36.6C61.6001 30.8096 59.0731 25.6212 55.0803 22.033L64.8537 26.0314C60.8539 17.4004 52.1375 11.4 42.0001 11.4C31.8627 11.4 23.1463 17.4004 19.1465 26.0314L28.9199 22.033C24.9271 25.6212 22.4001 30.8096 22.4001 36.6C22.4001 42.3904 24.9271 47.5788 28.9199 51.167L19.1465 47.1686C23.1463 55.7996 31.8627 61.8 42.0001 61.8C52.1375 61.8 60.8539 55.7996 64.8537 47.1686L55.0803 51.167C59.0731 47.5788 61.6001 42.3904 61.6001 36.6Z" fill="#ECF0F1"/>
<path d="M21.0001 4.40004C21.7733 4.40004 22.4001 3.77324 22.4001 3.00004C22.4001 2.22684 21.7733 1.60004 21.0001 1.60004C20.2269 1.60004 19.6001 2.22684 19.6001 3.00004C19.6001 3.77324 20.2269 4.40004 21.0001 4.40004Z" fill="#F3D55B"/>
<path d="M64.4 70.2C65.1732 70.2 65.8 69.5732 65.8 68.8C65.8 68.0268 65.1732 67.4 64.4 67.4C63.6268 67.4 63 68.0268 63 68.8C63 69.5732 63.6268 70.2 64.4 70.2Z" fill="#F3D55B"/>
<path d="M54.6002 75.8C55.3734 75.8 56.0002 75.1732 56.0002 74.4C56.0002 73.6268 55.3734 73 54.6002 73C53.827 73 53.2002 73.6268 53.2002 74.4C53.2002 75.1732 53.827 75.8 54.6002 75.8Z" fill="#F3D55B"/>
<path d="M41.9999 56.2C52.8247 56.2 61.5999 47.4248 61.5999 36.6C61.5999 25.7752 52.8247 17 41.9999 17C31.1751 17 22.3999 25.7752 22.3999 36.6C22.3999 47.4248 31.1751 56.2 41.9999 56.2Z" fill="white"/>
<path d="M12.6001 38H7.0001C6.2259 38 5.6001 37.3742 5.6001 36.6C5.6001 35.8258 6.2259 35.2 7.0001 35.2H12.6001C13.3743 35.2 14.0001 35.8258 14.0001 36.6C14.0001 37.3742 13.3743 38 12.6001 38Z" fill="#ECF0F1"/>
<path d="M12.6001 38C12.2417 38 11.8833 37.8628 11.6103 37.5898C11.0629 37.0424 11.0629 36.1576 11.6103 35.6102L17.2103 30.0102C17.7577 29.4628 18.6425 29.4628 19.1899 30.0102C19.7373 30.5576 19.7373 31.4424 19.1899 31.9898L13.5899 37.5898C13.3169 37.8628 12.9585 38 12.6001 38Z" fill="#ECF0F1"/>
<path d="M18.2001 43.6C17.8417 43.6 17.4833 43.4628 17.2103 43.1898L11.6103 37.5898C11.0629 37.0424 11.0629 36.1576 11.6103 35.6102C12.1577 35.0628 13.0425 35.0628 13.5899 35.6102L19.1899 41.2102C19.7373 41.7576 19.7373 42.6424 19.1899 43.1898C18.9169 43.4628 18.5585 43.6 18.2001 43.6Z" fill="#ECF0F1"/>
<path d="M77 38H71.4C70.6258 38 70 37.3742 70 36.6C70 35.8258 70.6258 35.2 71.4 35.2H77C77.7742 35.2 78.4 35.8258 78.4 36.6C78.4 37.3742 77.7742 38 77 38Z" fill="#ECF0F1"/>
<path d="M71.3998 38C71.0414 38 70.683 37.8628 70.41 37.5898L64.81 31.9898C64.2626 31.4424 64.2626 30.5576 64.81 30.0102C65.3574 29.4628 66.2422 29.4628 66.7896 30.0102L72.3896 35.6102C72.937 36.1576 72.937 37.0424 72.3896 37.5898C72.1166 37.8628 71.7582 38 71.3998 38Z" fill="#ECF0F1"/>
<path d="M65.7998 43.6C65.4414 43.6 65.083 43.4628 64.81 43.1898C64.2626 42.6424 64.2626 41.7576 64.81 41.2102L70.41 35.6102C70.9574 35.0628 71.8422 35.0628 72.3896 35.6102C72.937 36.1576 72.937 37.0424 72.3896 37.5898L66.7896 43.1898C66.5166 43.4628 66.1582 43.6 65.7998 43.6Z" fill="#ECF0F1"/>
<path d="M41.9998 47.8C48.1854 47.8 53.1998 42.7856 53.1998 36.6C53.1998 30.4144 48.1854 25.4 41.9998 25.4C35.8142 25.4 30.7998 30.4144 30.7998 36.6C30.7998 42.7856 35.8142 47.8 41.9998 47.8Z" fill="#ECF0F1"/>
<path d="M51.926 46.4602C54.4418 43.9276 56 40.443 56 36.6C56 32.757 54.4418 29.2724 51.926 26.7398C51.9148 26.7272 51.9106 26.7118 51.8994 26.6992C51.8882 26.6866 51.8714 26.6838 51.8588 26.6726C49.3276 24.1582 45.843 22.6 42 22.6C38.157 22.6 34.6724 24.1582 32.1398 26.674C32.1272 26.6852 32.1118 26.6894 32.0992 26.7006C32.0866 26.7118 32.0838 26.7286 32.0726 26.7412C29.5582 29.2724 28 32.757 28 36.6C28 40.443 29.5582 43.9276 32.074 46.4602C32.0852 46.4728 32.0894 46.4882 32.1006 46.5008C32.1118 46.5134 32.1286 46.5162 32.1412 46.5274C34.6724 49.0418 38.157 50.6 42 50.6C45.843 50.6 49.3276 49.0418 51.8602 46.526C51.8728 46.5148 51.8882 46.5106 51.9008 46.4994C51.9134 46.4882 51.9148 46.4714 51.926 46.4602ZM50.8368 43.4572L47.1926 39.813C47.775 38.8764 48.1264 37.7816 48.1264 36.6014C48.1264 35.4212 47.775 34.3264 47.1926 33.3898L50.8368 29.7456C52.3124 31.6412 53.2 34.0156 53.2 36.6C53.2 39.1844 52.3124 41.5588 50.8368 43.4572ZM38.675 36.6C38.675 34.766 40.166 33.275 42 33.275C43.834 33.275 45.325 34.766 45.325 36.6C45.325 38.434 43.834 39.925 42 39.925C40.166 39.925 38.675 38.434 38.675 36.6ZM48.8572 27.7632L45.213 31.4074C44.2764 30.8264 43.1816 30.4736 42.0014 30.4736C40.8212 30.4736 39.7264 30.825 38.7898 31.4074L35.1456 27.7632C37.0412 26.2876 39.4156 25.4 42 25.4C44.5844 25.4 46.9588 26.2876 48.8572 27.7632ZM33.1632 29.7428L36.8074 33.387C36.225 34.3236 35.8736 35.4184 35.8736 36.5986C35.8736 37.7788 36.225 38.8736 36.8074 39.8102L33.1632 43.4544C31.6876 41.5588 30.8 39.1844 30.8 36.6C30.8 34.0156 31.6876 31.6412 33.1632 29.7428ZM35.1428 45.4368L38.787 41.7926C39.7236 42.3736 40.8184 42.7264 41.9986 42.7264C43.1788 42.7264 44.2736 42.375 45.2102 41.7926L48.8544 45.4368C46.9588 46.9124 44.5844 47.8 42 47.8C39.4156 47.8 37.0412 46.9124 35.1428 45.4368Z" fill="#95A5A5"/>
<path d="M4.1999 73C2.6529 73 1.3999 71.747 1.3999 70.2V3.00001C1.3999 1.45301 2.6529 0.200012 4.1999 0.200012C5.7469 0.200012 6.9999 1.45301 6.9999 3.00001V70.2C6.9999 71.747 5.7469 73 4.1999 73Z" fill="#ECF0F1"/>
<path d="M79.8 73C78.253 73 77 71.747 77 70.2V3.00001C77 1.45301 78.253 0.200012 79.8 0.200012C81.347 0.200012 82.6 1.45301 82.6 3.00001V70.2C82.6 71.747 81.347 73 79.8 73Z" fill="#ECF0F1"/>
<path d="M7 10H1.4C0.6258 10 0 9.37421 0 8.60001C0 7.82581 0.6258 7.20001 1.4 7.20001H7C7.7742 7.20001 8.4 7.82581 8.4 8.60001C8.4 9.37421 7.7742 10 7 10Z" fill="#8697CB"/>
<path d="M7 66H1.4C0.6258 66 0 65.3742 0 64.6C0 63.8258 0.6258 63.2 1.4 63.2H7C7.7742 63.2 8.4 63.8258 8.4 64.6C8.4 65.3742 7.7742 66 7 66Z" fill="#8697CB"/>
<path d="M82.6001 10H77.0001C76.2259 10 75.6001 9.37421 75.6001 8.60001C75.6001 7.82581 76.2259 7.20001 77.0001 7.20001H82.6001C83.3743 7.20001 84.0001 7.82581 84.0001 8.60001C84.0001 9.37421 83.3743 10 82.6001 10Z" fill="#8697CB"/>
<path d="M82.6001 66H77.0001C76.2259 66 75.6001 65.3742 75.6001 64.6C75.6001 63.8258 76.2259 63.2 77.0001 63.2H82.6001C83.3743 63.2 84.0001 63.8258 84.0001 64.6C84.0001 65.3742 83.3743 66 82.6001 66Z" fill="#8697CB"/>
</svg>
