<svg width="470" height="86" viewBox="0 0 470 86" fill="none" xmlns="http://www.w3.org/2000/svg">
<path d="M31.5809 20.44H58.9889C60.9729 20.44 62.6529 21.144 64.0289 22.552C65.4369 23.928 66.1409 25.592 66.1409 27.544V47.896C66.1409 49.848 65.4369 51.528 64.0289 52.936C62.6529 54.312 60.9729 55 58.9889 55H31.5809V20.44ZM39.0209 27.928V47.512H58.6049V27.928H39.0209ZM92.5401 27.16C94.4601 27.16 96.0921 27.848 97.4361 29.224C98.8121 30.6 99.5001 32.232 99.5001 34.12V44.776H78.6201V47.656H99.5001V55H78.2361C76.3481 55 74.7161 54.312 73.3401 52.936C71.9641 51.56 71.2761 49.928 71.2761 48.04V34.12C71.2761 32.232 71.9641 30.6 73.3401 29.224C74.7161 27.848 76.3481 27.16 78.2361 27.16H92.5401ZM78.6201 38.344H92.1561V34.504H78.6201V38.344ZM103.293 17.992H110.685V47.656H116.301V55H110.253C108.365 55 106.733 54.312 105.357 52.936C103.981 51.56 103.293 49.928 103.293 48.04V17.992ZM120.918 55V27.16H128.262V55H120.918ZM120.918 18.04H128.262V25.432H120.918V18.04ZM159.379 27.16H167.827L152.467 55H146.179L130.867 27.16H139.315L149.347 45.64L159.379 27.16ZM190.04 27.16C191.96 27.16 193.592 27.848 194.936 29.224C196.312 30.6 197 32.232 197 34.12V44.776H176.12V47.656H197V55H175.736C173.848 55 172.216 54.312 170.84 52.936C169.464 51.56 168.776 49.928 168.776 48.04V34.12C168.776 32.232 169.464 30.6 170.84 29.224C172.216 27.848 173.848 27.16 175.736 27.16H190.04ZM176.12 38.344H189.656V34.504H176.12V38.344ZM208.738 27.16H224.098V34.504H209.074V55H201.73V34.12C201.73 32.232 202.418 30.6 203.794 29.224C205.17 27.848 206.818 27.16 208.738 27.16ZM254.788 58.024C254.788 59.944 254.1 61.576 252.724 62.92C251.38 64.296 249.748 64.984 247.828 64.984H230.932V57.592H247.444V55H233.524C231.604 55 229.956 54.312 228.58 52.936C227.204 51.56 226.516 49.928 226.516 48.04V27.256H233.86V47.656H247.444V27.256H254.788V58.024Z" fill="#D1D1D1"/>
<path d="M309.836 27.544V30.76H302.3V27.928H282.716V33.976H302.732C304.684 33.976 306.348 34.68 307.724 36.088C309.132 37.464 309.836 39.128 309.836 41.08V47.896C309.836 49.848 309.132 51.528 307.724 52.936C306.348 54.312 304.684 55 302.732 55H282.38C280.428 55 278.748 54.312 277.34 52.936C275.964 51.56 275.276 49.88 275.276 47.896V44.68H282.716V47.512H302.3V41.464H282.38C280.428 41.464 278.748 40.776 277.34 39.4C275.964 38.024 275.276 36.344 275.276 34.36V27.544C275.276 25.56 275.964 23.88 277.34 22.504C278.748 21.128 280.428 20.44 282.38 20.44H302.732C304.684 20.44 306.348 21.144 307.724 22.552C309.132 23.928 309.836 25.592 309.836 27.544ZM336.153 27.16C338.073 27.16 339.705 27.848 341.049 29.224C342.425 30.6 343.113 32.232 343.113 34.12V48.04C343.113 49.928 342.425 51.56 341.049 52.936C339.705 54.312 338.073 55 336.153 55H322.233V66.04H314.889V27.16H336.153ZM322.233 34.504V47.656H335.769V34.504H322.233ZM367.932 27.16C369.852 27.16 371.484 27.848 372.828 29.224C374.204 30.6 374.892 32.232 374.892 34.12V55H353.628C351.708 55 350.06 54.312 348.684 52.936C347.34 51.56 346.668 49.928 346.668 48.04V37.384H367.548V34.504H346.668V27.16H367.932ZM367.548 47.656V43.816H354.012V47.656H367.548ZM406.437 34.504H385.605V47.656H406.485V55H385.221C383.333 55 381.701 54.312 380.325 52.936C378.949 51.56 378.261 49.928 378.261 48.04V34.12C378.261 32.232 378.949 30.6 380.325 29.224C381.701 27.848 383.333 27.16 385.221 27.16H406.437V34.504ZM431.681 27.16C433.601 27.16 435.233 27.848 436.577 29.224C437.953 30.6 438.641 32.232 438.641 34.12V44.776H417.761V47.656H438.641V55H417.377C415.489 55 413.857 54.312 412.481 52.936C411.105 51.56 410.417 49.928 410.417 48.04V34.12C410.417 32.232 411.105 30.6 412.481 29.224C413.857 27.848 415.489 27.16 417.377 27.16H431.681ZM417.761 38.344H431.297V34.504H417.761V38.344Z" fill="#EB8231"/>
<path d="M31.5809 20.44V19.44H30.5809V20.44H31.5809ZM64.0289 22.552L63.3137 23.2509L63.3217 23.2592L63.3299 23.2672L64.0289 22.552ZM64.0289 52.936L63.3218 52.2289L64.0289 52.936ZM31.5809 55H30.5809V56H31.5809V55ZM39.0209 27.928V26.928H38.0209V27.928H39.0209ZM39.0209 47.512H38.0209V48.512H39.0209V47.512ZM58.6049 47.512V48.512H59.6049V47.512H58.6049ZM58.6049 27.928H59.6049V26.928H58.6049V27.928ZM31.5809 21.44H58.9889V19.44H31.5809V21.44ZM58.9889 21.44C60.706 21.44 62.1275 22.0371 63.3137 23.2509L64.7441 21.8531C63.1783 20.2509 61.2397 19.44 58.9889 19.44V21.44ZM63.3299 23.2672C64.5473 24.4569 65.1409 25.8638 65.1409 27.544H67.1409C67.1409 25.3202 66.3265 23.3991 64.7278 21.8368L63.3299 23.2672ZM65.1409 27.544V47.896H67.1409V27.544H65.1409ZM65.1409 47.896C65.1409 49.5769 64.5465 51.0042 63.3218 52.2289L64.736 53.6431C66.3273 52.0518 67.1409 50.1191 67.1409 47.896H65.1409ZM63.3218 52.2289C62.1374 53.4133 60.7135 54 58.9889 54V56C61.2323 56 63.1684 55.2107 64.736 53.6431L63.3218 52.2289ZM58.9889 54H31.5809V56H58.9889V54ZM32.5809 55V20.44H30.5809V55H32.5809ZM38.0209 27.928V47.512H40.0209V27.928H38.0209ZM39.0209 48.512H58.6049V46.512H39.0209V48.512ZM59.6049 47.512V27.928H57.6049V47.512H59.6049ZM58.6049 26.928H39.0209V28.928H58.6049V26.928ZM97.4361 29.224L96.7207 29.9228L96.729 29.9311L97.4361 29.224ZM99.5001 44.776V45.776H100.5V44.776H99.5001ZM78.6201 44.776V43.776H77.6201V44.776H78.6201ZM78.6201 47.656H77.6201V48.656H78.6201V47.656ZM99.5001 47.656H100.5V46.656H99.5001V47.656ZM99.5001 55V56H100.5V55H99.5001ZM73.3401 52.936L72.633 53.6431L73.3401 52.936ZM73.3401 29.224L74.0472 29.9311L73.3401 29.224ZM78.6201 38.344H77.6201V39.344H78.6201V38.344ZM92.1561 38.344V39.344H93.1561V38.344H92.1561ZM92.1561 34.504H93.1561V33.504H92.1561V34.504ZM78.6201 34.504V33.504H77.6201V34.504H78.6201ZM92.5401 28.16C94.1903 28.16 95.5645 28.739 96.7207 29.9227L98.1515 28.5253C96.6197 26.957 94.73 26.16 92.5401 26.16V28.16ZM96.729 29.9311C97.9239 31.126 98.5001 32.5062 98.5001 34.12H100.5C100.5 31.9578 99.7003 30.074 98.1432 28.5169L96.729 29.9311ZM98.5001 34.12V44.776H100.5V34.12H98.5001ZM99.5001 43.776H78.6201V45.776H99.5001V43.776ZM77.6201 44.776V47.656H79.6201V44.776H77.6201ZM78.6201 48.656H99.5001V46.656H78.6201V48.656ZM98.5001 47.656V55H100.5V47.656H98.5001ZM99.5001 54H78.2361V56H99.5001V54ZM78.2361 54C76.6223 54 75.2421 53.4238 74.0472 52.2289L72.633 53.6431C74.1901 55.2002 76.0739 56 78.2361 56V54ZM74.0472 52.2289C72.8523 51.034 72.2761 49.6538 72.2761 48.04H70.2761C70.2761 50.2022 71.0759 52.086 72.633 53.6431L74.0472 52.2289ZM72.2761 48.04V34.12H70.2761V48.04H72.2761ZM72.2761 34.12C72.2761 32.5062 72.8523 31.126 74.0472 29.9311L72.633 28.5169C71.0759 30.074 70.2761 31.9578 70.2761 34.12H72.2761ZM74.0472 29.9311C75.2421 28.7362 76.6223 28.16 78.2361 28.16V26.16C76.0739 26.16 74.1901 26.9598 72.633 28.5169L74.0472 29.9311ZM78.2361 28.16H92.5401V26.16H78.2361V28.16ZM78.6201 39.344H92.1561V37.344H78.6201V39.344ZM93.1561 38.344V34.504H91.1561V38.344H93.1561ZM92.1561 33.504H78.6201V35.504H92.1561V33.504ZM77.6201 34.504V38.344H79.6201V34.504H77.6201ZM103.293 17.992V16.992H102.293V17.992H103.293ZM110.685 17.992H111.685V16.992H110.685V17.992ZM110.685 47.656H109.685V48.656H110.685V47.656ZM116.301 47.656H117.301V46.656H116.301V47.656ZM116.301 55V56H117.301V55H116.301ZM103.293 18.992H110.685V16.992H103.293V18.992ZM109.685 17.992V47.656H111.685V17.992H109.685ZM110.685 48.656H116.301V46.656H110.685V48.656ZM115.301 47.656V55H117.301V47.656H115.301ZM116.301 54H110.253V56H116.301V54ZM110.253 54C108.639 54 107.259 53.4238 106.064 52.2289L104.65 53.6431C106.207 55.2002 108.091 56 110.253 56V54ZM106.064 52.2289C104.869 51.034 104.293 49.6538 104.293 48.04H102.293C102.293 50.2022 103.093 52.086 104.65 53.6431L106.064 52.2289ZM104.293 48.04V17.992H102.293V48.04H104.293ZM120.918 55H119.918V56H120.918V55ZM120.918 27.16V26.16H119.918V27.16H120.918ZM128.262 27.16H129.262V26.16H128.262V27.16ZM128.262 55V56H129.262V55H128.262ZM120.918 18.04V17.04H119.918V18.04H120.918ZM128.262 18.04H129.262V17.04H128.262V18.04ZM128.262 25.432V26.432H129.262V25.432H128.262ZM120.918 25.432H119.918V26.432H120.918V25.432ZM121.918 55V27.16H119.918V55H121.918ZM120.918 28.16H128.262V26.16H120.918V28.16ZM127.262 27.16V55H129.262V27.16H127.262ZM128.262 54H120.918V56H128.262V54ZM120.918 19.04H128.262V17.04H120.918V19.04ZM127.262 18.04V25.432H129.262V18.04H127.262ZM128.262 24.432H120.918V26.432H128.262V24.432ZM121.918 25.432V18.04H119.918V25.432H121.918ZM159.379 27.16V26.16H158.784L158.501 26.6829L159.379 27.16ZM167.827 27.16L168.703 27.6431L169.521 26.16H167.827V27.16ZM152.467 55V56H153.058L153.343 55.4831L152.467 55ZM146.179 55L145.303 55.4819L145.588 56H146.179V55ZM130.867 27.16V26.16H129.176L129.991 27.6419L130.867 27.16ZM139.315 27.16L140.194 26.6829L139.91 26.16H139.315V27.16ZM149.347 45.64L148.469 46.1171L149.347 47.736L150.226 46.1171L149.347 45.64ZM159.379 28.16H167.827V26.16H159.379V28.16ZM166.952 26.6769L151.592 54.5169L153.343 55.4831L168.703 27.6431L166.952 26.6769ZM152.467 54H146.179V56H152.467V54ZM147.056 54.5181L131.744 26.6781L129.991 27.6419L145.303 55.4819L147.056 54.5181ZM130.867 28.16H139.315V26.16H130.867V28.16ZM138.437 27.6371L148.469 46.1171L150.226 45.1629L140.194 26.6829L138.437 27.6371ZM150.226 46.1171L160.258 27.6371L158.501 26.6829L148.469 45.1629L150.226 46.1171ZM194.936 29.224L194.221 29.9228L194.229 29.9311L194.936 29.224ZM197 44.776V45.776H198V44.776H197ZM176.12 44.776V43.776H175.12V44.776H176.12ZM176.12 47.656H175.12V48.656H176.12V47.656ZM197 47.656H198V46.656H197V47.656ZM197 55V56H198V55H197ZM170.84 52.936L170.133 53.6431L170.84 52.936ZM170.84 29.224L171.547 29.9311L170.84 29.224ZM176.12 38.344H175.12V39.344H176.12V38.344ZM189.656 38.344V39.344H190.656V38.344H189.656ZM189.656 34.504H190.656V33.504H189.656V34.504ZM176.12 34.504V33.504H175.12V34.504H176.12ZM190.04 28.16C191.69 28.16 193.065 28.739 194.221 29.9227L195.652 28.5253C194.12 26.957 192.23 26.16 190.04 26.16V28.16ZM194.229 29.9311C195.424 31.126 196 32.5062 196 34.12H198C198 31.9578 197.2 30.074 195.643 28.5169L194.229 29.9311ZM196 34.12V44.776H198V34.12H196ZM197 43.776H176.12V45.776H197V43.776ZM175.12 44.776V47.656H177.12V44.776H175.12ZM176.12 48.656H197V46.656H176.12V48.656ZM196 47.656V55H198V47.656H196ZM197 54H175.736V56H197V54ZM175.736 54C174.122 54 172.742 53.4238 171.547 52.2289L170.133 53.6431C171.69 55.2002 173.574 56 175.736 56V54ZM171.547 52.2289C170.352 51.034 169.776 49.6538 169.776 48.04H167.776C167.776 50.2022 168.576 52.086 170.133 53.6431L171.547 52.2289ZM169.776 48.04V34.12H167.776V48.04H169.776ZM169.776 34.12C169.776 32.5062 170.352 31.126 171.547 29.9311L170.133 28.5169C168.576 30.074 167.776 31.9578 167.776 34.12H169.776ZM171.547 29.9311C172.742 28.7362 174.122 28.16 175.736 28.16V26.16C173.574 26.16 171.69 26.9598 170.133 28.5169L171.547 29.9311ZM175.736 28.16H190.04V26.16H175.736V28.16ZM176.12 39.344H189.656V37.344H176.12V39.344ZM190.656 38.344V34.504H188.656V38.344H190.656ZM189.656 33.504H176.12V35.504H189.656V33.504ZM175.12 34.504V38.344H177.12V34.504H175.12ZM224.098 27.16H225.098V26.16H224.098V27.16ZM224.098 34.504V35.504H225.098V34.504H224.098ZM209.074 34.504V33.504H208.074V34.504H209.074ZM209.074 55V56H210.074V55H209.074ZM201.73 55H200.73V56H201.73V55ZM203.794 29.224L204.501 29.9311L203.794 29.224ZM208.738 28.16H224.098V26.16H208.738V28.16ZM223.098 27.16V34.504H225.098V27.16H223.098ZM224.098 33.504H209.074V35.504H224.098V33.504ZM208.074 34.504V55H210.074V34.504H208.074ZM209.074 54H201.73V56H209.074V54ZM202.73 55V34.12H200.73V55H202.73ZM202.73 34.12C202.73 32.5062 203.307 31.126 204.501 29.9311L203.087 28.5169C201.53 30.074 200.73 31.9578 200.73 34.12H202.73ZM204.501 29.9311C205.693 28.7398 207.088 28.16 208.738 28.16V26.16C206.549 26.16 204.648 26.9562 203.087 28.5169L204.501 29.9311ZM252.724 62.92L252.025 62.2046L252.017 62.2128L252.009 62.2213L252.724 62.92ZM230.932 64.984H229.932V65.984H230.932V64.984ZM230.932 57.592V56.592H229.932V57.592H230.932ZM247.444 57.592V58.592H248.444V57.592H247.444ZM247.444 55H248.444V54H247.444V55ZM228.58 52.936L227.873 53.6431L228.58 52.936ZM226.516 27.256V26.256H225.516V27.256H226.516ZM233.86 27.256H234.86V26.256H233.86V27.256ZM233.86 47.656H232.86V48.656H233.86V47.656ZM247.444 47.656V48.656H248.444V47.656H247.444ZM247.444 27.256V26.256H246.444V27.256H247.444ZM254.788 27.256H255.788V26.256H254.788V27.256ZM253.788 58.024C253.788 59.6742 253.209 61.0484 252.025 62.2046L253.423 63.6354C254.991 62.1036 255.788 60.2138 255.788 58.024H253.788ZM252.009 62.2213C250.852 63.405 249.478 63.984 247.828 63.984V65.984C250.018 65.984 251.908 65.187 253.439 63.6187L252.009 62.2213ZM247.828 63.984H230.932V65.984H247.828V63.984ZM231.932 64.984V57.592H229.932V64.984H231.932ZM230.932 58.592H247.444V56.592H230.932V58.592ZM248.444 57.592V55H246.444V57.592H248.444ZM247.444 54H233.524V56H247.444V54ZM233.524 54C231.873 54 230.478 53.4202 229.287 52.2289L227.873 53.6431C229.434 55.2038 231.335 56 233.524 56V54ZM229.287 52.2289C228.092 51.034 227.516 49.6538 227.516 48.04H225.516C225.516 50.2022 226.316 52.086 227.873 53.6431L229.287 52.2289ZM227.516 48.04V27.256H225.516V48.04H227.516ZM226.516 28.256H233.86V26.256H226.516V28.256ZM232.86 27.256V47.656H234.86V27.256H232.86ZM233.86 48.656H247.444V46.656H233.86V48.656ZM248.444 47.656V27.256H246.444V47.656H248.444ZM247.444 28.256H254.788V26.256H247.444V28.256ZM253.788 27.256V58.024H255.788V27.256H253.788ZM309.836 30.76V31.76H310.836V30.76H309.836ZM302.3 30.76H301.3V31.76H302.3V30.76ZM302.3 27.928H303.3V26.928H302.3V27.928ZM282.716 27.928V26.928H281.716V27.928H282.716ZM282.716 33.976H281.716V34.976H282.716V33.976ZM307.724 36.088L307.009 36.7869L307.017 36.7952L307.025 36.8032L307.724 36.088ZM307.724 52.936L308.431 53.6431V53.6431L307.724 52.936ZM277.34 52.936L276.633 53.6432L276.641 53.6512L277.34 52.936ZM275.276 44.68V43.68H274.276V44.68H275.276ZM282.716 44.68H283.716V43.68H282.716V44.68ZM282.716 47.512H281.716V48.512H282.716V47.512ZM302.3 47.512V48.512H303.3V47.512H302.3ZM302.3 41.464H303.3V40.464H302.3V41.464ZM277.34 39.4L276.633 40.1072L276.641 40.1152L277.34 39.4ZM277.34 22.504L276.641 21.7888L276.633 21.7969L277.34 22.504ZM307.724 22.552L307.009 23.2509L307.017 23.2592L307.025 23.2672L307.724 22.552ZM308.836 27.544V30.76H310.836V27.544H308.836ZM309.836 29.76H302.3V31.76H309.836V29.76ZM303.3 30.76V27.928H301.3V30.76H303.3ZM302.3 26.928H282.716V28.928H302.3V26.928ZM281.716 27.928V33.976H283.716V27.928H281.716ZM282.716 34.976H302.732V32.976H282.716V34.976ZM302.732 34.976C304.412 34.976 305.819 35.5696 307.009 36.7869L308.439 35.3891C306.877 33.7904 304.956 32.976 302.732 32.976V34.976ZM307.025 36.8032C308.243 37.9929 308.836 39.3998 308.836 41.08H310.836C310.836 38.8562 310.022 36.9351 308.423 35.3728L307.025 36.8032ZM308.836 41.08V47.896H310.836V41.08H308.836ZM308.836 47.896C308.836 49.5769 308.242 51.0042 307.017 52.2289L308.431 53.6431C310.023 52.0518 310.836 50.1191 310.836 47.896H308.836ZM307.017 52.2289C305.829 53.4167 304.42 54 302.732 54V56C304.948 56 306.867 55.2073 308.431 53.6431L307.017 52.2289ZM302.732 54H282.38V56H302.732V54ZM282.38 54C280.692 54 279.262 53.416 278.039 52.2208L276.641 53.6512C278.234 55.208 280.164 56 282.38 56V54ZM278.047 52.2289C276.863 51.0445 276.276 49.6206 276.276 47.896H274.276C274.276 50.1394 275.065 52.0755 276.633 53.6431L278.047 52.2289ZM276.276 47.896V44.68H274.276V47.896H276.276ZM275.276 45.68H282.716V43.68H275.276V45.68ZM281.716 44.68V47.512H283.716V44.68H281.716ZM282.716 48.512H302.3V46.512H282.716V48.512ZM303.3 47.512V41.464H301.3V47.512H303.3ZM302.3 40.464H282.38V42.464H302.3V40.464ZM282.38 40.464C280.692 40.464 279.262 39.88 278.039 38.6848L276.641 40.1152C278.234 41.672 280.164 42.464 282.38 42.464V40.464ZM278.047 38.6929C276.863 37.5085 276.276 36.0846 276.276 34.36H274.276C274.276 36.6034 275.065 38.5395 276.633 40.1071L278.047 38.6929ZM276.276 34.36V27.544H274.276V34.36H276.276ZM276.276 27.544C276.276 25.8194 276.863 24.3955 278.047 23.2111L276.633 21.7969C275.065 23.3645 274.276 25.3006 274.276 27.544H276.276ZM278.039 23.2192C279.262 22.024 280.692 21.44 282.38 21.44V19.44C280.164 19.44 278.234 20.232 276.641 21.7888L278.039 23.2192ZM282.38 21.44H302.732V19.44H282.38V21.44ZM302.732 21.44C304.412 21.44 305.819 22.0336 307.009 23.2509L308.439 21.8531C306.877 20.2544 304.956 19.44 302.732 19.44V21.44ZM307.025 23.2672C308.243 24.4569 308.836 25.8638 308.836 27.544H310.836C310.836 25.3202 310.022 23.3991 308.423 21.8368L307.025 23.2672ZM341.049 29.224L340.333 29.9228L340.342 29.9311L341.049 29.224ZM341.049 52.936L340.342 52.2288L340.333 52.2373L341.049 52.936ZM322.233 55V54H321.233V55H322.233ZM322.233 66.04V67.04H323.233V66.04H322.233ZM314.889 66.04H313.889V67.04H314.889V66.04ZM314.889 27.16V26.16H313.889V27.16H314.889ZM322.233 34.504V33.504H321.233V34.504H322.233ZM322.233 47.656H321.233V48.656H322.233V47.656ZM335.769 47.656V48.656H336.769V47.656H335.769ZM335.769 34.504H336.769V33.504H335.769V34.504ZM336.153 28.16C337.803 28.16 339.177 28.739 340.333 29.9227L341.764 28.5253C340.232 26.957 338.343 26.16 336.153 26.16V28.16ZM340.342 29.9311C341.537 31.126 342.113 32.5062 342.113 34.12H344.113C344.113 31.9578 343.313 30.074 341.756 28.5169L340.342 29.9311ZM342.113 34.12V48.04H344.113V34.12H342.113ZM342.113 48.04C342.113 49.6538 341.537 51.034 340.342 52.2289L341.756 53.6431C343.313 52.086 344.113 50.2022 344.113 48.04H342.113ZM340.333 52.2373C339.177 53.421 337.803 54 336.153 54V56C338.343 56 340.232 55.203 341.764 53.6347L340.333 52.2373ZM336.153 54H322.233V56H336.153V54ZM321.233 55V66.04H323.233V55H321.233ZM322.233 65.04H314.889V67.04H322.233V65.04ZM315.889 66.04V27.16H313.889V66.04H315.889ZM314.889 28.16H336.153V26.16H314.889V28.16ZM321.233 34.504V47.656H323.233V34.504H321.233ZM322.233 48.656H335.769V46.656H322.233V48.656ZM336.769 47.656V34.504H334.769V47.656H336.769ZM335.769 33.504H322.233V35.504H335.769V33.504ZM372.828 29.224L372.112 29.9228L372.121 29.9311L372.828 29.224ZM374.892 55V56H375.892V55H374.892ZM348.684 52.936L347.968 53.6348L347.977 53.6431L348.684 52.936ZM346.668 37.384V36.384H345.668V37.384H346.668ZM367.548 37.384V38.384H368.548V37.384H367.548ZM367.548 34.504H368.548V33.504H367.548V34.504ZM346.668 34.504H345.668V35.504H346.668V34.504ZM346.668 27.16V26.16H345.668V27.16H346.668ZM367.548 47.656V48.656H368.548V47.656H367.548ZM367.548 43.816H368.548V42.816H367.548V43.816ZM354.012 43.816V42.816H353.012V43.816H354.012ZM354.012 47.656H353.012V48.656H354.012V47.656ZM367.932 28.16C369.582 28.16 370.956 28.739 372.112 29.9227L373.543 28.5253C372.011 26.957 370.122 26.16 367.932 26.16V28.16ZM372.121 29.9311C373.316 31.126 373.892 32.5062 373.892 34.12H375.892C375.892 31.9578 375.092 30.074 373.535 28.5169L372.121 29.9311ZM373.892 34.12V55H375.892V34.12H373.892ZM374.892 54H353.628V56H374.892V54ZM353.628 54C351.977 54 350.582 53.4202 349.391 52.2289L347.977 53.6431C349.537 55.2038 351.439 56 353.628 56V54ZM349.399 52.2373C348.234 51.0442 347.668 49.6614 347.668 48.04H345.668C345.668 50.1946 346.446 52.0758 347.969 53.6347L349.399 52.2373ZM347.668 48.04V37.384H345.668V48.04H347.668ZM346.668 38.384H367.548V36.384H346.668V38.384ZM368.548 37.384V34.504H366.548V37.384H368.548ZM367.548 33.504H346.668V35.504H367.548V33.504ZM347.668 34.504V27.16H345.668V34.504H347.668ZM346.668 28.16H367.932V26.16H346.668V28.16ZM368.548 47.656V43.816H366.548V47.656H368.548ZM367.548 42.816H354.012V44.816H367.548V42.816ZM353.012 43.816V47.656H355.012V43.816H353.012ZM354.012 48.656H367.548V46.656H354.012V48.656ZM406.436 34.504V35.504H407.436V34.504H406.436ZM385.604 34.504V33.504H384.604V34.504H385.604ZM385.604 47.656H384.604V48.656H385.604V47.656ZM406.484 47.656H407.484V46.656H406.484V47.656ZM406.484 55V56H407.484V55H406.484ZM380.324 52.936L379.617 53.6431L380.324 52.936ZM380.324 29.224L381.032 29.9311L380.324 29.224ZM406.436 27.16H407.436V26.16H406.436V27.16ZM406.436 33.504H385.604V35.504H406.436V33.504ZM384.604 34.504V47.656H386.604V34.504H384.604ZM385.604 48.656H406.484V46.656H385.604V48.656ZM405.484 47.656V55H407.484V47.656H405.484ZM406.484 54H385.22V56H406.484V54ZM385.22 54C383.607 54 382.227 53.4238 381.032 52.2289L379.617 53.6431C381.174 55.2002 383.058 56 385.22 56V54ZM381.032 52.2289C379.837 51.034 379.26 49.6538 379.26 48.04H377.26C377.26 50.2022 378.06 52.086 379.617 53.6431L381.032 52.2289ZM379.26 48.04V34.12H377.26V48.04H379.26ZM379.26 34.12C379.26 32.5062 379.837 31.126 381.032 29.9311L379.617 28.5169C378.06 30.074 377.26 31.9578 377.26 34.12H379.26ZM381.032 29.9311C382.227 28.7362 383.607 28.16 385.22 28.16V26.16C383.058 26.16 381.174 26.9598 379.617 28.5169L381.032 29.9311ZM385.22 28.16H406.436V26.16H385.22V28.16ZM405.436 27.16V34.504H407.436V27.16H405.436ZM436.577 29.224L435.861 29.9228L435.87 29.9311L436.577 29.224ZM438.641 44.776V45.776H439.641V44.776H438.641ZM417.761 44.776V43.776H416.761V44.776H417.761ZM417.761 47.656H416.761V48.656H417.761V47.656ZM438.641 47.656H439.641V46.656H438.641V47.656ZM438.641 55V56H439.641V55H438.641ZM412.481 52.936L411.774 53.6431L412.481 52.936ZM412.481 29.224L413.188 29.9311L412.481 29.224ZM417.761 38.344H416.761V39.344H417.761V38.344ZM431.297 38.344V39.344H432.297V38.344H431.297ZM431.297 34.504H432.297V33.504H431.297V34.504ZM417.761 34.504V33.504H416.761V34.504H417.761ZM431.681 28.16C433.331 28.16 434.705 28.739 435.861 29.9227L437.292 28.5253C435.76 26.957 433.871 26.16 431.681 26.16V28.16ZM435.87 29.9311C437.065 31.126 437.641 32.5062 437.641 34.12H439.641C439.641 31.9578 438.841 30.074 437.284 28.5169L435.87 29.9311ZM437.641 34.12V44.776H439.641V34.12H437.641ZM438.641 43.776H417.761V45.776H438.641V43.776ZM416.761 44.776V47.656H418.761V44.776H416.761ZM417.761 48.656H438.641V46.656H417.761V48.656ZM437.641 47.656V55H439.641V47.656H437.641ZM438.641 54H417.377V56H438.641V54ZM417.377 54C415.763 54 414.383 53.4238 413.188 52.2289L411.774 53.6431C413.331 55.2002 415.215 56 417.377 56V54ZM413.188 52.2289C411.993 51.034 411.417 49.6538 411.417 48.04H409.417C409.417 50.2022 410.217 52.086 411.774 53.6431L413.188 52.2289ZM411.417 48.04V34.12H409.417V48.04H411.417ZM411.417 34.12C411.417 32.5062 411.993 31.126 413.188 29.9311L411.774 28.5169C410.217 30.074 409.417 31.9578 409.417 34.12H411.417ZM413.188 29.9311C414.383 28.7362 415.763 28.16 417.377 28.16V26.16C415.215 26.16 413.331 26.9598 411.774 28.5169L413.188 29.9311ZM417.377 28.16H431.681V26.16H417.377V28.16ZM417.761 39.344H431.297V37.344H417.761V39.344ZM432.297 38.344V34.504H430.297V38.344H432.297ZM431.297 33.504H417.761V35.504H431.297V33.504ZM416.761 34.504V38.344H418.761V34.504H416.761Z" fill="#EB8231"/>
<path d="M134 17.3827L133.919 15.8991L133.452 13.9961L131.439 10.7345L128.673 9.67729L128.231 8.53957L123.752 8.55455L122.984 8L121.107 8.56075L117.924 10.7585L117.287 11.5122L116.271 13.1876L115.073 16.8262L115 18.4345L115.936 20.3041L119.434 24.8296L121.158 25.7607L124.927 26.4557L125.637 25.7456L126.405 26.3002L128.282 25.7395L131.439 23.5657L132.101 22.788L131.907 21.583L133.117 21.1126L134 17.3827Z" fill="#A8A58F"/>
<path d="M134 17.3827L133.918 15.8991L133.452 13.9961L131.439 10.7345H130.159L128.673 9.67729L128.231 8.53957L123.752 8.55455L122.984 8L121.107 8.56075L120.15 10.7345L117.95 11.4054L116.271 13.1876L115.389 16.9174L115.804 18.5076L115.936 20.3041L119.434 24.8296L121.158 25.7607L124.927 26.4557L125.637 25.7456L126.405 26.3002L128.282 25.7395L131.439 23.5657L132.101 22.788L131.907 21.583L133.117 21.1126L134 17.3827Z" fill="#D3D1B7"/>
<path d="M122.923 15.5296L123.106 14.7986L123.011 14.3375L121.571 13.5558L120.94 13.3151L119.599 12.963L119.395 12.853L118.766 13.0977L118.683 13.9579L118.171 14.6158L117.181 14.9727L117.187 16.9439L119.414 19.0499L121.707 18.8L123.021 17.5432L122.789 16.8438L122.923 15.5296Z" fill="#9E9A80"/>
<path d="M122.789 16.8434L122.923 15.5292L121.552 14.4326L119.688 13.8843L117.878 15.6937L117.858 17.5789L119.414 19.0495L121.707 18.7996L123.02 17.5427L122.789 16.8434Z" fill="#C1BEA0"/>
<path d="M129.466 20.6573L127.933 19.3784L126.453 19.633L125.65 20.5026L125.829 20.9477L125.795 21.807L125.705 22.2894L125.786 22.5852L126.753 23.0352L127.173 23.1662L128.058 23.3411L128.195 23.4043L128.594 23.22L128.613 22.6578L128.919 22.2096L129.549 21.9378L129.466 20.6573Z" fill="#9E9A80"/>
<path d="M129.003 20.2714L127.933 19.3784L126.453 19.633L125.65 20.5026L125.829 20.9477L125.795 21.807L126.73 22.4644L127.963 22.7457L129.066 21.4972L129.003 20.2714Z" fill="#C1BEA0"/>
<path d="M130.874 14.0864L130.765 13.6093L130.437 12.6595L130.421 12.4927L130.02 12.212L129.468 12.5086L128.866 12.4653L128.252 12.0122L127.067 12.8099L126.695 15.0002L127.769 16.281L129.056 16.566L129.384 16.1449L130.229 15.6964L130.744 15.512L130.983 15.2687L130.874 14.0864Z" fill="#9E9A80"/>
<path d="M129.917 13.0845L128.098 12.7231L126.955 13.4705L126.695 14.9999L127.769 16.2807L129.056 16.5656L129.384 16.1445L130.229 15.696L130.338 14.4283L129.917 13.0845Z" fill="#C1BEA0"/>
</svg>
