<svg width="234" height="234" viewBox="0 0 234 234" fill="none" xmlns="http://www.w3.org/2000/svg">
<path d="M53.8535 67.4584C53.8535 32.7259 82.0091 4.57031 116.74 4.57031C151.472 4.57031 179.628 32.7259 179.628 67.4584H53.8535Z" fill="#E5ECEC"/>
<path d="M179.628 67.4584H53.8516C53.8516 60.6333 54.937 54.0599 56.9508 47.9079H176.529C178.541 54.0599 179.628 60.6333 179.628 67.4584Z" fill="#8291A8"/>
<path d="M34.7668 67.4584H199.907L229.433 91.6649H4.56885L34.7668 67.4584Z" fill="#95E8FA"/>
<path d="M229.434 91.6667C229.434 91.6667 224.006 111.148 152.21 111.148H81.7912C9.99819 111.148 4.56738 91.6667 4.56738 91.6667H229.434Z" fill="#E5ECEC"/>
<path d="M150.487 125.691H81.1304L76.1709 111.149H155.448L150.487 125.691Z" fill="#8291A8"/>
<path d="M188.338 229.156L150.485 125.691H81.1285L43.7681 229.156H188.338Z" fill="#F9D89C"/>
<path d="M233.955 92.3077C234.179 90.7455 233.554 89.1316 232.333 88.1301L202.804 63.9236C201.986 63.2523 200.963 62.8863 199.907 62.8863H184.043C183.668 57.2913 182.609 51.7926 180.872 46.485C180.833 46.3654 180.79 46.2476 180.74 46.1333C171.796 19.356 146.486 0 116.74 0C86.9933 0 61.6852 19.3542 52.7392 46.1315C52.691 46.2476 52.6464 46.3654 52.6053 46.4868C50.87 51.7926 49.8096 57.2913 49.4365 62.8881H34.7669C33.726 62.8881 32.7192 63.2416 31.9069 63.8914L1.70892 88.0998C0.302126 89.2281 -0.32272 91.1544 0.162875 92.895C0.484224 94.0447 2.67297 100.058 14.3076 105.542C27.1955 111.617 46.871 114.997 72.8646 115.614L76.287 125.646L39.4711 227.605C38.6141 229.979 39.8424 232.598 42.2168 233.455C42.7292 233.641 43.2541 233.728 43.77 233.728C45.641 233.728 47.3959 232.57 48.0689 230.709L84.3404 130.261H147.293L153.986 148.556C154.853 150.927 157.478 152.147 159.849 151.279C162.219 150.411 163.439 147.787 162.571 145.416L155.335 125.637L158.738 115.663C185.924 115.2 206.414 111.803 219.695 105.542C231.329 100.058 233.516 94.0429 233.838 92.8932C233.891 92.7022 233.929 92.504 233.955 92.3077V92.3077ZM174.879 62.8881H58.6003C58.8788 59.3176 59.4822 55.8398 60.3766 52.4782H173.101C173.995 55.8398 174.6 59.3176 174.879 62.8881ZM116.74 9.14061C140.296 9.14061 160.634 23.1836 169.827 43.3358H63.6508C72.845 23.1836 93.1828 9.14061 116.74 9.14061ZM36.3718 72.0287H53.8461H53.8515H179.628H179.633H198.271L216.649 87.0946H17.5764L36.3718 72.0287ZM84.4011 121.118L82.5587 115.72H149.06L147.218 121.118H84.4011ZM152.209 106.577H81.791C43.213 106.577 24.7943 100.909 16.1661 96.237H217.836C209.21 100.909 190.793 106.577 152.209 106.577V106.577Z" fill="black"/>
<path d="M66.1806 77.813C65.4325 76.017 63.5812 74.862 61.6335 75.003C59.7696 75.1387 58.1468 76.4348 57.5952 78.2165C57.04 80.0214 57.6773 82.0406 59.1805 83.1867C60.6783 84.3293 62.7707 84.4346 64.3739 83.442C66.2484 82.2816 67.0286 79.8482 66.1806 77.813Z" fill="black"/>
<path d="M103.439 77.813C102.736 76.126 101.065 75.0084 99.2366 74.9941C97.371 74.9798 95.6553 76.1527 94.9698 77.8827C94.2485 79.7001 94.7966 81.8585 96.3177 83.0939C97.8245 84.3168 99.9757 84.4614 101.631 83.442C103.507 82.2852 104.287 79.8483 103.439 77.813Z" fill="black"/>
<path d="M140.698 77.813C139.961 76.0474 138.147 74.8941 136.231 74.9976C134.33 75.1012 132.659 76.4133 132.106 78.2343C131.55 80.0571 132.218 82.0977 133.753 83.2313C135.246 84.3328 137.31 84.4221 138.886 83.442C140.759 82.278 141.55 79.8554 140.698 77.813V77.813Z" fill="black"/>
<path d="M177.952 77.813C177.214 76.0456 175.407 74.8941 173.488 74.9976C171.587 75.1012 169.918 76.4134 169.364 78.2343C168.809 80.0571 169.477 82.0977 171.012 83.2313C172.503 84.3328 174.567 84.4221 176.145 83.442C178.019 82.278 178.801 79.8518 177.952 77.813Z" fill="black"/>
<path d="M175.063 179.561C174.197 177.192 171.571 175.971 169.2 176.84C166.829 177.706 165.611 180.332 166.479 182.703L184.048 230.727C184.725 232.579 186.476 233.728 188.34 233.728C188.861 233.728 189.391 233.637 189.909 233.448C192.28 232.58 193.499 229.956 192.632 227.585L175.063 179.561Z" fill="black"/>
<path d="M167.077 167.898C168.641 166.855 169.422 164.89 168.99 163.06C168.554 161.219 166.99 159.798 165.11 159.563C163.196 159.323 161.293 160.35 160.442 162.078C159.611 163.763 159.917 165.85 161.202 167.223C162.72 168.844 165.233 169.107 167.077 167.898V167.898Z" fill="black"/>
<path d="M38.8178 52.396C39.1106 52.4514 39.3998 52.4782 39.6854 52.4782C41.8331 52.4782 43.7487 50.9571 44.1683 48.7684C47.4657 31.5958 58.3755 19.156 58.5272 18.9828C60.2072 17.1029 60.0483 14.2179 58.1702 12.5344C56.2903 10.8491 53.3999 11.008 51.7164 12.8879C51.1987 13.4663 38.9892 27.2683 35.1919 47.0438C34.7152 49.5235 36.3398 51.9194 38.8178 52.396Z" fill="black"/>
<path d="M191.607 54.1117C192.064 56.2612 193.962 57.7322 196.074 57.7322C196.388 57.7322 196.707 57.7001 197.029 57.6323C199.498 57.1074 201.074 54.6794 200.548 52.2104C198.643 43.2519 194.124 32.2724 193.933 31.81C192.969 29.4785 190.297 28.3698 187.963 29.3339C185.632 30.2979 184.521 32.9705 185.485 35.3038C185.53 35.4074 189.879 45.9815 191.607 54.1117V54.1117Z" fill="black"/>
</svg>
