<svg xmlns="http://www.w3.org/2000/svg" viewBox="0 0 298.65 253.23"><defs><style>.cls-1{fill:#5e3634;}.cls-2{fill:#73433d;}.cls-3{fill:#472a26;}.cls-4{fill:#36211d;}.cls-5{fill:#f9af1a;}.cls-6{fill:#f9c432;}.cls-7{fill:#d21200;}.cls-8{fill:#450904;}.cls-14,.cls-8{opacity:0.2;}.cls-9{fill:#680e05;}.cls-10{fill:#518020;}.cls-11{fill:#456e1b;}.cls-12{fill:#f9a600;}.cls-13{fill:#f9c45a;}.cls-14{fill:#fff;}.cls-15{font-size:34px;fill:#36e0c3;font-family:Phosphate-Inline, Phosphate;}.cls-16{letter-spacing:0em;}</style></defs><title>Fichier 58</title><g id="Calque_2" data-name="Calque 2"><g id="Calque_1-2" data-name="Calque 1"><ellipse class="cls-1" cx="147.3" cy="124.74" rx="85.75" ry="24.85"/><ellipse class="cls-2" cx="147.3" cy="111.16" rx="107.42" ry="31.13"/><ellipse class="cls-3" cx="147.59" cy="110.84" rx="103.93" ry="28.21"/><ellipse class="cls-4" cx="147.3" cy="111.16" rx="44.26" ry="12.83"/><path class="cls-5" d="M212,59.34c1-13.81,2.1-27.44,3.1-41.25,4.26.11,8.8.19,13.06.3q-3.28,19.75-6.58,39.53C218.65,58,214.93,59.22,212,59.34Z"/><path class="cls-5" d="M197.76,55.81c-.34-15.8,0-40-.35-55.81,4.25.36,8.64,1.19,12.89,1.55,0,15.53-1.19,40-1.23,55.48C205.12,57.06,201.72,55.78,197.76,55.81Z"/><path class="cls-5" d="M184.32,52.68c2.77-.5,5.49-1.18,8.26-1.68q.94-19.84,1.88-39.68c-3.57.29-7.4.19-11,.47C184,24.9,183.84,39.57,184.32,52.68Z"/><path class="cls-5" d="M176.81,57.42c-2.72-11.37-5.66-22.64-8.38-34,2.88-.53,6.16-.74,9-1.27L183,56.36C181.29,56.64,178.51,57.15,176.81,57.42Z"/><path class="cls-6" d="M190.13,60.94c0-14.1.34-28.62.33-42.73,4.22.07,9.18,1.86,13.39,1.92L200,61.72C197.41,61.36,192.76,61.3,190.13,60.94Z"/><path class="cls-6" d="M178.87,65.64c-2.09-13.18-4.17-26.13-6.26-39.31,3.94-.11,8.63-.86,12.57-1,1,12.3,3.23,26.18,4.28,38.48C186.31,64.84,182,64.64,178.87,65.64Z"/><path class="cls-6" d="M205.7,64.18c.31-11.68.24-23.59.56-35.27,2.93,0,6.8,0,9.74,0q-.57,16.71-1.13,33.41C212,62.49,208.59,64,205.7,64.18Z"/><path class="cls-7" d="M229.85,43.52l-4.48,39.09L221.21,119s-25.36-11.56-46.36,1.74L173.1,96.18l-3.75-52.66S204.1,56,229.85,43.52Z"/><path class="cls-8" d="M225.37,82.61,221.21,119s-25.36-11.56-46.36,1.74L173.1,96.18a43.72,43.72,0,0,0,24.33,1.58C207.91,95.46,217.32,89.81,225.37,82.61Z"/><path class="cls-9" d="M171.87,80.83c1,4.47,4.44,17.78,5.67,22.19-21,17-79,14.67-96.49,5.69,0-5.2.82-13.43,2.41-18.38C110.44,90.87,144.87,89.69,171.87,80.83Z"/><path class="cls-5" d="M183.63,113.89c-10.62,8.83-24.07,13.83-37.75,15.8s-27.62,1-41.29-1c-11.66-1.75-21.71-4.66-31.37-11.43,0-4.15.85-8.17.9-12.32,34.32,12.33,76.52,14.93,107.79-10.41C182.2,100.4,183.35,108,183.63,113.89Z"/><path class="cls-8" d="M145.88,123c-13.68,2-27.62,1-41.29-1-11.47-1.73-21.38-4.58-30.9-11.11-.22,2.12-.45,4.24-.47,6.39,9.66,6.77,19.71,9.68,31.37,11.43,13.67,2.06,27.61,3,41.29,1s27.13-7,37.75-15.8c-.09-2-.28-4.11-.51-6.32C172.58,116.15,159.34,121,145.88,123Z"/><path class="cls-6" d="M169.76,85.57a118.15,118.15,0,0,1-58.74,32A142.87,142.87,0,0,1,84.79,91.76C113.14,93.36,141.59,89.22,169.76,85.57Z"/><path class="cls-10" d="M183,85.57c-.3,2.66-2.16,5.29-4.8,5.71-3.06.48-6-2.64-8.13-4.9.35,2.36.58,5.09-1.09,6.79s-4.2,1.53-6.14.49-4.57-4.24-5.92-6a8,8,0,0,1-6.15,9.25c-4.08.71-8.72-3-9.23-7.12a7.2,7.2,0,0,1-5.79,8c-4.31.66-9-3.46-11.75-6.83a19.87,19.87,0,0,1-3.33,5.66A6.77,6.77,0,0,1,114.81,99c-3.32-.58-5.39-4.07-8.06-6.11A16.71,16.71,0,0,1,101,98.37a7.9,7.9,0,0,1-7.67.08C91.09,97,88,94.51,89.47,92.26a19.74,19.74,0,0,1-10.32,4.2c-1.32.13-3-.07-3.47-1.29a3.36,3.36,0,0,1,0-1.91A39,39,0,0,1,88.63,71.67l.46-.39c6.33-.32,16.45-2,22.78-2.27,18.56-.93,39.24-1.24,57-6.72l.13,0a44.89,44.89,0,0,1,12.25,15.62C182.37,80.29,183.31,82.92,183,85.57Z"/><path class="cls-11" d="M173.75,79c-1.58,2.49-7,3.93-8.59,1.45.56,2-1.43,4-3.5,4.09a7.33,7.33,0,0,1-5.81-3.08A7.8,7.8,0,0,1,150,87.57c-2.92.63-6.79-.59-8.49-3a3.84,3.84,0,0,1-3.19,4A4.88,4.88,0,0,1,133.58,85a5.72,5.72,0,0,1-4.87,4.07,6.31,6.31,0,0,1-5.9-3.2,7.57,7.57,0,0,1-6,3.91,6.55,6.55,0,0,1-6.11-2.68c-3,3-10,2.81-12.41-.71a3.13,3.13,0,0,1-3.34,2c-1.41-.21-3.15-1.62-3.17-3A6.79,6.79,0,0,1,89,86.91a4,4,0,0,1-4.38-3.42,5.55,5.55,0,0,1,2.62-5.24,32.87,32.87,0,0,1,1.43-6.58l.46-.39c6.33-.32,16.45-2,22.78-2.27,18.56-.93,39.24-1.24,57-6.72a26.4,26.4,0,0,1,5,8.21C174.88,73.26,175.32,76.54,173.75,79Z"/><path class="cls-12" d="M180,69.52C148.19,82.1,111.15,84.65,77.38,76.6c-2.11-15.08,5.89-31.95,20.56-40.4s34.57-9.46,50.49-2.9S177.37,54.5,180,69.52Z"/><path class="cls-8" d="M150.45,34.19a28.39,28.39,0,0,1,4.61,10.53c1.56,7.71-.78,16.35-6.76,21.46-4.06,3.47-9.35,5.1-14.56,6.28a117.33,117.33,0,0,1-33.63,2.68c-6.89-.44-13.94-1.54-20.22-4.56a13.05,13.05,0,0,1-2.72-1.74,35.28,35.28,0,0,0,.21,7.76c33.77,8.05,70.81,5.5,102.66-7.08C177.49,55.14,165.44,41.11,150.45,34.19Z"/><path class="cls-13" d="M110.59,38.5a4.88,4.88,0,0,0-6.13-.4,3.92,3.92,0,0,0-1.61,2.1,3.36,3.36,0,0,0,.63,3,3.49,3.49,0,0,0,5.23.36l0,0,.09,0,.54-.18A2.94,2.94,0,0,0,110.59,38.5Z"/><path class="cls-13" d="M109.38,43.34l-.08,0C110.06,43.13,109.81,43.2,109.38,43.34Z"/><path class="cls-13" d="M119.67,43.61a4.26,4.26,0,0,0-.19-.7,2.5,2.5,0,0,0-.65-1.11c-.15-.18-.12-.13.07.13a2.18,2.18,0,0,0-3.72,0c.19-.26.22-.31.07-.13a2.5,2.5,0,0,0-.65,1.11,3.46,3.46,0,0,0-.19.7,2.77,2.77,0,0,0,.7,2.65,2.73,2.73,0,0,0,4.56-2.65Z"/><path class="cls-13" d="M135.89,42.79a3.24,3.24,0,0,0-.37-.8c0-.05-.05-.07-.06-.07a3.38,3.38,0,0,0-.53-.85l-.13-.15a.52.52,0,0,0-.11-.1,2.45,2.45,0,0,0-2.33-.54,2.62,2.62,0,0,0-1.72,1.27,3.61,3.61,0,0,0,0,3.57,3,3,0,0,0,3.25,1.32A2.9,2.9,0,0,0,135.89,42.79Z"/><path class="cls-13" d="M145.09,38.81c-.81-1.56-3.09-1.7-4.63-1.41a2.19,2.19,0,0,0-1,3.65,4.87,4.87,0,0,0,1.28.81l.7.29a2.85,2.85,0,0,0,2.76-.09A2.44,2.44,0,0,0,145.09,38.81Z"/><path class="cls-14" d="M133.19,102.83c-3.62,0-7.26,2.3-10.6,3.59-3.13,1.21-6.26,2.35-9.34,3.66a1.15,1.15,0,0,0,0,2c3.34,1.88,6.55.49,10-.71,3.63-1.27,8.64-2.37,11.35-5.2A2,2,0,0,0,133.19,102.83Z"/><path class="cls-14" d="M143.13,99.07a2.21,2.21,0,0,0-3.07,0l-.28.24-.05,0h0c-.24.14-.47.3-.7.45a3.23,3.23,0,0,0-1.58,1.83,1.69,1.69,0,0,0,.44,1.66c1.78,1.39,3.8,0,5.26-1.17A2.18,2.18,0,0,0,143.13,99.07Z"/><text class="cls-15" transform="translate(89.89 202.62)">BU<tspan class="cls-16" x="40.05" y="0">R</tspan><tspan x="59.7" y="0">GER</tspan></text></g></g></svg>