<svg xmlns="http://www.w3.org/2000/svg" viewBox="0 0 333.88 511.99"><defs><style>.cls-1{fill:#36e0c3;}</style></defs><title>Fichier 57</title><g id="Calque_2" data-name="Calque 2"><g id="Calque_1-2" data-name="Calque 1"><path class="cls-1" d="M316.12,4.47A33.72,33.72,0,0,0,281.73,5a11.57,11.57,0,0,0-1.45,1L129.48,133.58H11.13A11.11,11.11,0,0,0,0,144.71V356.17A11.15,11.15,0,0,0,11.13,367.3l118.08-.06L279.94,505.69a11.44,11.44,0,0,0,1.79,1.34,33.74,33.74,0,0,0,34.39.49,34.77,34.77,0,0,0,17.76-30.68V35.15A34.79,34.79,0,0,0,316.12,4.47Zm-4.49,472.37a12.77,12.77,0,0,1-6.45,11.3,11.66,11.66,0,0,1-11.13.29L144.68,351.21v-50.7a11.13,11.13,0,1,0-22.26,0V345L22.26,345V155.82H122.42v44.52a11.13,11.13,0,1,0,22.26,0V149.86L293.87,23.65a11.65,11.65,0,0,1,11.31.2,12.77,12.77,0,0,1,6.45,11.3Z"/></g></g></svg>