<svg xmlns="http://www.w3.org/2000/svg" viewBox="0 0 298.65 253.23"><defs><style>.cls-1{fill:#5e3634;}.cls-2{fill:#73433d;}.cls-3{fill:#472a26;}.cls-4{fill:#36211d;}.cls-5{fill:#752914;}.cls-6{fill:#b63f1f;}.cls-7,.cls-8{fill:#450904;}.cls-10,.cls-7{opacity:0.2;}.cls-9{fill:#f9c432;}.cls-10{fill:#fff;}.cls-11{fill:#d4b094;}.cls-12{fill:#518020;}.cls-13{fill:#9d2c04;}.cls-14{fill:#416619;}.cls-15{fill:#beff7a;}.cls-16{fill:#8cde36;}.cls-17{font-size:34px;fill:#36e0c3;font-family:Phosphate-Inline, Phosphate;}</style></defs><title>Fichier 36</title><g id="Calque_2" data-name="Calque 2"><g id="Calque_1-2" data-name="Calque 1"><ellipse class="cls-1" cx="157.45" cy="113.4" rx="85.75" ry="24.85"/><ellipse class="cls-2" cx="157.45" cy="99.82" rx="107.42" ry="31.13"/><ellipse class="cls-3" cx="157.75" cy="99.5" rx="103.93" ry="28.21"/><ellipse class="cls-4" cx="157.45" cy="99.82" rx="44.26" ry="12.83"/><path class="cls-5" d="M133.91,94.29l-2.78,11.28S169,118,183.52,102.44L179.24,92Z"/><path class="cls-6" d="M84.31,40.61c0,32.66,31.38,59.14,70.08,59.14s70.09-26.48,70.09-59.14Z"/><path class="cls-7" d="M217.26,40.61C211.17,68,182.66,88.8,148.39,88.8c-25.64,0-48-11.62-60.27-29,9.46,23.22,35.55,39.91,66.27,39.91,38.71,0,70.09-26.48,70.09-59.14Z"/><path class="cls-8" d="M224.48,40.61a3.89,3.89,0,0,1-1.5,2.78C216.3,49.47,188.13,54,154.4,54S92.48,49.47,85.81,43.39a3.89,3.89,0,0,1-1.5-2.78c0-7.41,31.38-13.43,70.09-13.43S224.48,33.2,224.48,40.61Z"/><path class="cls-9" d="M223,43.39C216.3,49.47,188.13,54,154.4,54S92.48,49.47,85.81,43.39c6.67-6.09,34.85-10.66,68.59-10.66S216.3,37.3,223,43.39Z"/><path class="cls-10" d="M103.82,41.11c-1.72,1.06-2,2.35,1.22,3.82,4.15,1.87,9.35,1.39,13.77,2.06,5.53.84,11.13,1.11,16.71,1.4,17.68.92,35.52,1.84,53-1,3.56-.58,7.23-1.38,10.05-3.62a3,3,0,0,0,1.17-1.52c.46-1.84-2-2.93-3.87-3.21a276.55,276.55,0,0,0-48.79-2.82c-7.36.22-14.74-.22-22.1.23A62.63,62.63,0,0,0,113.83,38C112,38.45,106.35,39.54,103.82,41.11Z"/><path class="cls-11" d="M194.44,44.78a239.78,239.78,0,0,0,21.5-36.56,11.79,11.79,0,0,0,1.33-4A4.1,4.1,0,0,0,215.69.42c-1.2-.78-3.39-.45-3.95.86A268.83,268.83,0,0,1,189.3,42.65C190.38,44.17,192.58,44.66,194.44,44.78Z"/><path class="cls-12" d="M106.52,42.1a7.78,7.78,0,0,1,4.42-1.4,2,2,0,0,1,1.17.28,5,5,0,0,0-.11,1.84,4.55,4.55,0,0,0-3.72,2.11A6.61,6.61,0,0,1,106.52,42.1Z"/><path class="cls-12" d="M139.94,46.81a5,5,0,0,1-1.23-1.93,2.4,2.4,0,0,1-1.34.85,3.76,3.76,0,0,0,2.09,2.3A1.8,1.8,0,0,1,139.94,46.81Z"/><path class="cls-12" d="M205.39,48.22a4.87,4.87,0,0,1-1.22-1.94,2.39,2.39,0,0,1-1.34.86,3.69,3.69,0,0,0,2.09,2.29A1.77,1.77,0,0,1,205.39,48.22Z"/><path class="cls-12" d="M140.12,37.76a5,5,0,0,1,.53-2.23,2.38,2.38,0,0,1-1.54-.36,3.68,3.68,0,0,0-.2,3.09A1.84,1.84,0,0,1,140.12,37.76Z"/><path class="cls-12" d="M100.27,45.25a4.91,4.91,0,0,1-2.23.52,2.32,2.32,0,0,1,.35,1.54,3.73,3.73,0,0,0,2.87-1.2A1.75,1.75,0,0,1,100.27,45.25Z"/><path class="cls-12" d="M186.2,36.71a5,5,0,0,0-2.16.76,2.34,2.34,0,0,0-.52-1.5,3.71,3.71,0,0,1,3.06-.5A1.77,1.77,0,0,0,186.2,36.71Z"/><path class="cls-12" d="M118.19,50.23a5,5,0,0,0-2.08-1,2.32,2.32,0,0,0,.68-1.44,3.71,3.71,0,0,1,2.54,1.78A1.79,1.79,0,0,0,118.19,50.23Z"/><path class="cls-12" d="M153.32,44l-.21,1.82a5.19,5.19,0,0,1,5.24-.35L158.28,44A5.76,5.76,0,0,0,153.32,44Z"/><path class="cls-12" d="M128.82,36.36,127.06,35s.31,3.82-2.89,5.67l1.57.84A7,7,0,0,0,128.82,36.36Z"/><path class="cls-12" d="M206.43,42.76l1.49.05a4.25,4.25,0,0,1-.65-4.22l-1.18.16A4.68,4.68,0,0,0,206.43,42.76Z"/><path class="cls-12" d="M175.71,39.73l-2.15-.56s1.77,3.4-.46,6.35l1.76.16A7,7,0,0,0,175.71,39.73Z"/><path class="cls-12" d="M190.05,44.83l.12,2.22s-3-2.41-6.31-.81l.19-1.76A7,7,0,0,1,190.05,44.83Z"/><path class="cls-6" d="M170.44,40.37c-.81,1-3.08,1.81-4.38,2a34.2,34.2,0,0,1-19.26-3.05,12.26,12.26,0,0,1,.52-1.55,13.4,13.4,0,0,1,6.49-7.07,12.12,12.12,0,0,1,11,.26,11.06,11.06,0,0,1,4.23,4.3A10.53,10.53,0,0,1,170.44,40.37Z"/><path class="cls-13" d="M152.83,33.69a1.1,1.1,0,0,0,0,2.2A1.1,1.1,0,0,0,152.83,33.69Z"/><path class="cls-13" d="M157.83,31.26a.78.78,0,0,0,0,1.56A.78.78,0,0,0,157.83,31.26Z"/><path class="cls-13" d="M164.58,35a1.57,1.57,0,1,0,1.57,1.57A1.59,1.59,0,0,0,164.58,35Z"/><path class="cls-6" d="M115.94,45a6.64,6.64,0,0,0,3.56,1.64,27.92,27.92,0,0,0,15.67-2.48,11.15,11.15,0,0,0-.43-1.27,10.92,10.92,0,0,0-5.28-5.75,9.88,9.88,0,0,0-9,.21,9.11,9.11,0,0,0-3.44,3.5A8.54,8.54,0,0,0,115.94,45Z"/><path class="cls-13" d="M130.26,39.55a.9.9,0,0,1,0,1.79A.9.9,0,0,1,130.26,39.55Z"/><path class="cls-13" d="M126.19,37.57a.64.64,0,0,1,0,1.27A.64.64,0,0,1,126.19,37.57Z"/><path class="cls-13" d="M120.7,40.59a1.28,1.28,0,1,1,0,2.55,1.27,1.27,0,0,1-1.27-1.27A1.29,1.29,0,0,1,120.7,40.59Z"/><path class="cls-7" d="M170.44,40.37c-.81,1-3.08,1.81-4.38,2a34.2,34.2,0,0,1-19.26-3.05,12.26,12.26,0,0,1,.52-1.55,34.32,34.32,0,0,0,21.75-2.51A10.53,10.53,0,0,1,170.44,40.37Z"/><path class="cls-14" d="M154.38,43.84c-2,1.85-3.69,3.4-6.63,3.17-2.29-.18-4-1.31-6-2a.32.32,0,0,0-.42.41c1,2.54,5.17,3.37,7.59,3.35s5.57-1.78,6.58-4.06C155.73,44.07,154.91,43.35,154.38,43.84Z"/><path class="cls-12" d="M161.9,43.42a11.93,11.93,0,0,0-1.79-.89,4.74,4.74,0,0,0,.85-3.84c-.26-1.08-1.66-2.11-2.68-1.12a18.41,18.41,0,0,0-2.09,2.3,5.51,5.51,0,0,0-1.44-1.9,2.09,2.09,0,0,0-2.92.36c-1.59,2.24-.05,6.2,1.72,7.82s5.44,1.91,7.86.92C162.77,46.52,163.32,44.26,161.9,43.42Z"/><path class="cls-12" d="M195.39,79.26s-15.47,16.19,2.53,30.09c14.3,11,23.51-3.42,23.51-3.42Z"/><path class="cls-15" d="M209.71,81.23c-3.48-2.14-8.78-5-13-2.94C193.26,80,193,84.62,193.51,88a26.17,26.17,0,0,0,7.17,14.76,18.58,18.58,0,0,0,15.2,5.36c3-.42,6-1.87,7.44-4.52C227.43,95.87,218,86.36,209.71,81.23Z"/><path class="cls-16" d="M218.21,94.24A3.79,3.79,0,0,1,221,95.31a3.63,3.63,0,0,1,.4,2.66,8.73,8.73,0,0,1-1.44,4.36,3.54,3.54,0,0,1-4.11,1.29,4.66,4.66,0,0,1-1.35-1.08c-1.29-1.38-5-5.57-4-7.66S216.51,94.07,218.21,94.24Z"/><path class="cls-16" d="M213.83,88.73a2.84,2.84,0,0,0,1-2.1,2.52,2.52,0,0,0-1.09-1.49A12.13,12.13,0,0,0,208,82.69a1.91,1.91,0,0,0-1,.07,1.8,1.8,0,0,0-.82,1.48,14,14,0,0,0,1.19,7.17C209.2,96.11,212.1,90.68,213.83,88.73Z"/><path class="cls-16" d="M199.43,82c-3.31-1.45-4.78,4.53-3.68,6.94.64,1.4,2.11,2.18,3.45,2.94A10.45,10.45,0,0,0,201.5,93a2.91,2.91,0,0,0,2.43-.31c2.1-1.5-.4-5.36-1.32-6.84a12.44,12.44,0,0,0-2.41-3.35A4.91,4.91,0,0,0,199.43,82Z"/><path class="cls-16" d="M207,105.77a2.64,2.64,0,0,0,2.53-.76,3.1,3.1,0,0,0,.31-2.21c-.22-2.06-.43-6.83-2-8.4-1.28-1.32-4.17,0-5.46.76-2.66,1.6-4,3.31-2,6.18A10.26,10.26,0,0,0,207,105.77Z"/><path class="cls-15" d="M219.06,96.69a.61.61,0,0,0-1.19.24A.61.61,0,0,0,219.06,96.69Z"/><path class="cls-15" d="M217.91,101a.43.43,0,0,0-.84.18A.43.43,0,0,0,217.91,101Z"/><path class="cls-15" d="M212.68,96.14a.47.47,0,0,0-.92.19A.47.47,0,0,0,212.68,96.14Z"/><path class="cls-15" d="M205.16,100.12a.49.49,0,0,0-.19.95C205.67,101.31,205.86,100.11,205.16,100.12Z"/><path class="cls-15" d="M207.79,103.63a.49.49,0,0,0-1,.2A.49.49,0,0,0,207.79,103.63Z"/><path class="cls-15" d="M209.64,86.59l.06,0a.39.39,0,0,0,.08-.47l0-.07a.49.49,0,1,0-.11.58Z"/><path class="cls-15" d="M209,90.27a.39.39,0,0,0-.76.16A.39.39,0,0,0,209,90.27Z"/><path class="cls-15" d="M198.53,87.85a1,1,0,0,0-1.9.4A1,1,0,0,0,198.53,87.85Z"/><path class="cls-15" d="M201.45,87.41a.42.42,0,0,0-.83.18A.42.42,0,0,0,201.45,87.41Z"/><text class="cls-17" transform="translate(101.11 202.62)">soupe</text></g></g></svg>