<svg height="512pt" viewBox="-64 0 512 512" width="512pt" xmlns="http://www.w3.org/2000/svg"><path d="m383.429688 32.101562-21.410157 310.308594c-.007812.238282-.03125.480469-.050781.71875-.320312 3.351563-1.757812 6.609375-4.320312 9.171875l-42.847657 42.839844c-2.8125 2.808594-6.621093 4.390625-10.601562 4.390625h-48.207031c-5.679688 0-10.871094-3.210938-13.414063-8.292969l-14.367187-28.738281c-8.402344-16.800781-23.183594-27.230469-41.964844-27.230469-17.058594 0-31.304688-13.007812-32.851563-30l-24.804687-272.847656c-.800782-8.792969 6.128906-16.351563 14.941406-16.351563h224.929688c8.6875 0 15.570312 7.371094 14.96875 16.03125zm0 0" fill="#b0705b"/><path d="m362.019531 342.410156c.191407-4.082031-1.257812-8.21875-4.371093-11.332031-5.859376-5.859375-15.359376-5.847656-21.21875 0l-38.449219 38.453125h-41.984375l-10.230469-20.453125c-13.507813-27.019531-40.679687-43.808594-70.898437-43.808594h-21.46875l6.402343 70.429688-51.941406 25.972656h-28.597656c-43.703125 0-79.261719 35.558594-79.261719 79.257813 0 7.148437 5.039062 13.308593 12.050781 14.710937l80.339844 16.070313c.96875.1875 1.949219.289062 2.9375.289062h87.96875c26.449219 0 51.648437-8.179688 72.699219-23.351562l7.53125 15.0625c2.539062 5.078124 7.730468 8.289062 13.410156 8.289062h59.390625c7.882813 0 14.421875-6.101562 14.960937-13.96875l10.679688-154.902344c.019531-.238281.042969-.480468.050781-.71875zm0 0" fill="#875140"/><path d="m368.460938 16.070312h-112.464844v383.460938h48.203125c3.980469 0 7.789062-1.582031 10.601562-4.390625l42.847657-42.839844c2.5625-2.5625 4-5.820312 4.320312-9.171875.019531-.238281.042969-.480468.050781-.71875l21.410157-310.308594c.601562-8.660156-6.28125-16.03125-14.96875-16.03125zm0 0" fill="#875140"/><path d="m336.429688 331.078125-38.449219 38.453125h-41.984375v119.117188l7.53125 15.0625c2.539062 5.078124 7.730468 8.289062 13.410156 8.289062h59.390625c7.882813 0 14.421875-6.101562 14.960937-13.96875l10.679688-154.902344c.019531-.238281.042969-.480468.050781-.71875.191407-4.082031-1.257812-8.21875-4.371093-11.332031-5.859376-5.859375-15.359376-5.847656-21.21875 0zm0 0" fill="#64321e"/><path d="m255.996094 126.398438c-26.039063 0-47.132813-21.058594-47.132813-47.132813v-64.265625c0-8.285156 6.714844-15 15-15h64.265625c8.285156 0 15 6.714844 15 15v64.265625c0 26.429687-21.523437 47.132813-47.132812 47.132813zm0 0" fill="#c69687"/><path d="m288.128906 0h-32.132812v126.398438c25.609375 0 47.132812-20.703126 47.132812-47.132813v-64.265625c0-8.285156-6.714844-15-15-15zm0 0" fill="#b0705b"/></svg>