<?xml version="1.0" encoding="utf-8"?>
<!-- Generator: Adobe Illustrator 23.0.2, SVG Export Plug-In . SVG Version: 6.00 Build 0)  -->
<svg version="1.1" id="Calque_1" xmlns="http://www.w3.org/2000/svg" xmlns:xlink="http://www.w3.org/1999/xlink" x="0px" y="0px"
	 viewBox="0 0 1366.25 212" style="enable-background:new 0 0 1366.25 212;" xml:space="preserve">
<style type="text/css">
	.st0{fill:#824C1C;}
	.st1{fill:#72421A;}
	.st2{fill:none;}
	.st3{fill:#606060;}
	.st4{fill:#3A3A3A;stroke:#232323;stroke-miterlimit:10;}
</style>
<g>
	<rect x="51.53" y="70" width="1240.39" height="77"/>
	<g>
		<polygon class="st0" points="0.5,71.5 0.5,69.72 8.65,70 8.75,69.01 0.5,67.5 0.5,54 17.23,54 0.5,50.56 0.5,49.55 4.23,47.5 
			0.5,45.45 0.5,38 28.73,38 28.8,37 0.5,33.13 0.5,19.65 9.88,15.79 0.5,16.43 0.5,11 19.61,11 19.67,10 0.5,7.79 0.5,4.5 
			1365.75,4.5 1365.75,10.16 1336.59,11 1336.53,11.99 1365.75,16.57 1365.75,20.48 1355.15,24.55 1365.75,27.87 1365.75,47.18 
			1321.44,56.73 1321.56,57.72 1365.75,56.47 1365.75,68.35 1353.08,71.5 		"/>
		<path class="st0" d="M1365.25,5v4.67l-28.67,0.83l-0.13,1.99l28.8,4.51v3.14l-8.93,3.43l-2.68,1.03l2.74,0.86l8.88,2.78v18.54
			l-43.91,9.47l0.24,1.98l43.67-1.24v10.98L1353.02,71H1v-0.76l7.63,0.26l0.21-1.98L1,67.08V54.5h11.31h9.83l-9.63-1.98L1,50.15
			v-0.31l2.67-1.47l1.6-0.88l-1.6-0.88L1,45.16V38.5h27.73l0.14-1.99L1,32.69V19.98l6.22-2.56l5.7-2.34L6.77,15.5L1,15.9v-4.4h18.61
			l0.11-1.99L1,7.35V5H1365.25 M1366.25,4H0v4.24l19.61,2.26H0v6.47l6.84-0.47L0,19.31v14.25l28.73,3.94H0v8.25l3.19,1.75L0,49.25
			v1.72l12.31,2.53H0v14.42l8.66,1.58L0,69.2V72h1353.14l13.11-3.25V55.95l-44.7,1.27l44.7-9.64V27.5l-9.58-3l9.58-3.67v-4.68
			l-29.64-4.64l29.64-0.86V4L1366.25,4z"/>
	</g>
	<g>
		<polygon class="st0" points="1353.03,131.5 1366.25,127.88 1366.25,111.5 1338.43,111.5 1366.25,108.96 1366.25,95.8 
			1354.85,97.5 1366.25,93.2 1366.25,84.28 1343.9,81.5 1366.25,79.14 1366.25,73 0,73 0,79.33 14.14,81.5 0,82.36 0,90.5 
			14.14,90.5 0,93.82 0,108.22 8.66,113.5 0,118.25 0,123.21 25.08,125.5 0,127.46 0,135.84 9.18,140.94 6.58,141 1366.25,141 
			1366.25,131.5 		"/>
	</g>
	<g>
		<polygon class="st0" points="1353.03,203.5 1366.25,202.05 1366.25,189.23 1351.2,190.5 1366.25,184.5 1366.25,180.3 
			1353.03,174.5 1366.25,175.71 1366.25,159.98 1340.26,154.5 1366.25,151.76 1366.25,142 0,142 0,153.11 17.78,156.5 0,157.65 
			0,166.5 10.49,166.5 0,169.06 0,183.12 23.26,189.5 0,193.25 0,201.07 10.54,210 1366.25,210 1366.25,205.03 		"/>
	</g>
	<g>
		<polygon class="st1" points="52.44,18.5 627.03,24.5 118.11,24.5 		"/>
	</g>
	<g>
		<polygon class="st1" points="94.4,54.5 315.11,49.5 169.19,57.5 		"/>
	</g>
	<g>
		<polygon class="st1" points="375.31,34.5 946.25,34.5 900.65,38.5 		"/>
	</g>
	<g>
		<polygon class="st1" points="532.18,49.5 1084.88,57.5 1010.09,53.5 1139.61,49.5 		"/>
	</g>
	<g>
		<polygon class="st1" points="993.68,15.5 1265.47,18.5 700,18.5 		"/>
	</g>
	<polygon class="st1" points="98.96,93 520.32,89 410.88,93 	"/>
	<polygon class="st1" points="144.56,104 565.93,111 144.56,109 46.06,104 	"/>
	<polygon class="st1" points="1342.99,82 835.89,85 1359.31,85 	"/>
	<polygon class="st1" points="726.45,93 1244.49,91 1025.6,95 	"/>
	<polygon class="st1" points="1229.9,128 635.24,134 1085.79,126 	"/>
	<polygon class="st1" points="598.76,107 1051.14,115 923.45,111 	"/>
	<polygon class="st1" points="69.77,151 292.36,152.79 565.93,155 	"/>
	<polygon class="st1" points="22.35,185 502.08,176 447.36,181 	"/>
	<polygon class="st1" points="69.77,198 598.76,201 144.56,195 	"/>
	<polygon class="st1" points="77.07,160 281.37,164 204.76,160 	"/>
	<polygon class="st1" points="531.27,181 1085.79,172 824.95,181 	"/>
	<polygon class="st2" points="1321.1,198 1016.48,201 1259.08,195 	"/>
	<polygon class="st1" points="1321.1,168 1175.18,172 1282.8,165 	"/>
	<polygon class="st1" points="671.72,165 1182.47,158 961.76,158 	"/>
	<polygon class="st1" points="609.71,151 808.53,151 699.09,155 	"/>
</g>
<g>
	<g>
		<g>
			<rect x="1282.25" y="2" class="st3" width="20" height="210"/>
			<rect x="35.5" class="st3" width="20" height="210"/>
		</g>
		<g>
			<circle class="st4" cx="45.25" cy="18" r="4.5"/>
			<circle class="st4" cx="45.25" cy="55" r="4.5"/>
		</g>
		<g>
			<circle class="st4" cx="45.25" cy="86" r="4.5"/>
			<circle class="st4" cx="45.25" cy="123" r="4.5"/>
		</g>
		<g>
			<circle class="st4" cx="45.25" cy="154" r="4.5"/>
			<circle class="st4" cx="45.25" cy="191" r="4.5"/>
		</g>
	</g>
	<g>
		<g>
			<circle class="st4" cx="1292.25" cy="22" r="4.5"/>
			<circle class="st4" cx="1292.25" cy="59" r="4.5"/>
		</g>
		<g>
			<circle class="st4" cx="1292.25" cy="90" r="4.5"/>
			<circle class="st4" cx="1292.25" cy="127" r="4.5"/>
		</g>
		<g>
			<circle class="st4" cx="1292.25" cy="158" r="4.5"/>
			<circle class="st4" cx="1292.25" cy="195" r="4.5"/>
		</g>
	</g>
</g>
</svg>
