<svg width="24" height="24" viewBox="0 0 24 24" fill="none" xmlns="http://www.w3.org/2000/svg">
<g clip-path="url(#clip0)">
<path d="M20.3294 14.5354C20.2382 14.4469 20.1808 14.3235 20.179 14.1863L20.1608 12.8604C20.1571 12.5858 20.3766 12.3596 20.6513 12.355C20.9258 12.3504 21.1515 12.5694 21.1552 12.844L21.1733 14.1699C21.177 14.4445 20.9575 14.6707 20.6829 14.6753C20.5456 14.6774 20.4207 14.6239 20.3294 14.5354Z" fill="#EBB900"/>
<path d="M18.6631 12.3875C18.9376 12.383 19.1633 12.602 19.1671 12.8765L19.2032 15.5282C19.207 15.8028 18.9875 16.029 18.7128 16.0336L16.7242 16.0663C16.5924 16.0684 16.4651 16.0181 16.3707 15.9265C16.2762 15.8348 16.2221 15.7091 16.2203 15.5773L16.184 12.9256C16.1803 12.6511 16.3999 12.4248 16.6744 12.4203L18.6631 12.3875Z" fill="#EBB900"/>
<path d="M10.8429 10.5272L22.2823 10.3391C22.4141 10.3369 22.5412 10.3871 22.6358 10.4789C22.7304 10.5706 22.7844 10.6962 22.7862 10.828L22.8134 12.8167C22.8171 13.0914 22.5976 13.3176 22.323 13.3221L10.8835 13.5103L10.8429 10.5272Z" fill="#FAE114"/>
<path d="M22.8135 12.8167L22.8 11.8223L10.8633 12.0187L10.8836 13.5102L22.323 13.3221C22.4604 13.3198 22.5838 13.2621 22.6725 13.1708L22.6728 13.1706C22.7615 13.0792 22.8153 12.954 22.8135 12.8167Z" fill="#F0D205"/>
<path d="M8.82364 14.5142C8.93885 14.5286 9.05643 14.5358 9.1759 14.5337C9.8399 14.5229 10.4606 14.254 10.9237 13.7768C11.3867 13.2996 11.6368 12.671 11.6276 12.007C11.6089 10.6363 10.4787 9.53939 9.10793 9.56202C8.98937 9.56388 8.87212 9.57442 8.75681 9.59262C8.77152 9.47681 8.77853 9.35948 8.77691 9.24083C8.75817 7.8701 7.62785 6.77314 6.25709 6.79578C5.59309 6.80661 4.97235 7.07552 4.50931 7.55272C4.04626 8.02992 3.79617 8.65848 3.80534 9.32251C3.80688 9.44198 3.81746 9.55921 3.83542 9.67402C3.72012 9.65953 3.60263 9.65248 3.48316 9.65454C2.81915 9.66537 2.19842 9.93427 1.73537 10.4115C1.27233 10.8887 1.02224 11.5172 1.03141 12.1813C1.04069 12.8667 1.32786 13.4834 1.78425 13.9263C2.24055 14.3688 2.86589 14.6376 3.55113 14.6262C3.66978 14.6243 3.78694 14.6138 3.90225 14.5956C3.88753 14.7114 3.88053 14.8288 3.88215 14.9474C3.89152 15.633 4.17869 16.2497 4.63509 16.6925C5.09139 17.1351 5.71672 17.4038 6.40197 17.3925C7.06597 17.3816 7.68671 17.1127 8.14975 16.6355C8.6128 16.1583 8.86289 15.5298 8.85372 14.8657C8.85217 14.7463 8.84151 14.6289 8.82364 14.5142ZM5.98288 12.4514C5.99759 12.3356 6.0045 12.2181 6.00288 12.0995C6.00134 11.98 5.99067 11.8627 5.9728 11.748C6.08801 11.7624 6.20559 11.7695 6.32497 11.7676C6.44362 11.7656 6.56087 11.7551 6.67618 11.7369C6.66146 11.8527 6.65455 11.9701 6.65618 12.0887C6.65772 12.2082 6.66829 12.3254 6.68625 12.4403C6.57095 12.4258 6.45347 12.4187 6.334 12.4208C6.21535 12.4226 6.09819 12.4332 5.98288 12.4514ZM9.12152 10.5563C9.51994 10.5497 9.89659 10.6988 10.1821 10.9758C10.4677 11.2529 10.628 11.6249 10.6334 12.0233C10.6388 12.4217 10.4888 12.7989 10.211 13.0852C9.93313 13.3715 9.56063 13.5328 9.1623 13.5394C8.76388 13.546 8.38724 13.397 8.10169 13.1199C7.81614 12.8428 7.65584 12.4708 7.6504 12.0724C7.64495 11.674 7.795 11.2969 8.07285 11.0105C8.35069 10.7242 8.7231 10.5628 9.12152 10.5563ZM6.27068 7.79004C6.6691 7.78349 7.04575 7.93251 7.3313 8.20959C7.61685 8.48666 7.77714 8.85865 7.78259 9.25709C7.78795 9.65544 7.63798 10.0326 7.36014 10.319C7.0823 10.6053 6.7098 10.7666 6.31147 10.7732C5.91305 10.7798 5.5364 10.6307 5.25085 10.3537C4.96531 10.0766 4.80501 9.70459 4.79956 9.30615C4.79411 8.90772 4.94417 8.53062 5.22201 8.24428C5.49986 7.95794 5.87226 7.7966 6.27068 7.79004ZM3.53754 13.632C3.13912 13.6385 2.76247 13.4895 2.47692 13.2124C2.19138 12.9353 2.03108 12.5633 2.02563 12.1649C2.02018 11.7665 2.17024 11.3894 2.44808 11.103C2.72593 10.8167 3.09833 10.6554 3.49675 10.6488C3.89517 10.6422 4.27182 10.7913 4.55737 11.0683C4.84292 11.3454 5.00321 11.7174 5.00866 12.1158C5.01402 12.5142 4.86405 12.8914 4.58621 13.1777C4.30837 13.4641 3.93587 13.6253 3.53754 13.632ZM6.38837 16.3982C5.98995 16.4048 5.6133 16.2557 5.32776 15.9787C5.04221 15.7016 4.88191 15.3296 4.87647 14.9312C4.87102 14.5327 5.02107 14.1556 5.29892 13.8693C5.57676 13.5829 5.94917 13.4216 6.34759 13.415C6.74601 13.4085 7.12266 13.5575 7.40821 13.8346C7.69375 14.1117 7.85396 14.4837 7.85941 14.8822C7.86485 15.2804 7.71489 15.6576 7.43704 15.944C7.1592 16.2303 6.7867 16.3916 6.38837 16.3982Z" fill="#FFF55F"/>
<path d="M10.9205 13.7767C11.3836 13.2995 11.6336 12.6709 11.6245 12.0069C11.6246 12.0066 11.6245 12.0064 11.6246 12.0061L10.6302 12.0224C10.6302 12.0227 10.6302 12.023 10.6303 12.0233C10.6356 12.4216 10.4856 12.7988 10.2078 13.0851C9.92996 13.3715 9.55746 13.5327 9.15913 13.5394C8.76071 13.5459 8.38406 13.3969 8.09852 13.1198C7.81297 12.8428 7.65276 12.4707 7.64722 12.0723C7.64731 12.0721 7.64722 12.0718 7.64731 12.0715L6.6529 12.0879C6.653 12.0881 6.65291 12.0884 6.653 12.0887C6.65455 12.2082 6.66512 12.3254 6.68308 12.4402C6.56778 12.4257 6.45029 12.4187 6.33082 12.4207C6.21227 12.4226 6.09502 12.4331 5.97971 12.4513C5.99442 12.3355 6.00133 12.2181 5.99971 12.0994C5.9998 12.0992 5.9997 12.0989 5.99979 12.0986L5.00539 12.115C5.00548 12.1152 5.00539 12.1155 5.00549 12.1158C5.01094 12.5142 4.86088 12.8913 4.58304 13.1777C4.30519 13.464 3.93279 13.6253 3.53437 13.6319C3.13595 13.6384 2.7593 13.4894 2.47375 13.2123C2.1882 12.9353 2.02791 12.5633 2.02246 12.1648C2.02255 12.1646 2.02255 12.1644 2.02254 12.164L1.02814 12.1804C1.02823 12.1806 1.02814 12.1809 1.02824 12.1812C1.03752 12.8667 1.32469 13.4833 1.78108 13.9262C2.23738 14.3688 2.86272 14.6375 3.54796 14.6262C3.66661 14.6242 3.78377 14.6138 3.89908 14.5956C3.88436 14.7114 3.87736 14.8287 3.87898 14.9473C3.88835 15.6329 4.17552 16.2496 4.63192 16.6924C5.08821 17.135 5.71355 17.4038 6.3988 17.3924C7.0628 17.3816 7.68354 17.1127 8.14658 16.6355C8.60962 16.1583 8.85971 15.5297 8.85054 14.8657C8.849 14.7462 8.83833 14.6289 8.82037 14.5141C8.93567 14.5286 9.05316 14.5356 9.17273 14.5336C9.83673 14.5228 10.4575 14.2539 10.9205 13.7767ZM7.43387 15.9439C7.15603 16.2302 6.78353 16.3915 6.3852 16.3981C5.98678 16.4047 5.61013 16.2557 5.32459 15.9786C5.03904 15.7015 4.87874 15.3295 4.87329 14.9311C4.86785 14.5326 5.0179 14.1556 5.29575 13.8692C5.57359 13.5829 5.946 13.4215 6.34442 13.415C6.74284 13.4084 7.11949 13.5574 7.40503 13.8345C7.69058 14.1116 7.85079 14.4837 7.85623 14.8821C7.86168 15.2804 7.71172 15.6576 7.43387 15.9439Z" fill="#FAE114"/>
</g>
<defs>
<clipPath id="clip0">
<rect width="16.9486" height="16.9957" fill="white" transform="translate(11.8359) rotate(44.1372)"/>
</clipPath>
</defs>
</svg>
