<svg width="48" height="32" viewBox="0 0 48 32" fill="none" xmlns="http://www.w3.org/2000/svg">
<g filter="url(#filter0_d)">
<rect x="4" y="2" width="40" height="24" rx="3" fill="black"/>
</g>
<rect x="11" y="3" width="7" height="22" rx="1" fill="#525252"/>
<rect x="24" y="4" width="12" height="3" fill="#404040"/>
<rect x="25" y="22" width="4" height="2" fill="#009518"/>
<rect x="31" y="22" width="4" height="2" fill="#8F0000"/>
<g filter="url(#filter1_d)">
<circle cx="27" cy="10" r="1" fill="#C4C4C4"/>
<circle cx="30" cy="10" r="1" fill="#C4C4C4"/>
<circle cx="33" cy="10" r="1" fill="#C4C4C4"/>
<circle cx="27" cy="13" r="1" fill="#C4C4C4"/>
<circle cx="30" cy="13" r="1" fill="#C4C4C4"/>
<circle cx="33" cy="13" r="1" fill="#C4C4C4"/>
<circle cx="27" cy="16" r="1" fill="#C4C4C4"/>
<circle cx="30" cy="16" r="1" fill="#C4C4C4"/>
<circle cx="33" cy="16" r="1" fill="#C4C4C4"/>
<circle cx="27" cy="19" r="1" fill="#C4C4C4"/>
<circle cx="30" cy="19" r="1" fill="#C4C4C4"/>
<circle cx="33" cy="19" r="1" fill="#C4C4C4"/>
<path d="M27.0332 13.4V13.256H26.7402V13.1359L27.0508 12.6813H27.166V13.1354H27.2549V13.256H27.166V13.4H27.0332ZM27.0332 13.1354V12.8907L26.8687 13.1354H27.0332Z" fill="white"/>
<path d="M29.7661 13.2159L29.9028 13.2018C29.9067 13.2327 29.9183 13.2573 29.9375 13.2755C29.9567 13.2934 29.9788 13.3024 30.0039 13.3024C30.0326 13.3024 30.0568 13.2908 30.0767 13.2677C30.0965 13.2443 30.1064 13.2091 30.1064 13.1622C30.1064 13.1183 30.0965 13.0854 30.0767 13.0636C30.0571 13.0415 30.0316 13.0304 30 13.0304C29.9606 13.0304 29.9253 13.0478 29.894 13.0826L29.7827 13.0665L29.853 12.694H30.2158V12.8224H29.957L29.9355 12.944C29.9661 12.9287 29.9974 12.921 30.0293 12.921C30.0902 12.921 30.1418 12.9432 30.1841 12.9874C30.2264 13.0317 30.2476 13.0892 30.2476 13.1598C30.2476 13.2187 30.2305 13.2713 30.1963 13.3175C30.1497 13.3807 30.0851 13.4122 30.0024 13.4122C29.9364 13.4122 29.8825 13.3945 29.8408 13.359C29.7992 13.3235 29.7743 13.2758 29.7661 13.2159Z" fill="white"/>
<path d="M33.229 12.8595L33.0962 12.8741C33.0929 12.8468 33.0845 12.8266 33.0708 12.8136C33.0571 12.8006 33.0394 12.7941 33.0176 12.7941C32.9886 12.7941 32.964 12.8071 32.9438 12.8331C32.924 12.8592 32.9115 12.9134 32.9062 12.9957C32.9404 12.9554 32.9829 12.9352 33.0337 12.9352C33.091 12.9352 33.14 12.957 33.1807 13.0006C33.2217 13.0442 33.2422 13.1005 33.2422 13.1696C33.2422 13.2428 33.2207 13.3016 33.1777 13.3458C33.1348 13.3901 33.0796 13.4122 33.0122 13.4122C32.9399 13.4122 32.8805 13.3842 32.834 13.3282C32.7874 13.2719 32.7642 13.1798 32.7642 13.0519C32.7642 12.9207 32.7884 12.8261 32.8369 12.7682C32.8854 12.7102 32.9484 12.6813 33.0259 12.6813C33.0802 12.6813 33.1252 12.6966 33.1606 12.7272C33.1965 12.7574 33.2192 12.8016 33.229 12.8595ZM32.918 13.1588C32.918 13.2034 32.9282 13.2379 32.9487 13.2623C32.9692 13.2864 32.9927 13.2985 33.019 13.2985C33.0444 13.2985 33.0656 13.2885 33.0825 13.2687C33.0994 13.2488 33.1079 13.2163 33.1079 13.171C33.1079 13.1245 33.0988 13.0905 33.0806 13.069C33.0623 13.0472 33.0396 13.0363 33.0122 13.0363C32.9858 13.0363 32.9635 13.0467 32.9453 13.0675C32.9271 13.088 32.918 13.1184 32.918 13.1588Z" fill="white"/>
<path d="M26.7642 15.8214V15.694H27.2334V15.7936C27.1947 15.8317 27.1553 15.8864 27.1152 15.9576C27.0752 16.0289 27.0446 16.1048 27.0234 16.1852C27.0026 16.2653 26.9924 16.3369 26.9927 16.4H26.8604C26.8626 16.3011 26.883 16.2002 26.9214 16.0973C26.9601 15.9944 27.0117 15.9025 27.0762 15.8214H26.7642Z" fill="white"/>
<path d="M29.8818 16.0138C29.8464 15.9988 29.8205 15.9783 29.8042 15.9523C29.7882 15.9259 29.7803 15.8971 29.7803 15.8658C29.7803 15.8125 29.7988 15.7684 29.8359 15.7335C29.8734 15.6987 29.9264 15.6813 29.9951 15.6813C30.0632 15.6813 30.1159 15.6987 30.1533 15.7335C30.1911 15.7684 30.21 15.8125 30.21 15.8658C30.21 15.899 30.2013 15.9287 30.1841 15.9547C30.1668 15.9804 30.1426 16.0001 30.1113 16.0138C30.151 16.0297 30.1812 16.053 30.2017 16.0836C30.2225 16.1142 30.2329 16.1495 30.2329 16.1896C30.2329 16.2557 30.2118 16.3094 30.1694 16.3507C30.1274 16.392 30.0715 16.4127 30.0015 16.4127C29.9364 16.4127 29.8822 16.3956 29.8389 16.3615C29.7878 16.3211 29.7622 16.2657 29.7622 16.1954C29.7622 16.1567 29.7718 16.1212 29.791 16.089C29.8102 16.0564 29.8405 16.0314 29.8818 16.0138ZM29.9102 15.8756C29.9102 15.903 29.9178 15.9243 29.9331 15.9396C29.9487 15.9549 29.9694 15.9625 29.9951 15.9625C30.0212 15.9625 30.042 15.9549 30.0576 15.9396C30.0732 15.924 30.0811 15.9025 30.0811 15.8751C30.0811 15.8494 30.0732 15.8289 30.0576 15.8136C30.0423 15.798 30.022 15.7902 29.9966 15.7902C29.9702 15.7902 29.9492 15.798 29.9336 15.8136C29.918 15.8292 29.9102 15.8499 29.9102 15.8756ZM29.8975 16.1823C29.8975 16.22 29.9071 16.2495 29.9263 16.2706C29.9458 16.2918 29.9701 16.3024 29.999 16.3024C30.0273 16.3024 30.0508 16.2923 30.0693 16.2721C30.0879 16.2516 30.0972 16.2221 30.0972 16.1837C30.0972 16.1502 30.0877 16.1233 30.0688 16.1031C30.05 16.0826 30.026 16.0724 29.9971 16.0724C29.9635 16.0724 29.9385 16.0839 29.9219 16.1071C29.9056 16.1302 29.8975 16.1552 29.8975 16.1823Z" fill="white"/>
<path d="M29.9961 18.6813C30.0654 18.6813 30.1196 18.706 30.1587 18.7555C30.2052 18.8141 30.2285 18.9113 30.2285 19.047C30.2285 19.1824 30.2051 19.2797 30.1582 19.339C30.1195 19.3878 30.0654 19.4122 29.9961 19.4122C29.9264 19.4122 29.8703 19.3855 29.8276 19.3322C29.785 19.2784 29.7637 19.1829 29.7637 19.0455C29.7637 18.9108 29.7871 18.8138 29.834 18.7545C29.8727 18.7057 29.9268 18.6813 29.9961 18.6813ZM29.9961 18.795C29.9795 18.795 29.9647 18.8004 29.9517 18.8112C29.9386 18.8216 29.9285 18.8405 29.9214 18.8678C29.9119 18.9033 29.9072 18.963 29.9072 19.047C29.9072 19.131 29.9115 19.1888 29.9199 19.2203C29.9284 19.2516 29.939 19.2724 29.9517 19.2828C29.9647 19.2933 29.9795 19.2985 29.9961 19.2985C30.0127 19.2985 30.0275 19.2933 30.0405 19.2828C30.0535 19.2721 30.0636 19.2531 30.0708 19.2257C30.0802 19.1906 30.085 19.131 30.085 19.047C30.085 18.963 30.0807 18.9054 30.0723 18.8741C30.0638 18.8426 30.0531 18.8216 30.04 18.8112C30.0273 18.8004 30.0127 18.795 29.9961 18.795Z" fill="white"/>
<path d="M26.8496 19.3265L26.7021 19.2123C26.749 19.1595 26.7979 19.1091 26.8486 19.0609C26.8688 19.0414 26.8815 19.029 26.8867 19.0238C26.8704 19.0212 26.8239 19.0105 26.7471 18.9916C26.6917 18.9779 26.6553 18.9678 26.6377 18.9613L26.6953 18.7894C26.7806 18.8239 26.8568 18.862 26.9238 18.9037C26.9082 18.7976 26.9004 18.711 26.9004 18.6439H27.0742C27.0742 18.6914 27.0654 18.7787 27.0479 18.9056C27.0609 18.9004 27.0889 18.8877 27.1318 18.8676C27.1904 18.8409 27.2445 18.8181 27.2939 18.7992L27.3457 18.976C27.2734 18.9922 27.1898 19.0082 27.0947 19.0238L27.2119 19.1556C27.2354 19.1823 27.2539 19.2041 27.2676 19.2211L27.1182 19.3197L26.9863 19.1019C26.9466 19.1722 26.901 19.2471 26.8496 19.3265Z" fill="white"/>
<path d="M32.7969 19.2218H32.7305V19.1144H32.8184L32.8477 18.9703H32.7305V18.8624H32.8696L32.9082 18.672H33.0176L32.979 18.8624H33.0869L33.1245 18.672H33.2378L33.1987 18.8624H33.2661V18.9703H33.1768L33.1475 19.1144H33.2661V19.2218H33.1255L33.0869 19.4122H32.978L33.0156 19.2218H32.9072L32.8687 19.4122H32.7583L32.7969 19.2218ZM32.9575 18.9703L32.9287 19.1144H33.0371L33.0654 18.9703H32.9575Z" fill="white"/>
<path d="M32.7671 16.2345L32.8999 16.2198C32.9032 16.2469 32.9116 16.2669 32.9253 16.2799C32.939 16.2929 32.957 16.2994 32.9795 16.2994C33.0078 16.2994 33.0319 16.2864 33.0518 16.2604C33.0716 16.2343 33.0843 16.1803 33.0898 16.0983C33.0553 16.1383 33.0122 16.1583 32.9604 16.1583C32.9041 16.1583 32.8555 16.1367 32.8145 16.0934C32.7738 16.0498 32.7534 15.9931 32.7534 15.9235C32.7534 15.8509 32.7749 15.7924 32.8179 15.7482C32.8612 15.7036 32.9162 15.6813 32.9829 15.6813C33.0555 15.6813 33.1151 15.7094 33.1616 15.7657C33.2082 15.8217 33.2314 15.914 33.2314 16.0426C33.2314 16.1735 33.2072 16.2679 33.1587 16.3258C33.1102 16.3837 33.047 16.4127 32.9692 16.4127C32.9132 16.4127 32.868 16.3979 32.8335 16.3683C32.799 16.3383 32.7769 16.2937 32.7671 16.2345ZM33.0776 15.9347C33.0776 15.8904 33.0674 15.8561 33.0469 15.8317C33.0267 15.8073 33.0033 15.795 32.9766 15.795C32.9512 15.795 32.93 15.8051 32.9131 15.8253C32.8965 15.8452 32.8882 15.8779 32.8882 15.9235C32.8882 15.9697 32.8973 16.0037 32.9155 16.0255C32.9338 16.047 32.9565 16.0577 32.9839 16.0577C33.0103 16.0577 33.0324 16.0473 33.0503 16.0265C33.0685 16.0057 33.0776 15.9751 33.0776 15.9347Z" fill="white"/>
<path d="M30.2275 10.2726V10.4H29.7466C29.7518 10.3518 29.7674 10.3063 29.7935 10.2633C29.8195 10.22 29.8709 10.1627 29.9478 10.0914C30.0096 10.0338 30.0475 9.99475 30.0615 9.97424C30.0804 9.94592 30.0898 9.91793 30.0898 9.89026C30.0898 9.85966 30.0815 9.83622 30.0649 9.81995C30.0487 9.80334 30.026 9.79504 29.9971 9.79504C29.9684 9.79504 29.9456 9.80367 29.9287 9.82092C29.9118 9.83818 29.902 9.86682 29.8994 9.90686L29.7627 9.89319C29.7708 9.81767 29.7964 9.76347 29.8394 9.73059C29.8823 9.69771 29.936 9.68127 30.0005 9.68127C30.0711 9.68127 30.1266 9.70032 30.167 9.7384C30.2074 9.77649 30.2275 9.82385 30.2275 9.88049C30.2275 9.91272 30.2217 9.94348 30.21 9.97278C30.1986 10.0017 30.1803 10.0322 30.1553 10.0641C30.1387 10.0852 30.1087 10.1157 30.0654 10.1554C30.0221 10.1951 29.9946 10.2215 29.9829 10.2345C29.9715 10.2475 29.9622 10.2602 29.9551 10.2726H30.2275Z" fill="white"/>
<path d="M27.1152 10.4H26.978V9.88293C26.9279 9.92981 26.8688 9.96448 26.8008 9.98694V9.86243C26.8366 9.85071 26.8755 9.82857 26.9175 9.79602C26.9595 9.76314 26.9883 9.72489 27.0039 9.68127H27.1152V10.4Z" fill="white"/>
<path d="M32.7593 10.2101L32.8921 10.194C32.8963 10.2278 32.9077 10.2537 32.9263 10.2716C32.9448 10.2895 32.9673 10.2985 32.9937 10.2985C33.022 10.2985 33.0457 10.2877 33.0649 10.2662C33.0845 10.2448 33.0942 10.2158 33.0942 10.1793C33.0942 10.1448 33.085 10.1175 33.0664 10.0973C33.0479 10.0771 33.0252 10.067 32.9985 10.067C32.981 10.067 32.96 10.0704 32.9355 10.0773L32.9507 9.96545C32.9878 9.96643 33.0161 9.95846 33.0356 9.94153C33.0552 9.92428 33.0649 9.90149 33.0649 9.87317C33.0649 9.84908 33.0578 9.82987 33.0435 9.81555C33.0291 9.80123 33.0101 9.79407 32.9863 9.79407C32.9629 9.79407 32.9429 9.80221 32.9263 9.81848C32.9097 9.83476 32.8996 9.85852 32.896 9.88977L32.7695 9.86829C32.7783 9.82499 32.7915 9.79049 32.8091 9.76477C32.827 9.73873 32.8517 9.71838 32.8833 9.70374C32.9152 9.68876 32.9508 9.68127 32.9902 9.68127C33.0576 9.68127 33.1117 9.70276 33.1523 9.74573C33.1859 9.78088 33.2026 9.8206 33.2026 9.86487C33.2026 9.92769 33.1683 9.97782 33.0996 10.0153C33.1406 10.024 33.1733 10.0437 33.1978 10.0743C33.2225 10.1049 33.2349 10.1419 33.2349 10.1852C33.2349 10.248 33.2119 10.3016 33.166 10.3458C33.1201 10.3901 33.063 10.4122 32.9946 10.4122C32.9299 10.4122 32.8761 10.3937 32.8335 10.3566C32.7909 10.3191 32.7661 10.2703 32.7593 10.2101Z" fill="white"/>
</g>
<defs>
<filter id="filter0_d" x="0" y="0" width="48" height="32" filterUnits="userSpaceOnUse" color-interpolation-filters="sRGB">
<feFlood flood-opacity="0" result="BackgroundImageFix"/>
<feColorMatrix in="SourceAlpha" type="matrix" values="0 0 0 0 0 0 0 0 0 0 0 0 0 0 0 0 0 0 127 0"/>
<feOffset dy="2"/>
<feGaussianBlur stdDeviation="2"/>
<feColorMatrix type="matrix" values="0 0 0 0 0 0 0 0 0 0 0 0 0 0 0 0 0 0 0.25 0"/>
<feBlend mode="normal" in2="BackgroundImageFix" result="effect1_dropShadow"/>
<feBlend mode="normal" in="SourceGraphic" in2="effect1_dropShadow" result="shape"/>
</filter>
<filter id="filter1_d" x="22" y="6" width="16" height="19" filterUnits="userSpaceOnUse" color-interpolation-filters="sRGB">
<feFlood flood-opacity="0" result="BackgroundImageFix"/>
<feColorMatrix in="SourceAlpha" type="matrix" values="0 0 0 0 0 0 0 0 0 0 0 0 0 0 0 0 0 0 127 0"/>
<feOffset dy="1"/>
<feGaussianBlur stdDeviation="2"/>
<feColorMatrix type="matrix" values="0 0 0 0 1 0 0 0 0 1 0 0 0 0 1 0 0 0 0.25 0"/>
<feBlend mode="normal" in2="BackgroundImageFix" result="effect1_dropShadow"/>
<feBlend mode="normal" in="SourceGraphic" in2="effect1_dropShadow" result="shape"/>
</filter>
</defs>
</svg>
